<?xml version="1.0" standalone="no"?>
<!DOCTYPE svg PUBLIC "-//W3C//DTD SVG 20010904//EN"
 "http://www.w3.org/TR/2001/REC-SVG-20010904/DTD/svg10.dtd">
<svg version="1.0" xmlns="http://www.w3.org/2000/svg"
 width="880.000000pt" height="880.000000pt" viewBox="0 0 880.000000 880.000000"
 preserveAspectRatio="xMidYMid meet">
<metadata>
Created by potrace 1.11, written by Peter Selinger 2001-2013
</metadata>
<g transform="translate(0.000000,880.000000) scale(0.100000,-0.100000)"
fill="#000000" stroke="none">
<path d="M2873 7138 c-15 -3 -92 -29 -170 -56 -130 -46 -223 -72 -313 -87 -19
-3 -42 -8 -50 -10 -8 -2 -40 -7 -70 -11 -30 -4 -66 -8 -80 -10 -14 -2 -50 -6
-80 -9 -107 -11 -95 18 -98 -238 l-2 -227 170 0 170 0 0 -275 c0 -151 -3 -275
-6 -275 -4 0 -22 9 -40 21 -19 11 -34 18 -34 15 0 -4 -10 0 -22 8 -57 37 -231
91 -338 104 -121 14 -325 5 -386 -18 -16 -6 -31 -11 -34 -11 -43 4 -236 -89
-318 -153 -85 -66 -192 -175 -192 -195 0 -5 -4 -11 -8 -13 -42 -18 -192 -322
-216 -441 -3 -12 -8 -33 -11 -47 -8 -36 -16 -80 -22 -120 -9 -52 -8 -398 0
-449 12 -71 36 -171 58 -241 23 -72 108 -253 121 -258 4 -2 8 -8 8 -13 0 -18
112 -163 168 -217 58 -56 155 -132 170 -132 4 0 13 -5 19 -11 18 -18 141 -68
223 -90 87 -24 277 -34 360 -19 30 5 69 12 85 14 17 3 57 15 90 26 33 11 65
22 70 23 6 2 53 25 105 51 52 27 105 54 117 60 13 6 23 14 23 19 0 4 6 7 14 7
8 0 16 3 18 8 2 4 17 15 33 24 l31 17 -1 -107 c-1 -59 0 -112 2 -118 4 -11
113 -11 398 0 50 2 182 7 295 11 291 10 309 10 315 17 5 4 7 217 5 414 l0 32
-77 0 c-43 0 -80 1 -83 2 -3 1 -27 3 -55 4 -98 5 -125 34 -130 142 -2 38 -4
692 -4 1454 l-1 1385 -99 0 c-55 0 -113 -3 -128 -7z m-800 -1564 c31 -6 112
-41 132 -56 57 -42 89 -78 112 -126 l28 -57 3 -480 3 -480 -58 -35 c-32 -19
-69 -41 -83 -48 -13 -7 -40 -23 -60 -35 -19 -12 -37 -21 -40 -21 -3 1 -16 -3
-30 -8 -43 -16 -158 -21 -213 -8 -73 17 -145 63 -195 125 -69 86 -130 238
-148 370 -13 99 -8 323 9 405 20 94 25 111 60 190 88 202 281 308 480 264z"/>
<path d="M7215 7142 c-194 -21 -365 -180 -391 -364 -6 -43 -8 -106 -4 -120 3
-11 5 -19 14 -62 19 -96 101 -201 200 -256 71 -39 119 -52 195 -55 217 -6 388
129 438 345 11 49 5 166 -12 214 -40 116 -138 222 -245 266 -38 16 -44 17
-105 26 -22 3 -44 6 -50 7 -5 2 -23 1 -40 -1z"/>
<path d="M5988 6225 c-2 -3 -22 -7 -44 -11 -44 -7 -143 -53 -192 -90 -60 -47
-167 -160 -198 -212 -2 -4 -125 59 -134 68 -15 15 -140 63 -140 54 0 -4 -6 -2
-12 3 -12 10 -77 27 -143 38 -16 3 -41 7 -55 10 -42 10 -302 13 -365 5 -63 -8
-128 -18 -160 -24 -39 -8 -140 -39 -150 -46 -5 -4 -22 -10 -37 -14 -32 -7
-133 -65 -201 -114 -161 -116 -281 -292 -323 -473 -11 -47 -13 -264 -3 -309 6
-25 13 -55 15 -68 3 -12 15 -47 29 -77 13 -30 22 -55 19 -55 -3 0 7 -17 21
-37 14 -21 25 -41 25 -46 0 -20 119 -138 177 -175 24 -15 43 -29 43 -32 0 -3
-12 -13 -27 -22 -61 -36 -172 -123 -233 -183 -164 -161 -209 -338 -126 -495
10 -18 24 -40 32 -47 7 -7 21 -23 31 -36 34 -42 108 -94 180 -128 40 -19 73
-38 73 -44 -1 -5 -26 -21 -57 -35 -30 -14 -61 -29 -67 -35 -6 -5 -31 -21 -56
-34 -25 -14 -47 -27 -50 -30 -3 -4 -23 -19 -45 -36 -94 -69 -149 -156 -163
-260 -7 -53 -5 -75 13 -147 11 -49 116 -174 184 -221 44 -31 138 -79 145 -74
1 1 9 -3 17 -9 13 -11 168 -63 234 -80 17 -4 35 -8 40 -10 10 -2 24 -5 139
-25 186 -33 690 -41 856 -14 14 2 45 7 70 10 46 5 85 12 85 15 0 1 16 3 35 5
159 16 447 127 585 224 66 47 165 141 165 157 0 7 4 14 9 16 21 8 91 147 107
214 14 56 13 219 0 270 -20 72 -60 153 -96 195 -123 142 -250 214 -482 275 -5
1 -9 2 -10 4 -2 1 -12 3 -23 5 -11 2 -36 7 -55 10 -56 11 -127 22 -190 31 -19
2 -46 7 -60 9 -14 3 -52 8 -85 11 -33 4 -64 8 -70 9 -27 5 -84 15 -120 20 -37
6 -58 9 -140 19 -38 5 -124 17 -149 22 -10 2 -44 6 -75 10 -31 3 -65 8 -76 10
-11 2 -40 6 -65 9 -63 8 -139 26 -177 42 -76 31 -46 128 58 191 29 18 42 20
70 12 177 -48 472 -45 677 6 222 56 415 186 534 361 57 83 124 234 111 247 -4
3 -2 6 3 6 10 0 12 15 16 125 4 143 -15 228 -84 364 l-38 74 33 21 c28 18 50
20 172 21 158 2 189 11 262 77 24 21 40 38 38 38 -3 0 5 18 16 39 29 56 31
126 6 227 -3 13 -32 58 -55 85 -20 24 -91 67 -124 76 -28 7 -164 13 -170 8z
m-994 -595 c105 -40 184 -142 212 -275 7 -33 7 -167 0 -205 -21 -114 -122
-236 -221 -266 -104 -32 -203 -21 -291 33 -51 33 -109 111 -130 177 -22 68
-25 215 -6 291 8 33 18 62 21 65 4 3 13 20 20 38 19 46 102 117 163 140 72 27
162 28 232 2z m-364 -2085 c101 -11 132 -14 170 -20 19 -2 58 -7 85 -10 28 -3
84 -10 125 -15 41 -5 98 -12 125 -15 28 -3 79 -10 115 -15 36 -5 81 -12 100
-14 81 -10 214 -48 240 -69 59 -47 74 -115 40 -175 -32 -56 -102 -89 -258
-122 -352 -74 -845 -20 -970 108 -69 71 -64 163 15 247 38 41 134 116 142 111
3 -2 35 -7 71 -11z"/>
<path d="M7335 6067 c-89 -44 -240 -95 -330 -111 -16 -2 -64 -11 -105 -20
-100 -20 -239 -36 -332 -40 l-36 -1 1 -220 2 -220 159 -2 c88 -1 165 -4 171
-7 17 -6 17 -1191 1 -1221 -16 -28 -46 -55 -65 -56 -9 0 -25 -2 -36 -5 -11 -2
-68 -5 -126 -6 l-107 -2 2 -225 1 -225 713 -1 c393 0 718 3 723 6 5 3 8 98 7
225 l-3 219 -85 2 c-47 1 -85 2 -85 3 0 0 -27 2 -60 4 -52 4 -63 8 -87 35 -21
23 -28 43 -29 74 -1 23 -2 443 -3 932 l-1 890 -115 1 c-108 0 -119 -1 -175
-29z"/>
<path d="M746 3400 c-2 -3 -3 -57 -2 -120 l1 -115 1383 -1 1382 -2 1 27 c2 75
-1 204 -5 209 -7 6 -2757 9 -2760 2z"/>
<path d="M6465 3402 c-19 -3 -20 -8 -15 -120 l5 -117 818 -2 817 -1 1 61 c2
118 0 169 -5 175 -6 5 -1584 9 -1621 4z"/>
<path d="M1378 2333 c-34 -40 -26 -87 18 -103 36 -14 61 -4 79 31 19 36 19 39
-7 67 -26 26 -69 29 -90 5z"/>
<path d="M1990 2318 c-25 -41 -25 -40 5 -72 24 -26 54 -31 83 -12 23 14 33 55
21 79 -16 29 -28 37 -62 37 -20 0 -32 -8 -47 -32z"/>
<path d="M2830 2333 c0 -7 14 -19 30 -28 l30 -16 0 -223 c0 -196 -2 -225 -17
-237 -9 -8 -19 -13 -22 -11 -3 1 -6 -3 -6 -9 0 -10 27 -12 170 -10 26 1 33 4
29 16 -4 8 -12 15 -19 15 -24 0 -27 34 -29 275 l-1 240 -82 0 c-59 0 -83 -4
-83 -12z"/>
<path d="M4208 2342 c-26 -5 -22 -21 6 -32 14 -5 29 -17 33 -27 5 -10 9 -111
8 -226 -1 -207 -5 -232 -37 -232 -6 0 -13 -5 -15 -12 -4 -12 87 -21 165 -15
46 3 56 21 20 37 -23 10 -23 12 -25 230 -1 121 -2 235 -3 253 l0 33 -67 -3
c-38 -1 -76 -4 -85 -6z"/>
<path d="M4625 2342 c-9 -9 9 -32 25 -32 30 0 44 -29 46 -96 l2 -65 -36 6
c-62 11 -76 11 -102 1 -102 -40 -145 -174 -89 -281 13 -27 33 -53 44 -59 11
-6 22 -14 25 -17 3 -3 25 -6 50 -8 34 -2 53 3 72 18 31 24 42 27 35 7 -6 -14
18 -30 31 -22 4 2 30 5 57 7 28 1 58 6 68 11 20 10 14 30 -7 22 -7 -3 -19 3
-27 12 -11 14 -14 66 -14 258 l-1 241 -87 0 c-49 0 -90 -1 -92 -3z m53 -235
c13 -15 17 -41 18 -128 1 -106 0 -111 -22 -126 -31 -20 -69 -10 -90 23 -36 54
-18 217 27 245 20 12 48 6 67 -14z"/>
<path d="M6484 2342 c-41 -27 -38 -94 5 -112 27 -11 80 0 82 17 0 5 3 20 5 35
8 47 -53 86 -92 60z"/>
<path d="M3406 2300 c-93 -36 -147 -122 -152 -243 -7 -157 89 -267 234 -271
32 -1 62 0 67 3 6 3 15 6 20 8 6 1 21 4 35 7 14 3 41 13 61 22 34 15 36 18 36
67 1 93 1 94 33 106 35 12 40 31 8 32 -29 1 -187 1 -210 0 -23 -1 -12 -31 12
-31 38 0 50 -39 41 -141 -2 -33 -89 -47 -132 -22 -47 28 -71 94 -74 202 -3 99
12 168 44 205 39 45 103 53 149 19 25 -19 67 -87 74 -119 2 -10 10 -19 18 -19
12 0 15 17 16 88 0 90 -6 108 -31 87 -11 -9 -22 -9 -47 0 -57 21 -148 21 -202
0z"/>
<path d="M778 2298 c-10 -6 -10 -10 2 -18 8 -5 23 -10 33 -10 9 0 18 -3 19 -7
5 -25 7 -78 7 -148 0 -44 1 -89 1 -100 1 -11 1 -27 1 -35 0 -8 -1 -40 -1 -71
-1 -60 -12 -79 -49 -82 -12 -1 -21 -7 -21 -14 0 -13 30 -15 197 -14 90 1 126
7 182 32 111 49 159 169 122 305 -15 57 -70 117 -133 144 -46 20 -71 23 -200
25 -81 1 -153 -2 -160 -7z m290 -42 c31 -16 66 -74 77 -126 11 -49 7 -182 -5
-197 -2 -2 -3 -6 -4 -10 -9 -33 -33 -63 -62 -77 -43 -20 -73 -20 -99 0 -18 14
-20 27 -20 212 -1 108 1 200 3 205 6 12 82 8 110 -7z"/>
<path d="M5054 2301 c-7 -8 8 -22 40 -35 l32 -13 0 -199 c-1 -110 -5 -205 -9
-211 -5 -7 -19 -13 -32 -13 -13 0 -26 -4 -30 -9 -13 -22 22 -25 233 -21 26 0
31 30 5 30 -46 1 -48 9 -50 212 -1 106 1 201 3 210 3 9 17 18 32 20 15 2 28
10 30 19 2 14 -13 16 -123 15 -70 -1 -128 -3 -131 -5z"/>
<path d="M2229 2253 c-1 -5 -2 -28 -3 -53 -1 -43 -2 -45 -33 -48 -18 -2 -33
-6 -33 -10 1 -18 20 -34 34 -29 25 10 29 -10 31 -145 1 -115 3 -130 21 -149
27 -26 94 -35 144 -19 46 15 50 47 6 42 -54 -7 -64 16 -65 149 l-2 119 28 1
c16 1 35 1 44 0 19 -2 33 25 18 35 -6 3 -28 6 -50 6 l-39 -1 0 55 0 54 -50 0
c-27 0 -51 -3 -51 -7z"/>
<path d="M6196 2205 c2 -41 -1 -55 -9 -52 -22 8 -57 -11 -51 -28 4 -8 11 -15
18 -14 42 5 42 4 41 -120 -1 -147 11 -181 68 -195 33 -8 120 4 134 18 11 11
-11 32 -30 29 -12 -2 -31 2 -42 11 -18 13 -20 27 -21 135 -1 104 1 121 15 122
9 1 28 2 44 3 15 0 27 4 27 9 0 4 0 13 0 20 0 8 -13 11 -43 9 l-44 -4 1 54 1
53 -56 3 -56 3 3 -56z"/>
<path d="M6700 2206 l0 -56 -35 0 c-33 0 -35 -2 -25 -20 6 -11 21 -20 35 -20
23 0 23 -1 22 -107 -1 -145 6 -179 43 -198 51 -27 164 -10 158 23 -2 12 -11
16 -28 14 -53 -6 -62 14 -64 134 -1 60 0 116 2 124 2 11 16 15 47 14 36 -1 43
2 42 18 -1 14 -10 18 -44 18 -46 0 -44 -3 -47 70 -1 35 -1 35 -53 38 l-53 3 0
-55z"/>
<path d="M7419 2228 c-2 -72 -3 -73 -31 -73 -15 1 -30 -5 -32 -11 -7 -17 20
-38 39 -30 19 7 18 12 20 -114 2 -138 10 -174 40 -194 46 -30 165 -13 165 24
0 18 -15 21 -36 7 -7 -4 -22 1 -35 11 -21 18 -22 27 -24 140 -1 132 -4 124 55
124 23 0 39 13 40 31 0 4 -20 7 -45 7 -25 0 -46 5 -46 10 -1 6 -2 29 -3 53
l-1 42 -52 3 -53 3 -1 -33z"/>
<path d="M1707 2164 c-1 -2 -18 -6 -37 -9 -49 -8 -90 -52 -97 -102 -5 -35 -1
-45 24 -72 17 -17 35 -31 42 -31 18 0 12 -15 -11 -25 -49 -22 -49 -83 0 -109
15 -9 23 -16 17 -16 -63 -8 -93 -31 -90 -70 4 -51 41 -78 118 -86 9 -1 20 -3
25 -4 4 -1 10 -2 13 -2 102 11 134 18 161 36 54 35 69 109 32 159 -21 28 -75
44 -154 46 -64 2 -82 9 -78 33 3 17 12 20 58 23 64 3 98 15 123 43 23 25 32
83 18 111 -9 16 -9 21 1 22 7 1 22 2 33 3 22 1 34 36 13 36 -47 1 -157 9 -180
13 -15 2 -29 3 -31 1z m58 -54 c7 -12 10 -87 4 -110 -6 -24 -26 -40 -48 -40
-46 0 -58 162 -12 173 18 4 47 -8 56 -23z m56 -341 c20 -32 4 -75 -33 -88 -71
-25 -128 -1 -128 54 0 36 13 51 50 57 38 5 101 -8 111 -23z"/>
<path d="M2554 2154 c-65 -22 -94 -62 -73 -100 16 -30 82 -35 95 -6 11 25 11
35 2 54 -13 28 27 44 58 23 19 -12 24 -24 24 -58 0 -40 -2 -44 -37 -57 -21 -8
-40 -15 -43 -15 -29 -5 -81 -30 -95 -45 -40 -44 -32 -125 14 -150 35 -18 94
-12 134 15 28 20 37 22 37 11 0 -25 39 -39 93 -33 51 4 84 29 47 35 -37 6 -44
29 -43 139 1 57 -3 118 -9 133 -18 53 -125 81 -204 54z m106 -223 c0 -49 -4
-62 -21 -74 -43 -30 -80 9 -65 68 6 22 57 65 79 65 4 0 7 -27 7 -59z"/>
<path d="M3886 2141 c-145 -76 -118 -306 41 -346 30 -8 60 -9 85 -3 22 4 44 9
50 11 7 1 24 13 40 26 106 91 78 278 -47 321 -63 21 -116 18 -169 -9z m149
-54 c20 -49 15 -205 -9 -239 -27 -40 -68 -38 -94 5 -17 26 -20 49 -20 122 0
98 14 140 51 154 30 12 56 -4 72 -42z"/>
<path d="M5603 2160 c-35 -8 -62 -25 -78 -50 -7 -12 -10 -9 -15 15 -6 33 5 30
-127 26 -37 -1 -46 -26 -14 -36 27 -8 36 -48 30 -135 0 -8 0 -20 1 -25 1 -6 2
-34 1 -63 -1 -46 -4 -54 -26 -62 -14 -5 -25 -14 -25 -20 0 -11 -2 -11 85 -11
111 0 115 0 115 15 0 7 -9 16 -20 19 -15 4 -20 14 -21 44 -1 43 -1 174 0 186
2 14 63 45 81 40 29 -8 38 -49 35 -158 -3 -122 0 -111 -27 -119 -17 -4 -20 -8
-12 -16 10 -10 99 -15 177 -11 20 1 23 31 3 31 -25 0 -30 21 -31 136 -1 66 -7
124 -14 142 -8 18 -15 32 -16 32 -1 0 -18 6 -36 13 -21 9 -46 11 -66 7z"/>
<path d="M5954 2158 c-3 -4 -10 -6 -15 -2 -19 12 -75 -17 -94 -49 -11 -17 -19
-38 -19 -44 1 -7 2 -24 3 -37 2 -36 39 -71 98 -92 80 -28 98 -45 86 -80 -9
-27 -14 -29 -56 -28 -52 0 -77 17 -102 70 -25 53 -40 38 -37 -36 1 -35 4 -65
6 -67 2 -2 11 3 19 12 9 8 18 11 21 6 14 -23 148 -30 173 -9 7 6 13 7 13 3 0
-4 14 6 30 23 36 38 43 90 19 138 -11 22 -80 64 -105 64 -17 0 -56 21 -66 35
-9 12 1 47 16 57 34 23 86 -1 119 -54 26 -42 35 -34 33 30 -1 55 -13 82 -27
60 -5 -8 -22 -8 -58 -1 -29 6 -54 6 -57 1z"/>
<path d="M7796 2163 c-2 -3 -10 -6 -18 -7 -107 -22 -165 -171 -107 -277 47
-85 151 -114 245 -68 47 22 82 65 66 81 -6 6 -22 -2 -43 -22 -30 -27 -39 -31
-77 -26 -23 3 -47 8 -53 12 -17 10 -46 81 -44 106 2 24 7 25 172 27 47 1 51 3
49 24 -12 102 -56 144 -158 152 -16 1 -30 0 -32 -2z m65 -69 c15 -67 13 -72
-37 -76 -35 -2 -48 1 -55 13 -4 9 -6 18 -4 20 2 3 6 17 9 33 11 59 75 67 87
10z"/>
<path d="M1363 2152 c-49 -4 -57 -22 -18 -40 14 -6 25 -15 26 -19 6 -43 4
-232 -3 -245 -4 -9 -17 -20 -29 -23 -41 -13 -2 -25 91 -27 82 -1 95 1 98 15 2
10 -3 17 -12 17 -27 0 -31 23 -32 175 l-1 150 -39 0 c-21 0 -58 -1 -81 -3z"/>
<path d="M1983 2152 c-48 -4 -60 -27 -19 -38 31 -7 32 -15 32 -154 -1 -109 -2
-115 -23 -125 -13 -5 -23 -15 -23 -22 0 -13 13 -15 129 -14 71 0 100 14 59 30
-33 12 -34 21 -33 184 0 75 -2 138 -5 138 -13 3 -79 4 -117 1z"/>
<path d="M6457 2152 c-53 -3 -58 -18 -14 -40 27 -13 29 -19 29 -87 0 -183 -1
-185 -27 -195 -31 -12 -33 -30 -2 -31 190 -4 187 -5 187 14 0 10 -4 16 -9 12
-14 -8 -41 23 -42 48 0 12 -1 81 -2 152 l-2 130 -35 0 c-19 0 -57 -1 -83 -3z"/>
<path d="M6958 2152 c-34 -2 -48 -7 -48 -18 0 -7 6 -14 14 -14 30 0 39 -30 41
-143 1 -113 11 -152 44 -172 16 -9 19 -10 56 -16 27 -4 64 9 95 33 l25 20 5
-24 c5 -20 11 -22 45 -19 22 2 54 5 70 6 17 2 33 3 38 4 4 0 7 8 7 17 0 8 -4
13 -9 10 -4 -3 -16 1 -26 8 -16 11 -18 31 -19 162 l-1 149 -37 -1 c-21 -1 -58
-2 -83 -3 -49 -1 -59 -16 -21 -30 31 -13 34 -22 35 -138 1 -89 -1 -102 -19
-118 -27 -24 -52 -28 -76 -11 -17 13 -19 29 -21 138 -1 68 -2 132 -2 143 -1
22 -11 24 -113 17z"/>
</g>
</svg>
