<?xml version="1.0" standalone="no"?>
<!DOCTYPE svg PUBLIC "-//W3C//DTD SVG 20010904//EN"
 "http://www.w3.org/TR/2001/REC-SVG-20010904/DTD/svg10.dtd">
<svg version="1.0" xmlns="http://www.w3.org/2000/svg"
 width="700.000000pt" height="700.000000pt" viewBox="0 0 700.000000 700.000000"
 preserveAspectRatio="xMidYMid meet">
<metadata>
Created by potrace 1.11, written by Peter Selinger 2001-2013
</metadata>
<g transform="translate(0.000000,700.000000) scale(0.100000,-0.100000)"
fill="#000000" stroke="none">
<path d="M530 3500 l0 -2970 2970 0 2970 0 0 2970 0 2970 -2970 0 -2970 0 0
-2970z m5870 0 l0 -2900 -2900 0 -2900 0 0 2900 0 2900 2900 0 2900 0 0 -2900z"/>
<path d="M2230 5445 c-69 -24 -161 -51 -205 -60 -67 -14 -281 -45 -307 -45 -4
0 -8 -76 -8 -170 l0 -170 130 0 130 0 0 -205 0 -205 -37 16 c-195 86 -248 99
-403 99 -139 0 -211 -15 -318 -65 -228 -106 -399 -356 -452 -659 -18 -101 -13
-311 9 -416 71 -341 292 -594 576 -661 52 -12 100 -15 185 -11 166 6 259 40
463 165 l37 24 0 -92 0 -92 78 6 c42 3 176 8 297 11 121 3 257 8 303 11 l82 6
-2 167 -3 166 -107 5 c-85 4 -111 9 -125 23 -17 17 -18 79 -23 1105 l-5 1087
-85 2 c-77 1 -97 -3 -210 -42z m-427 -1140 c62 -26 118 -75 140 -123 20 -45
22 -65 25 -399 l4 -352 -43 -26 c-23 -15 -74 -43 -113 -61 -60 -29 -81 -34
-141 -33 -85 1 -121 13 -178 61 -53 44 -111 156 -132 254 -19 90 -19 283 0
374 36 169 125 281 255 317 50 14 134 9 183 -12z"/>
<path d="M5559 5480 c-171 -29 -292 -203 -259 -374 13 -70 61 -151 114 -191
159 -121 395 -66 483 113 37 77 40 191 5 267 -44 96 -133 165 -236 184 -33 6
-60 10 -60 10 -1 -1 -22 -5 -47 -9z"/>
<path d="M4646 4799 c-75 -18 -156 -70 -228 -149 l-71 -76 -84 42 c-257 129
-658 122 -889 -17 -77 -47 -175 -138 -220 -206 -148 -223 -115 -541 74 -713
36 -33 69 -60 73 -60 23 0 3 -20 -59 -63 -93 -63 -187 -163 -218 -232 -69
-149 2 -306 174 -390 34 -16 62 -33 62 -36 0 -3 -17 -13 -37 -23 -72 -34 -200
-124 -225 -157 -70 -93 -84 -176 -46 -261 106 -231 535 -357 1088 -318 250 17
400 52 565 129 154 73 251 166 304 290 90 212 -4 445 -221 548 -138 66 -174
74 -718 152 -217 32 -408 64 -425 72 -22 10 -31 22 -32 44 -3 33 6 47 54 86
31 26 32 26 105 13 89 -16 299 -18 388 -3 233 37 428 173 519 361 75 154 75
297 1 455 -16 36 -30 69 -30 74 0 20 51 32 150 34 91 1 112 5 148 25 117 66
137 231 37 326 -60 58 -140 76 -239 53z m-689 -451 c88 -41 135 -134 136 -269
1 -77 -2 -93 -28 -145 -19 -35 -47 -71 -72 -90 -103 -79 -260 -60 -336 39 -72
94 -78 262 -13 369 68 114 193 152 313 96z m-92 -1563 c419 -50 517 -74 544
-132 61 -133 -138 -212 -506 -200 -293 9 -443 71 -443 182 0 40 24 77 85 134
42 37 62 50 78 46 12 -2 121 -16 242 -30z"/>
<path d="M5660 4679 c-111 -53 -420 -119 -551 -119 l-29 0 0 -165 0 -165 131
0 130 0 -3 -454 -3 -454 -24 -26 c-23 -25 -30 -26 -128 -26 l-103 0 0 -170 0
-170 540 0 540 0 -2 168 -3 167 -107 5 c-95 4 -110 8 -130 28 l-23 23 -3 694
-3 695 -82 0 c-70 -1 -92 -5 -147 -31z"/>
<path d="M770 2610 l0 -90 1030 0 1030 0 0 90 0 90 -1030 0 -1030 0 0 -90z"/>
<path d="M5020 2610 l0 -90 610 0 610 0 0 90 0 90 -610 0 -610 0 0 -90z"/>
<path d="M1203 1909 c-31 -11 -40 -54 -18 -79 10 -11 26 -20 35 -20 28 0 53
36 46 64 -8 32 -34 46 -63 35z"/>
<path d="M1667 1913 c-28 -7 -41 -51 -22 -79 19 -29 46 -31 69 -5 33 36 0 95
-47 84z"/>
<path d="M5033 1909 c-31 -11 -40 -54 -18 -79 24 -27 51 -25 71 5 28 43 -6 92
-53 74z"/>
<path d="M2323 1898 c-25 -8 -33 -17 -33 -34 0 -14 6 -24 14 -24 21 0 26 -23
26 -128 0 -110 -6 -142 -26 -142 -8 0 -14 -6 -14 -12 0 -7 -5 -5 -11 5 -5 9
-17 17 -24 17 -12 0 -15 17 -15 79 0 95 -17 125 -79 135 -77 12 -154 -38 -135
-87 13 -34 59 -30 70 6 9 29 24 38 46 26 32 -17 22 -46 -19 -54 -54 -10 -91
-34 -102 -67 -12 -35 0 -72 28 -87 27 -15 84 -14 99 1 10 10 17 10 32 0 24
-15 65 -16 91 -2 13 7 19 7 19 0 0 -6 30 -10 75 -10 72 0 75 1 75 24 0 13 -7
26 -15 30 -12 4 -15 33 -15 171 l0 165 -27 -1 c-16 -1 -43 -6 -60 -11z m-167
-304 c-4 -9 -15 -14 -28 -12 -31 4 -30 39 2 55 22 11 25 10 28 -8 2 -11 1 -27
-2 -35z"/>
<path d="M3343 1898 c-25 -8 -33 -17 -33 -34 0 -14 6 -24 14 -24 21 0 26 -23
26 -128 0 -110 -6 -142 -26 -142 -8 0 -14 -10 -14 -25 0 -24 2 -25 75 -25 72
0 75 1 75 24 0 13 -7 26 -15 30 -12 4 -15 33 -15 171 l0 165 -27 -1 c-16 -1
-43 -6 -60 -11z"/>
<path d="M3658 1898 c-43 -11 -52 -40 -18 -58 11 -6 20 -20 20 -30 0 -18 -5
-20 -37 -15 -47 7 -80 -9 -110 -54 -41 -61 -26 -167 29 -205 26 -18 80 -21
109 -6 13 7 19 7 19 0 0 -6 24 -10 55 -10 51 0 55 2 55 24 0 15 -7 26 -20 29
-19 5 -20 14 -20 171 0 187 5 177 -82 154z m-14 -164 c12 -5 16 -21 16 -74 0
-71 -6 -80 -50 -80 -40 0 -50 109 -13 145 16 17 24 18 47 9z"/>
<path d="M2764 1890 c-77 -18 -124 -88 -124 -186 0 -74 31 -140 77 -167 38
-22 101 -24 145 -6 24 10 33 10 36 1 2 -7 17 -12 33 -12 l29 0 0 65 c0 54 3
66 20 75 11 6 20 20 20 30 0 18 -7 20 -80 20 -78 0 -80 -1 -80 -24 0 -15 7
-26 20 -29 45 -12 6 -87 -45 -87 -75 0 -109 149 -54 239 13 22 26 31 45 31 35
0 78 -27 98 -61 14 -24 21 -27 36 -19 17 9 17 13 3 69 l-15 59 -46 -1 c-26 0
-56 2 -67 5 -11 3 -34 2 -51 -2z"/>
<path d="M760 1869 c0 -12 8 -23 19 -26 25 -7 31 -30 31 -141 0 -96 -10 -132
-35 -132 -9 0 -15 -10 -15 -26 l0 -26 123 3 c145 5 179 19 215 89 48 95 17
214 -68 258 -38 19 -60 22 -157 22 -108 0 -113 -1 -113 -21z m204 -39 c35 -13
57 -62 57 -127 0 -81 -50 -143 -106 -129 -25 6 -25 7 -25 124 0 142 9 157 74
132z"/>
<path d="M3960 1870 c0 -13 10 -24 25 -30 25 -9 25 -11 25 -124 0 -128 -4
-146 -31 -146 -14 0 -19 -7 -19 -25 0 -25 1 -25 90 -25 88 0 90 0 90 24 0 15
-7 26 -20 29 -19 5 -20 14 -20 132 0 118 1 127 20 132 13 3 20 14 20 29 0 24
-2 24 -90 24 -84 0 -90 -1 -90 -20z"/>
<path d="M1850 1859 c0 -12 -16 -37 -36 -56 -36 -33 -40 -63 -9 -63 12 0 15
-16 15 -88 0 -107 13 -132 68 -132 33 0 102 31 102 46 0 3 -5 14 -10 25 -10
18 -12 18 -36 2 -36 -23 -45 -5 -42 82 l3 70 33 3 c24 2 32 8 32 23 0 15 -7
19 -35 19 -35 0 -35 0 -35 45 0 41 -2 45 -25 45 -19 0 -25 -5 -25 -21z"/>
<path d="M4811 1844 c-7 -19 -23 -40 -37 -46 -31 -14 -34 -58 -4 -58 19 0 20
-7 20 -93 0 -78 3 -97 18 -110 28 -26 85 -21 122 9 29 25 30 27 14 45 -16 18
-19 18 -35 3 -29 -26 -39 -8 -39 77 l0 79 35 0 c28 0 35 4 35 20 0 16 -7 20
-35 20 -35 0 -35 0 -35 45 0 40 -2 45 -23 45 -17 0 -26 -9 -36 -36z"/>
<path d="M5220 1861 c0 -24 -37 -71 -56 -71 -8 0 -14 -10 -14 -25 0 -18 5 -25
20 -25 18 0 20 -7 20 -88 0 -107 13 -132 68 -132 35 0 102 31 102 47 0 5 -6
16 -14 25 -11 16 -15 16 -34 2 -12 -8 -27 -12 -32 -9 -6 3 -10 42 -10 86 l0
79 35 0 c28 0 35 4 35 20 0 16 -7 20 -35 20 -35 0 -35 0 -35 45 0 41 -2 45
-25 45 -18 0 -25 -5 -25 -19z"/>
<path d="M5770 1861 c0 -24 -37 -71 -56 -71 -22 0 -17 -41 6 -47 18 -5 20 -14
20 -92 0 -106 13 -131 68 -131 35 0 102 31 102 47 0 5 -6 16 -14 25 -11 16
-15 16 -34 2 -12 -8 -27 -12 -32 -9 -6 3 -10 42 -10 86 l0 79 35 0 c28 0 35 4
35 20 0 16 -7 20 -35 20 -35 0 -35 0 -35 45 0 41 -2 45 -25 45 -18 0 -25 -5
-25 -19z"/>
<path d="M1514 1819 c-15 -15 -36 -22 -69 -23 -40 -2 -52 -7 -76 -34 -32 -36
-38 -84 -15 -118 13 -18 13 -22 -5 -37 -20 -18 -26 -71 -8 -82 7 -5 5 -13 -6
-25 -10 -11 -15 -30 -13 -47 9 -80 221 -85 257 -6 32 69 2 104 -101 118 -45 6
-73 15 -76 24 -3 10 2 12 24 8 43 -8 81 2 108 29 34 35 39 72 15 118 -20 39
-20 39 0 33 11 -3 28 1 38 8 14 11 16 18 7 32 -16 26 -55 27 -80 2z m-39 -124
c0 -41 -3 -50 -19 -53 -23 -5 -36 14 -36 54 0 34 17 56 40 52 11 -2 15 -16 15
-53z m18 -221 c19 -6 22 -20 6 -29 -18 -12 -98 -9 -113 4 -8 7 -12 19 -9 28 5
12 16 13 52 8 25 -3 54 -8 64 -11z"/>
<path d="M3095 1786 c-49 -22 -68 -51 -73 -113 -9 -103 47 -160 147 -151 57 6
87 26 107 75 52 122 -63 241 -181 189z m85 -61 c17 -21 23 -86 11 -118 -25
-66 -81 -35 -81 45 0 27 5 58 10 69 13 23 43 25 60 4z"/>
<path d="M4308 1786 c-21 -8 -38 -10 -38 -5 0 10 -34 12 -79 3 -24 -5 -31 -12
-31 -30 0 -14 6 -24 14 -24 16 0 26 -30 26 -80 0 -50 -10 -80 -26 -80 -8 0
-14 -10 -14 -25 0 -24 2 -25 75 -25 72 0 75 1 75 24 0 13 -7 26 -15 30 -11 4
-15 22 -15 76 0 67 1 71 26 80 14 6 30 8 35 4 16 -9 11 -150 -6 -164 -8 -7
-15 -21 -15 -31 0 -17 8 -19 75 -19 72 0 75 1 75 24 0 13 -6 26 -14 29 -9 4
-15 31 -18 93 -4 80 -7 89 -32 111 -31 26 -46 28 -98 9z"/>
<path d="M4560 1789 c-59 -24 -79 -97 -37 -137 12 -12 46 -26 75 -32 54 -12
69 -33 31 -43 -26 -7 -60 5 -78 27 -31 37 -56 14 -46 -43 l6 -38 75 -1 c68 -2
77 1 105 26 24 21 31 36 32 66 1 46 -26 73 -84 82 -21 4 -46 12 -56 19 -15 11
-15 13 6 25 20 10 28 9 52 -9 15 -12 38 -21 50 -21 19 0 21 4 15 31 -3 17 -6
36 -6 40 0 5 -12 9 -27 9 -16 0 -41 2 -58 4 -16 3 -41 1 -55 -5z"/>
<path d="M6003 1780 c-46 -28 -67 -65 -67 -119 0 -82 54 -141 129 -141 45 0
87 21 109 54 15 24 15 26 -5 37 -17 9 -25 7 -43 -10 -43 -41 -96 -19 -96 38 0
19 6 21 75 21 l75 0 0 28 c0 42 -22 75 -60 94 -45 23 -77 23 -117 -2z m71 -36
c9 -3 16 -15 16 -25 0 -14 -7 -19 -30 -19 -31 0 -39 17 -18 38 14 14 12 14 32
6z"/>
<path d="M1173 1783 c-27 -5 -32 -47 -8 -57 11 -4 15 -22 15 -76 0 -54 -4 -72
-15 -76 -8 -4 -15 -17 -15 -30 0 -23 3 -24 75 -24 72 0 75 1 75 24 0 13 -7 26
-15 30 -12 4 -15 26 -15 111 l0 105 -37 -1 c-21 -1 -48 -4 -60 -6z"/>
<path d="M1633 1783 c-27 -5 -34 -53 -8 -53 12 0 15 -15 15 -75 0 -58 -4 -77
-15 -81 -8 -4 -15 -17 -15 -30 0 -23 3 -24 75 -24 72 0 75 1 75 24 0 13 -7 26
-15 30 -12 4 -15 26 -15 111 l0 105 -37 -1 c-21 -1 -48 -4 -60 -6z"/>
<path d="M5003 1783 c-27 -5 -32 -47 -8 -57 11 -4 15 -22 15 -76 0 -54 -4 -72
-15 -76 -8 -4 -15 -17 -15 -30 0 -23 3 -24 75 -24 70 0 75 1 75 21 0 12 -8 28
-17 35 -15 10 -19 31 -21 113 l-4 101 -31 -1 c-18 -1 -42 -4 -54 -6z"/>
<path d="M5403 1783 c-26 -5 -33 -47 -10 -56 9 -3 16 -33 20 -88 8 -100 23
-122 85 -121 23 0 50 6 61 12 14 7 21 7 21 0 0 -6 24 -10 55 -10 52 0 55 1 55
25 0 15 -6 25 -14 25 -19 0 -26 32 -26 133 0 85 -1 87 -24 87 -57 0 -86 -12
-86 -35 0 -13 7 -25 15 -29 11 -4 15 -22 15 -70 0 -67 -6 -76 -51 -76 -18 0
-19 8 -19 105 l0 105 -37 -1 c-21 -1 -48 -4 -60 -6z"/>
</g>
</svg>
