<?xml version="1.0" standalone="no"?>
<!DOCTYPE svg PUBLIC "-//W3C//DTD SVG 20010904//EN"
 "http://www.w3.org/TR/2001/REC-SVG-20010904/DTD/svg10.dtd">
<svg version="1.0" xmlns="http://www.w3.org/2000/svg"
 width="700.000000pt" height="700.000000pt" viewBox="0 0 700.000000 700.000000"
 preserveAspectRatio="xMidYMid meet">
<metadata>
Created by potrace 1.11, written by Peter Selinger 2001-2013
</metadata>
<g transform="translate(0.000000,700.000000) scale(0.100000,-0.100000)"
fill="#000000" stroke="none">
<path d="M162 6840 c-9 -7 -8 -6668 1 -6677 4 -4 1508 -7 3342 -7 2956 -1
3334 1 3337 14 2 8 3 1513 3 3344 l-1 3330 -3338 0 c-1836 1 -3341 -1 -3344
-4z m6603 -72 c15 -9 12 -6528 -2 -6536 -8 -5 -6473 -8 -6528 -3 -15 1 -13
6530 2 6539 14 9 6515 8 6528 0z"/>
<path d="M5130 3510 l0 -440 54 0 c34 0 55 5 58 13 4 10 3 838 -1 860 0 4 -26
7 -56 7 l-55 0 0 -440z"/>
<path d="M5573 3505 c0 -314 3 -445 11 -446 6 0 93 -1 194 -2 l182 -1 0 -183
c0 -167 -1 -183 -17 -184 -10 0 -97 -1 -193 -2 l-175 -2 -1 -435 c-1 -239 2
-440 7 -445 5 -7 77 -10 194 -10 l185 1 -2 -184 -3 -184 -190 -1 -190 -2 0
-445 0 -445 435 -1 c239 0 440 1 445 3 6 2 10 155 9 436 -1 237 -2 437 -3 444
-1 9 -50 12 -187 12 -102 0 -188 2 -192 5 -10 11 -8 347 3 355 6 4 92 7 192 7
115 -1 183 3 184 9 3 29 4 862 1 872 -3 8 -54 11 -190 11 -163 -1 -186 1 -191
15 -8 22 -5 332 3 345 4 6 66 9 168 8 90 -1 174 0 188 2 l25 4 -1 436 c-1 240
-2 440 -3 445 0 4 -201 7 -444 7 l-444 0 0 -445z"/>
<path d="M2627 3892 c-3 -4 -5 -30 -6 -59 l-1 -51 51 -4 c28 -1 54 -1 58 2 12
10 11 110 -2 111 -7 1 -31 3 -54 5 -23 2 -44 0 -46 -4z"/>
<path d="M3649 3891 c-1 -3 -2 -28 -3 -56 -1 -50 -1 -50 34 -55 19 -3 45 -4
58 -1 20 3 22 8 19 59 l-2 56 -53 2 c-28 0 -53 -2 -53 -5z"/>
<path d="M1779 3850 c-1 -49 -1 -730 0 -758 l1 -24 233 4 c209 4 237 6 287 26
30 12 68 34 84 48 53 50 59 80 61 304 1 237 -5 282 -44 330 -66 82 -150 102
-428 104 l-193 1 -1 -35z m467 -74 c73 -30 79 -50 81 -292 3 -248 -2 -264 -80
-303 -42 -21 -64 -24 -197 -27 l-150 -4 0 326 0 326 153 -4 c110 -4 163 -10
193 -22z"/>
<path d="M4006 3861 c-2 -3 -3 -45 -2 -94 1 -97 8 -90 -81 -89 l-53 1 0 -39 0
-39 49 3 c88 4 83 18 85 -225 2 -175 5 -220 19 -245 18 -34 48 -57 89 -67 31
-8 153 -10 183 -3 11 2 25 5 31 5 5 1 10 16 10 34 l-1 32 -66 -3 c-43 -2 -79
2 -102 12 -46 19 -49 35 -51 272 l-1 184 25 1 c14 0 63 1 110 2 l84 2 1 37 0
36 -98 -1 c-55 -1 -103 1 -109 4 -5 3 -10 46 -11 95 l-2 89 -53 1 c-29 0 -55
-2 -56 -5z"/>
<path d="M3053 3680 c-55 -12 -97 -44 -120 -90 -21 -41 -23 -57 -23 -222 0
-202 10 -244 64 -277 77 -46 288 -44 340 4 l24 22 -2 -86 c-3 -96 -15 -124
-61 -143 -30 -13 -169 -17 -270 -8 l-50 5 -3 -37 c-3 -35 -2 -37 33 -44 56
-10 222 -11 284 -2 77 12 134 48 159 99 20 39 21 60 22 409 l1 368 -53 -2
c-51 -1 -53 -2 -52 -28 l1 -28 -24 24 c-13 13 -41 28 -63 34 -45 11 -160 12
-207 2z m218 -80 c62 -17 64 -24 65 -217 1 -188 -4 -209 -50 -232 -34 -16
-128 -22 -188 -11 -73 14 -77 25 -77 229 0 190 5 212 53 231 29 12 154 12 197
0z"/>
<path d="M4507 3682 c-38 -3 -38 -3 -35 -45 l3 -42 40 5 c22 3 91 5 152 5 140
0 151 -8 156 -104 3 -40 0 -64 -7 -66 -6 -2 -72 -5 -147 -8 -112 -3 -143 -7
-175 -24 -52 -27 -73 -82 -68 -177 4 -80 29 -127 75 -146 78 -33 248 -26 300
11 l29 20 0 -20 c0 -19 6 -21 54 -21 l54 0 -2 258 c-2 270 -4 285 -49 325 -11
9 -23 17 -26 18 -3 0 -15 3 -26 6 -23 6 -271 10 -328 5z m318 -402 c1 -113 -6
-127 -70 -140 -81 -17 -163 -11 -192 14 -19 17 -25 33 -27 76 -4 71 9 107 42
118 15 5 76 8 137 8 l109 -1 1 -75z"/>
<path d="M2622 3374 l0 -305 57 3 56 3 0 301 1 300 -57 2 -56 1 -1 -305z"/>
<path d="M3649 3676 c-1 -1 -2 -137 -3 -303 l-1 -303 56 0 57 0 0 288 c0 158
-2 294 -4 303 -4 13 -16 17 -54 16 -28 0 -51 -1 -51 -1z"/>
<path d="M4412 2676 c-6 -8 -9 -795 -3 -853 1 -9 19 -13 56 -13 l54 0 0 440
-1 440 -49 -1 c-27 -1 -53 -7 -57 -13z"/>
<path d="M5135 2679 c-3 -5 -5 -73 -5 -151 1 -174 2 -166 -9 -149 -18 29 -112
50 -206 47 -106 -3 -165 -24 -198 -70 -21 -29 -22 -42 -24 -221 -3 -211 4
-252 49 -290 74 -62 279 -62 374 0 20 13 21 12 18 -11 -2 -24 -1 -25 54 -22
l57 3 1 425 c0 234 -2 430 -4 437 -4 14 -99 16 -107 2z m-76 -341 c68 -18 71
-29 71 -227 0 -163 -2 -179 -20 -198 -44 -48 -238 -49 -285 -3 -18 19 -20 34
-21 192 -1 95 2 184 6 198 4 17 17 29 41 36 41 14 158 15 208 2z"/>
<path d="M3110 2629 c-144 -25 -239 -82 -260 -157 -13 -48 -13 -466 0 -514 19
-67 102 -128 194 -142 21 -4 42 -9 47 -11 19 -12 252 -5 315 10 12 2 39 7 60
11 21 3 41 7 44 9 3 2 5 99 4 217 l0 213 -152 3 -152 3 0 -41 c0 -25 5 -40 13
-41 6 -1 48 -2 92 -3 l80 -1 3 -142 c1 -79 -1 -143 -5 -144 -5 0 -17 -3 -28
-5 -50 -13 -214 -12 -267 0 -130 30 -138 49 -138 328 0 247 5 263 88 301 40
19 65 22 167 22 108 -1 183 -6 256 -20 24 -4 25 -3 24 40 0 24 -3 46 -5 49
-16 15 -310 26 -380 15z"/>
<path d="M3802 2416 c-111 -28 -133 -83 -131 -322 1 -217 18 -254 128 -284 52
-14 241 -15 299 -2 107 25 126 60 130 256 6 240 -10 300 -91 339 -49 25 -258
33 -335 13z m262 -76 c39 -15 48 -51 48 -210 0 -200 1 -196 -25 -226 -22 -25
-30 -28 -112 -31 -104 -3 -158 10 -176 44 -15 28 -20 294 -6 358 10 50 25 65
68 72 19 2 35 6 36 7 7 6 144 -5 167 -14z"/>
<path d="M2710 1315 l0 -60 51 2 c29 1 54 4 56 7 4 4 6 50 4 92 -1 18 -8 20
-56 20 l-55 0 0 -61z"/>
<path d="M559 1355 c-1 -5 -2 -189 -3 -408 l-1 -397 62 0 61 0 1 405 c0 377
-1 405 -17 406 -64 5 -102 3 -103 -6z"/>
<path d="M2262 1336 c-5 -6 -8 -48 -8 -93 2 -92 4 -90 -81 -88 l-53 1 0 -39
c0 -24 4 -37 13 -36 6 1 37 1 67 0 l55 -1 1 -198 c0 -108 3 -214 7 -234 10
-48 56 -94 104 -103 47 -8 170 -6 213 4 3 0 6 17 6 36 l0 34 -62 -5 c-78 -7
-132 9 -145 43 -5 13 -9 114 -9 224 l0 199 38 1 c20 0 69 1 107 2 l70 2 0 35
0 35 -105 0 -105 0 -3 93 c-1 50 -6 92 -10 93 -43 7 -93 4 -100 -5z"/>
<path d="M3068 1251 l-3 -95 -55 -2 c-84 -2 -82 -1 -78 -36 3 -35 2 -35 96
-37 l42 -1 0 -212 c0 -193 2 -215 20 -254 33 -67 86 -81 283 -71 24 1 27 5 27
37 l0 37 -85 -1 c-75 -1 -87 2 -107 22 -22 22 -23 28 -25 232 -1 209 -1 210
20 211 12 0 62 0 110 0 l88 -1 -3 37 -3 38 -95 1 c-52 1 -100 2 -106 3 -7 1
-11 31 -12 87 0 47 -3 88 -6 92 -4 3 -29 7 -56 8 l-49 1 -3 -96z"/>
<path d="M4295 1341 c-3 -2 -5 -44 -5 -93 0 -63 -4 -88 -12 -89 -7 -1 -38 -2
-68 -3 l-54 -1 -1 -36 -1 -35 64 -2 c36 -1 66 -3 68 -5 2 -1 4 -94 4 -206 2
-250 12 -285 88 -318 31 -13 164 -19 217 -10 20 4 38 47 26 64 -3 5 -43 9 -88
9 -72 -1 -85 2 -104 21 -22 21 -23 30 -24 228 0 114 2 208 6 211 4 2 53 4 109
5 l101 1 -3 36 -3 37 -95 0 c-52 0 -100 4 -106 7 -6 4 -10 41 -9 92 1 47 -1
87 -4 87 -21 4 -102 4 -106 0z"/>
<path d="M1081 1154 c-24 -8 -52 -20 -61 -29 -23 -21 -29 -19 -26 9 3 22 0 24
-53 22 l-56 -1 -2 -302 -1 -303 57 0 56 0 0 223 c-1 122 2 233 5 246 12 49 52
66 152 65 86 0 92 -1 114 -28 24 -27 24 -29 24 -267 l0 -239 58 0 58 0 -2 248
c0 166 -5 256 -13 276 -13 33 -45 63 -81 78 -37 16 -179 17 -229 2z"/>
<path d="M1738 1164 c-2 -2 -19 -6 -38 -9 -46 -8 -88 -33 -113 -68 -30 -39
-30 -155 0 -195 38 -51 74 -64 200 -71 105 -7 118 -10 135 -31 27 -33 22 -116
-8 -147 -23 -23 -33 -25 -129 -26 -50 -1 -156 10 -186 19 -14 4 -18 -4 -21
-41 -3 -42 -2 -45 22 -46 14 0 34 -2 45 -5 11 -2 68 -5 126 -5 164 -2 247 32
269 110 13 49 13 147 -2 174 -32 61 -77 78 -220 82 -97 3 -137 20 -139 58 -6
108 17 128 153 129 35 0 91 -3 126 -7 l62 -7 0 41 c0 40 -1 41 -37 42 -120 4
-243 6 -245 3z"/>
<path d="M4881 1159 c-24 -5 -62 -20 -83 -34 -62 -41 -72 -75 -74 -264 -1 -90
2 -177 7 -194 17 -58 84 -108 164 -122 43 -7 187 -8 220 -1 11 2 39 7 63 11
42 7 42 7 42 50 l0 42 -52 -11 c-29 -6 -98 -11 -153 -11 -156 0 -183 28 -176
176 l1 27 203 -1 202 0 -2 106 c-3 140 -21 176 -108 213 -46 19 -186 26 -254
13z m196 -79 c39 -14 53 -46 53 -120 l0 -60 -145 0 -145 0 -1 28 c-4 100 4
126 44 146 37 18 149 21 194 6z"/>
<path d="M2710 853 l0 -304 56 3 57 3 -1 275 c0 151 -1 286 -1 300 -1 24 -4
26 -56 27 l-55 0 0 -304z"/>
<path d="M3524 1145 c-2 -5 -2 -120 -1 -255 3 -269 8 -295 65 -324 87 -44 266
-36 321 15 21 20 21 20 21 -6 0 -24 3 -25 58 -25 l58 0 1 299 c0 211 -3 301
-11 304 -6 2 -31 4 -56 3 l-45 -2 -2 -243 c-2 -271 -2 -273 -70 -286 -41 -7
-127 -8 -162 -1 -61 13 -67 40 -65 301 0 116 -1 215 -3 221 -5 13 -104 13
-109 -1z"/>
</g>
</svg>
