<?xml version="1.0" encoding="UTF-8" standalone="no"?>
<svg
   xmlns:dc="http://purl.org/dc/elements/1.1/"
   xmlns:cc="http://creativecommons.org/ns#"
   xmlns:rdf="http://www.w3.org/1999/02/22-rdf-syntax-ns#"
   xmlns:svg="http://www.w3.org/2000/svg"
   xmlns="http://www.w3.org/2000/svg"
   viewBox="0 0 1133.8586 1133.8586"
   height="1133.8586"
   width="1133.8586"
   xml:space="preserve"
   id="svg2"
   version="1.1"><metadata
     id="metadata8"><rdf:RDF><cc:Work
         rdf:about=""><dc:format>image/svg+xml</dc:format><dc:type
           rdf:resource="http://purl.org/dc/dcmitype/StillImage" /></cc:Work></rdf:RDF></metadata><defs
     id="defs6"><clipPath
       id="clipPath18"
       clipPathUnits="userSpaceOnUse"><path
         id="path16"
         d="M 0,850.394 H 850.394 V 0 H 0 Z" /></clipPath><clipPath
       id="clipPath30"
       clipPathUnits="userSpaceOnUse"><path
         id="path28"
         d="M 0,850.394 H 850.394 V 0 H 0 Z" /></clipPath></defs><g
     transform="matrix(1.3333333,0,0,-1.3333333,0,1133.8587)"
     id="g10"><g
       id="g12"><g
         clip-path="url(#clipPath18)"
         id="g14"><g
           transform="translate(423.6959,785.6269)"
           id="g20"><path
             id="path22"
             style="fill:#231f20;fill-opacity:1;fill-rule:nonzero;stroke:none"
             d="m 0,0 c -48.863,0 -96.261,-9.569 -140.878,-28.44 -43.099,-18.229 -81.805,-44.326 -115.046,-77.567 -33.241,-33.241 -59.338,-71.948 -77.567,-115.045 -18.871,-44.618 -28.44,-92.016 -28.44,-140.879 0,-48.862 9.569,-96.26 28.44,-140.879 18.229,-43.097 44.326,-81.804 77.567,-115.044 33.241,-33.242 71.948,-59.339 115.046,-77.568 44.617,-18.872 92.015,-28.44 140.878,-28.44 48.863,0 96.261,9.568 140.878,28.44 43.098,18.229 81.805,44.326 115.046,77.568 33.241,33.24 59.338,71.947 77.567,115.044 18.872,44.619 28.44,92.017 28.44,140.879 0,48.863 -9.568,96.261 -28.44,140.879 -18.229,43.097 -44.326,81.804 -77.567,115.045 -33.241,33.241 -71.948,59.338 -115.046,77.567 C 96.261,-9.569 48.863,0 0,0 m 0,-733.862 c -50.208,0 -98.917,9.835 -144.774,29.23 -44.29,18.734 -84.065,45.55 -118.221,79.706 -34.156,34.156 -60.973,73.932 -79.706,118.221 -19.396,45.857 -29.23,94.566 -29.23,144.774 0,50.208 9.834,98.917 29.23,144.774 18.733,44.29 45.55,84.065 79.706,118.221 34.156,34.156 73.931,60.973 118.221,79.706 C -98.917,0.166 -50.208,10 0,10 c 50.208,0 98.918,-9.834 144.774,-29.23 44.29,-18.733 84.065,-45.55 118.222,-79.706 34.155,-34.156 60.972,-73.931 79.705,-118.221 19.395,-45.857 29.23,-94.566 29.23,-144.774 0,-50.208 -9.835,-98.917 -29.23,-144.774 -18.733,-44.289 -45.55,-84.065 -79.705,-118.221 -34.157,-34.156 -73.932,-60.972 -118.222,-79.706 C 98.918,-724.027 50.208,-733.862 0,-733.862" /></g></g></g><g
       id="g24"><g
         clip-path="url(#clipPath30)"
         id="g26"><g
           transform="translate(274.2452,424.8222)"
           id="g32"><path
             id="path34"
             style="fill:#231f20;fill-opacity:1;fill-rule:nonzero;stroke:none"
             d="m 0,0 v 59.716 c 0,7.483 -0.548,12.769 -1.639,15.861 -1.457,4.395 -4.764,8.257 -9.923,11.586 -5.158,3.325 -10.891,4.99 -17.203,4.99 -6.557,0 -12.626,-1.932 -18.207,-5.792 -5.586,-3.863 -10.014,-9.776 -13.293,-17.736 -3.278,-7.963 -4.914,-17.885 -4.914,-29.767 0,-16.52 3.701,-29.768 11.104,-39.748 5.705,-7.842 13.293,-11.764 22.761,-11.764 4.125,0 8.071,0.682 11.833,2.049 C -15.72,-9.241 -9.227,-5.704 0,0 M 58.091,210.689 V 3.388 c 0,-8.2 0.363,-13.162 1.09,-14.884 0.727,-1.724 1.969,-3.003 3.727,-3.831 1.756,-0.834 6.392,-1.251 13.909,-1.251 h 8.545 V -50.979 L 6.456,-53.652 v 18.358 C -4.94,-42.779 -14.939,-47.98 -23.543,-50.89 c -8.609,-2.911 -17.213,-4.367 -25.819,-4.367 -13.939,0 -26.757,3.715 -38.453,11.141 -11.699,7.426 -21.272,18.448 -28.727,33.064 -7.455,14.616 -11.181,30.837 -11.181,48.661 0,18.062 3.793,34.431 11.377,49.108 7.585,14.676 17.48,25.757 29.678,33.244 12.198,7.486 25.827,11.229 40.877,11.229 7.767,0 15.202,-0.921 22.304,-2.763 7.101,-1.843 14.96,-5.079 23.579,-9.714 v 42.424 h -26.545 v 34.402 c 14.996,1.426 27.181,3.236 36.555,5.437 9.376,2.197 19.503,5.436 30.389,9.713 z" /></g><g
           transform="translate(462.3595,524.5595)"
           id="g36"><path
             id="path38"
             style="fill:#231f20;fill-opacity:1;fill-rule:nonzero;stroke:none"
             d="m 0,0 c -7.604,0 -13.875,-2.792 -18.806,-8.377 -4.93,-5.587 -7.395,-13.133 -7.395,-22.638 0,-8.795 2.376,-15.806 7.131,-21.032 4.749,-5.232 10.873,-7.845 18.358,-7.845 7.366,0 13.518,2.703 18.448,8.111 4.931,5.406 7.399,12.389 7.399,20.945 0,9.505 -2.349,17.023 -7.041,22.548 C 13.398,-2.763 7.369,0 0,0 m -25.844,-159.419 c -6.3,-4.863 -10.31,-8.57 -12.034,-11.122 -1.724,-2.55 -2.585,-5.366 -2.585,-8.452 0,-5.81 4.752,-10.348 14.262,-13.611 9.507,-3.262 21.684,-4.893 36.541,-4.893 10.811,0 20.378,0.949 28.696,2.847 8.319,1.899 13.843,4.211 16.578,6.938 1.783,1.78 2.674,4.211 2.674,7.296 0,3.442 -1.783,6.318 -5.348,8.63 -3.563,2.313 -12.182,4.3 -25.846,5.962 z M 50.624,19.532 c 6.298,8.941 12.595,15.288 18.895,19.042 6.297,3.755 12.952,5.633 19.963,5.633 7.009,0 12.536,-2.05 16.579,-6.15 4.037,-4.1 6.058,-9.358 6.058,-15.776 0,-5.823 -1.931,-10.666 -5.794,-14.526 C 102.464,3.892 97.682,1.961 91.978,1.961 L 86.094,2.14 80.035,2.318 c -3.21,0 -6.417,-1.192 -9.626,-3.576 6.535,-10.834 9.805,-21.189 9.805,-31.071 0,-10.478 -3.239,-20.655 -9.716,-30.537 -6.478,-9.881 -15.449,-17.56 -26.915,-23.036 -11.469,-5.476 -25.222,-8.213 -41.264,-8.213 -4.635,0 -9.301,0.268 -13.994,0.801 -4.695,0.536 -9.42,1.338 -14.169,2.407 -3.21,-2.023 -5.648,-3.979 -7.309,-5.878 -1.664,-1.9 -2.495,-3.675 -2.495,-5.336 0,-3.678 3.801,-6.051 11.406,-7.117 l 73.798,-10.497 c 21.981,-3.088 37.845,-8.963 47.591,-17.626 9.742,-8.785 14.615,-19.23 14.615,-31.334 0,-10.682 -3.683,-20.565 -11.049,-29.644 -7.372,-9.079 -19.403,-16.527 -36.098,-22.343 -16.694,-5.815 -37.759,-8.721 -63.189,-8.721 -22.342,0 -40.82,2.165 -55.436,6.497 -14.616,4.336 -24.985,9.794 -31.105,16.381 -6.121,6.592 -9.179,12.854 -9.179,18.789 0,6.768 2.287,12.851 6.863,18.25 4.574,5.404 13.992,11.607 28.252,18.608 -8.795,3.209 -15.391,7.133 -19.786,11.772 -5.943,6.177 -8.912,12.54 -8.912,19.081 0,7.13 2.762,14.145 8.289,21.04 5.525,6.894 13.815,13.73 24.865,20.506 -6.179,3.804 -11.024,7.935 -14.527,12.393 -3.507,4.457 -6.358,9.897 -8.557,16.315 -2.2,6.421 -3.297,13.019 -3.297,19.798 0,17.83 7.278,32.989 21.836,45.473 14.555,12.483 33.719,18.724 57.488,18.724 10.575,0 20.23,-1.225 28.964,-3.674 8.735,-2.447 16.547,-6.121 23.44,-11.018" /></g><g
           transform="translate(673.2814,556.0121)"
           id="g40"><path
             id="path42"
             style="fill:#231f20;fill-opacity:1;fill-rule:nonzero;stroke:none"
             d="m 0,0 v -131.723 c 0,-6.3 0.354,-10.161 1.068,-11.588 0.712,-1.426 1.99,-2.524 3.832,-3.296 1.841,-0.776 5.973,-1.161 12.389,-1.161 h 9.626 v -34.4 H -83.242 v 34.4 h 9.447 c 6.176,0 10.129,0.328 11.854,0.982 1.72,0.653 2.998,1.751 3.832,3.296 0.83,1.543 1.247,4.636 1.247,9.27 v 85.023 h -26.38 v 33.512 c 9.385,0.474 18.386,1.484 27.002,3.03 8.617,1.542 16.31,3.386 23.084,5.526 4.394,1.426 9.804,3.802 16.22,7.129 z" /></g><path
           id="path44"
           style="fill:#231f20;fill-opacity:1;fill-rule:nonzero;stroke:none"
           d="m 700.196,304.147 h -552.91 v 21.823 h 552.91 z" /><g
           transform="translate(644.4034,635.5112)"
           id="g46"><path
             id="path48"
             style="fill:#d01e25;fill-opacity:1;fill-rule:nonzero;stroke:none"
             d="m 0,0 c 9.03,0 16.725,-3.18 23.084,-9.536 6.356,-6.359 9.536,-14.053 9.536,-23.083 0,-9.152 -3.18,-16.906 -9.536,-23.262 C 16.725,-62.239 9.03,-65.417 0,-65.417 c -9.03,0 -16.727,3.178 -23.083,9.536 -6.357,6.356 -9.537,14.052 -9.537,23.084 0,8.913 3.269,16.605 9.805,23.084 C -16.28,-3.239 -8.676,0 0,0" /></g><g
           transform="translate(159.4625,251.8339)"
           id="g50"><path
             id="path52"
             style="fill:#231f20;fill-opacity:1;fill-rule:nonzero;stroke:none"
             d="m 0,0 v -21.31 c 0,-0.72 0.041,-1.163 0.123,-1.327 0.13,-0.246 0.322,-0.414 0.576,-0.504 0.253,-0.089 0.862,-0.135 1.827,-0.135 2.681,0 4.778,0.414 6.291,1.242 1.512,0.827 2.734,2.154 3.666,3.981 0.933,1.826 1.398,4.002 1.398,6.526 0,2.49 -0.437,4.657 -1.312,6.5 -0.875,1.843 -1.958,3.141 -3.249,3.896 C 8.028,-0.378 6.181,0 3.777,0 Z M -12.533,5.469 H 5.408 c 4.074,0 7.313,-0.647 9.718,-1.938 2.406,-1.292 4.325,-3.205 5.756,-5.739 1.431,-2.534 2.147,-5.575 2.147,-9.124 0,-2.469 -0.363,-4.677 -1.092,-6.621 -0.728,-1.946 -1.812,-3.7 -3.252,-5.262 -1.44,-1.561 -2.986,-2.733 -4.638,-3.519 -1.244,-0.588 -3.007,-1.071 -5.289,-1.448 -2.282,-0.376 -4.112,-0.563 -5.486,-0.563 h -15.805 v 4.733 h 1.184 c 1.004,0 1.661,0.082 1.974,0.246 0.312,0.163 0.567,0.441 0.765,0.833 0.131,0.311 0.197,0.99 0.197,2.037 v 18.688 c 0,1.046 -0.07,1.721 -0.21,2.023 -0.14,0.303 -0.37,0.532 -0.69,0.687 -0.321,0.155 -1,0.233 -2.036,0.233 h -1.184 z" /></g><g
           transform="translate(193.6759,259.0927)"
           id="g54"><path
             id="path56"
             style="fill:#231f20;fill-opacity:1;fill-rule:nonzero;stroke:none"
             d="m 0,0 c 1.242,0 2.301,-0.437 3.176,-1.312 0.875,-0.875 1.312,-1.934 1.312,-3.175 0,-1.26 -0.437,-2.327 -1.312,-3.201 C 2.301,-8.563 1.242,-9.001 0,-9.001 c -1.243,0 -2.302,0.438 -3.176,1.313 -0.875,0.874 -1.312,1.933 -1.312,3.175 0,1.227 0.449,2.285 1.348,3.176 C -2.24,-0.445 -1.194,0 0,0 m 3.973,-10.938 v -18.124 c 0,-0.868 0.049,-1.399 0.147,-1.595 0.098,-0.197 0.274,-0.348 0.527,-0.454 0.254,-0.107 0.822,-0.159 1.705,-0.159 h 1.324 v -4.734 H -7.48 v 4.734 h 1.299 c 0.85,0 1.394,0.044 1.631,0.135 0.237,0.089 0.413,0.24 0.528,0.453 0.114,0.212 0.171,0.638 0.171,1.276 v 11.699 H -7.48 v 4.61 c 1.291,0.066 2.529,0.204 3.715,0.417 1.185,0.212 2.244,0.467 3.177,0.761 0.604,0.195 1.348,0.523 2.231,0.981 z" /></g><g
           transform="translate(216.1417,243.4453)"
           id="g58"><path
             id="path60"
             style="fill:#231f20;fill-opacity:1;fill-rule:nonzero;stroke:none"
             d="m 0,0 c -1.047,0 -1.909,-0.384 -2.587,-1.152 -0.679,-0.769 -1.018,-1.807 -1.018,-3.116 0,-1.21 0.327,-2.174 0.98,-2.894 0.655,-0.719 1.497,-1.078 2.527,-1.078 1.014,0 1.86,0.372 2.538,1.116 0.679,0.743 1.018,1.704 1.018,2.882 0,1.307 -0.323,2.342 -0.969,3.101 C 1.843,-0.38 1.014,0 0,0 m -3.556,-21.935 c -0.867,-0.669 -1.419,-1.179 -1.656,-1.53 -0.237,-0.351 -0.355,-0.739 -0.355,-1.164 0,-0.799 0.653,-1.424 1.962,-1.872 1.308,-0.449 2.983,-0.674 5.027,-0.674 1.488,0 2.805,0.131 3.949,0.393 1.144,0.261 1.905,0.579 2.281,0.955 0.245,0.244 0.368,0.579 0.368,1.003 0,0.473 -0.246,0.87 -0.736,1.187 -0.491,0.319 -1.676,0.592 -3.556,0.821 z M 6.965,2.688 c 0.867,1.23 1.733,2.103 2.6,2.62 0.866,0.516 1.782,0.775 2.747,0.775 0.965,0 1.725,-0.282 2.281,-0.847 0.555,-0.564 0.834,-1.287 0.834,-2.171 0,-0.8 -0.266,-1.467 -0.797,-1.998 C 14.098,0.535 13.44,0.27 12.655,0.27 l -0.809,0.024 -0.834,0.025 c -0.441,0 -0.883,-0.164 -1.324,-0.492 0.898,-1.491 1.349,-2.916 1.349,-4.275 0,-1.442 -0.446,-2.842 -1.337,-4.202 -0.891,-1.36 -2.126,-2.416 -3.703,-3.169 -1.579,-0.754 -3.471,-1.13 -5.678,-1.13 -0.638,0 -1.28,0.036 -1.925,0.11 -0.647,0.073 -1.296,0.184 -1.95,0.331 -0.442,-0.278 -0.777,-0.548 -1.006,-0.809 -0.229,-0.261 -0.343,-0.506 -0.343,-0.735 0,-0.506 0.523,-0.832 1.57,-0.978 l 10.153,-1.446 c 3.025,-0.423 5.207,-1.233 6.549,-2.423 1.34,-1.21 2.011,-2.647 2.011,-4.313 0,-1.47 -0.507,-2.829 -1.521,-4.078 -1.014,-1.249 -2.669,-2.274 -4.966,-3.074 -2.298,-0.8 -5.196,-1.2 -8.695,-1.2 -3.074,0 -5.616,0.297 -7.627,0.893 -2.011,0.597 -3.438,1.348 -4.28,2.255 -0.842,0.906 -1.263,1.768 -1.263,2.585 0,0.931 0.314,1.768 0.944,2.512 0.63,0.743 1.926,1.595 3.887,2.559 -1.21,0.442 -2.117,0.982 -2.722,1.62 -0.818,0.85 -1.226,1.725 -1.226,2.625 0,0.982 0.38,1.947 1.14,2.895 0.761,0.949 1.901,1.89 3.421,2.822 -0.85,0.524 -1.516,1.092 -1.998,1.705 -0.483,0.614 -0.875,1.363 -1.178,2.245 -0.302,0.883 -0.453,1.791 -0.453,2.724 0,2.453 1.001,4.539 3.004,6.257 2.003,1.718 4.639,2.576 7.91,2.576 1.454,0 2.784,-0.168 3.985,-0.505 C 4.942,3.866 6.017,3.361 6.965,2.688" /></g><g
           transform="translate(240.8883,259.0927)"
           id="g62"><path
             id="path64"
             style="fill:#231f20;fill-opacity:1;fill-rule:nonzero;stroke:none"
             d="M 0,0 C 1.242,0 2.301,-0.437 3.176,-1.312 4.05,-2.187 4.488,-3.246 4.488,-4.487 4.488,-5.747 4.05,-6.814 3.176,-7.688 2.301,-8.563 1.242,-9.001 0,-9.001 c -1.243,0 -2.302,0.438 -3.176,1.313 -0.875,0.874 -1.312,1.933 -1.312,3.175 0,1.227 0.449,2.285 1.348,3.176 C -2.24,-0.445 -1.194,0 0,0 m 3.973,-10.938 v -18.124 c 0,-0.868 0.049,-1.399 0.147,-1.595 0.098,-0.197 0.274,-0.348 0.527,-0.454 0.254,-0.107 0.822,-0.159 1.705,-0.159 h 1.324 v -4.734 H -7.481 v 4.734 h 1.3 c 0.85,0 1.394,0.044 1.631,0.135 0.237,0.089 0.413,0.24 0.528,0.453 0.114,0.212 0.171,0.638 0.171,1.276 v 11.699 h -3.63 v 4.61 c 1.292,0.066 2.53,0.204 3.716,0.417 1.185,0.212 2.244,0.467 3.176,0.761 0.605,0.195 1.349,0.523 2.232,0.981 z" /></g><g
           transform="translate(262.4464,255.9785)"
           id="g66"><path
             id="path68"
             style="fill:#231f20;fill-opacity:1;fill-rule:nonzero;stroke:none"
             d="m 0,0 v -8.412 h 7.897 v -5.225 H 0 v -8.535 c 0,-1.929 0.102,-3.168 0.307,-3.715 0.204,-0.549 0.584,-0.985 1.14,-1.312 0.736,-0.442 1.577,-0.662 2.526,-0.662 1.684,0 3.36,0.547 5.028,1.642 v -5.248 c -1.423,-0.671 -2.71,-1.14 -3.863,-1.41 -1.153,-0.269 -2.4,-0.405 -3.74,-0.405 -1.521,0 -2.866,0.193 -4.034,0.577 -1.17,0.383 -2.167,0.932 -2.993,1.643 -0.826,0.71 -1.397,1.467 -1.716,2.268 -0.32,0.801 -0.479,1.962 -0.479,3.483 v 11.674 h -3.678 v 4.709 c 1.307,0.425 2.427,1.034 3.359,1.827 0.932,0.793 1.68,1.746 2.245,2.857 0.564,1.112 0.952,2.527 1.164,4.244 z" /></g><g
           transform="translate(289.3512,233.8554)"
           id="g70"><path
             id="path72"
             style="fill:#231f20;fill-opacity:1;fill-rule:nonzero;stroke:none"
             d="M 0,0 C -2.142,-0.311 -3.654,-0.625 -4.538,-0.943 -5.42,-1.263 -6.05,-1.664 -6.426,-2.146 -6.802,-2.628 -6.99,-3.122 -6.99,-3.63 c 0,-0.653 0.245,-1.201 0.736,-1.642 0.49,-0.442 1.153,-0.664 1.986,-0.664 0.54,0 1.166,0.14 1.877,0.418 0.711,0.278 1.508,0.687 2.391,1.226 z m 0,4.072 v 1.815 c 0,1.079 -0.09,1.823 -0.27,2.232 -0.18,0.408 -0.507,0.748 -0.981,1.018 -0.474,0.268 -1.063,0.404 -1.766,0.404 -0.539,0 -1.03,-0.09 -1.471,-0.27 C -4.93,9.091 -5.282,8.862 -5.543,8.585 -5.805,8.306 -6.107,7.767 -6.45,6.966 -6.892,5.951 -7.419,5.225 -8.032,4.783 -8.645,4.341 -9.369,4.121 -10.203,4.121 c -1.047,0 -1.904,0.326 -2.575,0.981 -0.67,0.654 -1.006,1.463 -1.006,2.428 0,1.095 0.344,2.068 1.031,2.918 0.915,1.129 2.28,2.052 4.095,2.772 1.815,0.719 3.859,1.079 6.132,1.079 2.273,0 4.206,-0.367 5.8,-1.104 C 4.868,12.459 5.98,11.581 6.61,10.559 7.239,9.537 7.554,7.979 7.554,5.887 v -8.781 c 0,-1.079 0.057,-1.77 0.172,-2.072 0.114,-0.303 0.359,-0.568 0.735,-0.798 0.376,-0.228 0.793,-0.342 1.251,-0.342 0.458,0 1.071,0.13 1.84,0.392 v -4.783 c -1.39,-0.441 -2.722,-0.662 -3.998,-0.662 -1.505,0 -2.788,0.246 -3.85,0.736 -1.063,0.49 -1.954,1.227 -2.674,2.207 -1.635,-1.063 -3.119,-1.819 -4.451,-2.268 -1.333,-0.45 -2.621,-0.675 -3.863,-0.675 -2.339,0 -4.227,0.658 -5.666,1.974 -1.439,1.317 -2.158,2.94 -2.158,4.869 0,1.094 0.249,2.101 0.748,3.016 0.499,0.916 1.242,1.717 2.232,2.404 0.989,0.686 2.518,1.295 4.586,1.828 2.069,0.53 4.583,0.911 7.542,1.14" /></g><g
           transform="translate(314.6373,259.0927)"
           id="g74"><path
             id="path76"
             style="fill:#231f20;fill-opacity:1;fill-rule:nonzero;stroke:none"
             d="m 0,0 v -28.695 c 0,-0.965 0.041,-1.537 0.123,-1.717 0.114,-0.327 0.367,-0.564 0.76,-0.711 0.245,-0.099 0.907,-0.147 1.987,-0.147 h 0.858 v -4.734 h -15.182 v 4.734 h 0.933 c 0.98,0 1.609,0.061 1.888,0.184 0.278,0.122 0.482,0.318 0.613,0.589 0.131,0.269 0.196,0.87 0.196,1.802 v 21.877 h -3.63 v 4.734 c 2.927,0.198 5.952,0.893 9.075,2.084 z" /></g><g
           transform="translate(357.9498,241.3369)"
           id="g78"><path
             id="path80"
             style="fill:#231f20;fill-opacity:1;fill-rule:nonzero;stroke:none"
             d="m 0,0 h 16.703 v -4.783 h -1.251 c -0.818,0 -1.378,-0.073 -1.681,-0.221 -0.302,-0.147 -0.527,-0.38 -0.674,-0.698 C 12.95,-6.021 12.876,-6.631 12.876,-7.53 V -18.248 H 7.853 l -1.3,2.453 c -1.536,-1.015 -3.129,-1.774 -4.779,-2.281 -1.65,-0.507 -3.366,-0.761 -5.147,-0.761 -3.121,0 -5.963,0.761 -8.528,2.281 -2.566,1.521 -4.596,3.647 -6.09,6.377 -1.495,2.731 -2.242,5.788 -2.242,9.172 0,3.353 0.738,6.353 2.217,9.002 1.478,2.649 3.546,4.737 6.201,6.266 2.654,1.529 5.534,2.294 8.639,2.294 1.503,0 3.001,-0.193 4.497,-0.576 1.495,-0.386 2.773,-0.896 3.835,-1.534 l 0.907,1.521 H 9.494 L 12.582,4.635 8.069,3.163 C 6.532,5.648 5.318,7.341 4.427,8.24 3.536,9.139 2.514,9.842 1.361,10.349 c -1.152,0.506 -2.277,0.76 -3.372,0.76 -1.553,0 -3.004,-0.449 -4.353,-1.348 -1.349,-0.9 -2.416,-2.212 -3.201,-3.937 -0.785,-1.724 -1.177,-3.813 -1.177,-6.266 0,-2.699 0.429,-5.037 1.287,-7.014 0.859,-1.98 1.983,-3.446 3.373,-4.403 1.39,-0.956 2.918,-1.435 4.586,-1.435 1.177,0 2.293,0.237 3.348,0.712 1.054,0.474 1.778,1.005 2.17,1.594 0.393,0.589 0.589,1.381 0.589,2.379 v 1.251 c 0,0.866 -0.057,1.414 -0.172,1.643 -0.18,0.326 -0.42,0.564 -0.723,0.711 -0.303,0.148 -0.895,0.221 -1.778,0.221 l -1.938,0 z" /></g><g
           transform="translate(390.692,242.7832)"
           id="g82"><path
             id="path84"
             style="fill:#231f20;fill-opacity:1;fill-rule:nonzero;stroke:none"
             d="m 0,0 c -0.932,0 -1.807,-0.278 -2.625,-0.834 -0.817,-0.556 -1.45,-1.373 -1.9,-2.452 -0.45,-1.08 -0.674,-2.453 -0.674,-4.121 0,-1.716 0.22,-3.139 0.662,-4.267 0.441,-1.128 1.05,-1.963 1.827,-2.502 0.776,-0.539 1.631,-0.809 2.563,-0.809 1.439,0 2.673,0.609 3.703,1.827 1.03,1.218 1.545,3.11 1.545,5.678 0,2.485 -0.478,4.353 -1.434,5.604 C 2.71,-0.625 1.488,0 0,0 m -0.098,5.371 c 2.796,0 5.232,-0.548 7.308,-1.643 2.077,-1.095 3.675,-2.587 4.795,-4.476 1.12,-1.889 1.681,-4.1 1.681,-6.634 0,-3.826 -1.243,-6.932 -3.728,-9.32 -2.486,-2.387 -5.805,-3.581 -9.958,-3.581 -4.235,0 -7.603,1.202 -10.104,3.605 -2.42,2.289 -3.63,5.388 -3.63,9.296 0,2.567 0.551,4.774 1.655,6.622 1.103,1.848 2.702,3.331 4.795,4.451 2.093,1.12 4.488,1.68 7.186,1.68" /></g><g
           transform="translate(419.0929,259.0927)"
           id="g86"><path
             id="path88"
             style="fill:#231f20;fill-opacity:1;fill-rule:nonzero;stroke:none"
             d="m 0,0 v -28.695 c 0,-0.965 0.041,-1.537 0.123,-1.717 0.114,-0.327 0.367,-0.564 0.76,-0.711 0.245,-0.099 0.907,-0.147 1.986,-0.147 h 0.859 v -4.734 h -15.182 v 4.734 h 0.933 c 0.98,0 1.61,0.061 1.888,0.184 0.278,0.122 0.482,0.318 0.613,0.589 0.131,0.269 0.196,0.87 0.196,1.802 v 21.877 h -3.63 v 4.734 c 2.927,0.198 5.952,0.893 9.075,2.084 z" /></g><g
           transform="translate(442.7726,230.1035)"
           id="g90"><path
             id="path92"
             style="fill:#231f20;fill-opacity:1;fill-rule:nonzero;stroke:none"
             d="m 0,0 v 8.217 c 0,1.029 -0.074,1.757 -0.222,2.181 -0.196,0.606 -0.642,1.137 -1.338,1.595 -0.696,0.458 -1.468,0.687 -2.32,0.687 -0.886,0 -1.703,-0.267 -2.457,-0.797 C -7.09,11.352 -7.687,10.538 -8.13,9.442 -8.571,8.347 -8.793,6.981 -8.793,5.347 c 0,-2.274 0.5,-4.096 1.498,-5.469 0.77,-1.08 1.793,-1.619 3.071,-1.619 0.556,0 1.088,0.094 1.596,0.282 C -2.12,-1.271 -1.245,-0.785 0,0 M 7.836,28.989 V 0.466 c 0,-1.128 0.049,-1.811 0.147,-2.048 0.098,-0.237 0.266,-0.413 0.503,-0.527 0.237,-0.115 0.862,-0.172 1.875,-0.172 h 1.154 V -7.015 L 0.87,-7.382 v 2.527 c -1.536,-1.031 -2.886,-1.747 -4.047,-2.147 -1.161,-0.4 -2.321,-0.602 -3.482,-0.602 -1.88,0 -3.61,0.512 -5.187,1.534 -1.578,1.021 -2.87,2.539 -3.875,4.549 -1.006,2.011 -1.508,4.243 -1.508,6.696 0,2.485 0.511,4.737 1.535,6.757 1.023,2.019 2.357,3.544 4.003,4.574 1.645,1.029 3.483,1.545 5.513,1.545 1.049,0 2.051,-0.126 3.009,-0.38 0.958,-0.254 2.019,-0.699 3.182,-1.337 v 5.837 h -3.581 v 4.734 c 2.022,0.197 3.666,0.445 4.93,0.747 1.266,0.303 2.631,0.748 4.1,1.337 z" /></g><g
           transform="translate(474.2267,257.3027)"
           id="g94"><path
             id="path96"
             style="fill:#231f20;fill-opacity:1;fill-rule:nonzero;stroke:none"
             d="m 0,0 h 16.702 v -4.733 h -1.521 c -0.882,0 -1.467,-0.079 -1.753,-0.234 -0.286,-0.155 -0.499,-0.4 -0.638,-0.735 -0.14,-0.335 -0.208,-0.978 -0.208,-1.926 v -18.934 c 0,-1.03 0.057,-1.692 0.171,-1.986 0.115,-0.295 0.31,-0.507 0.589,-0.638 0.343,-0.197 0.858,-0.294 1.545,-0.294 h 1.815 v -4.734 H 0 v 4.734 h 1.356 c 0.971,0 1.605,0.069 1.901,0.208 0.296,0.139 0.514,0.36 0.653,0.663 0.141,0.302 0.21,0.902 0.21,1.802 V -7.8 c 0,1.064 -0.069,1.763 -0.21,2.098 -0.139,0.335 -0.374,0.592 -0.703,0.771 -0.23,0.132 -0.79,0.198 -1.677,0.198 l -1.53,0 z" /></g><g
           transform="translate(505.3741,248.1543)"
           id="g98"><path
             id="path100"
             style="fill:#231f20;fill-opacity:1;fill-rule:nonzero;stroke:none"
             d="m 0,0 v -3.262 c 1.848,1.259 3.43,2.117 4.746,2.575 C 6.062,-0.229 7.407,0 8.78,0 c 1.586,0 2.989,-0.336 4.206,-1.005 1.218,-0.671 2.106,-1.509 2.661,-2.515 0.557,-1.004 0.834,-2.431 0.834,-4.279 v -10.203 c 0,-0.866 0.062,-1.423 0.185,-1.667 0.122,-0.246 0.314,-0.426 0.576,-0.54 0.196,-0.082 0.784,-0.123 1.766,-0.123 h 1.201 v -4.733 H 5.813 v 4.733 c 1.095,0.017 1.709,0.041 1.839,0.074 0.409,0.114 0.678,0.302 0.81,0.563 0.131,0.26 0.195,0.824 0.195,1.69 v 8.985 c 0,1.159 -0.122,1.91 -0.367,2.252 C 7.897,-6.196 7.275,-5.91 6.426,-5.91 5.723,-5.91 4.97,-6.065 4.169,-6.376 3.368,-6.687 2.289,-7.322 0.932,-8.285 v -9.72 c 0,-1.061 0.116,-1.715 0.347,-1.96 0.23,-0.245 0.783,-0.367 1.658,-0.367 h 0.792 v -4.733 h -14.25 v 4.733 h 0.711 c 1.128,0 1.827,0.049 2.096,0.147 0.271,0.098 0.475,0.269 0.614,0.514 0.138,0.245 0.208,0.727 0.208,1.444 v 11.41 h -3.629 v 4.733 c 2.936,0.363 5.684,1.058 8.246,2.084 z" /></g><g
           transform="translate(545.3029,247.5664)"
           id="g102"><path
             id="path104"
             style="fill:#231f20;fill-opacity:1;fill-rule:nonzero;stroke:none"
             d="M 0,0 H 3.212 L 5.199,-6.818 0.563,-8.683 c -0.881,1.423 -1.99,2.538 -3.323,3.348 -1.333,0.81 -2.652,1.214 -3.96,1.214 -0.867,0 -1.512,-0.147 -1.938,-0.441 -0.425,-0.294 -0.638,-0.647 -0.638,-1.055 0,-0.343 0.151,-0.662 0.454,-0.956 0.302,-0.294 0.928,-0.606 1.876,-0.932 l 6.745,-2.404 c 1.193,-0.425 2.337,-0.956 3.433,-1.594 1.096,-0.638 1.917,-1.419 2.466,-2.343 0.547,-0.924 0.821,-2.007 0.821,-3.25 0,-2.222 -0.851,-4.047 -2.551,-5.468 -1.995,-1.668 -4.48,-2.502 -7.456,-2.502 -2.551,0 -4.774,0.645 -6.67,1.938 l -0.687,-1.35 h -3.262 l -3.018,8.045 4.636,1.962 c 1.161,-1.815 2.592,-3.241 4.293,-4.279 1.699,-1.039 3.261,-1.558 4.684,-1.558 0.883,0 1.627,0.204 2.232,0.613 0.457,0.327 0.687,0.712 0.687,1.153 0,0.376 -0.181,0.735 -0.54,1.079 -0.361,0.344 -1.153,0.728 -2.379,1.152 l -5.298,1.84 c -2.927,1.031 -4.917,2.13 -5.972,3.298 -1.054,1.169 -1.582,2.555 -1.582,4.157 0,2.062 0.825,3.794 2.477,5.201 1.881,1.601 4.202,2.403 6.966,2.403 2.453,0 4.553,-0.556 6.302,-1.668 z" /></g><g
           transform="translate(565.8068,255.9785)"
           id="g106"><path
             id="path108"
             style="fill:#231f20;fill-opacity:1;fill-rule:nonzero;stroke:none"
             d="m 0,0 v -8.412 h 7.897 v -5.225 H 0 v -8.535 c 0,-1.929 0.102,-3.168 0.306,-3.715 0.205,-0.549 0.585,-0.985 1.14,-1.312 0.737,-0.442 1.578,-0.662 2.527,-0.662 1.683,0 3.359,0.547 5.027,1.642 v -5.248 c -1.422,-0.671 -2.71,-1.14 -3.862,-1.41 -1.154,-0.269 -2.4,-0.405 -3.741,-0.405 -1.52,0 -2.866,0.193 -4.035,0.577 -1.168,0.383 -2.166,0.932 -2.991,1.643 -0.826,0.71 -1.398,1.467 -1.717,2.268 -0.319,0.801 -0.478,1.962 -0.478,3.483 v 11.674 h -3.679 v 4.709 c 1.308,0.425 2.428,1.034 3.36,1.827 0.932,0.793 1.68,1.746 2.245,2.857 0.563,1.112 0.951,2.527 1.165,4.244 z" /></g><g
           transform="translate(585.4269,259.0927)"
           id="g110"><path
             id="path112"
             style="fill:#231f20;fill-opacity:1;fill-rule:nonzero;stroke:none"
             d="m 0,0 c 1.243,0 2.302,-0.437 3.177,-1.312 0.874,-0.875 1.311,-1.934 1.311,-3.175 0,-1.26 -0.437,-2.327 -1.311,-3.201 C 2.302,-8.563 1.243,-9.001 0,-9.001 c -1.242,0 -2.302,0.438 -3.176,1.313 -0.875,0.874 -1.312,1.933 -1.312,3.175 0,1.227 0.45,2.285 1.349,3.176 C -2.24,-0.445 -1.193,0 0,0 m 3.974,-10.938 v -18.124 c 0,-0.868 0.048,-1.399 0.147,-1.595 0.098,-0.197 0.274,-0.348 0.527,-0.454 0.253,-0.107 0.822,-0.159 1.705,-0.159 h 1.324 v -4.734 H -7.479 v 4.734 h 1.298 c 0.851,0 1.395,0.044 1.632,0.135 0.237,0.089 0.412,0.24 0.528,0.453 0.114,0.212 0.171,0.638 0.171,1.276 v 11.699 h -3.629 v 4.61 c 1.291,0.066 2.529,0.204 3.714,0.417 1.186,0.212 2.244,0.467 3.176,0.761 0.606,0.195 1.35,0.523 2.233,0.981 z" /></g><g
           transform="translate(606.9845,255.9785)"
           id="g114"><path
             id="path116"
             style="fill:#231f20;fill-opacity:1;fill-rule:nonzero;stroke:none"
             d="m 0,0 v -8.412 h 7.897 v -5.225 H 0 v -8.535 c 0,-1.929 0.103,-3.168 0.307,-3.715 0.205,-0.549 0.585,-0.985 1.14,-1.312 0.737,-0.442 1.578,-0.662 2.527,-0.662 1.683,0 3.359,0.547 5.027,1.642 v -5.248 c -1.422,-0.671 -2.71,-1.14 -3.862,-1.41 -1.154,-0.269 -2.4,-0.405 -3.741,-0.405 -1.52,0 -2.866,0.193 -4.035,0.577 -1.169,0.383 -2.166,0.932 -2.991,1.643 -0.826,0.71 -1.398,1.467 -1.717,2.268 -0.319,0.801 -0.478,1.962 -0.478,3.483 v 11.674 h -3.679 v 4.709 c 1.308,0.425 2.428,1.034 3.36,1.827 0.932,0.793 1.68,1.746 2.245,2.857 0.563,1.112 0.951,2.527 1.165,4.244 z" /></g><g
           transform="translate(618.463,247.5664)"
           id="g118"><path
             id="path120"
             style="fill:#231f20;fill-opacity:1;fill-rule:nonzero;stroke:none"
             d="m 0,0 11.454,0.221 v -15.918 c 0,-1.128 0.069,-1.88 0.208,-2.256 0.14,-0.376 0.393,-0.684 0.761,-0.92 0.368,-0.237 0.83,-0.356 1.386,-0.356 0.817,0 1.683,0.197 2.599,0.588 0.36,0.163 1.316,0.745 2.869,1.743 v 9.564 c 0,0.834 -0.065,1.406 -0.197,1.717 -0.132,0.31 -0.321,0.536 -0.567,0.674 -0.248,0.139 -0.726,0.21 -1.433,0.21 H 15.647 V 0 L 27.15,0.221 v -17.562 c 0,-0.916 0.054,-1.492 0.161,-1.728 0.105,-0.238 0.277,-0.41 0.514,-0.516 0.237,-0.106 0.805,-0.159 1.704,-0.159 h 1.301 v -4.734 l -10.768,-0.293 v 2.893 c -1.436,-1.062 -2.881,-1.86 -4.334,-2.391 -1.454,-0.531 -2.915,-0.797 -4.384,-0.797 -1.176,0 -2.256,0.192 -3.244,0.576 -0.989,0.385 -1.818,0.899 -2.486,1.546 -0.67,0.645 -1.168,1.401 -1.494,2.268 -0.326,0.866 -0.49,1.979 -0.49,3.335 v 10.105 c 0,0.932 -0.054,1.521 -0.16,1.766 -0.108,0.245 -0.284,0.429 -0.532,0.552 -0.247,0.123 -0.774,0.185 -1.58,0.185 l -1.358,0 z" /></g><g
           transform="translate(663.2482,255.9785)"
           id="g122"><path
             id="path124"
             style="fill:#231f20;fill-opacity:1;fill-rule:nonzero;stroke:none"
             d="m 0,0 v -8.412 h 7.897 v -5.225 H 0 v -8.535 c 0,-1.929 0.102,-3.168 0.306,-3.715 0.205,-0.549 0.585,-0.985 1.141,-1.312 0.736,-0.442 1.577,-0.662 2.526,-0.662 1.684,0 3.36,0.547 5.028,1.642 v -5.248 c -1.423,-0.671 -2.71,-1.14 -3.863,-1.41 -1.153,-0.269 -2.4,-0.405 -3.741,-0.405 -1.52,0 -2.866,0.193 -4.035,0.577 -1.168,0.383 -2.166,0.932 -2.991,1.643 -0.825,0.71 -1.398,1.467 -1.717,2.268 -0.318,0.801 -0.478,1.962 -0.478,3.483 v 11.674 h -3.679 v 4.709 c 1.308,0.425 2.428,1.034 3.36,1.827 0.932,0.793 1.68,1.746 2.245,2.857 0.563,1.112 0.952,2.527 1.165,4.244 z" /></g><g
           transform="translate(692.6056,239.2519)"
           id="g126"><path
             id="path128"
             style="fill:#231f20;fill-opacity:1;fill-rule:nonzero;stroke:none"
             d="M 0,0 C -0.115,0.98 -0.349,1.753 -0.702,2.317 -1.054,2.882 -1.53,3.331 -2.129,3.666 -2.727,4.001 -3.354,4.169 -4.011,4.169 -4.699,4.169 -5.363,3.997 -6.003,3.654 -6.643,3.311 -7.155,2.845 -7.54,2.256 -7.926,1.667 -8.176,0.915 -8.291,0 Z m 4.905,-7.088 3.359,-3.385 c -1.929,-2.207 -3.895,-3.805 -5.898,-4.795 -2.004,-0.989 -4.166,-1.484 -6.487,-1.484 -3.728,0 -6.867,1.264 -9.418,3.79 -2.551,2.526 -3.826,5.579 -3.826,9.16 0,2.355 0.572,4.509 1.717,6.463 1.144,1.953 2.73,3.482 4.757,4.586 2.028,1.104 4.326,1.655 6.893,1.655 1.635,0 3.122,-0.236 4.464,-0.711 C 1.806,7.717 2.979,7.039 3.985,6.155 4.99,5.272 5.8,4.206 6.412,2.955 7.026,1.704 7.447,0.408 7.676,-0.933 7.774,-1.603 7.823,-2.666 7.823,-4.121 H -8.684 c 0.034,-2.077 0.642,-3.757 1.829,-5.039 1.184,-1.284 2.636,-1.926 4.353,-1.926 1.095,0 2.288,0.331 3.58,0.993 1.292,0.662 2.568,1.663 3.827,3.005" /></g></g></g></g></svg>