<?xml version="1.0" encoding="UTF-8" standalone="no"?>
<svg
   xmlns:dc="http://purl.org/dc/elements/1.1/"
   xmlns:cc="http://creativecommons.org/ns#"
   xmlns:rdf="http://www.w3.org/1999/02/22-rdf-syntax-ns#"
   xmlns:svg="http://www.w3.org/2000/svg"
   xmlns="http://www.w3.org/2000/svg"
   viewBox="0 0 2352.52 1320.5253"
   height="1320.5253"
   width="2352.52"
   xml:space="preserve"
   id="svg2"
   version="1.1"><metadata
     id="metadata8"><rdf:RDF><cc:Work
         rdf:about=""><dc:format>image/svg+xml</dc:format><dc:type
           rdf:resource="http://purl.org/dc/dcmitype/StillImage" /></cc:Work></rdf:RDF></metadata><defs
     id="defs6"><clipPath
       id="clipPath20"
       clipPathUnits="userSpaceOnUse"><path
         id="path18"
         d="M 0,990.394 H 1764.394 V 0 H 0 Z" /></clipPath><clipPath
       id="clipPath130"
       clipPathUnits="userSpaceOnUse"><path
         id="path128"
         d="M 0,990.394 H 1764.394 V 0 H 0 Z" /></clipPath></defs><g
     transform="matrix(1.3333333,0,0,-1.3333333,0,1320.5253)"
     id="g10"><path
       id="path12"
       style="fill:#231f20;fill-opacity:1;fill-rule:nonzero;stroke:none"
       d="M 244.109,179.746 H 1520.285 V 810.648 H 244.109 Z M 1534.432,165.6 H 229.963 v 659.195 h 1304.469 z" /><g
       id="g14"><g
         clip-path="url(#clipPath20)"
         id="g16"><g
           transform="translate(480.1817,439.3178)"
           id="g22"><path
             id="path24"
             style="fill:#231f20;fill-opacity:1;fill-rule:nonzero;stroke:none"
             d="m 0,0 v 74.994 c 0,9.397 -0.688,16.035 -2.058,19.918 -1.83,5.52 -5.983,10.371 -12.463,14.551 -6.477,4.175 -13.677,6.267 -21.604,6.267 -8.234,0 -15.855,-2.427 -22.865,-7.275 -7.014,-4.851 -12.576,-12.277 -16.694,-22.273 -4.117,-10.001 -6.171,-22.461 -6.171,-37.383 0,-20.746 4.649,-37.383 13.945,-49.917 7.164,-9.849 16.694,-14.773 28.584,-14.773 5.18,0 10.136,0.856 14.86,2.572 C -19.742,-11.606 -11.588,-7.164 0,0 M 72.952,264.592 V 4.255 c 0,-10.297 0.456,-16.53 1.37,-18.692 0.912,-2.165 2.473,-3.772 4.68,-4.813 2.205,-1.046 8.027,-1.569 17.468,-1.569 h 10.731 V -64.021 L 8.107,-67.379 v 23.055 c -14.311,-9.4 -26.869,-15.931 -37.674,-19.585 -10.811,-3.657 -21.617,-5.485 -32.424,-5.485 -17.506,0 -33.603,4.666 -48.291,13.991 -14.692,9.326 -26.714,23.168 -36.077,41.524 -9.362,18.355 -14.041,38.726 -14.041,61.11 0,22.684 4.763,43.239 14.287,61.671 9.526,18.431 21.953,32.348 37.272,41.749 15.319,9.402 32.433,14.102 51.334,14.102 9.754,0 19.092,-1.157 28.011,-3.469 8.918,-2.315 18.787,-6.379 29.611,-12.2 v 53.277 h -33.336 v 43.204 c 18.833,1.791 34.135,4.065 45.908,6.828 11.774,2.759 24.493,6.828 38.164,12.199 z" /></g><g
           transform="translate(716.423,564.5722)"
           id="g26"><path
             id="path28"
             style="fill:#231f20;fill-opacity:1;fill-rule:nonzero;stroke:none"
             d="m 0,0 c -9.55,0 -17.424,-3.507 -23.616,-10.521 -6.193,-7.016 -9.288,-16.492 -9.288,-28.43 0,-11.045 2.983,-19.849 8.955,-26.413 5.964,-6.569 13.655,-9.85 23.055,-9.85 9.25,0 16.976,3.393 23.167,10.185 6.193,6.788 9.292,15.558 9.292,26.302 0,11.938 -2.95,21.379 -8.842,28.319 C 16.826,-3.47 9.254,0 0,0 m -32.456,-200.205 c -7.912,-6.107 -12.948,-10.764 -15.113,-13.968 -2.165,-3.202 -3.245,-6.739 -3.245,-10.614 0,-7.297 5.967,-12.996 17.91,-17.095 11.938,-4.095 27.232,-6.144 45.889,-6.144 13.577,0 25.591,1.193 36.038,3.575 10.448,2.386 17.384,5.288 20.82,8.714 2.24,2.236 3.358,5.288 3.358,9.163 0,4.322 -2.24,7.935 -6.716,10.838 -4.475,2.905 -15.299,5.4 -32.459,7.486 z M 63.576,24.529 c 7.908,11.228 15.817,19.2 23.729,23.913 7.908,4.716 16.265,7.075 25.07,7.075 8.803,0 15.742,-2.575 20.819,-7.724 5.072,-5.148 7.61,-11.752 7.61,-19.812 0,-7.313 -2.426,-13.395 -7.276,-18.243 -4.85,-4.851 -10.855,-7.276 -18.019,-7.276 l -7.389,0.225 -7.609,0.224 c -4.031,0 -8.058,-1.497 -12.088,-4.492 8.207,-13.606 12.312,-26.61 12.312,-39.02 0,-13.159 -4.067,-25.939 -12.2,-38.349 -8.137,-12.409 -19.402,-22.052 -33.802,-28.929 -14.403,-6.877 -31.674,-10.315 -51.821,-10.315 -5.821,0 -11.681,0.337 -17.573,1.006 -5.897,0.673 -11.83,1.681 -17.795,3.023 -4.03,-2.541 -7.093,-4.998 -9.18,-7.381 -2.09,-2.386 -3.133,-4.616 -3.133,-6.703 0,-4.618 4.775,-7.599 14.325,-8.938 l 92.677,-13.182 c 27.607,-3.878 47.529,-11.256 59.767,-22.135 12.234,-11.031 18.355,-24.15 18.355,-39.351 0,-13.415 -4.625,-25.826 -13.876,-37.228 -9.257,-11.402 -24.367,-20.755 -45.333,-28.058 -20.965,-7.303 -47.419,-10.954 -79.355,-10.954 -28.059,0 -51.264,2.719 -69.619,8.16 -18.356,5.445 -31.376,12.299 -39.063,20.572 -7.687,8.278 -11.527,16.142 -11.527,23.595 0,8.5 2.872,16.14 8.618,22.92 5.744,6.787 17.572,14.577 35.481,23.369 -11.045,4.03 -19.329,8.958 -24.848,14.783 -7.463,7.759 -11.193,15.749 -11.193,23.963 0,8.955 3.469,17.764 10.41,26.423 6.939,8.658 17.348,17.243 31.226,25.753 -7.759,4.776 -13.843,9.964 -18.243,15.563 -4.404,5.598 -7.984,12.429 -10.746,20.49 -2.763,8.063 -4.141,16.349 -4.141,24.862 0,22.392 9.14,41.43 27.423,57.107 18.279,15.677 42.345,23.514 72.195,23.514 13.281,0 25.407,-1.538 36.374,-4.613 10.97,-3.074 20.782,-7.688 29.438,-13.837" /></g><g
           transform="translate(981.3068,604.0712)"
           id="g30"><path
             id="path32"
             style="fill:#231f20;fill-opacity:1;fill-rule:nonzero;stroke:none"
             d="m 0,0 v -165.423 c 0,-7.911 0.445,-12.762 1.343,-14.553 0.893,-1.791 2.498,-3.17 4.812,-4.139 2.311,-0.975 7.5,-1.457 15.559,-1.457 h 12.088 v -43.202 h -138.34 v 43.202 h 11.864 c 7.755,0 12.721,0.411 14.886,1.233 2.161,0.818 3.766,2.198 4.811,4.14 1.044,1.936 1.568,5.821 1.568,11.639 v 106.777 h -33.129 v 42.085 c 11.786,0.595 23.09,1.865 33.91,3.805 10.821,1.937 20.483,4.253 28.989,6.94 5.52,1.791 12.314,4.775 20.371,8.953 z" /></g><path
           id="path34"
           style="fill:#231f20;fill-opacity:1;fill-rule:nonzero;stroke:none"
           d="M 1444.612,287.769 H 320.74 v 27.405 h 1123.872 z" /><g
           transform="translate(1079.4454,595.2514)"
           id="g36"><path
             id="path38"
             style="fill:#231f20;fill-opacity:1;fill-rule:nonzero;stroke:none"
             d="m 0,0 v -36.324 c 0,-1.23 0.069,-1.984 0.209,-2.262 0.223,-0.42 0.55,-0.707 0.982,-0.86 0.432,-0.154 1.47,-0.23 3.115,-0.23 4.571,0 8.145,0.705 10.724,2.116 2.577,1.41 4.661,3.672 6.25,6.787 1.589,3.114 2.383,6.822 2.383,11.124 0,4.245 -0.746,7.939 -2.236,11.081 -1.491,3.142 -3.338,5.356 -5.54,6.641 C 13.685,-0.643 10.535,0 6.438,0 Z M -21.364,9.323 H 9.219 c 6.944,0 12.467,-1.101 16.567,-3.302 4.1,-2.203 7.37,-5.464 9.811,-9.784 2.441,-4.32 3.661,-9.505 3.661,-15.552 0,-4.209 -0.62,-7.972 -1.862,-11.289 -1.241,-3.317 -3.089,-6.306 -5.543,-8.968 -2.456,-2.662 -5.09,-4.661 -7.908,-5.999 -2.12,-1.004 -5.125,-1.826 -9.015,-2.467 C 11.038,-48.679 7.921,-49 5.579,-49 h -26.943 v 8.069 h 2.018 c 1.71,0 2.832,0.139 3.366,0.419 0.532,0.278 0.966,0.752 1.303,1.421 0.224,0.529 0.336,1.686 0.336,3.47 v 31.858 c 0,1.784 -0.119,2.933 -0.357,3.45 -0.239,0.515 -0.631,0.905 -1.178,1.17 -0.547,0.265 -1.703,0.397 -3.47,0.397 h -2.018 z" /></g><g
           transform="translate(1137.7687,607.6269)"
           id="g40"><path
             id="path42"
             style="fill:#231f20;fill-opacity:1;fill-rule:nonzero;stroke:none"
             d="m 0,0 c 2.117,0 3.923,-0.746 5.414,-2.237 1.49,-1.491 2.236,-3.296 2.236,-5.414 0,-2.147 -0.746,-3.965 -2.236,-5.456 -1.491,-1.492 -3.297,-2.237 -5.414,-2.237 -2.119,0 -3.924,0.745 -5.414,2.237 -1.492,1.491 -2.237,3.295 -2.237,5.414 0,2.09 0.766,3.895 2.299,5.414 C -3.819,-0.76 -2.035,0 0,0 m 6.772,-18.646 v -30.897 c 0,-1.478 0.084,-2.383 0.251,-2.718 0.167,-0.334 0.467,-0.592 0.9,-0.773 0.431,-0.182 1.4,-0.272 2.905,-0.272 h 2.258 v -8.069 h -25.838 v 8.069 h 2.216 c 1.449,0 2.376,0.077 2.78,0.23 0.404,0.153 0.704,0.411 0.9,0.773 0.194,0.363 0.292,1.088 0.292,2.175 v 19.942 h -6.188 v 7.86 c 2.201,0.111 4.313,0.348 6.334,0.711 2.021,0.362 3.825,0.794 5.414,1.296 1.031,0.335 2.3,0.892 3.805,1.673 z" /></g><g
           transform="translate(1176.0646,580.9531)"
           id="g44"><path
             id="path46"
             style="fill:#231f20;fill-opacity:1;fill-rule:nonzero;stroke:none"
             d="m 0,0 c -1.784,0 -3.255,-0.655 -4.411,-1.965 -1.156,-1.31 -1.735,-3.08 -1.735,-5.31 0,-2.063 0.557,-3.707 1.672,-4.933 1.115,-1.227 2.551,-1.84 4.307,-1.84 1.728,0 3.17,0.634 4.327,1.902 1.156,1.269 1.736,2.906 1.736,4.913 0,2.23 -0.551,3.993 -1.652,5.289 C 3.143,-0.648 1.728,0 0,0 m -6.062,-37.393 c -1.478,-1.14 -2.418,-2.01 -2.822,-2.608 -0.404,-0.599 -0.606,-1.259 -0.606,-1.983 0,-1.362 1.114,-2.427 3.344,-3.192 2.23,-0.765 5.086,-1.148 8.571,-1.148 2.536,0 4.78,0.223 6.731,0.668 1.95,0.445 3.247,0.988 3.888,1.628 0.419,0.417 0.628,0.987 0.628,1.711 0,0.807 -0.418,1.482 -1.255,2.024 -0.836,0.543 -2.857,1.008 -6.062,1.398 z M 11.874,4.581 c 1.477,2.097 2.954,3.586 4.432,4.466 1.476,0.881 3.037,1.322 4.682,1.322 1.644,0 2.941,-0.481 3.888,-1.443 0.947,-0.962 1.422,-2.195 1.422,-3.7 0,-1.366 -0.453,-2.502 -1.36,-3.408 C 24.033,0.913 22.911,0.46 21.573,0.46 l -1.38,0.041 -1.421,0.042 c -0.752,0 -1.505,-0.279 -2.257,-0.838 1.532,-2.541 2.299,-4.97 2.299,-7.288 0,-2.458 -0.759,-4.845 -2.279,-7.163 -1.519,-2.317 -3.623,-4.118 -6.312,-5.402 -2.691,-1.285 -5.916,-1.927 -9.679,-1.927 -1.087,0 -2.182,0.063 -3.282,0.188 -1.102,0.126 -2.209,0.314 -3.324,0.565 -0.752,-0.475 -1.325,-0.934 -1.714,-1.38 -0.391,-0.445 -0.585,-0.862 -0.585,-1.251 0,-0.863 0.891,-1.42 2.675,-1.67 l 17.309,-2.462 c 5.156,-0.724 8.877,-2.102 11.163,-4.134 2.285,-2.06 3.428,-4.51 3.428,-7.349 0,-2.506 -0.864,-4.824 -2.592,-6.953 -1.728,-2.13 -4.551,-3.876 -8.467,-5.241 -3.916,-1.363 -8.856,-2.046 -14.82,-2.046 -5.241,0 -9.574,0.509 -13.003,1.524 -3.428,1.017 -5.86,2.298 -7.296,3.843 -1.435,1.546 -2.152,3.015 -2.152,4.407 0,1.587 0.536,3.014 1.609,4.281 1.072,1.267 3.282,2.722 6.627,4.364 -2.063,0.752 -3.61,1.673 -4.641,2.761 -1.394,1.449 -2.09,2.941 -2.09,4.475 0,1.673 0.647,3.318 1.944,4.935 1.296,1.618 3.24,3.221 5.832,4.81 -1.45,0.893 -2.586,1.862 -3.407,2.908 -0.823,1.044 -1.491,2.32 -2.007,3.826 -0.517,1.506 -0.773,3.053 -0.773,4.644 0,4.182 1.707,7.738 5.121,10.665 3.414,2.928 7.908,4.392 13.483,4.392 2.481,0 4.745,-0.287 6.794,-0.861 2.049,-0.575 3.881,-1.437 5.498,-2.585" /></g><g
           transform="translate(1218.2501,607.6269)"
           id="g48"><path
             id="path50"
             style="fill:#231f20;fill-opacity:1;fill-rule:nonzero;stroke:none"
             d="m 0,0 c 2.117,0 3.923,-0.746 5.414,-2.237 1.49,-1.491 2.236,-3.296 2.236,-5.414 0,-2.147 -0.746,-3.965 -2.236,-5.456 -1.491,-1.492 -3.297,-2.237 -5.414,-2.237 -2.119,0 -3.924,0.745 -5.414,2.237 -1.492,1.491 -2.237,3.295 -2.237,5.414 0,2.09 0.766,3.895 2.299,5.414 C -3.819,-0.76 -2.035,0 0,0 m 6.772,-18.646 v -30.897 c 0,-1.478 0.084,-2.383 0.251,-2.718 0.167,-0.334 0.467,-0.592 0.9,-0.773 0.431,-0.182 1.4,-0.272 2.905,-0.272 h 2.258 v -8.069 h -25.838 v 8.069 h 2.216 c 1.449,0 2.376,0.077 2.78,0.23 0.404,0.153 0.704,0.411 0.9,0.773 0.194,0.363 0.292,1.088 0.292,2.175 v 19.942 h -6.188 v 7.86 c 2.201,0.111 4.313,0.348 6.334,0.711 2.021,0.362 3.825,0.794 5.414,1.296 1.031,0.335 2.3,0.892 3.805,1.673 z" /></g><g
           transform="translate(1254.9991,602.3173)"
           id="g52"><path
             id="path54"
             style="fill:#231f20;fill-opacity:1;fill-rule:nonzero;stroke:none"
             d="m 0,0 v -14.34 h 13.463 v -8.906 H 0 v -14.549 c 0,-3.289 0.174,-5.401 0.522,-6.334 0.349,-0.934 0.997,-1.68 1.945,-2.237 1.254,-0.752 2.689,-1.129 4.306,-1.129 2.871,0 5.728,0.934 8.571,2.802 v -8.948 c -2.425,-1.143 -4.62,-1.943 -6.585,-2.403 -1.965,-0.46 -4.091,-0.69 -6.376,-0.69 -2.592,0 -4.885,0.328 -6.877,0.982 -1.993,0.655 -3.694,1.589 -5.101,2.801 -1.408,1.213 -2.384,2.502 -2.926,3.868 -0.544,1.365 -0.816,3.344 -0.816,5.937 v 19.9 h -6.271 v 8.028 c 2.229,0.724 4.139,1.762 5.728,3.114 1.588,1.352 2.863,2.975 3.825,4.871 0.961,1.895 1.623,4.306 1.986,7.233 z" /></g><g
           transform="translate(1300.8634,564.6059)"
           id="g56"><path
             id="path58"
             style="fill:#231f20;fill-opacity:1;fill-rule:nonzero;stroke:none"
             d="m 0,0 c -3.651,-0.53 -6.229,-1.066 -7.734,-1.61 -1.506,-0.543 -2.579,-1.226 -3.22,-2.048 -0.642,-0.823 -0.961,-1.666 -0.961,-2.529 0,-1.116 0.418,-2.049 1.254,-2.802 0.836,-0.752 1.965,-1.129 3.387,-1.129 0.92,0 1.985,0.237 3.198,0.711 1.212,0.473 2.571,1.171 4.076,2.091 z m 0,6.94 v 3.094 c 0,1.84 -0.153,3.108 -0.46,3.804 -0.307,0.697 -0.864,1.276 -1.672,1.736 -0.809,0.46 -1.812,0.69 -3.011,0.69 -0.919,0 -1.755,-0.154 -2.508,-0.46 -0.752,-0.307 -1.352,-0.698 -1.798,-1.171 -0.446,-0.474 -0.961,-1.394 -1.547,-2.759 -0.752,-1.729 -1.651,-2.969 -2.696,-3.721 -1.045,-0.753 -2.279,-1.129 -3.701,-1.129 -1.784,0 -3.247,0.557 -4.389,1.672 -1.144,1.115 -1.714,2.494 -1.714,4.139 0,1.867 0.585,3.526 1.756,4.976 1.56,1.922 3.887,3.497 6.981,4.724 3.094,1.226 6.578,1.84 10.452,1.84 3.874,0 7.171,-0.628 9.888,-1.882 2.718,-1.254 4.613,-2.753 5.687,-4.494 1.072,-1.743 1.609,-4.397 1.609,-7.965 V -4.934 c 0,-1.839 0.098,-3.017 0.293,-3.532 0.194,-0.516 0.612,-0.969 1.254,-1.359 0.64,-0.391 1.351,-0.585 2.132,-0.585 0.78,0 1.825,0.222 3.135,0.669 v -8.153 c -2.369,-0.752 -4.64,-1.129 -6.814,-1.129 -2.564,0 -4.753,0.418 -6.564,1.254 -1.812,0.836 -3.331,2.091 -4.557,3.763 -2.787,-1.812 -5.317,-3.101 -7.588,-3.867 -2.272,-0.767 -4.468,-1.15 -6.585,-1.15 -3.986,0 -7.206,1.122 -9.658,3.366 -2.453,2.243 -3.679,5.01 -3.679,8.299 0,1.867 0.425,3.581 1.275,5.142 0.85,1.561 2.118,2.926 3.804,4.097 1.687,1.171 4.292,2.209 7.819,3.115 C -9.33,5.901 -5.045,6.549 0,6.94" /></g><g
           transform="translate(1343.9679,607.6269)"
           id="g60"><path
             id="path62"
             style="fill:#231f20;fill-opacity:1;fill-rule:nonzero;stroke:none"
             d="m 0,0 v -48.916 c 0,-1.645 0.069,-2.62 0.21,-2.927 0.194,-0.557 0.627,-0.961 1.296,-1.212 0.418,-0.167 1.547,-0.251 3.386,-0.251 h 1.463 v -8.069 h -25.879 v 8.069 h 1.588 c 1.673,0 2.746,0.104 3.22,0.314 0.474,0.209 0.821,0.543 1.045,1.003 0.223,0.46 0.334,1.484 0.334,3.073 v 37.293 h -6.187 v 8.069 c 4.989,0.339 10.145,1.523 15.469,3.554 z" /></g><g
           transform="translate(1092.4894,491.7333)"
           id="g64"><path
             id="path66"
             style="fill:#231f20;fill-opacity:1;fill-rule:nonzero;stroke:none"
             d="M 0,0 H 28.472 V -8.153 H 26.34 c -1.395,0 -2.349,-0.126 -2.864,-0.377 -0.516,-0.25 -0.899,-0.647 -1.15,-1.191 -0.251,-0.543 -0.377,-1.582 -0.377,-3.114 v -18.271 h -8.563 l -2.215,4.181 c -2.618,-1.729 -5.334,-3.025 -8.147,-3.888 -2.813,-0.864 -5.738,-1.296 -8.773,-1.296 -5.32,0 -10.166,1.296 -14.539,3.888 -4.373,2.592 -7.833,6.215 -10.382,10.87 -2.548,4.654 -3.822,9.867 -3.822,15.637 0,5.714 1.261,10.828 3.78,15.344 2.521,4.515 6.044,8.075 10.57,10.682 4.526,2.605 9.435,3.909 14.727,3.909 2.562,0 5.117,-0.328 7.666,-0.983 2.549,-0.655 4.728,-1.526 6.538,-2.613 l 1.546,2.592 h 5.849 L 21.448,7.902 13.755,5.394 c -2.62,4.236 -4.69,7.121 -6.208,8.654 -1.52,1.532 -3.262,2.731 -5.227,3.595 -1.965,0.864 -3.882,1.296 -5.748,1.296 -2.648,0 -5.122,-0.767 -7.422,-2.299 -2.298,-1.534 -4.118,-3.77 -5.456,-6.71 -1.338,-2.941 -2.006,-6.502 -2.006,-10.682 0,-4.6 0.732,-8.586 2.195,-11.958 1.464,-3.373 3.38,-5.874 5.749,-7.504 2.368,-1.631 4.974,-2.447 7.818,-2.447 2.007,0 3.909,0.404 5.706,1.213 1.798,0.808 3.031,1.714 3.7,2.717 0.669,1.004 1.004,2.356 1.004,4.056 v 2.133 c 0,1.476 -0.098,2.41 -0.293,2.8 C 7.261,-9.184 6.85,-8.78 6.334,-8.53 5.818,-8.279 4.809,-8.153 3.303,-8.153 H 0 Z" /></g><g
           transform="translate(1148.3038,494.2001)"
           id="g68"><path
             id="path70"
             style="fill:#231f20;fill-opacity:1;fill-rule:nonzero;stroke:none"
             d="m 0,0 c -1.588,0 -3.08,-0.474 -4.473,-1.421 -1.394,-0.948 -2.474,-2.342 -3.24,-4.182 -0.767,-1.84 -1.15,-4.181 -1.15,-7.023 0,-2.927 0.377,-5.352 1.129,-7.275 0.753,-1.924 1.791,-3.345 3.115,-4.265 1.323,-0.919 2.78,-1.379 4.369,-1.379 2.452,0 4.557,1.038 6.312,3.114 1.756,2.076 2.634,5.303 2.634,9.679 0,4.236 -0.815,7.421 -2.445,9.554 C 4.62,-1.066 2.536,0 0,0 m -0.167,9.156 c 4.767,0 8.919,-0.934 12.459,-2.801 3.539,-1.868 6.265,-4.411 8.174,-7.63 1.908,-3.22 2.863,-6.99 2.863,-11.309 0,-6.523 -2.118,-11.819 -6.354,-15.888 -4.238,-4.07 -9.895,-6.104 -16.975,-6.104 -7.219,0 -12.96,2.048 -17.225,6.146 -4.125,3.901 -6.187,9.183 -6.187,15.846 0,4.375 0.94,8.137 2.822,11.288 1.881,3.15 4.606,5.679 8.173,7.588 3.567,1.909 7.651,2.864 12.25,2.864" /></g><g
           transform="translate(1196.7179,522.0029)"
           id="g72"><path
             id="path74"
             style="fill:#231f20;fill-opacity:1;fill-rule:nonzero;stroke:none"
             d="m 0,0 v -48.917 c 0,-1.644 0.069,-2.62 0.21,-2.926 0.194,-0.558 0.627,-0.962 1.296,-1.212 0.418,-0.168 1.547,-0.251 3.386,-0.251 h 1.463 v -8.069 h -25.879 v 8.069 h 1.588 c 1.673,0 2.746,0.104 3.22,0.313 0.474,0.209 0.821,0.543 1.045,1.003 0.223,0.46 0.334,1.485 0.334,3.073 v 37.294 h -6.187 v 8.069 c 4.989,0.339 10.145,1.523 15.469,3.554 z" /></g><g
           transform="translate(1237.0841,472.5844)"
           id="g76"><path
             id="path78"
             style="fill:#231f20;fill-opacity:1;fill-rule:nonzero;stroke:none"
             d="m 0,0 v 14.007 c 0,1.755 -0.126,2.995 -0.377,3.721 -0.335,1.03 -1.096,1.937 -2.281,2.717 -1.187,0.78 -2.505,1.171 -3.956,1.171 -1.508,0 -2.904,-0.453 -4.188,-1.359 -1.284,-0.906 -2.302,-2.293 -3.056,-4.16 -0.753,-1.868 -1.13,-4.196 -1.13,-6.983 0,-3.874 0.851,-6.981 2.553,-9.323 1.312,-1.84 3.057,-2.759 5.235,-2.759 0.948,0 1.855,0.159 2.721,0.481 C -3.615,-2.167 -2.121,-1.338 0,0 M 13.358,49.418 V 0.795 c 0,-1.924 0.083,-3.088 0.251,-3.491 0.167,-0.405 0.453,-0.704 0.857,-0.9 0.404,-0.195 1.47,-0.292 3.198,-0.292 h 1.965 v -8.069 L 1.484,-12.584 v 4.306 c -2.62,-1.756 -4.92,-2.976 -6.898,-3.659 -1.98,-0.682 -3.958,-1.023 -5.937,-1.023 -3.206,0 -6.153,0.871 -8.842,2.612 -2.691,1.743 -4.892,4.327 -6.606,7.756 -1.714,3.428 -2.571,7.233 -2.571,11.414 0,4.237 0.872,8.075 2.616,11.518 1.744,3.443 4.02,6.042 6.824,7.798 2.806,1.756 5.94,2.634 9.401,2.634 1.786,0 3.495,-0.216 5.129,-0.648 1.632,-0.433 3.439,-1.192 5.421,-2.279 v 9.95 h -6.104 v 8.07 c 3.448,0.334 6.251,0.759 8.406,1.275 2.156,0.515 4.485,1.275 6.989,2.278 z" /></g><g
           transform="translate(1057.8302,433.3266)"
           id="g80"><path
             id="path82"
             style="fill:#231f20;fill-opacity:1;fill-rule:nonzero;stroke:none"
             d="M 0,0 H 28.472 V -8.069 H 25.88 c -1.506,0 -2.502,-0.133 -2.989,-0.398 -0.489,-0.264 -0.851,-0.683 -1.088,-1.254 -0.237,-0.571 -0.355,-1.666 -0.355,-3.282 V -45.28 c 0,-1.756 0.097,-2.885 0.292,-3.386 0.196,-0.501 0.53,-0.864 1.004,-1.087 0.585,-0.334 1.463,-0.501 2.634,-0.501 h 3.094 v -8.07 H 0 v 8.07 h 2.313 c 1.654,0 2.734,0.118 3.239,0.355 0.504,0.236 0.876,0.612 1.114,1.129 0.238,0.515 0.357,1.539 0.357,3.072 v 32.402 c 0,1.811 -0.119,3.004 -0.357,3.575 -0.238,0.571 -0.638,1.01 -1.198,1.317 -0.394,0.223 -1.347,0.335 -2.861,0.335 l -2.607,0 z" /></g><g
           transform="translate(1110.9269,417.7314)"
           id="g84"><path
             id="path86"
             style="fill:#231f20;fill-opacity:1;fill-rule:nonzero;stroke:none"
             d="m 0,0 v -5.561 c 3.149,2.146 5.847,3.61 8.09,4.39 2.243,0.78 4.536,1.171 6.878,1.171 2.703,0 5.094,-0.572 7.17,-1.714 2.076,-1.143 3.589,-2.571 4.536,-4.286 0.947,-1.714 1.422,-4.146 1.422,-7.295 v -17.392 c 0,-1.478 0.104,-2.425 0.313,-2.843 0.209,-0.418 0.536,-0.726 0.983,-0.92 0.335,-0.14 1.337,-0.209 3.009,-0.209 h 2.049 v -8.07 H 9.909 v 8.07 c 1.866,0.027 2.912,0.069 3.136,0.125 0.696,0.194 1.156,0.514 1.379,0.96 0.222,0.444 0.335,1.405 0.335,2.88 v 15.317 c 0,1.976 -0.209,3.256 -0.627,3.84 -0.669,0.974 -1.729,1.461 -3.178,1.461 -1.199,0 -2.481,-0.265 -3.847,-0.793 -1.366,-0.529 -3.205,-1.614 -5.518,-3.255 v -16.57 c 0,-1.809 0.196,-2.922 0.591,-3.339 0.392,-0.418 1.335,-0.626 2.826,-0.626 h 1.349 v -8.07 h -24.291 v 8.07 h 1.212 c 1.924,0 3.116,0.083 3.576,0.25 0.46,0.167 0.807,0.459 1.044,0.877 0.237,0.416 0.356,1.237 0.356,2.462 v 19.447 h -6.188 v 8.069 c 5.005,0.62 9.691,1.805 14.057,3.554 z" /></g><g
           transform="translate(1178.9913,416.7275)"
           id="g88"><path
             id="path90"
             style="fill:#231f20;fill-opacity:1;fill-rule:nonzero;stroke:none"
             d="M 0,0 H 5.477 L 8.863,-11.622 0.962,-14.8 c -1.506,2.425 -3.394,4.327 -5.665,5.707 -2.273,1.38 -4.523,2.07 -6.752,2.07 -1.479,0 -2.579,-0.251 -3.304,-0.753 -0.724,-0.501 -1.087,-1.102 -1.087,-1.798 0,-0.585 0.258,-1.129 0.774,-1.63 0.515,-0.502 1.582,-1.032 3.198,-1.589 l 11.498,-4.098 c 2.034,-0.724 3.985,-1.63 5.853,-2.716 1.867,-1.088 3.267,-2.419 4.202,-3.994 0.933,-1.575 1.4,-3.421 1.4,-5.54 0,-3.79 -1.449,-6.898 -4.348,-9.323 -3.401,-2.843 -7.637,-4.264 -12.71,-4.264 -4.348,0 -8.138,1.101 -11.372,3.303 l -1.17,-2.3 h -5.561 l -5.143,13.713 7.903,3.345 c 1.978,-3.094 4.417,-5.525 7.316,-7.295 2.899,-1.77 5.561,-2.655 7.985,-2.655 1.505,0 2.774,0.348 3.805,1.045 0.78,0.557 1.171,1.213 1.171,1.965 0,0.641 -0.308,1.254 -0.92,1.839 -0.613,0.586 -1.965,1.241 -4.056,1.965 l -9.03,3.136 c -4.99,1.756 -8.383,3.631 -10.18,5.623 -1.798,1.993 -2.697,4.356 -2.697,7.087 0,3.512 1.407,6.466 4.223,8.863 3.204,2.732 7.163,4.098 11.873,4.098 4.181,0 7.763,-0.948 10.745,-2.843 z" /></g><g
           transform="translate(1213.9435,431.0688)"
           id="g92"><path
             id="path94"
             style="fill:#231f20;fill-opacity:1;fill-rule:nonzero;stroke:none"
             d="m 0,0 v -14.341 h 13.463 v -8.906 H 0 v -14.548 c 0,-3.289 0.174,-5.401 0.522,-6.334 0.349,-0.935 0.997,-1.68 1.945,-2.238 1.254,-0.752 2.689,-1.129 4.306,-1.129 2.871,0 5.728,0.934 8.571,2.802 v -8.947 c -2.425,-1.144 -4.62,-1.944 -6.585,-2.404 -1.965,-0.46 -4.091,-0.69 -6.376,-0.69 -2.592,0 -4.885,0.328 -6.877,0.983 -1.993,0.654 -3.694,1.588 -5.101,2.8 -1.408,1.213 -2.384,2.502 -2.926,3.869 -0.544,1.365 -0.816,3.344 -0.816,5.936 v 19.9 h -6.271 v 8.028 c 2.229,0.724 4.139,1.762 5.728,3.115 1.588,1.352 2.863,2.975 3.825,4.87 0.961,1.896 1.623,4.307 1.986,7.234 z" /></g><g
           transform="translate(1247.3907,436.3784)"
           id="g96"><path
             id="path98"
             style="fill:#231f20;fill-opacity:1;fill-rule:nonzero;stroke:none"
             d="m 0,0 c 2.117,0 3.923,-0.746 5.414,-2.236 1.49,-1.493 2.236,-3.297 2.236,-5.415 0,-2.147 -0.746,-3.965 -2.236,-5.457 -1.491,-1.491 -3.297,-2.236 -5.414,-2.236 -2.119,0 -3.924,0.745 -5.414,2.236 -1.492,1.492 -2.237,3.296 -2.237,5.416 0,2.089 0.766,3.894 2.299,5.414 C -3.819,-0.76 -2.035,0 0,0 m 6.772,-18.647 v -30.896 c 0,-1.478 0.084,-2.383 0.251,-2.718 0.167,-0.334 0.467,-0.593 0.9,-0.774 0.431,-0.181 1.4,-0.271 2.905,-0.271 h 2.258 v -8.069 h -25.838 v 8.069 h 2.216 c 1.449,0 2.376,0.076 2.78,0.229 0.404,0.154 0.704,0.411 0.9,0.774 0.194,0.362 0.292,1.087 0.292,2.174 v 19.943 h -6.188 v 7.859 c 2.201,0.112 4.313,0.349 6.334,0.711 2.021,0.363 3.825,0.795 5.414,1.296 1.031,0.335 2.3,0.892 3.805,1.673 z" /></g><g
           transform="translate(1284.1398,431.0688)"
           id="g100"><path
             id="path102"
             style="fill:#231f20;fill-opacity:1;fill-rule:nonzero;stroke:none"
             d="m 0,0 v -14.341 h 13.463 v -8.906 H 0 v -14.548 c 0,-3.289 0.174,-5.401 0.522,-6.334 0.349,-0.935 0.997,-1.68 1.945,-2.238 1.254,-0.752 2.689,-1.129 4.306,-1.129 2.871,0 5.728,0.934 8.571,2.802 v -8.947 c -2.425,-1.144 -4.62,-1.944 -6.585,-2.404 -1.965,-0.46 -4.091,-0.69 -6.376,-0.69 -2.592,0 -4.885,0.328 -6.877,0.983 -1.993,0.654 -3.694,1.588 -5.101,2.8 -1.408,1.213 -2.384,2.502 -2.926,3.869 -0.544,1.365 -0.816,3.344 -0.816,5.936 v 19.9 h -6.271 v 8.028 c 2.229,0.724 4.139,1.762 5.728,3.115 1.588,1.352 2.863,2.975 3.825,4.87 0.961,1.896 1.623,4.307 1.986,7.234 z" /></g><g
           transform="translate(1303.7062,416.7275)"
           id="g104"><path
             id="path106"
             style="fill:#231f20;fill-opacity:1;fill-rule:nonzero;stroke:none"
             d="m 0,0 19.524,0.377 v -27.134 c 0,-1.924 0.119,-3.206 0.356,-3.847 0.236,-0.641 0.669,-1.164 1.296,-1.567 0.628,-0.405 1.415,-0.606 2.362,-0.606 1.394,0 2.871,0.334 4.432,1.003 0.613,0.278 2.244,1.268 4.891,2.968 V -12.5 c 0,1.421 -0.112,2.396 -0.337,2.926 -0.224,0.529 -0.546,0.913 -0.967,1.15 -0.421,0.236 -1.235,0.356 -2.442,0.356 H 26.674 V 0 l 19.608,0.377 v -29.936 c 0,-1.56 0.09,-2.544 0.272,-2.947 0.181,-0.404 0.473,-0.697 0.878,-0.878 0.404,-0.181 1.373,-0.271 2.906,-0.271 h 2.216 v -8.07 l -18.355,-0.502 v 4.934 c -2.449,-1.812 -4.912,-3.171 -7.389,-4.076 -2.477,-0.905 -4.967,-1.359 -7.472,-1.359 -2.004,0 -3.848,0.328 -5.531,0.983 -1.685,0.654 -3.097,1.532 -4.238,2.634 -1.141,1.1 -1.99,2.389 -2.547,3.867 -0.556,1.476 -0.835,3.372 -0.835,5.685 v 17.226 c 0,1.589 -0.09,2.592 -0.273,3.01 -0.183,0.418 -0.484,0.731 -0.905,0.941 -0.421,0.209 -1.32,0.314 -2.694,0.314 l -2.315,0 z" /></g><g
           transform="translate(1380.049,431.0688)"
           id="g108"><path
             id="path110"
             style="fill:#231f20;fill-opacity:1;fill-rule:nonzero;stroke:none"
             d="m 0,0 v -14.341 h 13.463 v -8.906 H 0 v -14.548 c 0,-3.289 0.174,-5.401 0.522,-6.334 0.349,-0.935 0.997,-1.68 1.945,-2.238 1.254,-0.752 2.689,-1.129 4.306,-1.129 2.871,0 5.728,0.934 8.571,2.802 v -8.947 c -2.425,-1.144 -4.62,-1.944 -6.585,-2.404 -1.965,-0.46 -4.091,-0.69 -6.376,-0.69 -2.592,0 -4.885,0.328 -6.877,0.983 -1.993,0.654 -3.694,1.588 -5.101,2.8 -1.408,1.213 -2.384,2.502 -2.926,3.869 -0.544,1.365 -0.816,3.344 -0.816,5.936 v 19.9 h -6.271 v 8.028 c 2.229,0.724 4.139,1.762 5.728,3.115 1.588,1.352 2.863,2.975 3.825,4.87 0.961,1.896 1.623,4.307 1.986,7.234 z" /></g><g
           transform="translate(1430.0939,402.5546)"
           id="g112"><path
             id="path114"
             style="fill:#231f20;fill-opacity:1;fill-rule:nonzero;stroke:none"
             d="m 0,0 c -0.196,1.673 -0.594,2.989 -1.194,3.951 -0.602,0.961 -1.412,1.728 -2.433,2.299 -1.02,0.571 -2.09,0.857 -3.208,0.857 -1.175,0 -2.307,-0.293 -3.396,-0.878 C -11.322,5.645 -12.195,4.85 -12.853,3.847 -13.51,2.843 -13.936,1.561 -14.131,0 Z m 8.362,-12.083 5.728,-5.77 c -3.289,-3.762 -6.642,-6.487 -10.056,-8.172 -3.414,-1.687 -7.1,-2.53 -11.057,-2.53 -6.356,0 -11.707,2.153 -16.055,6.459 -4.349,4.307 -6.523,9.512 -6.523,15.616 0,4.013 0.976,7.685 2.927,11.016 1.951,3.33 4.654,5.937 8.112,7.818 3.455,1.882 7.372,2.823 11.748,2.823 2.786,0 5.323,-0.405 7.609,-1.213 2.284,-0.809 4.285,-1.965 5.999,-3.47 1.714,-1.505 3.094,-3.324 4.139,-5.456 1.046,-2.132 1.762,-4.342 2.153,-6.627 0.168,-1.142 0.251,-2.954 0.251,-5.434 H -14.8 c 0.056,-3.54 1.094,-6.405 3.114,-8.592 2.021,-2.189 4.495,-3.282 7.421,-3.282 1.868,0 3.903,0.564 6.105,1.693 2.201,1.129 4.375,2.836 6.522,5.121" /></g><g
           transform="translate(945.0411,703.9096)"
           id="g116"><path
             id="path118"
             style="fill:#d01e25;fill-opacity:1;fill-rule:nonzero;stroke:none"
             d="m 0,0 c 11.341,0 21.003,-3.993 28.989,-11.976 7.984,-7.985 11.977,-17.649 11.977,-28.988 0,-11.494 -3.993,-21.232 -11.977,-29.214 C 21.003,-78.163 11.341,-82.154 0,-82.154 c -11.341,0 -21.006,3.991 -28.989,11.976 -7.984,7.982 -11.977,17.647 -11.977,28.99 0,11.193 4.106,20.853 12.314,28.989 C -20.445,-4.068 -10.896,0 0,0" /></g></g></g><g
       transform="translate(102.1878,795.6072)"
       id="g120"><path
         id="path122"
         style="fill:#231f20;fill-opacity:1;fill-rule:nonzero;stroke:none"
         d="M 0,0 V -795.607 H 12.569 V -12.569 H 825.79 v -783.038 h 12.568 V 0 Z" /></g><g
       id="g124"><g
         clip-path="url(#clipPath130)"
         id="g126"><g
           transform="translate(333.5216,371.5556)"
           id="g132"><path
             id="path134"
             style="fill:#231f20;fill-opacity:1;fill-rule:nonzero;stroke:none"
             d="m 0,0 v 75.057 c 0,9.405 -0.689,16.049 -2.06,19.936 -1.832,5.524 -5.988,10.379 -12.473,14.563 -6.483,4.178 -13.689,6.272 -21.622,6.272 -8.242,0 -15.87,-2.429 -22.885,-7.281 -7.021,-4.855 -12.587,-12.287 -16.708,-22.293 -4.121,-10.008 -6.177,-22.48 -6.177,-37.413 0,-20.764 4.653,-37.416 13.958,-49.96 7.17,-9.858 16.708,-14.786 28.607,-14.786 5.186,0 10.145,0.857 14.873,2.575 C -19.759,-11.616 -11.597,-7.171 0,0 M 73.015,264.816 V 4.259 c 0,-10.307 0.455,-16.545 1.37,-18.708 0.913,-2.167 2.475,-3.776 4.684,-4.817 2.207,-1.047 8.034,-1.571 17.484,-1.571 h 10.739 V -64.076 L 8.114,-67.437 v 23.076 c -14.323,-9.409 -26.892,-15.947 -37.706,-19.603 -10.821,-3.66 -21.635,-5.49 -32.451,-5.49 -17.521,0 -33.632,4.671 -48.333,14.004 -14.704,9.334 -26.737,23.187 -36.108,41.558 -9.369,18.371 -14.053,38.759 -14.053,61.163 0,22.703 4.767,43.276 14.3,61.724 9.534,18.445 21.971,32.374 37.303,41.784 15.332,9.41 32.461,14.115 51.378,14.115 9.763,0 19.108,-1.159 28.035,-3.474 8.925,-2.316 18.803,-6.384 29.636,-12.209 v 53.322 h -33.364 v 43.241 c 18.849,1.792 34.164,4.068 45.946,6.833 11.784,2.762 24.514,6.834 38.197,12.209 z" /></g><g
           transform="translate(569.964,496.916)"
           id="g136"><path
             id="path138"
             style="fill:#231f20;fill-opacity:1;fill-rule:nonzero;stroke:none"
             d="m 0,0 c -9.559,0 -17.439,-3.51 -23.637,-10.529 -6.197,-7.022 -9.296,-16.507 -9.296,-28.454 0,-11.055 2.987,-19.867 8.963,-26.436 5.969,-6.575 13.667,-9.859 23.075,-9.859 9.259,0 16.991,3.396 23.188,10.194 6.197,6.794 9.299,15.571 9.299,26.325 0,11.947 -2.952,21.397 -8.851,28.342 C 16.84,-3.473 9.262,0 0,0 m -32.483,-200.375 c -7.919,-6.112 -12.96,-10.772 -15.126,-13.98 -2.167,-3.205 -3.249,-6.746 -3.249,-10.623 0,-7.302 5.972,-13.006 17.925,-17.109 11.95,-4.099 27.256,-6.149 45.929,-6.149 13.589,0 25.613,1.193 36.069,3.578 10.456,2.388 17.398,5.292 20.837,8.721 2.242,2.238 3.361,5.292 3.361,9.17 0,4.327 -2.242,7.943 -6.721,10.847 -4.48,2.908 -15.313,5.405 -32.487,7.493 z M 63.63,24.55 c 7.915,11.238 15.83,19.216 23.749,23.934 7.915,4.719 16.279,7.08 25.092,7.08 8.809,0 15.756,-2.577 20.837,-7.73 5.075,-5.153 7.616,-11.762 7.616,-19.828 0,-7.32 -2.429,-13.407 -7.282,-18.259 -4.855,-4.856 -10.865,-7.283 -18.036,-7.283 l -7.394,0.225 -7.615,0.225 c -4.034,0 -8.066,-1.499 -12.099,-4.496 8.214,-13.617 12.323,-26.633 12.323,-39.053 0,-13.17 -4.072,-25.961 -12.211,-38.382 -8.143,-12.42 -19.419,-22.071 -33.831,-28.954 -14.415,-6.883 -31.701,-10.323 -51.864,-10.323 -5.827,0 -11.691,0.337 -17.589,1.007 -5.901,0.673 -11.841,1.682 -17.809,3.025 -4.035,-2.543 -7.099,-5.002 -9.188,-7.387 -2.092,-2.388 -3.136,-4.62 -3.136,-6.708 0,-4.622 4.779,-7.606 14.337,-8.946 l 92.756,-13.194 c 27.63,-3.881 47.569,-11.266 59.818,-22.153 12.245,-11.041 18.371,-24.171 18.371,-39.385 0,-13.426 -4.629,-25.848 -13.888,-37.26 -9.266,-11.411 -24.389,-20.771 -45.372,-28.082 -20.983,-7.31 -47.46,-10.962 -79.423,-10.962 -28.082,0 -51.307,2.721 -69.678,8.166 -18.371,5.449 -31.403,12.311 -39.095,20.589 -7.695,8.286 -11.538,16.157 -11.538,23.616 0,8.507 2.874,16.154 8.626,22.94 5.748,6.792 17.587,14.588 35.51,23.387 -11.054,4.035 -19.345,8.966 -24.869,14.796 -7.47,7.766 -11.202,15.763 -11.202,23.984 0,8.963 3.473,17.779 10.418,26.446 6.946,8.665 17.364,17.257 31.254,25.774 -7.767,4.781 -13.856,9.973 -18.259,15.577 -4.408,5.602 -7.991,12.439 -10.755,20.507 -2.766,8.07 -4.144,16.363 -4.144,24.883 0,22.412 9.148,41.465 27.446,57.155 18.294,15.691 42.381,23.535 72.256,23.535 13.293,0 25.428,-1.539 36.405,-4.618 10.979,-3.076 20.8,-7.693 29.463,-13.848" /></g><g
           transform="translate(835.0734,536.4492)"
           id="g140"><path
             id="path142"
             style="fill:#231f20;fill-opacity:1;fill-rule:nonzero;stroke:none"
             d="m 0,0 v -165.563 c 0,-7.919 0.445,-12.773 1.344,-14.566 0.894,-1.792 2.5,-3.174 4.816,-4.142 2.313,-0.977 7.507,-1.459 15.571,-1.459 H 33.83 v -43.24 h -138.458 v 43.24 h 11.875 c 7.762,0 12.732,0.411 14.898,1.234 2.164,0.819 3.769,2.2 4.816,4.142 1.045,1.94 1.568,5.828 1.568,11.651 v 106.867 h -33.157 v 42.121 c 11.796,0.595 23.109,1.866 33.94,3.808 10.83,1.939 20.5,4.257 29.013,6.946 5.525,1.793 12.324,4.779 20.389,8.961 z" /></g><path
           id="path144"
           style="fill:#231f20;fill-opacity:1;fill-rule:nonzero;stroke:none"
           d="M 868.903,219.878 H 173.945 v 27.43 h 694.958 z" /><g
           transform="translate(798.7765,636.372)"
           id="g146"><path
             id="path148"
             style="fill:#d01e25;fill-opacity:1;fill-rule:nonzero;stroke:none"
             d="m 0,0 c 11.351,0 21.021,-3.997 29.015,-11.986 7.989,-7.992 11.986,-17.664 11.986,-29.013 0,-11.503 -3.997,-21.25 -11.986,-29.238 C 21.021,-78.229 11.351,-82.224 0,-82.224 c -11.351,0 -21.024,3.995 -29.014,11.987 -7.99,7.988 -11.986,17.662 -11.986,29.014 0,11.202 4.108,20.871 12.323,29.014 C -20.463,-4.071 -10.904,0 0,0" /></g><g
           transform="translate(189.2496,154.124)"
           id="g150"><path
             id="path152"
             style="fill:#231f20;fill-opacity:1;fill-rule:nonzero;stroke:none"
             d="m 0,0 v -26.783 c 0,-0.906 0.051,-1.462 0.154,-1.669 0.164,-0.309 0.406,-0.52 0.724,-0.633 0.319,-0.113 1.084,-0.17 2.297,-0.17 3.37,0 6.006,0.52 7.908,1.561 1.9,1.04 3.437,2.707 4.608,5.004 1.171,2.295 1.757,5.03 1.757,8.201 0,3.131 -0.55,5.855 -1.649,8.172 -1.1,2.316 -2.462,3.948 -4.085,4.896 C 10.09,-0.474 7.769,0 4.748,0 Z M -15.752,6.874 H 6.797 c 5.121,0 9.193,-0.812 12.216,-2.436 3.023,-1.623 5.435,-4.028 7.234,-7.212 1.799,-3.186 2.699,-7.008 2.699,-11.468 0,-3.104 -0.457,-5.878 -1.373,-8.323 -0.914,-2.447 -2.278,-4.651 -4.087,-6.613 -1.81,-1.963 -3.753,-3.436 -5.83,-4.424 -1.564,-0.74 -3.78,-1.345 -6.648,-1.819 -2.869,-0.473 -5.168,-0.708 -6.895,-0.708 h -19.865 v 5.949 h 1.488 c 1.261,0 2.088,0.103 2.481,0.309 0.392,0.205 0.713,0.555 0.961,1.048 0.166,0.389 0.248,1.243 0.248,2.558 v 23.491 c 0,1.314 -0.088,2.163 -0.264,2.543 -0.176,0.379 -0.465,0.667 -0.868,0.863 -0.403,0.195 -1.255,0.293 -2.558,0.293 h -1.488 z" /></g><g
           transform="translate(232.253,163.248)"
           id="g154"><path
             id="path156"
             style="fill:#231f20;fill-opacity:1;fill-rule:nonzero;stroke:none"
             d="m 0,0 c 1.562,0 2.892,-0.549 3.992,-1.648 1.099,-1.1 1.649,-2.432 1.649,-3.993 0,-1.583 -0.55,-2.923 -1.649,-4.022 -1.1,-1.1 -2.43,-1.65 -3.992,-1.65 -1.562,0 -2.893,0.55 -3.992,1.65 -1.1,1.099 -1.65,2.43 -1.65,3.991 0,1.541 0.565,2.872 1.696,3.992 C -2.816,-0.56 -1.5,0 0,0 m 4.994,-13.748 v -22.781 c 0,-1.09 0.062,-1.757 0.185,-2.003 0.123,-0.248 0.344,-0.438 0.662,-0.572 0.319,-0.133 1.033,-0.2 2.143,-0.2 h 1.664 v -5.949 h -19.05 v 5.949 h 1.633 c 1.069,0 1.752,0.057 2.05,0.17 0.298,0.113 0.519,0.303 0.663,0.57 0.144,0.267 0.216,0.801 0.216,1.603 v 14.705 h -4.562 v 5.795 c 1.623,0.082 3.179,0.257 4.67,0.523 1.49,0.267 2.821,0.587 3.992,0.957 0.76,0.246 1.696,0.658 2.805,1.233 z" /></g><g
           transform="translate(260.4903,143.581)"
           id="g158"><path
             id="path160"
             style="fill:#231f20;fill-opacity:1;fill-rule:nonzero;stroke:none"
             d="m 0,0 c -1.315,0 -2.4,-0.482 -3.252,-1.448 -0.853,-0.967 -1.28,-2.272 -1.28,-3.916 0,-1.521 0.411,-2.734 1.234,-3.638 0.821,-0.904 1.88,-1.355 3.174,-1.355 1.274,0 2.338,0.466 3.191,1.402 0.853,0.934 1.28,2.143 1.28,3.622 0,1.645 -0.407,2.944 -1.218,3.899 C 2.317,-0.478 1.274,0 0,0 m -4.47,-27.57 c -1.089,-0.842 -1.783,-1.483 -2.081,-1.924 -0.298,-0.442 -0.447,-0.929 -0.447,-1.462 0,-1.005 0.822,-1.79 2.466,-2.354 1.644,-0.564 3.751,-0.846 6.32,-0.846 1.87,0 3.524,0.164 4.963,0.493 1.438,0.328 2.394,0.727 2.867,1.2 0.308,0.308 0.463,0.728 0.463,1.261 0,0.595 -0.309,1.094 -0.926,1.493 -0.616,0.399 -2.106,0.743 -4.469,1.03 z M 8.755,3.378 c 1.089,1.546 2.178,2.643 3.267,3.293 1.089,0.649 2.24,0.975 3.453,0.975 1.212,0 2.168,-0.356 2.867,-1.064 C 19.04,5.872 19.39,4.963 19.39,3.853 19.39,2.846 19.056,2.009 18.388,1.341 17.72,0.673 16.893,0.339 15.907,0.339 L 14.889,0.369 13.841,0.4 c -0.555,0 -1.11,-0.206 -1.665,-0.618 1.13,-1.874 1.696,-3.664 1.696,-5.374 0,-1.811 -0.56,-3.571 -1.68,-5.281 -1.12,-1.708 -2.671,-3.036 -4.655,-3.983 -1.983,-0.948 -4.362,-1.42 -7.136,-1.42 -0.801,0 -1.609,0.046 -2.42,0.138 -0.813,0.093 -1.629,0.231 -2.451,0.416 -0.554,-0.349 -0.976,-0.687 -1.264,-1.017 -0.287,-0.328 -0.431,-0.635 -0.431,-0.922 0,-0.637 0.657,-1.047 1.973,-1.232 L 8.57,-20.708 c 3.802,-0.534 6.545,-1.55 8.231,-3.048 1.684,-1.519 2.528,-3.326 2.528,-5.419 0,-1.847 -0.638,-3.556 -1.912,-5.127 -1.274,-1.569 -3.355,-2.857 -6.242,-3.863 -2.888,-1.006 -6.531,-1.51 -10.928,-1.51 -3.864,0 -7.06,0.376 -9.587,1.124 -2.528,0.75 -4.321,1.695 -5.38,2.834 -1.058,1.14 -1.587,2.223 -1.587,3.249 0,1.171 0.395,2.223 1.186,3.156 0.791,0.935 2.42,2.007 4.886,3.218 -1.52,0.556 -2.661,1.234 -3.421,2.036 -1.028,1.069 -1.541,2.169 -1.541,3.3 0,1.234 0.477,2.446 1.433,3.639 0.955,1.192 2.389,2.375 4.3,3.547 -1.069,0.658 -1.906,1.372 -2.513,2.143 -0.606,0.771 -1.099,1.711 -1.479,2.822 -0.38,1.109 -0.57,2.251 -0.57,3.422 0,3.084 1.258,5.706 3.776,7.865 2.518,2.159 5.832,3.239 9.942,3.239 1.829,0 3.499,-0.212 5.009,-0.635 1.51,-0.425 2.861,-1.059 4.054,-1.906" /></g><g
           transform="translate(291.5943,163.248)"
           id="g162"><path
             id="path164"
             style="fill:#231f20;fill-opacity:1;fill-rule:nonzero;stroke:none"
             d="m 0,0 c 1.562,0 2.892,-0.549 3.992,-1.648 1.099,-1.1 1.649,-2.432 1.649,-3.993 0,-1.583 -0.55,-2.923 -1.649,-4.022 -1.1,-1.1 -2.43,-1.65 -3.992,-1.65 -1.562,0 -2.893,0.55 -3.992,1.65 -1.099,1.099 -1.649,2.43 -1.649,3.991 0,1.541 0.565,2.872 1.695,3.992 C -2.815,-0.56 -1.5,0 0,0 m 4.994,-13.748 v -22.781 c 0,-1.09 0.062,-1.757 0.185,-2.003 0.123,-0.248 0.344,-0.438 0.663,-0.572 0.318,-0.133 1.032,-0.2 2.142,-0.2 h 1.664 v -5.949 h -19.05 v 5.949 h 1.633 c 1.069,0 1.752,0.057 2.05,0.17 0.298,0.113 0.519,0.303 0.664,0.57 0.143,0.267 0.215,0.801 0.215,1.603 v 14.705 h -4.562 v 5.795 c 1.623,0.082 3.18,0.257 4.67,0.523 1.49,0.267 2.821,0.587 3.992,0.957 0.76,0.246 1.696,0.658 2.805,1.233 z" /></g><g
           transform="translate(318.6915,159.3339)"
           id="g166"><path
             id="path168"
             style="fill:#231f20;fill-opacity:1;fill-rule:nonzero;stroke:none"
             d="M 0,0 V -10.574 H 9.926 V -17.14 H 0 v -10.728 c 0,-2.425 0.128,-3.982 0.385,-4.67 0.257,-0.689 0.735,-1.238 1.434,-1.65 0.924,-0.554 1.982,-0.832 3.175,-0.832 2.116,0 4.223,0.689 6.319,2.066 v -6.598 c -1.788,-0.843 -3.406,-1.432 -4.855,-1.771 -1.449,-0.34 -3.016,-0.51 -4.701,-0.51 -1.912,0 -3.602,0.242 -5.071,0.726 -1.47,0.481 -2.724,1.17 -3.761,2.065 -1.038,0.893 -1.757,1.844 -2.157,2.851 -0.402,1.006 -0.602,2.465 -0.602,4.378 v 14.673 h -4.624 v 5.918 c 1.644,0.534 3.052,1.3 4.223,2.297 1.172,0.997 2.111,2.194 2.821,3.591 0.709,1.397 1.197,3.176 1.464,5.334 z" /></g><g
           transform="translate(352.5079,131.5273)"
           id="g170"><path
             id="path172"
             style="fill:#231f20;fill-opacity:1;fill-rule:nonzero;stroke:none"
             d="m 0,0 c -2.692,-0.391 -4.593,-0.785 -5.703,-1.187 -1.109,-0.4 -1.901,-0.904 -2.374,-1.51 -0.472,-0.606 -0.708,-1.228 -0.708,-1.865 0,-0.822 0.308,-1.51 0.925,-2.065 0.616,-0.556 1.448,-0.833 2.496,-0.833 0.678,0 1.465,0.175 2.359,0.524 0.894,0.35 1.895,0.864 3.005,1.541 z m 0,5.118 v 2.281 c 0,1.356 -0.113,2.291 -0.339,2.805 -0.226,0.514 -0.637,0.941 -1.233,1.279 -0.596,0.339 -1.336,0.509 -2.22,0.509 -0.677,0 -1.294,-0.113 -1.849,-0.339 C -6.196,11.426 -6.638,11.139 -6.967,10.79 -7.295,10.44 -7.676,9.762 -8.107,8.755 -8.662,7.48 -9.325,6.566 -10.095,6.012 -10.866,5.456 -11.775,5.18 -12.824,5.18 c -1.315,0 -2.394,0.41 -3.237,1.232 -0.842,0.822 -1.264,1.84 -1.264,3.053 0,1.376 0.432,2.598 1.296,3.668 1.15,1.418 2.866,2.578 5.147,3.483 2.281,0.905 4.85,1.357 7.707,1.357 2.857,0 5.287,-0.462 7.291,-1.388 C 6.119,15.66 7.517,14.556 8.308,13.271 9.099,11.987 9.495,10.029 9.495,7.399 V -3.638 c 0,-1.355 0.072,-2.224 0.215,-2.604 0.144,-0.38 0.453,-0.715 0.926,-1.002 0.472,-0.288 0.996,-0.431 1.572,-0.431 0.575,0 1.345,0.164 2.312,0.492 v -6.01 c -1.747,-0.556 -3.422,-0.833 -5.025,-0.833 -1.891,0 -3.504,0.309 -4.84,0.925 -1.336,0.617 -2.456,1.541 -3.36,2.774 -2.055,-1.336 -3.92,-2.286 -5.595,-2.851 -1.675,-0.565 -3.294,-0.848 -4.855,-0.848 -2.94,0 -5.313,0.828 -7.121,2.481 -1.809,1.655 -2.713,3.695 -2.713,6.12 0,1.376 0.313,2.641 0.94,3.791 0.627,1.152 1.562,2.158 2.805,3.022 1.244,0.862 3.165,1.628 5.765,2.297 2.6,0.667 5.759,1.145 9.479,1.433" /></g><g
           transform="translate(384.2906,163.248)"
           id="g174"><path
             id="path176"
             style="fill:#231f20;fill-opacity:1;fill-rule:nonzero;stroke:none"
             d="m 0,0 v -36.066 c 0,-1.213 0.051,-1.933 0.154,-2.159 0.143,-0.412 0.462,-0.709 0.956,-0.894 0.307,-0.123 1.14,-0.185 2.496,-0.185 h 1.08 v -5.949 h -19.082 v 5.949 h 1.171 c 1.233,0 2.024,0.077 2.374,0.232 0.349,0.153 0.606,0.4 0.77,0.74 0.164,0.339 0.247,1.094 0.247,2.266 v 27.497 h -4.562 v 5.95 c 3.678,0.249 7.48,1.122 11.406,2.619 z" /></g><g
           transform="translate(438.7306,140.9306)"
           id="g178"><path
             id="path180"
             style="fill:#231f20;fill-opacity:1;fill-rule:nonzero;stroke:none"
             d="m 0,0 h 20.993 v -6.013 h -1.572 c -1.028,0 -1.732,-0.091 -2.111,-0.277 -0.381,-0.185 -0.664,-0.477 -0.848,-0.878 -0.186,-0.4 -0.278,-1.167 -0.278,-2.297 V -22.936 H 9.869 l -1.633,3.082 c -1.93,-1.274 -3.932,-2.23 -6.007,-2.866 -2.074,-0.637 -4.23,-0.956 -6.468,-0.956 -3.923,0 -7.495,0.956 -10.72,2.867 -3.225,1.912 -5.776,4.583 -7.655,8.015 -1.879,3.432 -2.818,7.275 -2.818,11.529 0,4.213 0.929,7.984 2.787,11.314 1.858,3.329 4.457,5.955 7.794,7.876 3.336,1.922 6.956,2.883 10.859,2.883 1.888,0 3.772,-0.242 5.652,-0.725 1.879,-0.483 3.486,-1.125 4.82,-1.927 l 1.14,1.911 h 4.313 l 3.88,-14.241 -5.67,-1.85 C 8.21,7.1 6.685,9.227 5.564,10.357 c -1.12,1.13 -2.405,2.013 -3.853,2.651 -1.449,0.637 -2.862,0.956 -4.238,0.956 -1.953,0 -3.777,-0.566 -5.473,-1.696 -1.695,-1.13 -3.036,-2.78 -4.022,-4.948 -0.987,-2.168 -1.48,-4.793 -1.48,-7.876 0,-3.391 0.539,-6.33 1.618,-8.816 1.079,-2.487 2.492,-4.331 4.239,-5.533 1.747,-1.202 3.668,-1.804 5.765,-1.804 1.479,0 2.882,0.298 4.207,0.895 1.325,0.594 2.235,1.263 2.729,2.003 0.493,0.74 0.739,1.736 0.739,2.99 v 1.573 c 0,1.089 -0.071,1.776 -0.215,2.064 -0.226,0.412 -0.529,0.709 -0.91,0.894 -0.381,0.186 -1.125,0.277 -2.234,0.277 l -2.436,0 z" /></g><g
           transform="translate(479.8849,142.748)"
           id="g182"><path
             id="path184"
             style="fill:#231f20;fill-opacity:1;fill-rule:nonzero;stroke:none"
             d="m 0,0 c -1.172,0 -2.271,-0.349 -3.299,-1.048 -1.028,-0.698 -1.824,-1.725 -2.389,-3.082 -0.566,-1.357 -0.848,-3.083 -0.848,-5.18 0,-2.157 0.277,-3.945 0.833,-5.363 0.555,-1.418 1.319,-2.467 2.296,-3.144 0.975,-0.678 2.05,-1.017 3.221,-1.017 1.808,0 3.361,0.765 4.655,2.296 1.295,1.53 1.942,3.909 1.942,7.137 0,3.124 -0.6,5.471 -1.803,7.044 C 3.406,-0.785 1.869,0 0,0 m -0.124,6.752 c 3.514,0 6.576,-0.69 9.187,-2.066 2.609,-1.376 4.618,-3.252 6.026,-5.626 1.407,-2.373 2.112,-5.153 2.112,-8.338 0,-4.809 -1.562,-8.713 -4.686,-11.714 C 9.391,-23.993 5.22,-25.493 0,-25.493 c -5.323,0 -9.557,1.51 -12.701,4.531 -3.042,2.877 -4.563,6.772 -4.563,11.684 0,3.226 0.694,6 2.081,8.323 1.387,2.322 3.396,4.187 6.027,5.595 2.63,1.407 5.641,2.112 9.032,2.112" /></g><g
           transform="translate(515.5822,163.248)"
           id="g186"><path
             id="path188"
             style="fill:#231f20;fill-opacity:1;fill-rule:nonzero;stroke:none"
             d="m 0,0 v -36.066 c 0,-1.213 0.051,-1.933 0.153,-2.159 0.144,-0.412 0.463,-0.709 0.956,-0.894 0.308,-0.123 1.14,-0.185 2.496,-0.185 h 1.08 v -5.949 h -19.082 v 5.949 h 1.172 c 1.233,0 2.024,0.077 2.373,0.232 0.349,0.153 0.607,0.4 0.771,0.74 0.164,0.339 0.247,1.094 0.247,2.266 v 27.497 h -4.563 v 5.95 c 3.679,0.249 7.481,1.122 11.406,2.619 z" /></g><g
           transform="translate(545.3448,126.8105)"
           id="g190"><path
             id="path192"
             style="fill:#231f20;fill-opacity:1;fill-rule:nonzero;stroke:none"
             d="m 0,0 v 10.328 c 0,1.294 -0.093,2.208 -0.278,2.743 -0.246,0.76 -0.808,1.428 -1.683,2.003 -0.874,0.576 -1.846,0.864 -2.916,0.864 -1.112,0 -2.141,-0.334 -3.088,-1.002 -0.947,-0.667 -1.697,-1.69 -2.254,-3.067 -0.554,-1.378 -0.833,-3.094 -0.833,-5.148 0,-2.857 0.628,-5.148 1.883,-6.874 0.968,-1.357 2.254,-2.035 3.859,-2.035 0.7,0 1.37,0.119 2.006,0.355 C -2.665,-1.598 -1.564,-0.986 0,0 M 9.85,36.438 V 0.587 c 0,-1.418 0.061,-2.276 0.184,-2.574 0.123,-0.299 0.334,-0.52 0.632,-0.663 0.298,-0.144 1.083,-0.216 2.357,-0.216 h 1.451 V -8.815 L 1.094,-9.278 v 3.175 c -1.932,-1.294 -3.627,-2.194 -5.086,-2.697 -1.46,-0.504 -2.919,-0.756 -4.377,-0.756 -2.363,0 -4.537,0.643 -6.521,1.927 -1.983,1.284 -3.606,3.191 -4.87,5.719 -1.263,2.527 -1.896,5.332 -1.896,8.415 0,3.124 0.643,5.954 1.929,8.492 1.287,2.539 2.963,4.455 5.032,5.75 2.068,1.295 4.379,1.942 6.93,1.942 1.318,0 2.578,-0.159 3.783,-0.477 1.204,-0.319 2.536,-0.879 3.998,-1.681 v 7.337 h -4.501 v 5.95 c 2.542,0.246 4.608,0.559 6.197,0.94 1.591,0.38 3.307,0.939 5.153,1.68 z" /></g><g
           transform="translate(584.879,160.998)"
           id="g194"><path
             id="path196"
             style="fill:#231f20;fill-opacity:1;fill-rule:nonzero;stroke:none"
             d="m 0,0 h 20.994 v -5.949 h -1.912 c -1.109,0 -1.845,-0.098 -2.204,-0.293 -0.359,-0.196 -0.626,-0.504 -0.802,-0.925 -0.175,-0.422 -0.262,-1.229 -0.262,-2.42 v -23.799 c 0,-1.294 0.073,-2.127 0.216,-2.496 0.144,-0.37 0.391,-0.638 0.741,-0.802 0.43,-0.247 1.079,-0.37 1.942,-0.37 h 2.281 v -5.949 H 0 v 5.949 h 1.706 c 1.22,0 2.017,0.087 2.388,0.262 0.372,0.175 0.646,0.452 0.822,0.833 0.176,0.38 0.264,1.135 0.264,2.266 v 23.89 c 0,1.336 -0.088,2.214 -0.264,2.636 -0.176,0.421 -0.471,0.744 -0.884,0.971 -0.29,0.165 -0.993,0.247 -2.108,0.247 l -1.924,0 z" /></g><g
           transform="translate(624.0294,149.5)"
           id="g198"><path
             id="path200"
             style="fill:#231f20;fill-opacity:1;fill-rule:nonzero;stroke:none"
             d="m 0,0 v -4.1 c 2.322,1.582 4.311,2.662 5.966,3.237 C 7.619,-0.288 9.311,0 11.036,0 c 1.993,0 3.755,-0.422 5.287,-1.264 1.531,-0.843 2.646,-1.896 3.345,-3.16 0.698,-1.263 1.047,-3.056 1.047,-5.379 v -12.825 c 0,-1.089 0.078,-1.787 0.232,-2.095 0.155,-0.309 0.396,-0.535 0.724,-0.678 0.247,-0.104 0.986,-0.155 2.22,-0.155 h 1.51 v -5.949 H 7.307 v 5.949 c 1.376,0.021 2.147,0.051 2.311,0.093 0.513,0.144 0.853,0.379 1.018,0.708 0.164,0.327 0.246,1.035 0.246,2.123 v 11.294 c 0,1.456 -0.153,2.4 -0.462,2.832 -0.494,0.717 -1.275,1.077 -2.344,1.077 -0.883,0 -1.829,-0.196 -2.836,-0.586 -1.007,-0.389 -2.363,-1.189 -4.069,-2.399 v -12.218 c 0,-1.334 0.146,-2.154 0.436,-2.463 0.289,-0.307 0.985,-0.461 2.084,-0.461 h 0.996 v -5.949 h -17.912 v 5.949 h 0.895 c 1.418,0 2.296,0.062 2.635,0.185 0.339,0.123 0.596,0.338 0.771,0.646 0.174,0.308 0.262,0.913 0.262,1.816 v 14.34 h -4.563 V -2.62 C -9.534,-2.163 -6.08,-1.29 -2.86,0 Z" /></g><g
           transform="translate(674.2159,148.7597)"
           id="g202"><path
             id="path204"
             style="fill:#231f20;fill-opacity:1;fill-rule:nonzero;stroke:none"
             d="m 0,0 h 4.038 l 2.497,-8.569 -5.826,-2.343 c -1.109,1.787 -2.502,3.19 -4.178,4.208 -1.675,1.017 -3.334,1.525 -4.977,1.525 -1.09,0 -1.902,-0.184 -2.436,-0.555 -0.535,-0.37 -0.802,-0.812 -0.802,-1.326 0,-0.43 0.19,-0.831 0.57,-1.202 0.381,-0.369 1.167,-0.759 2.359,-1.171 l 8.478,-3.02 c 1.499,-0.535 2.937,-1.202 4.315,-2.004 1.377,-0.802 2.409,-1.784 3.098,-2.945 0.688,-1.161 1.033,-2.523 1.033,-4.084 0,-2.795 -1.069,-5.087 -3.207,-6.874 -2.507,-2.097 -5.63,-3.145 -9.371,-3.145 -3.205,0 -6.001,0.812 -8.384,2.436 l -0.864,-1.696 h -4.099 l -3.793,10.111 5.826,2.467 c 1.46,-2.282 3.258,-4.075 5.396,-5.379 2.137,-1.306 4.099,-1.958 5.888,-1.958 1.109,0 2.044,0.255 2.805,0.77 0.574,0.411 0.863,0.895 0.863,1.449 0,0.473 -0.227,0.925 -0.678,1.356 -0.453,0.432 -1.448,0.915 -2.99,1.45 l -6.66,2.312 c -3.678,1.294 -6.18,2.676 -7.505,4.145 -1.326,1.469 -1.989,3.211 -1.989,5.226 0,2.589 1.037,4.767 3.114,6.535 2.363,2.013 5.282,3.021 8.755,3.021 3.082,0 5.723,-0.699 7.921,-2.096 z" /></g><g
           transform="translate(699.9874,159.3339)"
           id="g206"><path
             id="path208"
             style="fill:#231f20;fill-opacity:1;fill-rule:nonzero;stroke:none"
             d="M 0,0 V -10.574 H 9.926 V -17.14 H 0 v -10.728 c 0,-2.425 0.128,-3.982 0.385,-4.67 0.257,-0.689 0.735,-1.238 1.433,-1.65 0.925,-0.554 1.984,-0.832 3.175,-0.832 2.117,0 4.224,0.689 6.32,2.066 v -6.598 c -1.788,-0.843 -3.407,-1.432 -4.855,-1.771 -1.449,-0.34 -3.016,-0.51 -4.701,-0.51 -1.912,0 -3.603,0.242 -5.071,0.726 -1.47,0.481 -2.724,1.17 -3.761,2.065 -1.038,0.893 -1.757,1.844 -2.157,2.851 -0.402,1.006 -0.602,2.465 -0.602,4.378 v 14.673 h -4.624 v 5.918 c 1.644,0.534 3.052,1.3 4.224,2.297 1.171,0.997 2.11,2.194 2.82,3.591 0.709,1.397 1.196,3.176 1.464,5.334 z" /></g><g
           transform="translate(724.6486,163.248)"
           id="g210"><path
             id="path212"
             style="fill:#231f20;fill-opacity:1;fill-rule:nonzero;stroke:none"
             d="m 0,0 c 1.562,0 2.894,-0.549 3.992,-1.648 1.099,-1.1 1.65,-2.432 1.65,-3.993 0,-1.583 -0.551,-2.923 -1.65,-4.022 -1.098,-1.1 -2.43,-1.65 -3.992,-1.65 -1.562,0 -2.894,0.55 -3.991,1.65 -1.1,1.099 -1.651,2.43 -1.651,3.991 0,1.541 0.567,2.872 1.697,3.992 C -2.815,-0.56 -1.5,0 0,0 m 4.994,-13.748 v -22.781 c 0,-1.09 0.062,-1.757 0.186,-2.003 0.123,-0.248 0.343,-0.438 0.662,-0.572 0.318,-0.133 1.033,-0.2 2.142,-0.2 h 1.664 v -5.949 H -9.401 v 5.949 h 1.632 c 1.069,0 1.753,0.057 2.051,0.17 0.297,0.113 0.518,0.303 0.663,0.57 0.144,0.267 0.216,0.801 0.216,1.603 v 14.705 h -4.562 v 5.795 c 1.622,0.082 3.179,0.257 4.67,0.523 1.489,0.267 2.82,0.587 3.991,0.957 0.761,0.246 1.696,0.658 2.805,1.233 z" /></g><g
           transform="translate(751.7452,159.3339)"
           id="g214"><path
             id="path216"
             style="fill:#231f20;fill-opacity:1;fill-rule:nonzero;stroke:none"
             d="M 0,0 V -10.574 H 9.926 V -17.14 H 0 v -10.728 c 0,-2.425 0.128,-3.982 0.385,-4.67 0.257,-0.689 0.735,-1.238 1.433,-1.65 0.925,-0.554 1.984,-0.832 3.175,-0.832 2.117,0 4.224,0.689 6.32,2.066 v -6.598 c -1.788,-0.843 -3.407,-1.432 -4.855,-1.771 -1.449,-0.34 -3.016,-0.51 -4.701,-0.51 -1.912,0 -3.603,0.242 -5.071,0.726 -1.47,0.481 -2.724,1.17 -3.761,2.065 -1.037,0.893 -1.757,1.844 -2.157,2.851 -0.402,1.006 -0.602,2.465 -0.602,4.378 v 14.673 h -4.624 v 5.918 c 1.644,0.534 3.052,1.3 4.224,2.297 1.171,0.997 2.111,2.194 2.82,3.591 0.709,1.397 1.196,3.176 1.464,5.334 z" /></g><g
           transform="translate(766.172,148.7597)"
           id="g218"><path
             id="path220"
             style="fill:#231f20;fill-opacity:1;fill-rule:nonzero;stroke:none"
             d="m 0,0 14.396,0.278 v -20.007 c 0,-1.418 0.087,-2.364 0.262,-2.835 0.175,-0.474 0.493,-0.86 0.956,-1.157 0.462,-0.298 1.043,-0.447 1.741,-0.447 1.028,0 2.117,0.247 3.268,0.739 0.451,0.205 1.654,0.936 3.606,2.19 v 12.021 c 0,1.049 -0.082,1.768 -0.248,2.158 -0.165,0.391 -0.403,0.674 -0.713,0.848 -0.311,0.175 -0.911,0.263 -1.8,0.263 H 19.667 V 0 l 14.459,0.278 v -22.073 c 0,-1.151 0.066,-1.875 0.2,-2.172 0.133,-0.3 0.349,-0.514 0.648,-0.648 0.297,-0.134 1.01,-0.2 2.141,-0.2 h 1.635 v -5.95 l -13.533,-0.37 v 3.638 c -1.806,-1.337 -3.622,-2.339 -5.449,-3.006 -1.827,-0.668 -3.663,-1.002 -5.509,-1.002 -1.479,0 -2.837,0.241 -4.079,0.725 -1.242,0.482 -2.284,1.13 -3.124,1.941 -0.841,0.813 -1.467,1.763 -1.877,2.853 -0.411,1.089 -0.617,2.486 -0.617,4.191 v 12.701 c 0,1.172 -0.067,1.911 -0.202,2.219 -0.134,0.31 -0.356,0.54 -0.668,0.694 -0.309,0.155 -0.971,0.232 -1.984,0.232 l -1.708,0 z" /></g><g
           transform="translate(822.462,159.3339)"
           id="g222"><path
             id="path224"
             style="fill:#231f20;fill-opacity:1;fill-rule:nonzero;stroke:none"
             d="M 0,0 V -10.574 H 9.927 V -17.14 H 0 v -10.728 c 0,-2.425 0.128,-3.982 0.385,-4.67 0.258,-0.689 0.735,-1.238 1.434,-1.65 0.925,-0.554 1.983,-0.832 3.174,-0.832 2.117,0 4.224,0.689 6.32,2.066 v -6.598 c -1.788,-0.843 -3.406,-1.432 -4.854,-1.771 -1.45,-0.34 -3.017,-0.51 -4.701,-0.51 -1.912,0 -3.603,0.242 -5.072,0.726 -1.469,0.481 -2.723,1.17 -3.76,2.065 -1.038,0.893 -1.758,1.844 -2.158,2.851 -0.401,1.006 -0.601,2.465 -0.601,4.378 v 14.673 h -4.624 v 5.918 c 1.644,0.534 3.051,1.3 4.223,2.297 1.171,0.997 2.111,2.194 2.821,3.591 0.708,1.397 1.196,3.176 1.464,5.334 z" /></g><g
           transform="translate(859.3615,138.3095)"
           id="g226"><path
             id="path228"
             style="fill:#231f20;fill-opacity:1;fill-rule:nonzero;stroke:none"
             d="M 0,0 C -0.145,1.232 -0.437,2.204 -0.882,2.913 -1.324,3.622 -1.922,4.187 -2.675,4.608 -3.427,5.03 -4.215,5.24 -5.04,5.24 -5.906,5.24 -6.741,5.025 -7.544,4.593 -8.349,4.162 -8.993,3.575 -9.477,2.836 -9.961,2.096 -10.276,1.15 -10.42,0 Z m 6.166,-8.908 4.222,-4.255 c -2.425,-2.775 -4.896,-4.783 -7.413,-6.026 -2.518,-1.244 -5.237,-1.866 -8.154,-1.866 -4.685,0 -8.632,1.587 -11.838,4.763 -3.206,3.176 -4.809,7.013 -4.809,11.514 0,2.96 0.72,5.667 2.158,8.123 1.439,2.455 3.432,4.377 5.98,5.764 2.549,1.387 5.436,2.081 8.664,2.081 2.054,0 3.923,-0.297 5.61,-0.894 C 2.271,9.7 3.745,8.848 5.01,7.737 6.273,6.628 7.291,5.287 8.061,3.715 8.832,2.143 9.36,0.514 9.649,-1.172 9.772,-2.014 9.834,-3.351 9.834,-5.179 h -20.747 c 0.041,-2.61 0.806,-4.721 2.297,-6.335 1.489,-1.613 3.314,-2.42 5.471,-2.42 1.377,0 2.877,0.417 4.5,1.248 1.624,0.833 3.227,2.091 4.811,3.778" /></g></g></g></g></svg>