<?xml version="1.0" encoding="UTF-8" standalone="no"?>
<svg
   xmlns:dc="http://purl.org/dc/elements/1.1/"
   xmlns:cc="http://creativecommons.org/ns#"
   xmlns:rdf="http://www.w3.org/1999/02/22-rdf-syntax-ns#"
   xmlns:svg="http://www.w3.org/2000/svg"
   xmlns="http://www.w3.org/2000/svg"
   viewBox="0 0 1133.8586 1133.8586"
   height="1133.8586"
   width="1133.8586"
   xml:space="preserve"
   id="svg2"
   version="1.1"><metadata
     id="metadata8"><rdf:RDF><cc:Work
         rdf:about=""><dc:format>image/svg+xml</dc:format><dc:type
           rdf:resource="http://purl.org/dc/dcmitype/StillImage" /></cc:Work></rdf:RDF></metadata><defs
     id="defs6"><clipPath
       id="clipPath18"
       clipPathUnits="userSpaceOnUse"><path
         id="path16"
         d="M 0,850.394 H 850.394 V 0 H 0 Z" /></clipPath><clipPath
       id="clipPath40"
       clipPathUnits="userSpaceOnUse"><path
         id="path38"
         d="M 0,850.394 H 850.394 V 0 H 0 Z" /></clipPath></defs><g
     transform="matrix(1.3333333,0,0,-1.3333333,0,1133.8587)"
     id="g10"><g
       id="g12"><g
         clip-path="url(#clipPath18)"
         id="g14"><g
           transform="translate(243.4064,424.9164)"
           id="g20"><path
             id="path22"
             style="fill:#231f20;fill-opacity:1;fill-rule:nonzero;stroke:none"
             d="m 0,0 v 74.994 c 0,9.396 -0.688,16.035 -2.058,19.918 -1.83,5.519 -5.983,10.371 -12.462,14.551 -6.478,4.175 -13.677,6.267 -21.605,6.267 -8.234,0 -15.855,-2.427 -22.865,-7.275 -7.014,-4.851 -12.576,-12.277 -16.693,-22.274 -4.118,-10 -6.172,-22.46 -6.172,-37.382 0,-20.746 4.649,-37.383 13.946,-49.918 7.164,-9.848 16.693,-14.772 28.583,-14.772 5.181,0 10.136,0.856 14.86,2.572 C -19.742,-11.606 -11.587,-7.165 0,0 M 72.953,264.592 V 4.255 c 0,-10.297 0.455,-16.531 1.369,-18.692 0.913,-2.165 2.473,-3.772 4.68,-4.813 2.206,-1.046 8.027,-1.57 17.469,-1.57 h 10.73 V -64.021 L 8.107,-67.379 v 23.055 c -14.311,-9.4 -26.868,-15.931 -37.674,-19.586 -10.811,-3.656 -21.616,-5.484 -32.424,-5.484 -17.506,0 -33.602,4.666 -48.291,13.991 -14.692,9.325 -26.714,23.168 -36.077,41.524 -9.361,18.355 -14.041,38.726 -14.041,61.11 0,22.684 4.763,43.239 14.288,61.671 9.526,18.431 21.952,32.348 37.271,41.749 15.319,9.402 32.434,14.102 51.335,14.102 9.754,0 19.091,-1.157 28.01,-3.469 8.918,-2.315 18.788,-6.38 29.612,-12.2 v 53.277 H -33.22 v 43.204 c 18.832,1.791 34.135,4.065 45.907,6.828 11.774,2.759 24.493,6.827 38.164,12.199 z" /></g><g
           transform="translate(479.6476,550.1703)"
           id="g24"><path
             id="path26"
             style="fill:#231f20;fill-opacity:1;fill-rule:nonzero;stroke:none"
             d="m 0,0 c -9.55,0 -17.424,-3.507 -23.616,-10.52 -6.193,-7.016 -9.288,-16.493 -9.288,-28.43 0,-11.046 2.984,-19.849 8.955,-26.413 5.965,-6.57 13.655,-9.851 23.055,-9.851 9.251,0 16.976,3.393 23.168,10.185 6.193,6.789 9.291,15.559 9.291,26.303 0,11.937 -2.949,21.378 -8.842,28.318 C 16.826,-3.47 9.255,0 0,0 m -32.456,-200.205 c -7.911,-6.107 -12.948,-10.763 -15.112,-13.968 -2.165,-3.202 -3.246,-6.74 -3.246,-10.614 0,-7.296 5.967,-12.996 17.91,-17.094 11.939,-4.095 27.232,-6.145 45.89,-6.145 13.577,0 25.591,1.193 36.038,3.575 10.447,2.386 17.383,5.288 20.82,8.714 2.239,2.237 3.357,5.288 3.357,9.163 0,4.323 -2.239,7.936 -6.716,10.838 -4.475,2.905 -15.299,5.4 -32.459,7.486 z M 63.576,24.529 c 7.908,11.229 15.818,19.2 23.729,23.914 7.908,4.715 16.265,7.074 25.071,7.074 8.802,0 15.742,-2.575 20.819,-7.724 5.071,-5.148 7.61,-11.751 7.61,-19.811 0,-7.314 -2.427,-13.395 -7.277,-18.243 -4.849,-4.852 -10.855,-7.277 -18.019,-7.277 l -7.388,0.225 -7.609,0.224 c -4.032,0 -8.058,-1.497 -12.089,-4.491 8.208,-13.606 12.313,-26.61 12.313,-39.02 0,-13.159 -4.068,-25.94 -12.201,-38.349 -8.136,-12.41 -19.402,-22.053 -33.802,-28.93 -14.403,-6.877 -31.673,-10.314 -51.82,-10.314 -5.822,0 -11.681,0.336 -17.574,1.005 -5.897,0.673 -11.83,1.681 -17.795,3.023 -4.03,-2.54 -7.092,-4.997 -9.179,-7.381 -2.09,-2.386 -3.134,-4.616 -3.134,-6.703 0,-4.618 4.776,-7.598 14.326,-8.937 l 92.677,-13.183 c 27.606,-3.878 47.529,-11.256 59.766,-22.134 12.235,-11.033 18.355,-24.151 18.355,-39.352 0,-13.414 -4.625,-25.825 -13.875,-37.228 -9.258,-11.402 -24.368,-20.754 -45.333,-28.058 -20.965,-7.303 -47.419,-10.953 -79.356,-10.953 -28.058,0 -51.263,2.719 -69.618,8.16 -18.356,5.444 -31.377,12.299 -39.063,20.571 -7.688,8.279 -11.528,16.143 -11.528,23.596 0,8.5 2.872,16.14 8.619,22.92 5.743,6.786 17.572,14.576 35.481,23.368 -11.046,4.03 -19.329,8.958 -24.849,14.783 -7.463,7.759 -11.193,15.749 -11.193,23.963 0,8.955 3.47,17.765 10.41,26.424 6.94,8.658 17.349,17.242 31.227,25.752 -7.76,4.777 -13.844,9.965 -18.243,15.564 -4.405,5.597 -7.985,12.428 -10.746,20.489 -2.763,8.063 -4.142,16.349 -4.142,24.862 0,22.393 9.141,41.43 27.423,57.107 18.279,15.678 42.346,23.514 72.195,23.514 13.282,0 25.408,-1.537 36.375,-4.613 10.969,-3.074 20.782,-7.687 29.437,-13.837" /></g><g
           transform="translate(744.5323,589.6699)"
           id="g28"><path
             id="path30"
             style="fill:#231f20;fill-opacity:1;fill-rule:nonzero;stroke:none"
             d="m 0,0 v -165.423 c 0,-7.912 0.445,-12.762 1.342,-14.553 0.894,-1.791 2.498,-3.17 4.812,-4.139 2.312,-0.975 7.501,-1.458 15.559,-1.458 h 12.089 v -43.201 h -138.341 v 43.201 h 11.864 c 7.756,0 12.721,0.412 14.886,1.234 2.161,0.818 3.766,2.198 4.812,4.139 1.043,1.937 1.567,5.822 1.567,11.64 v 106.777 h -33.129 v 42.085 c 11.786,0.595 23.09,1.865 33.911,3.805 10.82,1.937 20.482,4.253 28.989,6.94 5.519,1.791 12.313,4.775 20.37,8.953 z" /></g><path
           id="path32"
           style="fill:#231f20;fill-opacity:1;fill-rule:nonzero;stroke:none"
           d="M 778.334,273.368 H 83.966 v 27.405 h 694.368 z" /></g></g><g
       id="g34"><g
         clip-path="url(#clipPath40)"
         id="g36"><g
           transform="translate(708.2667,689.5082)"
           id="g42"><path
             id="path44"
             style="fill:#d01e25;fill-opacity:1;fill-rule:nonzero;stroke:none"
             d="m 0,0 c 11.341,0 21.003,-3.993 28.989,-11.977 7.984,-7.984 11.977,-17.648 11.977,-28.987 0,-11.494 -3.993,-21.232 -11.977,-29.214 C 21.003,-78.163 11.341,-82.154 0,-82.154 c -11.341,0 -21.007,3.991 -28.989,11.976 -7.984,7.982 -11.977,17.647 -11.977,28.99 0,11.193 4.106,20.853 12.313,28.989 C -20.446,-4.068 -10.896,0 0,0" /></g><g
           transform="translate(99.2574,207.6699)"
           id="g46"><path
             id="path48"
             style="fill:#231f20;fill-opacity:1;fill-rule:nonzero;stroke:none"
             d="m 0,0 v -26.761 c 0,-0.905 0.051,-1.461 0.154,-1.667 0.164,-0.308 0.405,-0.519 0.723,-0.633 0.319,-0.113 1.083,-0.169 2.295,-0.169 3.368,0 6.001,0.519 7.901,1.559 1.899,1.039 3.434,2.705 4.604,5 1.171,2.294 1.756,5.025 1.756,8.194 0,3.128 -0.55,5.85 -1.648,8.165 -1.098,2.314 -2.459,3.945 -4.081,4.892 C 10.082,-0.474 7.762,0 4.743,0 Z M -15.739,6.868 H 6.792 c 5.116,0 9.184,-0.811 12.205,-2.433 3.02,-1.622 5.43,-4.025 7.228,-7.207 1.797,-3.183 2.696,-7.002 2.696,-11.458 0,-3.101 -0.457,-5.874 -1.371,-8.316 -0.914,-2.444 -2.276,-4.646 -4.084,-6.607 -1.809,-1.961 -3.75,-3.434 -5.825,-4.42 -1.562,-0.74 -3.776,-1.345 -6.642,-1.818 -2.867,-0.472 -5.164,-0.708 -6.889,-0.708 h -19.849 v 5.945 h 1.487 c 1.26,0 2.086,0.102 2.479,0.308 0.392,0.205 0.712,0.554 0.96,1.047 0.166,0.39 0.248,1.242 0.248,2.557 v 23.47 c 0,1.313 -0.088,2.161 -0.264,2.541 -0.175,0.379 -0.464,0.667 -0.867,0.862 -0.403,0.195 -1.255,0.293 -2.556,0.293 h -1.487 z" /></g><g
           transform="translate(142.2242,216.7861)"
           id="g50"><path
             id="path52"
             style="fill:#231f20;fill-opacity:1;fill-rule:nonzero;stroke:none"
             d="M 0,0 C 1.56,0 2.89,-0.549 3.988,-1.647 5.087,-2.746 5.636,-4.076 5.636,-5.636 5.636,-7.218 5.087,-8.558 3.988,-9.655 2.89,-10.754 1.56,-11.304 0,-11.304 c -1.561,0 -2.891,0.55 -3.989,1.649 -1.098,1.097 -1.648,2.427 -1.648,3.988 0,1.54 0.565,2.869 1.694,3.988 C -2.813,-0.56 -1.5,0 0,0 m 4.989,-13.736 v -22.762 c 0,-1.089 0.062,-1.756 0.185,-2.002 0.123,-0.247 0.344,-0.437 0.662,-0.57 0.319,-0.134 1.032,-0.201 2.141,-0.201 H 9.64 v -5.944 H -9.395 v 5.944 h 1.633 c 1.068,0 1.75,0.057 2.048,0.17 0.297,0.113 0.519,0.303 0.663,0.57 0.143,0.266 0.215,0.801 0.215,1.601 v 14.693 h -4.559 v 5.79 c 1.623,0.082 3.178,0.257 4.667,0.523 1.488,0.267 2.818,0.586 3.989,0.955 0.759,0.246 1.694,0.657 2.802,1.233 z" /></g><g
           transform="translate(170.4376,197.1357)"
           id="g54"><path
             id="path56"
             style="fill:#231f20;fill-opacity:1;fill-rule:nonzero;stroke:none"
             d="m 0,0 c -1.314,0 -2.398,-0.482 -3.25,-1.447 -0.852,-0.966 -1.278,-2.27 -1.278,-3.912 0,-1.52 0.411,-2.732 1.232,-3.635 0.821,-0.903 1.879,-1.355 3.172,-1.355 1.273,0 2.336,0.467 3.188,1.402 0.853,0.933 1.279,2.14 1.279,3.619 0,1.642 -0.406,2.941 -1.217,3.895 C 2.315,-0.478 1.273,0 0,0 m -4.466,-27.547 c -1.089,-0.841 -1.782,-1.481 -2.079,-1.922 -0.298,-0.441 -0.447,-0.927 -0.447,-1.461 0,-1.004 0.821,-1.788 2.464,-2.351 1.643,-0.564 3.747,-0.846 6.314,-0.846 1.869,0 3.522,0.164 4.959,0.492 1.437,0.328 2.392,0.728 2.865,1.199 0.307,0.308 0.462,0.728 0.462,1.26 0,0.595 -0.308,1.093 -0.925,1.492 -0.615,0.4 -2.105,0.743 -4.465,1.03 z M 8.747,3.375 c 1.088,1.545 2.176,2.642 3.265,3.29 1.088,0.649 2.238,0.974 3.45,0.974 1.211,0 2.166,-0.355 2.864,-1.063 C 19.024,5.867 19.374,4.959 19.374,3.85 19.374,2.844 19.04,2.007 18.373,1.34 17.705,0.672 16.878,0.339 15.893,0.339 L 14.876,0.369 13.83,0.4 c -0.555,0 -1.109,-0.206 -1.664,-0.618 1.129,-1.872 1.694,-3.661 1.694,-5.369 0,-1.809 -0.56,-3.568 -1.678,-5.276 -1.12,-1.707 -2.67,-3.034 -4.651,-3.981 -1.982,-0.946 -4.359,-1.419 -7.131,-1.419 -0.8,0 -1.607,0.046 -2.418,0.139 -0.811,0.093 -1.627,0.23 -2.448,0.416 -0.555,-0.35 -0.976,-0.688 -1.263,-1.017 -0.288,-0.328 -0.431,-0.634 -0.431,-0.921 0,-0.636 0.657,-1.046 1.971,-1.23 L 8.563,-20.69 c 3.798,-0.534 6.539,-1.549 8.223,-3.045 1.684,-1.519 2.526,-3.324 2.526,-5.415 0,-1.846 -0.637,-3.553 -1.91,-5.122 -1.273,-1.569 -3.352,-2.856 -6.237,-3.861 -2.885,-1.005 -6.525,-1.508 -10.919,-1.508 -3.86,0 -7.053,0.375 -9.579,1.123 -2.525,0.749 -4.317,1.693 -5.375,2.831 -1.057,1.139 -1.585,2.221 -1.585,3.247 0,1.169 0.395,2.22 1.185,3.154 0.791,0.933 2.418,2.005 4.882,3.215 -1.52,0.554 -2.659,1.232 -3.419,2.034 -1.027,1.067 -1.54,2.167 -1.54,3.297 0,1.232 0.477,2.444 1.433,3.636 0.954,1.191 2.386,2.373 4.296,3.543 -1.068,0.658 -1.905,1.372 -2.51,2.142 -0.606,0.77 -1.099,1.71 -1.478,2.819 -0.381,1.109 -0.57,2.249 -0.57,3.42 0,3.081 1.257,5.701 3.773,7.858 2.515,2.157 5.826,3.236 9.933,3.236 1.827,0 3.496,-0.212 5.005,-0.635 1.509,-0.424 2.859,-1.058 4.05,-1.904" /></g><g
           transform="translate(201.5152,216.7861)"
           id="g58"><path
             id="path60"
             style="fill:#231f20;fill-opacity:1;fill-rule:nonzero;stroke:none"
             d="M 0,0 C 1.56,0 2.89,-0.549 3.988,-1.647 5.087,-2.746 5.636,-4.076 5.636,-5.636 5.636,-7.218 5.087,-8.558 3.988,-9.655 2.89,-10.754 1.56,-11.304 0,-11.304 c -1.561,0 -2.891,0.55 -3.989,1.649 -1.098,1.097 -1.648,2.427 -1.648,3.988 0,1.54 0.565,2.869 1.694,3.988 C -2.813,-0.56 -1.5,0 0,0 m 4.989,-13.736 v -22.762 c 0,-1.089 0.062,-1.756 0.185,-2.002 0.123,-0.247 0.344,-0.437 0.662,-0.57 0.319,-0.134 1.032,-0.201 2.141,-0.201 H 9.64 v -5.944 H -9.395 v 5.944 h 1.633 c 1.068,0 1.75,0.057 2.048,0.17 0.297,0.113 0.519,0.303 0.663,0.57 0.143,0.266 0.215,0.801 0.215,1.601 v 14.693 h -4.559 v 5.79 c 1.623,0.082 3.178,0.257 4.667,0.523 1.488,0.267 2.818,0.586 3.989,0.955 0.759,0.246 1.694,0.657 2.802,1.233 z" /></g><g
           transform="translate(228.589,212.875)"
           id="g62"><path
             id="path64"
             style="fill:#231f20;fill-opacity:1;fill-rule:nonzero;stroke:none"
             d="m 0,0 v -10.564 h 9.917 v -6.561 H 0 v -10.719 c 0,-2.423 0.128,-3.978 0.385,-4.666 0.257,-0.688 0.734,-1.237 1.432,-1.648 0.924,-0.554 1.981,-0.831 3.173,-0.831 2.114,0 4.219,0.687 6.314,2.063 v -6.592 c -1.787,-0.841 -3.404,-1.431 -4.851,-1.77 -1.448,-0.339 -3.014,-0.509 -4.698,-0.509 -1.909,0 -3.598,0.242 -5.066,0.725 -1.468,0.481 -2.721,1.17 -3.758,2.063 -1.037,0.893 -1.755,1.843 -2.156,2.849 -0.4,1.006 -0.601,2.464 -0.601,4.374 v 14.661 h -4.619 v 5.913 c 1.642,0.534 3.049,1.299 4.219,2.295 1.17,0.996 2.11,2.191 2.818,3.588 0.709,1.396 1.196,3.173 1.463,5.329 z" /></g><g
           transform="translate(262.377,185.0927)"
           id="g66"><path
             id="path68"
             style="fill:#231f20;fill-opacity:1;fill-rule:nonzero;stroke:none"
             d="m 0,0 c -2.69,-0.391 -4.589,-0.785 -5.698,-1.186 -1.109,-0.4 -1.9,-0.904 -2.372,-1.509 -0.472,-0.606 -0.708,-1.227 -0.708,-1.864 0,-0.821 0.308,-1.508 0.924,-2.063 0.616,-0.555 1.448,-0.832 2.495,-0.832 0.677,0 1.463,0.175 2.356,0.524 0.893,0.349 1.894,0.863 3.003,1.539 z m 0,5.113 v 2.28 c 0,1.354 -0.113,2.289 -0.339,2.802 -0.226,0.513 -0.637,0.94 -1.232,1.279 -0.596,0.338 -1.335,0.507 -2.218,0.507 -0.677,0 -1.293,-0.113 -1.847,-0.338 C -6.191,11.416 -6.633,11.129 -6.961,10.78 -7.29,10.431 -7.669,9.753 -8.101,8.747 -8.655,7.474 -9.317,6.561 -10.087,6.006 c -0.77,-0.555 -1.679,-0.831 -2.726,-0.831 -1.314,0 -2.392,0.41 -3.234,1.231 -0.842,0.822 -1.263,1.838 -1.263,3.05 0,1.375 0.432,2.597 1.294,3.665 1.149,1.417 2.864,2.576 5.143,3.481 2.28,0.903 4.846,1.355 7.701,1.355 2.854,0 5.282,-0.462 7.284,-1.387 2.002,-0.924 3.398,-2.027 4.189,-3.31 0.79,-1.283 1.186,-3.239 1.186,-5.867 V -3.635 c 0,-1.354 0.072,-2.222 0.215,-2.602 0.144,-0.38 0.452,-0.714 0.924,-1.001 0.473,-0.288 0.996,-0.431 1.571,-0.431 0.575,0 1.345,0.164 2.31,0.492 v -6.006 c -1.745,-0.554 -3.419,-0.832 -5.02,-0.832 -1.89,0 -3.502,0.309 -4.836,0.925 -1.335,0.615 -2.454,1.54 -3.357,2.772 -2.054,-1.335 -3.917,-2.285 -5.59,-2.849 -1.674,-0.564 -3.291,-0.848 -4.851,-0.848 -2.937,0 -5.309,0.827 -7.116,2.48 -1.807,1.653 -2.71,3.691 -2.71,6.114 0,1.375 0.313,2.639 0.939,3.788 0.626,1.151 1.56,2.156 2.803,3.019 1.242,0.862 3.162,1.627 5.76,2.295 2.597,0.667 5.754,1.144 9.471,1.432" /></g><g
           transform="translate(294.1324,216.7861)"
           id="g70"><path
             id="path72"
             style="fill:#231f20;fill-opacity:1;fill-rule:nonzero;stroke:none"
             d="m 0,0 v -36.036 c 0,-1.212 0.051,-1.931 0.154,-2.156 0.143,-0.412 0.462,-0.708 0.955,-0.894 0.308,-0.123 1.139,-0.185 2.495,-0.185 h 1.078 v -5.944 h -19.066 v 5.944 h 1.171 c 1.232,0 2.022,0.078 2.371,0.232 0.349,0.153 0.606,0.4 0.77,0.739 0.164,0.339 0.246,1.093 0.246,2.264 v 27.473 h -4.558 v 5.946 c 3.676,0.249 7.474,1.121 11.396,2.617 z" /></g><g
           transform="translate(348.526,194.4873)"
           id="g74"><path
             id="path76"
             style="fill:#231f20;fill-opacity:1;fill-rule:nonzero;stroke:none"
             d="m 0,0 h 20.976 v -6.007 h -1.571 c -1.028,0 -1.731,-0.092 -2.11,-0.277 -0.38,-0.185 -0.663,-0.477 -0.847,-0.877 -0.185,-0.401 -0.278,-1.166 -0.278,-2.295 v -13.46 H 9.861 l -1.631,3.08 C 6.301,-21.109 4.3,-22.064 2.228,-22.7 c -2.072,-0.637 -4.227,-0.955 -6.463,-0.955 -3.92,0 -7.49,0.955 -10.711,2.864 -3.222,1.91 -5.771,4.579 -7.648,8.009 -1.878,3.428 -2.816,7.268 -2.816,11.518 0,4.21 0.928,7.978 2.785,11.305 1.856,3.326 4.453,5.949 7.787,7.869 3.334,1.92 6.95,2.88 10.849,2.88 1.887,0 3.77,-0.241 5.648,-0.724 1.877,-0.483 3.483,-1.124 4.816,-1.924 l 1.139,1.909 h 4.309 L 15.801,5.821 10.134,3.973 C 8.203,7.094 6.679,9.219 5.56,10.349 4.44,11.478 3.157,12.36 1.709,12.997 c -1.447,0.637 -2.859,0.955 -4.234,0.955 -1.952,0 -3.773,-0.564 -5.468,-1.694 -1.694,-1.129 -3.033,-2.778 -4.019,-4.944 -0.986,-2.166 -1.478,-4.789 -1.478,-7.869 0,-3.388 0.538,-6.325 1.616,-8.808 1.079,-2.486 2.49,-4.328 4.236,-5.53 1.745,-1.201 3.665,-1.801 5.76,-1.801 1.478,0 2.879,0.298 4.204,0.893 1.324,0.595 2.233,1.263 2.725,2.002 0.493,0.739 0.74,1.735 0.74,2.987 v 1.572 c 0,1.088 -0.072,1.775 -0.216,2.063 -0.226,0.41 -0.529,0.708 -0.908,0.893 -0.381,0.185 -1.125,0.277 -2.233,0.277 l -2.434,0 z" /></g><g
           transform="translate(389.6451,196.3037)"
           id="g78"><path
             id="path80"
             style="fill:#231f20;fill-opacity:1;fill-rule:nonzero;stroke:none"
             d="m 0,0 c -1.17,0 -2.27,-0.349 -3.296,-1.047 -1.027,-0.698 -1.822,-1.724 -2.387,-3.08 -0.565,-1.355 -0.847,-3.08 -0.847,-5.175 0,-2.155 0.277,-3.942 0.832,-5.358 0.554,-1.417 1.319,-2.465 2.294,-3.143 0.975,-0.676 2.049,-1.015 3.219,-1.015 1.807,0 3.357,0.764 4.651,2.294 1.293,1.529 1.94,3.906 1.94,7.13 0,3.122 -0.6,5.467 -1.802,7.039 C 3.403,-0.785 1.868,0 0,0 m -0.124,6.746 c 3.512,0 6.571,-0.688 9.179,-2.064 2.608,-1.375 4.615,-3.249 6.022,-5.621 1.406,-2.372 2.11,-5.149 2.11,-8.332 0,-4.804 -1.561,-8.706 -4.682,-11.704 -3.122,-2.998 -7.29,-4.497 -12.505,-4.497 -5.318,0 -9.548,1.509 -12.69,4.528 -3.039,2.875 -4.559,6.765 -4.559,11.673 0,3.224 0.693,5.996 2.08,8.317 1.385,2.32 3.393,4.183 6.021,5.59 2.628,1.406 5.637,2.11 9.024,2.11" /></g><g
           transform="translate(425.3121,216.7861)"
           id="g82"><path
             id="path84"
             style="fill:#231f20;fill-opacity:1;fill-rule:nonzero;stroke:none"
             d="m 0,0 v -36.036 c 0,-1.212 0.051,-1.931 0.154,-2.156 0.143,-0.412 0.462,-0.708 0.955,-0.894 0.308,-0.123 1.139,-0.185 2.494,-0.185 h 1.078 v -5.944 h -19.065 v 5.944 h 1.171 c 1.232,0 2.022,0.078 2.371,0.232 0.349,0.153 0.606,0.4 0.77,0.739 0.164,0.339 0.246,1.093 0.246,2.264 v 27.473 h -4.558 v 5.946 c 3.676,0.249 7.474,1.121 11.396,2.617 z" /></g><g
           transform="translate(455.0499,180.3798)"
           id="g86"><path
             id="path88"
             style="fill:#231f20;fill-opacity:1;fill-rule:nonzero;stroke:none"
             d="m 0,0 v 10.319 c 0,1.293 -0.093,2.206 -0.278,2.741 -0.246,0.759 -0.807,1.426 -1.681,2.002 -0.874,0.575 -1.845,0.862 -2.914,0.862 -1.111,0 -2.139,-0.334 -3.085,-1.001 -0.946,-0.667 -1.696,-1.689 -2.252,-3.065 -0.555,-1.376 -0.832,-3.09 -0.832,-5.143 0,-2.855 0.627,-5.144 1.881,-6.868 0.967,-1.356 2.252,-2.034 3.856,-2.034 0.699,0 1.367,0.119 2.004,0.355 C -2.663,-1.597 -1.563,-0.985 0,0 M 9.841,36.406 V 0.586 c 0,-1.417 0.061,-2.274 0.184,-2.572 0.123,-0.298 0.334,-0.519 0.632,-0.662 0.297,-0.144 1.082,-0.216 2.356,-0.216 h 1.448 V -8.809 L 1.093,-9.271 v 3.173 c -1.93,-1.294 -3.624,-2.192 -5.082,-2.695 -1.458,-0.503 -2.916,-0.755 -4.373,-0.755 -2.362,0 -4.534,0.642 -6.515,1.925 -1.981,1.283 -3.603,3.188 -4.866,5.714 -1.263,2.525 -1.895,5.328 -1.895,8.408 0,3.121 0.643,5.949 1.928,8.485 1.285,2.537 2.961,4.452 5.027,5.745 2.067,1.293 4.375,1.941 6.925,1.941 1.317,0 2.575,-0.159 3.779,-0.478 1.203,-0.318 2.534,-0.878 3.995,-1.678 v 7.33 h -4.497 v 5.945 c 2.54,0.246 4.604,0.559 6.192,0.939 1.589,0.379 3.304,0.939 5.148,1.678 z" /></g><g
           transform="translate(494.5509,214.538)"
           id="g90"><path
             id="path92"
             style="fill:#231f20;fill-opacity:1;fill-rule:nonzero;stroke:none"
             d="m 0,0 h 20.976 v -5.944 h -1.911 c -1.108,0 -1.842,-0.098 -2.202,-0.293 -0.359,-0.196 -0.626,-0.503 -0.801,-0.924 -0.174,-0.421 -0.261,-1.228 -0.261,-2.418 v -23.778 c 0,-1.293 0.072,-2.125 0.216,-2.495 0.143,-0.37 0.389,-0.636 0.739,-0.8 0.431,-0.247 1.078,-0.37 1.94,-0.37 h 2.28 v -5.945 H 0 v 5.945 h 1.704 c 1.219,0 2.015,0.086 2.386,0.261 0.372,0.175 0.645,0.452 0.821,0.832 0.176,0.38 0.264,1.134 0.264,2.264 v 23.87 c 0,1.335 -0.088,2.213 -0.264,2.634 -0.176,0.421 -0.47,0.744 -0.883,0.97 -0.29,0.165 -0.992,0.247 -2.106,0.247 l -1.922,0 z" /></g><g
           transform="translate(533.6681,203.0498)"
           id="g94"><path
             id="path96"
             style="fill:#231f20;fill-opacity:1;fill-rule:nonzero;stroke:none"
             d="m 0,0 v -4.097 c 2.32,1.581 4.307,2.66 5.96,3.235 C 7.612,-0.288 9.302,0 11.026,0 c 1.992,0 3.752,-0.422 5.283,-1.263 1.529,-0.842 2.643,-1.894 3.341,-3.157 0.699,-1.263 1.047,-3.055 1.047,-5.375 v -12.813 c 0,-1.088 0.077,-1.787 0.232,-2.094 0.154,-0.309 0.395,-0.534 0.723,-0.678 0.246,-0.103 0.986,-0.154 2.218,-0.154 h 1.509 v -5.945 H 7.3 v 5.945 c 1.375,0.02 2.145,0.051 2.309,0.093 0.513,0.143 0.852,0.379 1.017,0.707 0.164,0.327 0.246,1.035 0.246,2.122 v 11.284 c 0,1.455 -0.153,2.398 -0.462,2.829 -0.493,0.717 -1.273,1.076 -2.341,1.076 -0.882,0 -1.828,-0.195 -2.834,-0.585 C 4.229,-8.397 2.874,-9.196 1.17,-10.405 v -12.207 c 0,-1.333 0.145,-2.154 0.435,-2.461 0.29,-0.308 0.984,-0.461 2.083,-0.461 h 0.994 v -5.945 h -17.896 v 5.945 h 0.894 c 1.417,0 2.294,0.061 2.632,0.184 0.339,0.123 0.596,0.338 0.771,0.646 0.174,0.308 0.262,0.912 0.262,1.814 v 14.327 h -4.559 v 5.945 c 3.688,0.457 7.139,1.329 10.356,2.618 z" /></g><g
           transform="translate(583.8116,202.3105)"
           id="g98"><path
             id="path100"
             style="fill:#231f20;fill-opacity:1;fill-rule:nonzero;stroke:none"
             d="m 0,0 h 4.034 l 2.495,-8.563 -5.821,-2.34 c -1.108,1.786 -2.5,3.187 -4.174,4.204 -1.674,1.016 -3.331,1.524 -4.973,1.524 -1.089,0 -1.9,-0.184 -2.434,-0.554 -0.534,-0.37 -0.801,-0.812 -0.801,-1.325 0,-0.43 0.19,-0.831 0.57,-1.201 0.379,-0.369 1.166,-0.76 2.356,-1.17 l 8.471,-3.018 c 1.498,-0.535 2.935,-1.202 4.311,-2.002 1.376,-0.801 2.407,-1.783 3.096,-2.943 0.687,-1.16 1.032,-2.52 1.032,-4.081 0,-2.792 -1.068,-5.082 -3.204,-6.868 -2.505,-2.095 -5.626,-3.142 -9.363,-3.142 -3.203,0 -5.996,0.811 -8.377,2.434 l -0.864,-1.694 h -4.095 l -3.789,10.102 5.821,2.464 c 1.458,-2.279 3.255,-4.07 5.391,-5.374 2.134,-1.305 4.095,-1.956 5.882,-1.956 1.109,0 2.043,0.256 2.803,0.77 0.574,0.411 0.862,0.893 0.862,1.448 0,0.472 -0.226,0.924 -0.677,1.354 -0.452,0.432 -1.448,0.914 -2.988,1.449 l -6.653,2.309 c -3.676,1.294 -6.176,2.675 -7.5,4.143 -1.324,1.467 -1.986,3.208 -1.986,5.22 0,2.588 1.036,4.764 3.11,6.531 2.361,2.011 5.277,3.018 8.748,3.018 3.08,0 5.718,-0.698 7.915,-2.094 z" /></g><g
           transform="translate(609.5607,212.875)"
           id="g102"><path
             id="path104"
             style="fill:#231f20;fill-opacity:1;fill-rule:nonzero;stroke:none"
             d="m 0,0 v -10.564 h 9.918 v -6.561 H 0 v -10.719 c 0,-2.423 0.128,-3.978 0.385,-4.666 0.257,-0.688 0.734,-1.237 1.432,-1.648 0.924,-0.554 1.982,-0.831 3.172,-0.831 2.115,0 4.22,0.687 6.315,2.063 v -6.592 c -1.786,-0.841 -3.404,-1.431 -4.851,-1.77 -1.448,-0.339 -3.014,-0.509 -4.697,-0.509 -1.91,0 -3.6,0.242 -5.068,0.725 -1.467,0.481 -2.72,1.17 -3.756,2.063 -1.037,0.893 -1.756,1.843 -2.157,2.849 -0.4,1.006 -0.6,2.464 -0.6,4.374 v 14.661 h -4.62 v 5.913 c 1.642,0.534 3.049,1.299 4.219,2.295 1.17,0.996 2.11,2.191 2.819,3.588 0.708,1.396 1.195,3.173 1.463,5.329 z" /></g><g
           transform="translate(634.2013,216.7861)"
           id="g106"><path
             id="path108"
             style="fill:#231f20;fill-opacity:1;fill-rule:nonzero;stroke:none"
             d="m 0,0 c 1.561,0 2.891,-0.549 3.989,-1.647 1.098,-1.099 1.648,-2.429 1.648,-3.989 0,-1.582 -0.55,-2.922 -1.648,-4.019 -1.098,-1.099 -2.428,-1.649 -3.989,-1.649 -1.561,0 -2.891,0.55 -3.988,1.649 -1.099,1.097 -1.649,2.427 -1.649,3.988 0,1.54 0.566,2.869 1.695,3.988 C -2.813,-0.56 -1.499,0 0,0 m 4.99,-13.736 v -22.762 c 0,-1.089 0.062,-1.756 0.185,-2.002 0.123,-0.247 0.344,-0.437 0.662,-0.57 0.318,-0.134 1.032,-0.201 2.141,-0.201 h 1.663 v -5.944 H -9.394 v 5.944 h 1.632 c 1.068,0 1.751,0.057 2.049,0.17 0.297,0.113 0.518,0.303 0.662,0.57 0.144,0.266 0.216,0.801 0.216,1.601 v 14.693 h -4.559 v 5.79 c 1.622,0.082 3.177,0.257 4.666,0.523 1.489,0.267 2.819,0.586 3.989,0.955 0.76,0.246 1.694,0.657 2.802,1.233 z" /></g><g
           transform="translate(661.2745,212.875)"
           id="g110"><path
             id="path112"
             style="fill:#231f20;fill-opacity:1;fill-rule:nonzero;stroke:none"
             d="m 0,0 v -10.564 h 9.918 v -6.561 H 0 v -10.719 c 0,-2.423 0.128,-3.978 0.385,-4.666 0.257,-0.688 0.734,-1.237 1.432,-1.648 0.924,-0.554 1.982,-0.831 3.172,-0.831 2.115,0 4.22,0.687 6.315,2.063 v -6.592 c -1.786,-0.841 -3.404,-1.431 -4.851,-1.77 -1.448,-0.339 -3.014,-0.509 -4.697,-0.509 -1.91,0 -3.6,0.242 -5.068,0.725 -1.467,0.481 -2.72,1.17 -3.756,2.063 -1.037,0.893 -1.756,1.843 -2.157,2.849 -0.4,1.006 -0.6,2.464 -0.6,4.374 v 14.661 h -4.62 v 5.913 c 1.642,0.534 3.049,1.299 4.219,2.295 1.17,0.996 2.11,2.191 2.819,3.588 0.708,1.396 1.195,3.173 1.463,5.329 z" /></g><g
           transform="translate(675.6896,202.3105)"
           id="g114"><path
             id="path116"
             style="fill:#231f20;fill-opacity:1;fill-rule:nonzero;stroke:none"
             d="m 0,0 14.384,0.277 v -19.99 c 0,-1.417 0.087,-2.361 0.262,-2.833 0.174,-0.473 0.493,-0.858 0.955,-1.155 0.461,-0.298 1.042,-0.446 1.74,-0.446 1.026,0 2.114,0.246 3.264,0.738 0.452,0.205 1.653,0.934 3.604,2.187 V -9.21 c 0,1.048 -0.082,1.766 -0.248,2.156 -0.165,0.39 -0.403,0.673 -0.713,0.847 -0.311,0.175 -0.91,0.263 -1.799,0.263 H 19.65 V 0 l 14.447,0.277 v -22.053 c 0,-1.151 0.066,-1.874 0.2,-2.171 0.133,-0.299 0.349,-0.514 0.646,-0.648 0.297,-0.134 1.011,-0.2 2.141,-0.2 h 1.633 v -5.944 l -13.522,-0.369 v 3.633 c -1.804,-1.335 -3.619,-2.336 -5.444,-3.003 -1.825,-0.667 -3.659,-1.001 -5.505,-1.001 -1.476,0 -2.834,0.242 -4.075,0.724 -1.24,0.483 -2.281,1.129 -3.121,1.941 -0.841,0.811 -1.466,1.76 -1.876,2.849 -0.41,1.088 -0.615,2.485 -0.615,4.189 v 12.689 c 0,1.171 -0.068,1.91 -0.203,2.218 C 4.222,-6.561 4,-6.33 3.689,-6.176 3.38,-6.021 2.718,-5.944 1.706,-5.944 H 0 Z" /></g><g
           transform="translate(731.9318,212.875)"
           id="g118"><path
             id="path120"
             style="fill:#231f20;fill-opacity:1;fill-rule:nonzero;stroke:none"
             d="m 0,0 v -10.564 h 9.918 v -6.561 H 0 v -10.719 c 0,-2.423 0.128,-3.978 0.385,-4.666 0.257,-0.688 0.734,-1.237 1.432,-1.648 0.924,-0.554 1.982,-0.831 3.172,-0.831 2.115,0 4.22,0.687 6.315,2.063 v -6.592 c -1.786,-0.841 -3.404,-1.431 -4.851,-1.77 -1.448,-0.339 -3.014,-0.509 -4.697,-0.509 -1.91,0 -3.6,0.242 -5.068,0.725 -1.467,0.481 -2.72,1.17 -3.756,2.063 -1.037,0.893 -1.756,1.843 -2.157,2.849 -0.4,1.006 -0.6,2.464 -0.6,4.374 v 14.661 h -4.62 v 5.913 c 1.642,0.534 3.049,1.299 4.219,2.295 1.17,0.996 2.11,2.191 2.819,3.588 0.708,1.396 1.195,3.173 1.463,5.329 z" /></g><g
           transform="translate(768.7999,191.8691)"
           id="g122"><path
             id="path124"
             style="fill:#231f20;fill-opacity:1;fill-rule:nonzero;stroke:none"
             d="m 0,0 c -0.145,1.231 -0.437,2.202 -0.881,2.91 -0.442,0.709 -1.04,1.274 -1.792,1.694 -0.751,0.421 -1.539,0.631 -2.363,0.631 -0.865,0 -1.699,-0.214 -2.502,-0.646 C -8.342,4.158 -8.985,3.572 -9.469,2.833 -9.953,2.094 -10.268,1.149 -10.411,0 Z m 6.16,-8.901 4.219,-4.251 c -2.423,-2.772 -4.892,-4.78 -7.407,-6.022 -2.516,-1.242 -5.232,-1.863 -8.147,-1.863 -4.681,0 -8.624,1.586 -11.827,4.759 -3.204,3.173 -4.806,7.007 -4.806,11.504 0,2.957 0.719,5.662 2.157,8.116 1.437,2.453 3.428,4.373 5.975,5.76 2.546,1.385 5.431,2.079 8.655,2.079 2.053,0 3.921,-0.298 5.606,-0.894 C 2.269,9.691 3.742,8.84 5.005,7.73 6.268,6.622 7.284,5.282 8.054,3.711 8.824,2.141 9.353,0.513 9.641,-1.171 9.764,-2.013 9.825,-3.348 9.825,-5.175 h -20.729 c 0.041,-2.608 0.805,-4.718 2.295,-6.329 1.488,-1.612 3.311,-2.418 5.467,-2.418 1.375,0 2.874,0.416 4.496,1.247 1.623,0.832 3.224,2.089 4.806,3.774" /></g></g></g></g></svg>