<?xml version="1.0" encoding="UTF-8" standalone="no"?>
<svg
   xmlns:dc="http://purl.org/dc/elements/1.1/"
   xmlns:cc="http://creativecommons.org/ns#"
   xmlns:rdf="http://www.w3.org/1999/02/22-rdf-syntax-ns#"
   xmlns:svg="http://www.w3.org/2000/svg"
   xmlns="http://www.w3.org/2000/svg"
   viewBox="0 0 1133.8586 1133.8586"
   height="1133.8586"
   width="1133.8586"
   xml:space="preserve"
   id="svg2"
   version="1.1"><metadata
     id="metadata8"><rdf:RDF><cc:Work
         rdf:about=""><dc:format>image/svg+xml</dc:format><dc:type
           rdf:resource="http://purl.org/dc/dcmitype/StillImage" /></cc:Work></rdf:RDF></metadata><defs
     id="defs6"><clipPath
       id="clipPath18"
       clipPathUnits="userSpaceOnUse"><path
         id="path16"
         d="M 0,850.394 H 850.394 V 0 H 0 Z" /></clipPath><clipPath
       id="clipPath136"
       clipPathUnits="userSpaceOnUse"><path
         id="path134"
         d="M 0,850.394 H 850.394 V 0 H 0 Z" /></clipPath></defs><g
     transform="matrix(1.3333333,0,0,-1.3333333,0,1133.8587)"
     id="g10"><g
       id="g12"><g
         clip-path="url(#clipPath18)"
         id="g14"><g
           transform="translate(243.4064,424.9164)"
           id="g20"><path
             id="path22"
             style="fill:#231f20;fill-opacity:1;fill-rule:nonzero;stroke:none"
             d="m 0,0 v 74.994 c 0,9.396 -0.688,16.035 -2.058,19.918 -1.83,5.519 -5.983,10.371 -12.462,14.551 -6.478,4.175 -13.677,6.267 -21.605,6.267 -8.234,0 -15.855,-2.427 -22.865,-7.275 -7.014,-4.851 -12.576,-12.277 -16.693,-22.274 -4.118,-10 -6.172,-22.46 -6.172,-37.382 0,-20.746 4.649,-37.383 13.946,-49.918 7.164,-9.848 16.693,-14.772 28.583,-14.772 5.181,0 10.136,0.856 14.86,2.572 C -19.742,-11.606 -11.587,-7.165 0,0 M 72.953,264.592 V 4.255 c 0,-10.297 0.455,-16.531 1.369,-18.692 0.913,-2.165 2.473,-3.772 4.68,-4.813 2.206,-1.046 8.027,-1.57 17.469,-1.57 h 10.73 V -64.021 L 8.107,-67.379 v 23.055 c -14.311,-9.4 -26.868,-15.931 -37.674,-19.586 -10.811,-3.656 -21.616,-5.484 -32.424,-5.484 -17.506,0 -33.602,4.666 -48.291,13.991 -14.692,9.325 -26.714,23.168 -36.077,41.524 -9.361,18.355 -14.041,38.726 -14.041,61.11 0,22.684 4.763,43.239 14.288,61.671 9.526,18.431 21.952,32.348 37.271,41.749 15.319,9.402 32.434,14.102 51.335,14.102 9.754,0 19.091,-1.157 28.01,-3.469 8.918,-2.315 18.788,-6.38 29.612,-12.2 v 53.277 H -33.22 v 43.204 c 18.832,1.791 34.135,4.065 45.907,6.828 11.774,2.759 24.493,6.827 38.164,12.199 z" /></g><g
           transform="translate(479.6476,550.1703)"
           id="g24"><path
             id="path26"
             style="fill:#231f20;fill-opacity:1;fill-rule:nonzero;stroke:none"
             d="m 0,0 c -9.55,0 -17.424,-3.507 -23.616,-10.52 -6.193,-7.016 -9.288,-16.493 -9.288,-28.43 0,-11.046 2.984,-19.849 8.955,-26.413 5.965,-6.57 13.655,-9.851 23.055,-9.851 9.251,0 16.976,3.393 23.168,10.185 6.193,6.789 9.291,15.559 9.291,26.303 0,11.937 -2.949,21.378 -8.842,28.318 C 16.826,-3.47 9.255,0 0,0 m -32.456,-200.205 c -7.911,-6.107 -12.948,-10.763 -15.112,-13.968 -2.165,-3.202 -3.246,-6.74 -3.246,-10.614 0,-7.296 5.967,-12.996 17.91,-17.094 11.939,-4.095 27.232,-6.145 45.89,-6.145 13.577,0 25.591,1.193 36.038,3.575 10.447,2.386 17.383,5.288 20.82,8.714 2.239,2.237 3.357,5.288 3.357,9.163 0,4.323 -2.239,7.936 -6.716,10.838 -4.475,2.905 -15.299,5.4 -32.459,7.486 z M 63.576,24.529 c 7.908,11.229 15.818,19.2 23.729,23.914 7.908,4.715 16.265,7.074 25.071,7.074 8.802,0 15.742,-2.575 20.819,-7.724 5.071,-5.148 7.61,-11.751 7.61,-19.811 0,-7.314 -2.427,-13.395 -7.277,-18.243 -4.849,-4.852 -10.855,-7.277 -18.019,-7.277 l -7.388,0.225 -7.609,0.224 c -4.032,0 -8.058,-1.497 -12.089,-4.491 8.208,-13.606 12.313,-26.61 12.313,-39.02 0,-13.159 -4.068,-25.94 -12.201,-38.349 -8.136,-12.41 -19.402,-22.053 -33.802,-28.93 -14.403,-6.877 -31.673,-10.314 -51.82,-10.314 -5.822,0 -11.681,0.336 -17.574,1.005 -5.897,0.673 -11.83,1.681 -17.795,3.023 -4.03,-2.54 -7.092,-4.997 -9.179,-7.381 -2.09,-2.386 -3.134,-4.616 -3.134,-6.703 0,-4.618 4.776,-7.598 14.326,-8.937 l 92.677,-13.183 c 27.606,-3.878 47.529,-11.256 59.766,-22.134 12.235,-11.033 18.355,-24.151 18.355,-39.352 0,-13.414 -4.625,-25.825 -13.875,-37.228 -9.258,-11.402 -24.368,-20.754 -45.333,-28.058 -20.965,-7.303 -47.419,-10.953 -79.356,-10.953 -28.058,0 -51.263,2.719 -69.618,8.16 -18.356,5.444 -31.377,12.299 -39.063,20.571 -7.688,8.279 -11.528,16.143 -11.528,23.596 0,8.5 2.872,16.14 8.619,22.92 5.743,6.786 17.572,14.576 35.481,23.368 -11.046,4.03 -19.329,8.958 -24.849,14.783 -7.463,7.759 -11.193,15.749 -11.193,23.963 0,8.955 3.47,17.765 10.41,26.424 6.94,8.658 17.349,17.242 31.227,25.752 -7.76,4.777 -13.844,9.965 -18.243,15.564 -4.405,5.597 -7.985,12.428 -10.746,20.489 -2.763,8.063 -4.142,16.349 -4.142,24.862 0,22.393 9.141,41.43 27.423,57.107 18.279,15.678 42.346,23.514 72.195,23.514 13.282,0 25.408,-1.537 36.375,-4.613 10.969,-3.074 20.782,-7.687 29.437,-13.837" /></g><g
           transform="translate(744.5323,589.6699)"
           id="g28"><path
             id="path30"
             style="fill:#231f20;fill-opacity:1;fill-rule:nonzero;stroke:none"
             d="m 0,0 v -165.423 c 0,-7.912 0.445,-12.762 1.342,-14.553 0.894,-1.791 2.498,-3.17 4.812,-4.139 2.312,-0.975 7.501,-1.458 15.559,-1.458 h 12.089 v -43.201 h -138.341 v 43.201 h 11.864 c 7.756,0 12.721,0.412 14.886,1.234 2.161,0.818 3.766,2.198 4.812,4.139 1.043,1.937 1.567,5.822 1.567,11.64 v 106.777 h -33.129 v 42.085 c 11.786,0.595 23.09,1.865 33.911,3.805 10.82,1.937 20.482,4.253 28.989,6.94 5.519,1.791 12.313,4.775 20.37,8.953 z" /></g><path
           id="path32"
           style="fill:#231f20;fill-opacity:1;fill-rule:nonzero;stroke:none"
           d="M 778.334,273.368 H 83.966 v 27.405 h 694.368 z" /><g
           transform="translate(97.9015,202.7636)"
           id="g34"><path
             id="path36"
             style="fill:#231f20;fill-opacity:1;fill-rule:nonzero;stroke:none"
             d="m 0,0 v -23.787 c 0,-0.806 0.045,-1.299 0.137,-1.482 0.146,-0.275 0.36,-0.462 0.643,-0.563 0.283,-0.101 0.963,-0.15 2.04,-0.15 2.993,0 5.334,0.461 7.022,1.385 1.688,0.924 3.053,2.406 4.094,4.445 1.04,2.039 1.56,4.467 1.56,7.284 0,2.78 -0.489,5.199 -1.465,7.257 -0.976,2.057 -2.186,3.507 -3.627,4.348 C 8.961,-0.421 6.899,0 4.216,0 Z M -13.991,6.104 H 6.037 c 4.547,0 8.164,-0.72 10.849,-2.162 2.685,-1.442 4.826,-3.578 6.425,-6.407 1.598,-2.829 2.397,-6.223 2.397,-10.184 0,-2.756 -0.406,-5.22 -1.219,-7.392 -0.813,-2.173 -2.023,-4.13 -3.63,-5.873 -1.608,-1.743 -3.334,-3.053 -5.178,-3.929 -1.389,-0.657 -3.357,-1.195 -5.905,-1.615 -2.547,-0.42 -4.589,-0.63 -6.123,-0.63 h -17.644 v 5.284 h 1.322 c 1.12,0 1.855,0.091 2.204,0.274 0.348,0.182 0.633,0.493 0.854,0.93 0.147,0.347 0.22,1.105 0.22,2.273 v 20.862 c 0,1.168 -0.078,1.921 -0.234,2.259 -0.157,0.338 -0.414,0.593 -0.771,0.767 -0.358,0.173 -1.116,0.26 -2.273,0.26 h -1.322 z" /></g><g
           transform="translate(136.0939,210.8671)"
           id="g38"><path
             id="path40"
             style="fill:#231f20;fill-opacity:1;fill-rule:nonzero;stroke:none"
             d="M 0,0 C 1.387,0 2.569,-0.488 3.545,-1.465 4.522,-2.441 5.01,-3.623 5.01,-5.01 5.01,-6.416 4.522,-7.606 3.545,-8.583 2.569,-9.56 1.387,-10.048 0,-10.048 c -1.387,0 -2.569,0.488 -3.545,1.465 -0.977,0.977 -1.465,2.158 -1.465,3.546 0,1.368 0.502,2.55 1.506,3.545 C -2.5,-0.497 -1.333,0 0,0 m 4.436,-12.211 v -20.232 c 0,-0.968 0.054,-1.561 0.164,-1.78 0.109,-0.219 0.305,-0.388 0.588,-0.506 0.283,-0.12 0.917,-0.178 1.903,-0.178 h 1.478 v -5.284 H -8.35 v 5.284 h 1.451 c 0.949,0 1.556,0.05 1.82,0.15 0.265,0.101 0.461,0.27 0.589,0.507 0.128,0.236 0.192,0.712 0.192,1.424 v 13.058 H -8.35 v 5.148 c 1.441,0.073 2.824,0.228 4.147,0.466 1.324,0.236 2.506,0.519 3.546,0.848 0.675,0.219 1.506,0.584 2.491,1.095 z" /></g><g
           transform="translate(161.1725,193.3994)"
           id="g42"><path
             id="path44"
             style="fill:#231f20;fill-opacity:1;fill-rule:nonzero;stroke:none"
             d="m 0,0 c -1.168,0 -2.131,-0.429 -2.889,-1.286 -0.757,-0.859 -1.135,-2.018 -1.135,-3.478 0,-1.35 0.364,-2.427 1.094,-3.23 0.73,-0.804 1.671,-1.204 2.821,-1.204 1.131,0 2.075,0.414 2.833,1.245 0.757,0.83 1.136,1.903 1.136,3.217 0,1.46 -0.36,2.615 -1.081,3.464 C 2.058,-0.424 1.131,0 0,0 m -3.97,-24.486 c -0.967,-0.747 -1.584,-1.317 -1.848,-1.708 -0.265,-0.392 -0.397,-0.825 -0.397,-1.298 0,-0.893 0.73,-1.59 2.191,-2.091 1.46,-0.501 3.33,-0.752 5.612,-0.752 1.661,0 3.13,0.147 4.408,0.438 1.277,0.292 2.126,0.646 2.546,1.065 0.274,0.273 0.411,0.647 0.411,1.121 0,0.528 -0.274,0.971 -0.822,1.325 -0.547,0.356 -1.871,0.661 -3.969,0.916 z M 7.775,3.001 c 0.968,1.373 1.935,2.348 2.903,2.924 0.967,0.577 1.989,0.865 3.066,0.865 1.077,0 1.925,-0.314 2.546,-0.944 0.62,-0.63 0.931,-1.438 0.931,-2.423 0,-0.895 -0.297,-1.639 -0.89,-2.232 C 15.738,0.598 15.003,0.302 14.127,0.302 l -0.903,0.027 -0.931,0.027 c -0.493,0 -0.986,-0.183 -1.479,-0.549 1.004,-1.664 1.506,-3.254 1.506,-4.772 0,-1.609 -0.497,-3.173 -1.492,-4.69 -0.995,-1.519 -2.373,-2.698 -4.134,-3.538 -1.762,-0.842 -3.874,-1.262 -6.338,-1.262 -0.712,0 -1.428,0.041 -2.149,0.123 -0.722,0.082 -1.447,0.205 -2.177,0.369 -0.493,-0.31 -0.867,-0.611 -1.122,-0.902 -0.256,-0.292 -0.384,-0.566 -0.384,-0.821 0,-0.564 0.584,-0.929 1.752,-1.092 l 11.335,-1.613 c 3.377,-0.474 5.813,-1.377 7.31,-2.707 1.496,-1.349 2.245,-2.954 2.245,-4.813 0,-1.641 -0.566,-3.158 -1.697,-4.553 -1.132,-1.394 -2.98,-2.539 -5.544,-3.432 -2.565,-0.893 -5.8,-1.339 -9.706,-1.339 -3.432,0 -6.27,0.333 -8.515,0.998 -2.245,0.666 -3.837,1.504 -4.777,2.515 -0.941,1.013 -1.41,1.975 -1.41,2.887 0,1.039 0.351,1.974 1.054,2.803 0.702,0.83 2.149,1.782 4.339,2.858 -1.35,0.492 -2.364,1.096 -3.038,1.808 -0.914,0.949 -1.37,1.927 -1.37,2.93 0,1.096 0.425,2.173 1.273,3.233 0.849,1.058 2.122,2.108 3.82,3.149 -0.949,0.584 -1.693,1.219 -2.232,1.904 -0.538,0.684 -0.976,1.52 -1.314,2.505 -0.338,0.987 -0.506,2 -0.506,3.041 0,2.74 1.118,5.068 3.353,6.985 2.236,1.918 5.18,2.876 8.83,2.876 1.625,0 3.107,-0.188 4.449,-0.565 1.342,-0.376 2.542,-0.939 3.6,-1.691" /></g><g
           transform="translate(188.797,210.8671)"
           id="g46"><path
             id="path48"
             style="fill:#231f20;fill-opacity:1;fill-rule:nonzero;stroke:none"
             d="M 0,0 C 1.387,0 2.569,-0.488 3.545,-1.465 4.522,-2.441 5.01,-3.623 5.01,-5.01 5.01,-6.416 4.522,-7.606 3.545,-8.583 2.569,-9.56 1.387,-10.048 0,-10.048 c -1.387,0 -2.569,0.488 -3.545,1.465 -0.977,0.977 -1.465,2.158 -1.465,3.546 0,1.368 0.502,2.55 1.506,3.545 C -2.5,-0.497 -1.333,0 0,0 m 4.436,-12.211 v -20.232 c 0,-0.968 0.054,-1.561 0.164,-1.78 0.109,-0.219 0.305,-0.388 0.588,-0.506 0.283,-0.12 0.917,-0.178 1.903,-0.178 h 1.478 v -5.284 H -8.35 v 5.284 h 1.451 c 0.949,0 1.556,0.05 1.82,0.15 0.265,0.101 0.461,0.27 0.589,0.507 0.128,0.236 0.192,0.712 0.192,1.424 v 13.058 H -8.35 v 5.148 c 1.441,0.073 2.824,0.228 4.147,0.466 1.324,0.236 2.506,0.519 3.546,0.848 0.675,0.219 1.506,0.584 2.491,1.095 z" /></g><g
           transform="translate(212.8624,207.3906)"
           id="g50"><path
             id="path52"
             style="fill:#231f20;fill-opacity:1;fill-rule:nonzero;stroke:none"
             d="m 0,0 v -9.392 h 8.816 v -5.831 H 0 v -9.528 c 0,-2.153 0.114,-3.536 0.342,-4.147 0.228,-0.612 0.653,-1.1 1.273,-1.465 0.822,-0.492 1.761,-0.74 2.821,-0.74 1.879,0 3.751,0.612 5.612,1.835 v -5.859 C 8.46,-35.876 7.023,-36.4 5.736,-36.701 c -1.287,-0.301 -2.679,-0.452 -4.175,-0.452 -1.698,0 -3.199,0.215 -4.504,0.643 -1.305,0.429 -2.419,1.041 -3.34,1.835 -0.922,0.794 -1.561,1.638 -1.917,2.532 -0.356,0.894 -0.533,2.191 -0.533,3.888 v 13.032 h -4.107 v 5.257 c 1.46,0.474 2.71,1.154 3.751,2.039 1.04,0.886 1.875,1.948 2.505,3.19 0.629,1.241 1.063,2.82 1.3,4.737 z" /></g><g
           transform="translate(242.8966,182.6953)"
           id="g54"><path
             id="path56"
             style="fill:#231f20;fill-opacity:1;fill-rule:nonzero;stroke:none"
             d="m 0,0 c -2.391,-0.348 -4.079,-0.698 -5.065,-1.055 -0.985,-0.355 -1.688,-0.802 -2.108,-1.341 -0.42,-0.539 -0.63,-1.091 -0.63,-1.657 0,-0.729 0.274,-1.341 0.822,-1.834 0.547,-0.493 1.287,-0.739 2.217,-0.739 0.603,0 1.301,0.155 2.095,0.466 0.794,0.309 1.684,0.766 2.669,1.368 z M 0,4.544 V 6.57 c 0,1.205 -0.101,2.035 -0.301,2.492 -0.201,0.456 -0.566,0.834 -1.095,1.136 -0.53,0.301 -1.187,0.451 -1.971,0.451 -0.603,0 -1.15,-0.1 -1.643,-0.3 C -5.503,10.147 -5.896,9.893 -6.187,9.582 -6.479,9.271 -6.817,8.669 -7.2,7.775 -7.693,6.644 -8.282,5.831 -8.966,5.338 -9.651,4.846 -10.458,4.6 -11.389,4.6 c -1.169,0 -2.127,0.364 -2.875,1.094 -0.749,0.73 -1.123,1.633 -1.123,2.71 0,1.223 0.384,2.31 1.15,3.259 1.022,1.259 2.547,2.29 4.572,3.094 2.027,0.803 4.308,1.204 6.845,1.204 2.537,0 4.695,-0.41 6.475,-1.232 1.78,-0.821 3.021,-1.802 3.723,-2.943 0.703,-1.14 1.055,-2.88 1.055,-5.216 v -9.801 c 0,-1.205 0.064,-1.976 0.192,-2.314 0.127,-0.338 0.4,-0.634 0.821,-0.89 0.419,-0.255 0.885,-0.382 1.396,-0.382 0.511,0 1.195,0.145 2.054,0.437 v -5.339 c -1.552,-0.492 -3.04,-0.739 -4.463,-0.739 -1.68,0 -3.113,0.274 -4.299,0.821 -1.186,0.548 -2.181,1.369 -2.984,2.465 -1.825,-1.186 -3.482,-2.031 -4.969,-2.533 -1.488,-0.501 -2.925,-0.753 -4.312,-0.753 -2.611,0 -4.719,0.735 -6.325,2.204 -1.606,1.47 -2.409,3.281 -2.409,5.435 0,1.222 0.278,2.345 0.835,3.368 0.557,1.021 1.387,1.916 2.491,2.682 1.104,0.767 2.811,1.447 5.12,2.04 C -6.11,3.864 -3.304,4.289 0,4.544" /></g><g
           transform="translate(271.1236,210.8671)"
           id="g58"><path
             id="path60"
             style="fill:#231f20;fill-opacity:1;fill-rule:nonzero;stroke:none"
             d="m 0,0 v -32.032 c 0,-1.077 0.045,-1.716 0.137,-1.917 0.128,-0.365 0.411,-0.63 0.849,-0.794 0.273,-0.11 1.013,-0.164 2.217,-0.164 h 0.959 v -5.284 h -16.948 v 5.284 h 1.041 c 1.095,0 1.797,0.068 2.108,0.205 0.31,0.137 0.538,0.356 0.684,0.657 0.146,0.301 0.22,0.972 0.22,2.013 v 24.421 h -4.053 v 5.284 c 3.267,0.222 6.644,0.997 10.13,2.327 z" /></g><g
           transform="translate(300.4185,191.0449)"
           id="g62"><path
             id="path64"
             style="fill:#231f20;fill-opacity:1;fill-rule:nonzero;stroke:none"
             d="m 0,0 h 18.645 v -5.339 h -1.397 c -0.913,0 -1.538,-0.082 -1.875,-0.246 -0.338,-0.164 -0.589,-0.424 -0.753,-0.78 -0.164,-0.356 -0.246,-1.036 -0.246,-2.04 V -20.369 H 8.765 l -1.45,2.738 c -1.714,-1.133 -3.493,-1.981 -5.335,-2.547 -1.842,-0.565 -3.757,-0.848 -5.745,-0.848 -3.484,0 -6.657,0.848 -9.521,2.546 -2.863,1.698 -5.13,4.07 -6.798,7.119 -1.669,3.048 -2.503,6.461 -2.503,10.239 0,3.741 0.825,7.091 2.475,10.048 1.651,2.957 3.958,5.288 6.922,6.995 2.963,1.706 6.178,2.559 9.644,2.559 1.678,0 3.351,-0.214 5.02,-0.643 1.669,-0.429 3.096,-0.999 4.281,-1.711 l 1.013,1.697 h 3.83 L 14.045,5.175 9.007,3.532 C 7.292,6.307 5.936,8.195 4.941,9.199 3.947,10.203 2.806,10.988 1.52,11.554 c -1.288,0.565 -2.542,0.848 -3.765,0.848 -1.734,0 -3.354,-0.502 -4.86,-1.505 -1.506,-1.004 -2.697,-2.469 -3.573,-4.394 -0.876,-1.926 -1.314,-4.258 -1.314,-6.995 0,-3.012 0.479,-5.622 1.437,-7.83 0.959,-2.209 2.213,-3.847 3.765,-4.915 1.551,-1.068 3.258,-1.602 5.12,-1.602 1.314,0 2.56,0.265 3.737,0.794 1.177,0.529 1.985,1.123 2.423,1.779 0.438,0.658 0.657,1.543 0.657,2.657 v 1.396 c 0,0.967 -0.064,1.578 -0.191,1.834 -0.202,0.365 -0.471,0.63 -0.809,0.794 -0.337,0.164 -0.999,0.246 -1.984,0.246 l -2.163,0 z" /></g><g
           transform="translate(336.9684,192.6601)"
           id="g66"><path
             id="path68"
             style="fill:#231f20;fill-opacity:1;fill-rule:nonzero;stroke:none"
             d="m 0,0 c -1.041,0 -2.017,-0.311 -2.929,-0.931 -0.913,-0.62 -1.62,-1.533 -2.122,-2.737 -0.503,-1.205 -0.753,-2.738 -0.753,-4.6 0,-1.917 0.246,-3.504 0.739,-4.763 0.493,-1.26 1.172,-2.191 2.04,-2.793 0.866,-0.603 1.82,-0.904 2.861,-0.904 1.606,0 2.984,0.68 4.134,2.04 1.15,1.36 1.725,3.472 1.725,6.338 0,2.774 -0.534,4.86 -1.602,6.256 C 3.025,-0.697 1.661,0 0,0 m -0.109,5.996 c 3.121,0 5.84,-0.611 8.158,-1.834 2.318,-1.224 4.102,-2.889 5.353,-4.997 1.25,-2.107 1.875,-4.576 1.875,-7.405 0,-4.272 -1.387,-7.739 -4.161,-10.405 C 8.341,-21.31 4.636,-22.642 0,-22.642 c -4.728,0 -8.487,1.342 -11.28,4.025 -2.701,2.555 -4.052,6.014 -4.052,10.377 0,2.865 0.616,5.329 1.848,7.391 1.232,2.063 3.016,3.719 5.353,4.97 2.336,1.25 5.01,1.875 8.022,1.875" /></g><g
           transform="translate(368.6725,210.8671)"
           id="g70"><path
             id="path72"
             style="fill:#231f20;fill-opacity:1;fill-rule:nonzero;stroke:none"
             d="m 0,0 v -32.032 c 0,-1.077 0.045,-1.716 0.137,-1.917 0.128,-0.365 0.411,-0.63 0.849,-0.794 0.273,-0.11 1.013,-0.164 2.217,-0.164 h 0.959 v -5.284 h -16.948 v 5.284 h 1.041 c 1.095,0 1.797,0.068 2.108,0.205 0.31,0.137 0.538,0.356 0.684,0.657 0.146,0.301 0.22,0.972 0.22,2.013 v 24.421 h -4.053 v 5.284 c 3.267,0.222 6.644,0.997 10.13,2.327 z" /></g><g
           transform="translate(395.106,178.5058)"
           id="g74"><path
             id="path76"
             style="fill:#231f20;fill-opacity:1;fill-rule:nonzero;stroke:none"
             d="m 0,0 v 9.172 c 0,1.15 -0.083,1.962 -0.247,2.436 -0.219,0.675 -0.717,1.269 -1.494,1.78 -0.777,0.511 -1.64,0.766 -2.591,0.766 -0.987,0 -1.901,-0.297 -2.741,-0.889 -0.842,-0.593 -1.508,-1.501 -2.002,-2.724 -0.494,-1.224 -0.74,-2.747 -0.74,-4.572 0,-2.537 0.557,-4.573 1.672,-6.106 0.859,-1.205 2.002,-1.806 3.428,-1.806 0.621,0 1.215,0.104 1.781,0.314 C -2.367,-1.419 -1.389,-0.876 0,0 M 8.748,32.361 V 0.521 c 0,-1.26 0.054,-2.022 0.164,-2.287 0.109,-0.264 0.296,-0.461 0.561,-0.588 0.264,-0.128 0.963,-0.192 2.094,-0.192 h 1.287 V -7.83 L 0.972,-8.241 v 2.82 c -1.716,-1.149 -3.222,-1.948 -4.517,-2.395 -1.297,-0.448 -2.592,-0.671 -3.888,-0.671 -2.099,0 -4.029,0.571 -5.791,1.711 -1.761,1.14 -3.203,2.834 -4.325,5.079 -1.123,2.245 -1.684,4.736 -1.684,7.474 0,2.774 0.571,5.288 1.713,7.542 1.142,2.255 2.632,3.957 4.469,5.107 1.837,1.15 3.889,1.724 6.155,1.724 1.17,0 2.29,-0.141 3.359,-0.423 1.07,-0.284 2.253,-0.781 3.551,-1.493 v 6.516 h -3.997 v 5.284 c 2.258,0.219 4.093,0.497 5.504,0.835 1.412,0.338 2.937,0.835 4.576,1.492 z" /></g><g
           transform="translate(411.1637,208.8681)"
           id="g78"><path
             id="path80"
             style="fill:#231f20;fill-opacity:1;fill-rule:nonzero;stroke:none"
             d="m 0,0 h 18.645 v -5.283 h -1.698 c -0.986,0 -1.638,-0.087 -1.957,-0.261 -0.321,-0.174 -0.557,-0.447 -0.712,-0.821 -0.155,-0.374 -0.233,-1.091 -0.233,-2.15 V -29.65 c 0,-1.15 0.064,-1.889 0.192,-2.218 0.127,-0.328 0.346,-0.566 0.657,-0.712 0.383,-0.219 0.958,-0.328 1.725,-0.328 h 2.026 v -5.284 H 0 v 5.284 h 1.515 c 1.083,0 1.79,0.077 2.12,0.232 0.33,0.155 0.574,0.402 0.73,0.739 0.156,0.338 0.235,1.009 0.235,2.013 v 21.218 c 0,1.186 -0.079,1.967 -0.235,2.341 -0.156,0.374 -0.417,0.661 -0.784,0.862 -0.258,0.147 -0.882,0.22 -1.873,0.22 l -1.708,0 z" /></g><g
           transform="translate(445.9337,198.6562)"
           id="g82"><path
             id="path84"
             style="fill:#231f20;fill-opacity:1;fill-rule:nonzero;stroke:none"
             d="m 0,0 v -3.641 c 2.063,1.406 3.829,2.364 5.298,2.874 C 6.768,-0.256 8.269,0 9.802,0 c 1.77,0 3.336,-0.374 4.695,-1.122 1.359,-0.749 2.35,-1.684 2.971,-2.807 0.62,-1.122 0.93,-2.715 0.93,-4.777 v -11.39 c 0,-0.967 0.069,-1.588 0.206,-1.861 0.137,-0.274 0.351,-0.475 0.643,-0.603 0.22,-0.091 0.877,-0.136 1.972,-0.136 h 1.342 V -27.98 H 6.489 v 5.284 c 1.223,0.017 1.907,0.045 2.054,0.082 0.455,0.127 0.757,0.337 0.903,0.628 0.146,0.292 0.219,0.921 0.219,1.886 v 10.031 c 0,1.294 -0.137,2.132 -0.411,2.514 -0.438,0.638 -1.132,0.957 -2.08,0.957 -0.785,0 -1.625,-0.173 -2.52,-0.519 C 3.76,-7.464 2.556,-8.175 1.041,-9.249 V -20.1 c 0,-1.184 0.129,-1.914 0.387,-2.186 0.257,-0.274 0.874,-0.41 1.85,-0.41 h 0.884 v -5.284 h -15.907 v 5.284 h 0.794 c 1.26,0 2.04,0.053 2.341,0.164 0.301,0.109 0.529,0.301 0.684,0.573 0.155,0.273 0.233,0.812 0.233,1.613 v 12.735 h -4.052 v 5.284 c 3.278,0.406 6.346,1.182 9.205,2.327 z" /></g><g
           transform="translate(490.506,197.999)"
           id="g86"><path
             id="path88"
             style="fill:#231f20;fill-opacity:1;fill-rule:nonzero;stroke:none"
             d="M 0,0 H 3.586 L 5.804,-7.61 0.63,-9.691 c -0.986,1.587 -2.223,2.834 -3.71,3.737 -1.488,0.903 -2.962,1.354 -4.422,1.354 -0.968,0 -1.688,-0.164 -2.163,-0.492 -0.475,-0.329 -0.712,-0.721 -0.712,-1.178 0,-0.382 0.169,-0.739 0.507,-1.067 0.338,-0.329 1.036,-0.676 2.095,-1.04 l 7.528,-2.684 c 1.333,-0.474 2.61,-1.067 3.833,-1.779 1.223,-0.712 2.141,-1.584 2.752,-2.615 0.611,-1.031 0.917,-2.24 0.917,-3.627 0,-2.482 -0.949,-4.518 -2.848,-6.105 -2.226,-1.863 -5.001,-2.793 -8.322,-2.793 -2.848,0 -5.33,0.72 -7.447,2.163 l -0.767,-1.506 h -3.642 l -3.367,8.98 5.175,2.19 c 1.296,-2.026 2.893,-3.618 4.791,-4.778 1.899,-1.159 3.642,-1.738 5.23,-1.738 0.985,0 1.815,0.229 2.491,0.685 0.511,0.365 0.766,0.794 0.766,1.287 0,0.419 -0.201,0.821 -0.602,1.204 -0.401,0.384 -1.287,0.812 -2.655,1.287 l -5.914,2.053 c -3.268,1.15 -5.49,2.378 -6.667,3.682 -1.177,1.305 -1.766,2.852 -1.766,4.641 0,2.3 0.922,4.234 2.766,5.805 2.098,1.788 4.69,2.682 7.775,2.682 2.737,0 5.083,-0.62 7.036,-1.861 z" /></g><g
           transform="translate(513.3947,207.3906)"
           id="g90"><path
             id="path92"
             style="fill:#231f20;fill-opacity:1;fill-rule:nonzero;stroke:none"
             d="m 0,0 v -9.392 h 8.815 v -5.831 H 0 v -9.528 c 0,-2.153 0.113,-3.536 0.342,-4.147 0.228,-0.612 0.652,-1.1 1.273,-1.465 0.822,-0.492 1.761,-0.74 2.82,-0.74 1.879,0 3.751,0.612 5.613,1.835 v -5.859 C 8.46,-35.876 7.022,-36.4 5.735,-36.701 c -1.287,-0.301 -2.678,-0.452 -4.174,-0.452 -1.699,0 -3.2,0.215 -4.504,0.643 -1.306,0.429 -2.419,1.041 -3.34,1.835 -0.922,0.794 -1.562,1.638 -1.917,2.532 -0.356,0.894 -0.534,2.191 -0.534,3.888 v 13.032 h -4.107 v 5.257 c 1.46,0.474 2.711,1.154 3.751,2.039 1.04,0.886 1.875,1.948 2.505,3.19 0.63,1.241 1.063,2.82 1.301,4.737 z" /></g><g
           transform="translate(535.297,210.8671)"
           id="g94"><path
             id="path96"
             style="fill:#231f20;fill-opacity:1;fill-rule:nonzero;stroke:none"
             d="M 0,0 C 1.387,0 2.568,-0.488 3.545,-1.465 4.521,-2.441 5.01,-3.623 5.01,-5.01 5.01,-6.416 4.521,-7.606 3.545,-8.583 2.568,-9.56 1.387,-10.048 0,-10.048 c -1.388,0 -2.569,0.488 -3.546,1.465 -0.976,0.977 -1.465,2.158 -1.465,3.546 0,1.368 0.502,2.55 1.506,3.545 C -2.501,-0.497 -1.333,0 0,0 m 4.435,-12.211 v -20.232 c 0,-0.968 0.054,-1.561 0.165,-1.78 0.109,-0.219 0.304,-0.388 0.587,-0.506 0.284,-0.12 0.918,-0.178 1.904,-0.178 h 1.478 v -5.284 h -16.92 v 5.284 h 1.452 c 0.948,0 1.555,0.05 1.82,0.15 0.265,0.101 0.461,0.27 0.589,0.507 0.127,0.236 0.191,0.712 0.191,1.424 v 13.058 h -4.052 v 5.148 c 1.442,0.073 2.825,0.228 4.148,0.466 1.323,0.236 2.505,0.519 3.546,0.848 0.675,0.219 1.506,0.584 2.491,1.095 z" /></g><g
           transform="translate(559.3624,207.3906)"
           id="g98"><path
             id="path100"
             style="fill:#231f20;fill-opacity:1;fill-rule:nonzero;stroke:none"
             d="m 0,0 v -9.392 h 8.815 v -5.831 H 0 v -9.528 c 0,-2.153 0.113,-3.536 0.342,-4.147 0.228,-0.612 0.652,-1.1 1.273,-1.465 0.822,-0.492 1.761,-0.74 2.82,-0.74 1.879,0 3.751,0.612 5.613,1.835 v -5.859 C 8.46,-35.876 7.022,-36.4 5.735,-36.701 c -1.287,-0.301 -2.678,-0.452 -4.174,-0.452 -1.699,0 -3.2,0.215 -4.504,0.643 -1.306,0.429 -2.419,1.041 -3.34,1.835 -0.922,0.794 -1.562,1.638 -1.917,2.532 -0.356,0.894 -0.534,2.191 -0.534,3.888 v 13.032 h -4.107 v 5.257 c 1.46,0.474 2.711,1.154 3.751,2.039 1.04,0.886 1.875,1.948 2.505,3.19 0.63,1.241 1.064,2.82 1.301,4.737 z" /></g><g
           transform="translate(572.1749,197.999)"
           id="g102"><path
             id="path104"
             style="fill:#231f20;fill-opacity:1;fill-rule:nonzero;stroke:none"
             d="m 0,0 12.785,0.247 v -17.768 c 0,-1.26 0.078,-2.1 0.234,-2.52 0.154,-0.42 0.437,-0.762 0.848,-1.026 0.41,-0.265 0.926,-0.397 1.547,-0.397 0.912,0 1.88,0.219 2.902,0.656 0.401,0.183 1.469,0.831 3.204,1.945 v 10.677 c 0,0.931 -0.075,1.57 -0.221,1.916 -0.148,0.347 -0.359,0.598 -0.635,0.753 -0.275,0.156 -0.808,0.234 -1.599,0.234 H 17.467 V 0 l 12.841,0.247 v -19.603 c 0,-1.023 0.059,-1.665 0.177,-1.93 0.119,-0.265 0.311,-0.457 0.576,-0.575 0.264,-0.119 0.898,-0.178 1.903,-0.178 h 1.45 v -5.284 l -12.018,-0.328 v 3.23 c -1.605,-1.186 -3.217,-2.077 -4.839,-2.67 -1.623,-0.593 -3.253,-0.889 -4.894,-0.889 -1.312,0 -2.519,0.214 -3.622,0.643 -1.104,0.429 -2.028,1.004 -2.775,1.725 -0.747,0.72 -1.303,1.565 -1.667,2.532 -0.365,0.968 -0.547,2.209 -0.547,3.724 v 11.28 c 0,1.04 -0.06,1.697 -0.179,1.971 -0.12,0.274 -0.317,0.479 -0.594,0.616 -0.275,0.136 -0.863,0.206 -1.763,0.206 l -1.516,0 z" /></g><g
           transform="translate(622.1681,207.3906)"
           id="g106"><path
             id="path108"
             style="fill:#231f20;fill-opacity:1;fill-rule:nonzero;stroke:none"
             d="m 0,0 v -9.392 h 8.815 v -5.831 H 0 v -9.528 c 0,-2.153 0.113,-3.536 0.342,-4.147 0.228,-0.612 0.652,-1.1 1.273,-1.465 0.822,-0.492 1.761,-0.74 2.82,-0.74 1.879,0 3.751,0.612 5.613,1.835 v -5.859 C 8.46,-35.876 7.022,-36.4 5.735,-36.701 c -1.287,-0.301 -2.678,-0.452 -4.174,-0.452 -1.699,0 -3.2,0.215 -4.504,0.643 -1.306,0.429 -2.419,1.041 -3.34,1.835 -0.922,0.794 -1.562,1.638 -1.917,2.532 -0.356,0.894 -0.534,2.191 -0.534,3.888 v 13.032 h -4.107 v 5.257 c 1.46,0.474 2.711,1.154 3.751,2.039 1.04,0.886 1.875,1.948 2.505,3.19 0.63,1.241 1.064,2.82 1.301,4.737 z" /></g><g
           transform="translate(654.9396,188.7177)"
           id="g110"><path
             id="path112"
             style="fill:#231f20;fill-opacity:1;fill-rule:nonzero;stroke:none"
             d="m 0,0 c -0.129,1.096 -0.389,1.958 -0.783,2.588 -0.394,0.63 -0.924,1.131 -1.592,1.506 -0.669,0.374 -1.369,0.56 -2.102,0.56 -0.768,0 -1.509,-0.191 -2.224,-0.574 C -7.415,3.696 -7.986,3.176 -8.417,2.52 -8.848,1.862 -9.126,1.022 -9.254,0 Z m 5.476,-7.912 3.751,-3.778 c -2.155,-2.464 -4.35,-4.248 -6.585,-5.353 -2.237,-1.103 -4.651,-1.656 -7.242,-1.656 -4.162,0 -7.666,1.41 -10.513,4.23 -2.848,2.82 -4.271,6.229 -4.271,10.226 0,2.628 0.639,5.033 1.916,7.214 1.278,2.18 3.048,3.887 5.312,5.12 2.262,1.231 4.827,1.847 7.693,1.847 1.825,0 3.486,-0.264 4.983,-0.793 C 2.017,8.615 3.326,7.858 4.448,6.872 5.571,5.887 6.475,4.695 7.159,3.3 7.844,1.903 8.313,0.456 8.569,-1.04 8.679,-1.789 8.733,-2.975 8.733,-4.6 H -9.692 c 0.036,-2.317 0.715,-4.193 2.04,-5.626 1.323,-1.432 2.943,-2.149 4.859,-2.149 1.223,0 2.556,0.37 3.997,1.109 1.442,0.74 2.865,1.857 4.272,3.354" /></g><g
           transform="translate(675.6368,180.4228)"
           id="g114"><path
             id="path116"
             style="fill:#231f20;fill-opacity:1;fill-rule:nonzero;stroke:none"
             d="m 0,0 c 1.405,0 2.605,-0.498 3.601,-1.492 0.995,-0.995 1.492,-2.196 1.492,-3.601 0,-1.405 -0.497,-2.605 -1.492,-3.6 C 2.605,-9.688 1.405,-10.186 0,-10.186 c -1.423,0 -2.633,0.498 -3.627,1.493 -0.995,0.995 -1.492,2.195 -1.492,3.6 0,1.405 0.497,2.606 1.492,3.601 C -2.633,-0.498 -1.423,0 0,0" /></g><g
           transform="translate(702.5509,192.6601)"
           id="g118"><path
             id="path120"
             style="fill:#231f20;fill-opacity:1;fill-rule:nonzero;stroke:none"
             d="m 0,0 c -1.041,0 -2.018,-0.311 -2.93,-0.931 -0.913,-0.62 -1.62,-1.533 -2.122,-2.737 -0.502,-1.205 -0.753,-2.738 -0.753,-4.6 0,-1.917 0.246,-3.504 0.74,-4.763 0.493,-1.26 1.172,-2.191 2.04,-2.793 0.866,-0.603 1.82,-0.904 2.86,-0.904 1.606,0 2.984,0.68 4.135,2.04 1.149,1.36 1.724,3.472 1.724,6.338 0,2.774 -0.534,4.86 -1.601,6.256 C 3.024,-0.697 1.66,0 0,0 m -0.11,5.996 c 3.121,0 5.84,-0.611 8.159,-1.834 2.317,-1.224 4.101,-2.889 5.352,-4.997 1.25,-2.107 1.875,-4.576 1.875,-7.405 0,-4.272 -1.386,-7.739 -4.161,-10.405 C 8.341,-21.31 4.636,-22.642 0,-22.642 c -4.728,0 -8.487,1.342 -11.28,4.025 -2.701,2.555 -4.052,6.014 -4.052,10.377 0,2.865 0.615,5.329 1.848,7.391 1.232,2.063 3.015,3.719 5.352,4.97 2.336,1.25 5.011,1.875 8.022,1.875" /></g><g
           transform="translate(734.1173,198.6562)"
           id="g122"><path
             id="path124"
             style="fill:#231f20;fill-opacity:1;fill-rule:nonzero;stroke:none"
             d="m 0,0 v -3.97 c 1.464,1.533 2.731,2.578 3.802,3.135 C 4.872,-0.278 5.9,0 6.889,0 7.785,0 8.585,-0.205 9.29,-0.616 c 0.704,-0.41 1.262,-0.999 1.674,-1.766 0.411,-0.766 0.617,-1.588 0.617,-2.464 0,-1.15 -0.38,-2.19 -1.139,-3.121 -0.759,-0.93 -1.825,-1.396 -3.198,-1.396 -0.366,0 -0.69,0.027 -0.973,0.082 -0.285,0.054 -0.884,0.237 -1.799,0.548 -0.476,0.145 -0.869,0.218 -1.18,0.218 -0.476,0 -1.263,-0.3 -2.36,-0.903 v -10.705 c 0,-0.913 0.068,-1.506 0.205,-1.779 0.136,-0.274 0.36,-0.475 0.671,-0.603 0.309,-0.128 0.985,-0.191 2.025,-0.191 h 1.205 v -5.284 h -16.892 v 5.284 h 1.405 c 1.011,0 1.64,0.054 1.888,0.164 0.248,0.109 0.437,0.301 0.566,0.575 0.128,0.273 0.192,0.885 0.192,1.834 v 12.566 h -4.051 V -2.3 c 2.974,0.183 6.068,0.949 9.281,2.3 z" /></g><g
           transform="translate(761.1124,193.3994)"
           id="g126"><path
             id="path128"
             style="fill:#231f20;fill-opacity:1;fill-rule:nonzero;stroke:none"
             d="m 0,0 c -1.168,0 -2.131,-0.429 -2.889,-1.286 -0.757,-0.859 -1.135,-2.018 -1.135,-3.478 0,-1.35 0.364,-2.427 1.094,-3.23 0.73,-0.804 1.67,-1.204 2.821,-1.204 1.13,0 2.076,0.414 2.833,1.245 0.757,0.83 1.136,1.903 1.136,3.217 0,1.46 -0.36,2.615 -1.081,3.464 C 2.058,-0.424 1.132,0 0,0 m -3.97,-24.486 c -0.967,-0.747 -1.584,-1.317 -1.848,-1.708 -0.265,-0.392 -0.397,-0.825 -0.397,-1.298 0,-0.893 0.73,-1.59 2.191,-2.091 1.46,-0.501 3.33,-0.752 5.612,-0.752 1.661,0 3.13,0.147 4.408,0.438 1.277,0.292 2.126,0.646 2.546,1.065 0.273,0.273 0.411,0.647 0.411,1.121 0,0.528 -0.274,0.971 -0.822,1.325 -0.547,0.356 -1.871,0.661 -3.97,0.916 z M 7.775,3.001 c 0.967,1.373 1.935,2.348 2.903,2.924 0.967,0.577 1.989,0.865 3.066,0.865 1.076,0 1.925,-0.314 2.546,-0.944 0.62,-0.63 0.931,-1.438 0.931,-2.423 0,-0.895 -0.297,-1.639 -0.89,-2.232 C 15.738,0.598 15.003,0.302 14.127,0.302 l -0.903,0.027 -0.931,0.027 c -0.493,0 -0.985,-0.183 -1.479,-0.549 1.004,-1.664 1.506,-3.254 1.506,-4.772 0,-1.609 -0.498,-3.173 -1.492,-4.69 -0.995,-1.519 -2.373,-2.698 -4.134,-3.538 -1.761,-0.842 -3.874,-1.262 -6.339,-1.262 -0.71,0 -1.427,0.041 -2.148,0.123 -0.722,0.082 -1.447,0.205 -2.177,0.369 -0.493,-0.31 -0.867,-0.611 -1.123,-0.902 -0.256,-0.292 -0.383,-0.566 -0.383,-0.821 0,-0.564 0.584,-0.929 1.752,-1.092 l 11.335,-1.613 c 3.376,-0.474 5.814,-1.377 7.31,-2.707 1.497,-1.349 2.245,-2.954 2.245,-4.813 0,-1.641 -0.565,-3.158 -1.697,-4.553 -1.132,-1.394 -2.98,-2.539 -5.544,-3.432 -2.565,-0.893 -5.8,-1.339 -9.706,-1.339 -3.432,0 -6.27,0.333 -8.515,0.998 -2.245,0.666 -3.838,1.504 -4.777,2.515 -0.941,1.013 -1.41,1.975 -1.41,2.887 0,1.039 0.351,1.974 1.054,2.803 0.702,0.83 2.149,1.782 4.339,2.858 -1.35,0.492 -2.363,1.096 -3.039,1.808 -0.913,0.949 -1.369,1.927 -1.369,2.93 0,1.096 0.425,2.173 1.273,3.233 0.849,1.058 2.122,2.108 3.82,3.149 -0.949,0.584 -1.694,1.219 -2.232,1.904 -0.538,0.684 -0.976,1.52 -1.314,2.505 -0.338,0.987 -0.506,2 -0.506,3.041 0,2.74 1.117,5.068 3.353,6.985 2.236,1.918 5.179,2.876 8.831,2.876 1.624,0 3.107,-0.188 4.448,-0.565 1.342,-0.376 2.542,-0.939 3.6,-1.691" /></g></g></g><g
       id="g130"><g
         clip-path="url(#clipPath136)"
         id="g132"><g
           transform="translate(708.2667,689.5082)"
           id="g138"><path
             id="path140"
             style="fill:#d01e25;fill-opacity:1;fill-rule:nonzero;stroke:none"
             d="m 0,0 c 11.341,0 21.003,-3.993 28.989,-11.977 7.984,-7.984 11.977,-17.648 11.977,-28.987 0,-11.494 -3.993,-21.232 -11.977,-29.214 C 21.003,-78.163 11.341,-82.154 0,-82.154 c -11.341,0 -21.007,3.991 -28.989,11.976 -7.984,7.982 -11.977,17.647 -11.977,28.99 0,11.193 4.106,20.853 12.313,28.989 C -20.446,-4.068 -10.896,0 0,0" /></g></g></g></g></svg>