<?xml version="1.0" encoding="UTF-8" standalone="no"?>
<svg
   xmlns:dc="http://purl.org/dc/elements/1.1/"
   xmlns:cc="http://creativecommons.org/ns#"
   xmlns:rdf="http://www.w3.org/1999/02/22-rdf-syntax-ns#"
   xmlns:svg="http://www.w3.org/2000/svg"
   xmlns="http://www.w3.org/2000/svg"
   viewBox="0 0 1133.8586 1133.8586"
   height="1133.8586"
   width="1133.8586"
   xml:space="preserve"
   id="svg2"
   version="1.1"><metadata
     id="metadata8"><rdf:RDF><cc:Work
         rdf:about=""><dc:format>image/svg+xml</dc:format><dc:type
           rdf:resource="http://purl.org/dc/dcmitype/StillImage" /></cc:Work></rdf:RDF></metadata><defs
     id="defs6"><clipPath
       id="clipPath20"
       clipPathUnits="userSpaceOnUse"><path
         id="path18"
         d="M 0,850.394 H 850.394 V 0 H 0 Z" /></clipPath></defs><g
     transform="matrix(1.3333333,0,0,-1.3333333,0,1133.8587)"
     id="g10"><path
       id="path12"
       style="fill:#231f20;fill-opacity:1;fill-rule:nonzero;stroke:none"
       d="m 105.338,104.329 h 647 v 647 h -647 z m 657,-10 h -667 v 667 h 667 z" /><g
       id="g14"><g
         clip-path="url(#clipPath20)"
         id="g16"><g
           transform="translate(279.3873,423.9521)"
           id="g22"><path
             id="path24"
             style="fill:#231f20;fill-opacity:1;fill-rule:nonzero;stroke:none"
             d="m 0,0 v 59.716 c 0,7.482 -0.548,12.769 -1.639,15.861 -1.457,4.394 -4.764,8.257 -9.923,11.586 -5.158,3.324 -10.891,4.99 -17.203,4.99 -6.557,0 -12.626,-1.932 -18.207,-5.793 -5.586,-3.862 -10.014,-9.776 -13.293,-17.735 -3.278,-7.963 -4.914,-17.886 -4.914,-29.767 0,-16.52 3.701,-29.768 11.104,-39.749 5.705,-7.842 13.293,-11.763 22.761,-11.763 4.125,0 8.071,0.681 11.833,2.049 C -15.72,-9.242 -9.227,-5.705 0,0 M 58.091,210.689 V 3.388 c 0,-8.2 0.363,-13.162 1.09,-14.884 0.727,-1.724 1.969,-3.004 3.727,-3.832 1.756,-0.833 6.392,-1.25 13.909,-1.25 h 8.545 V -50.979 L 6.456,-53.652 v 18.358 C -4.94,-42.779 -14.939,-47.98 -23.543,-50.89 c -8.609,-2.912 -17.213,-4.368 -25.819,-4.368 -13.939,0 -26.757,3.716 -38.453,11.142 -11.699,7.426 -21.272,18.448 -28.727,33.064 -7.455,14.616 -11.181,30.837 -11.181,48.661 0,18.062 3.793,34.431 11.377,49.107 7.585,14.676 17.48,25.758 29.678,33.244 12.198,7.487 25.827,11.229 40.877,11.229 7.767,0 15.202,-0.921 22.304,-2.762 7.101,-1.843 14.96,-5.08 23.579,-9.714 v 42.423 h -26.545 v 34.403 c 14.996,1.425 27.181,3.236 36.555,5.436 9.376,2.197 19.503,5.437 30.389,9.714 z" /></g><g
           transform="translate(467.5011,523.6894)"
           id="g26"><path
             id="path28"
             style="fill:#231f20;fill-opacity:1;fill-rule:nonzero;stroke:none"
             d="m 0,0 c -7.604,0 -13.874,-2.793 -18.805,-8.377 -4.93,-5.587 -7.396,-13.133 -7.396,-22.639 0,-8.795 2.377,-15.805 7.131,-21.032 4.75,-5.231 10.874,-7.844 18.359,-7.844 7.366,0 13.517,2.703 18.447,8.111 4.931,5.405 7.4,12.388 7.4,20.944 0,9.505 -2.35,17.023 -7.042,22.549 C 13.398,-2.763 7.369,0 0,0 m -25.844,-159.419 c -6.3,-4.863 -10.31,-8.571 -12.034,-11.123 -1.724,-2.549 -2.584,-5.366 -2.584,-8.451 0,-5.811 4.752,-10.349 14.261,-13.612 9.507,-3.261 21.684,-4.893 36.542,-4.893 10.811,0 20.377,0.95 28.696,2.847 8.318,1.9 13.842,4.211 16.578,6.939 1.783,1.78 2.674,4.21 2.674,7.295 0,3.442 -1.784,6.319 -5.348,8.631 -3.564,2.313 -12.183,4.3 -25.846,5.961 z M 50.625,19.532 c 6.297,8.941 12.595,15.288 18.895,19.042 6.296,3.755 12.951,5.633 19.962,5.633 7.009,0 12.536,-2.05 16.579,-6.15 4.038,-4.1 6.059,-9.358 6.059,-15.776 0,-5.823 -1.932,-10.666 -5.794,-14.527 C 102.464,3.891 97.683,1.96 91.978,1.96 l -5.883,0.179 -6.06,0.179 c -3.209,0 -6.416,-1.193 -9.626,-3.576 6.536,-10.835 9.805,-21.19 9.805,-31.072 0,-10.478 -3.239,-20.654 -9.715,-30.536 -6.478,-9.882 -15.449,-17.56 -26.916,-23.036 -11.469,-5.476 -25.222,-8.213 -41.264,-8.213 -4.635,0 -9.3,0.267 -13.993,0.801 -4.695,0.536 -9.42,1.338 -14.17,2.407 -3.209,-2.023 -5.647,-3.98 -7.309,-5.878 -1.664,-1.9 -2.495,-3.675 -2.495,-5.336 0,-3.678 3.802,-6.052 11.407,-7.118 l 73.797,-10.497 c 21.982,-3.088 37.845,-8.963 47.591,-17.625 9.742,-8.785 14.616,-19.231 14.616,-31.335 0,-10.681 -3.684,-20.565 -11.05,-29.644 -7.371,-9.079 -19.402,-16.526 -36.098,-22.342 -16.694,-5.815 -37.759,-8.721 -63.188,-8.721 -22.343,0 -40.821,2.165 -55.436,6.497 -14.616,4.335 -24.985,9.794 -31.105,16.381 -6.121,6.591 -9.179,12.854 -9.179,18.789 0,6.767 2.286,12.851 6.862,18.25 4.574,5.404 13.993,11.606 28.253,18.607 -8.795,3.21 -15.391,7.134 -19.786,11.773 -5.943,6.177 -8.913,12.54 -8.913,19.081 0,7.13 2.763,14.144 8.289,21.04 5.526,6.894 13.815,13.73 24.865,20.506 -6.179,3.803 -11.023,7.935 -14.526,12.393 -3.507,4.457 -6.358,9.896 -8.557,16.315 -2.2,6.421 -3.298,13.019 -3.298,19.797 0,17.831 7.279,32.99 21.836,45.474 14.556,12.483 33.719,18.724 57.488,18.724 10.576,0 20.231,-1.225 28.964,-3.674 8.736,-2.448 16.548,-6.121 23.441,-11.018" /></g><g
           transform="translate(678.423,555.1415)"
           id="g30"><path
             id="path32"
             style="fill:#231f20;fill-opacity:1;fill-rule:nonzero;stroke:none"
             d="m 0,0 v -131.723 c 0,-6.299 0.354,-10.162 1.069,-11.588 0.712,-1.425 1.99,-2.524 3.832,-3.295 1.84,-0.778 5.973,-1.162 12.389,-1.162 h 9.626 v -34.4 H -83.241 v 34.4 h 9.447 c 6.175,0 10.129,0.328 11.853,0.983 1.721,0.652 2.999,1.751 3.832,3.296 0.831,1.543 1.248,4.635 1.248,9.268 v 85.024 h -26.38 v 33.512 c 9.385,0.474 18.386,1.485 27.002,3.03 8.616,1.542 16.309,3.386 23.084,5.526 4.394,1.426 9.803,3.802 16.22,7.129 z" /></g><path
           id="path34"
           style="fill:#231f20;fill-opacity:1;fill-rule:nonzero;stroke:none"
           d="M 705.339,303.277 H 152.428 v 21.822 h 552.911 z" /><g
           transform="translate(649.546,634.6411)"
           id="g36"><path
             id="path38"
             style="fill:#d01e25;fill-opacity:1;fill-rule:nonzero;stroke:none"
             d="m 0,0 c 9.03,0 16.724,-3.18 23.083,-9.537 6.357,-6.358 9.537,-14.053 9.537,-23.082 0,-9.152 -3.18,-16.907 -9.537,-23.262 C 16.724,-62.239 9.03,-65.418 0,-65.418 c -9.031,0 -16.728,3.179 -23.084,9.537 -6.356,6.355 -9.536,14.051 -9.536,23.084 0,8.912 3.268,16.605 9.804,23.083 C -16.28,-3.239 -8.677,0 0,0" /></g><g
           transform="translate(164.6046,250.9628)"
           id="g40"><path
             id="path42"
             style="fill:#231f20;fill-opacity:1;fill-rule:nonzero;stroke:none"
             d="m 0,0 v -21.309 c 0,-0.72 0.041,-1.163 0.123,-1.327 0.13,-0.246 0.322,-0.414 0.576,-0.504 0.253,-0.09 0.862,-0.135 1.827,-0.135 2.681,0 4.778,0.414 6.291,1.242 1.512,0.827 2.734,2.153 3.666,3.981 0.933,1.826 1.398,4.001 1.398,6.525 0,2.491 -0.437,4.658 -1.312,6.501 -0.875,1.842 -1.958,3.141 -3.249,3.895 C 8.028,-0.377 6.181,0 3.777,0 Z M -12.533,5.469 H 5.408 c 4.074,0 7.313,-0.646 9.718,-1.938 2.406,-1.291 4.325,-3.204 5.756,-5.738 1.431,-2.534 2.147,-5.576 2.147,-9.124 0,-2.469 -0.363,-4.677 -1.092,-6.621 -0.728,-1.947 -1.812,-3.7 -3.252,-5.262 -1.44,-1.561 -2.986,-2.734 -4.638,-3.519 -1.244,-0.589 -3.007,-1.071 -5.289,-1.448 -2.282,-0.376 -4.112,-0.563 -5.486,-0.563 h -15.805 v 4.733 h 1.184 c 1.003,0 1.661,0.081 1.974,0.245 0.312,0.164 0.567,0.442 0.765,0.834 0.131,0.311 0.197,0.99 0.197,2.036 v 18.689 c 0,1.046 -0.07,1.721 -0.21,2.023 -0.14,0.302 -0.37,0.531 -0.69,0.687 -0.321,0.155 -1,0.233 -2.036,0.233 h -1.184 z" /></g><g
           transform="translate(198.818,258.2226)"
           id="g44"><path
             id="path46"
             style="fill:#231f20;fill-opacity:1;fill-rule:nonzero;stroke:none"
             d="m 0,0 c 1.242,0 2.301,-0.437 3.176,-1.312 0.875,-0.876 1.312,-1.934 1.312,-3.176 0,-1.26 -0.437,-2.326 -1.312,-3.2 C 2.301,-8.563 1.242,-9.001 0,-9.001 c -1.243,0 -2.302,0.438 -3.176,1.313 -0.875,0.874 -1.312,1.932 -1.312,3.175 0,1.226 0.449,2.284 1.348,3.176 C -2.24,-0.446 -1.194,0 0,0 m 3.973,-10.938 v -18.125 c 0,-0.867 0.049,-1.398 0.147,-1.594 0.098,-0.197 0.274,-0.348 0.527,-0.454 0.254,-0.107 0.822,-0.159 1.705,-0.159 h 1.324 v -4.734 H -7.48 v 4.734 h 1.299 c 0.85,0 1.394,0.044 1.631,0.134 0.237,0.09 0.413,0.241 0.528,0.454 0.114,0.212 0.171,0.637 0.171,1.275 v 11.699 H -7.48 v 4.611 c 1.291,0.065 2.529,0.204 3.715,0.416 1.185,0.213 2.244,0.467 3.177,0.761 0.604,0.196 1.348,0.524 2.231,0.982 z" /></g><g
           transform="translate(221.2838,242.5751)"
           id="g48"><path
             id="path50"
             style="fill:#231f20;fill-opacity:1;fill-rule:nonzero;stroke:none"
             d="m 0,0 c -1.047,0 -1.909,-0.385 -2.587,-1.152 -0.679,-0.77 -1.018,-1.808 -1.018,-3.116 0,-1.21 0.327,-2.174 0.98,-2.894 0.655,-0.719 1.497,-1.078 2.527,-1.078 1.014,0 1.86,0.371 2.538,1.115 0.679,0.744 1.018,1.705 1.018,2.882 0,1.308 -0.323,2.343 -0.969,3.102 C 1.843,-0.381 1.014,0 0,0 m -3.556,-21.936 c -0.867,-0.668 -1.419,-1.179 -1.656,-1.53 -0.237,-0.351 -0.355,-0.738 -0.355,-1.163 0,-0.8 0.653,-1.424 1.962,-1.872 1.308,-0.449 2.983,-0.674 5.027,-0.674 1.488,0 2.805,0.131 3.949,0.392 1.144,0.262 1.905,0.58 2.281,0.955 0.245,0.245 0.368,0.579 0.368,1.003 0,0.473 -0.246,0.87 -0.736,1.188 -0.491,0.319 -1.676,0.591 -3.556,0.82 z M 6.965,2.688 c 0.867,1.229 1.733,2.103 2.6,2.619 0.866,0.517 1.782,0.775 2.747,0.775 0.965,0 1.725,-0.282 2.281,-0.846 0.555,-0.564 0.834,-1.288 0.834,-2.171 0,-0.8 -0.266,-1.467 -0.797,-1.999 C 14.098,0.535 13.44,0.27 12.655,0.27 l -0.809,0.024 -0.834,0.024 c -0.441,0 -0.883,-0.164 -1.324,-0.492 0.898,-1.49 1.349,-2.915 1.349,-4.275 0,-1.441 -0.446,-2.841 -1.337,-4.201 -0.891,-1.36 -2.126,-2.416 -3.703,-3.17 -1.579,-0.753 -3.471,-1.13 -5.678,-1.13 -0.638,0 -1.28,0.037 -1.925,0.11 -0.647,0.074 -1.296,0.184 -1.95,0.332 -0.442,-0.278 -0.777,-0.548 -1.006,-0.809 -0.229,-0.262 -0.343,-0.506 -0.343,-0.735 0,-0.506 0.523,-0.833 1.57,-0.978 l 10.153,-1.446 c 3.025,-0.424 5.207,-1.233 6.549,-2.424 1.34,-1.209 2.011,-2.647 2.011,-4.312 0,-1.47 -0.507,-2.829 -1.521,-4.079 -1.014,-1.248 -2.669,-2.273 -4.966,-3.073 -2.298,-0.801 -5.196,-1.201 -8.695,-1.201 -3.074,0 -5.616,0.298 -7.627,0.894 -2.011,0.597 -3.438,1.348 -4.28,2.254 -0.842,0.907 -1.263,1.769 -1.263,2.585 0,0.932 0.314,1.769 0.944,2.512 0.63,0.743 1.926,1.596 3.887,2.56 -1.21,0.442 -2.117,0.981 -2.722,1.619 -0.818,0.851 -1.226,1.726 -1.226,2.625 0,0.982 0.38,1.948 1.14,2.896 0.761,0.948 1.901,1.89 3.421,2.822 -0.85,0.524 -1.516,1.092 -1.998,1.705 -0.483,0.613 -0.875,1.362 -1.178,2.245 -0.302,0.883 -0.453,1.791 -0.453,2.723 0,2.454 1.001,4.54 3.004,6.257 2.003,1.718 4.639,2.577 7.91,2.577 C 1.209,4.709 2.539,4.54 3.74,4.203 4.942,3.866 6.017,3.36 6.965,2.688" /></g><g
           transform="translate(246.0304,258.2226)"
           id="g52"><path
             id="path54"
             style="fill:#231f20;fill-opacity:1;fill-rule:nonzero;stroke:none"
             d="m 0,0 c 1.242,0 2.301,-0.437 3.176,-1.312 0.874,-0.876 1.312,-1.934 1.312,-3.176 0,-1.26 -0.438,-2.326 -1.312,-3.2 C 2.301,-8.563 1.242,-9.001 0,-9.001 c -1.243,0 -2.302,0.438 -3.176,1.313 -0.875,0.874 -1.312,1.932 -1.312,3.175 0,1.226 0.449,2.284 1.348,3.176 C -2.24,-0.446 -1.194,0 0,0 m 3.973,-10.938 v -18.125 c 0,-0.867 0.049,-1.398 0.147,-1.594 0.098,-0.197 0.274,-0.348 0.527,-0.454 0.254,-0.107 0.822,-0.159 1.705,-0.159 h 1.324 v -4.734 H -7.481 v 4.734 h 1.3 c 0.85,0 1.394,0.044 1.631,0.134 0.237,0.09 0.413,0.241 0.528,0.454 0.114,0.212 0.171,0.637 0.171,1.275 v 11.699 h -3.63 v 4.611 c 1.292,0.065 2.53,0.204 3.716,0.416 1.185,0.213 2.244,0.467 3.176,0.761 0.605,0.196 1.349,0.524 2.232,0.982 z" /></g><g
           transform="translate(267.5885,255.1074)"
           id="g56"><path
             id="path58"
             style="fill:#231f20;fill-opacity:1;fill-rule:nonzero;stroke:none"
             d="m 0,0 v -8.412 h 7.897 v -5.224 H 0 v -8.535 c 0,-1.93 0.102,-3.168 0.307,-3.716 0.204,-0.548 0.584,-0.985 1.14,-1.312 0.736,-0.441 1.577,-0.661 2.526,-0.661 1.684,0 3.36,0.547 5.028,1.642 v -5.249 c -1.423,-0.67 -2.71,-1.139 -3.863,-1.409 -1.153,-0.27 -2.4,-0.405 -3.74,-0.405 -1.521,0 -2.866,0.192 -4.034,0.577 -1.17,0.383 -2.167,0.931 -2.993,1.642 -0.826,0.711 -1.397,1.468 -1.716,2.269 -0.32,0.801 -0.479,1.962 -0.479,3.482 v 11.675 h -3.678 v 4.708 c 1.307,0.426 2.427,1.034 3.359,1.828 0.932,0.793 1.68,1.745 2.245,2.857 0.564,1.112 0.952,2.526 1.164,4.243 z" /></g><g
           transform="translate(294.4933,232.9853)"
           id="g60"><path
             id="path62"
             style="fill:#231f20;fill-opacity:1;fill-rule:nonzero;stroke:none"
             d="M 0,0 C -2.142,-0.311 -3.654,-0.625 -4.538,-0.944 -5.42,-1.263 -6.05,-1.664 -6.426,-2.146 -6.802,-2.628 -6.99,-3.123 -6.99,-3.63 c 0,-0.654 0.245,-1.201 0.736,-1.642 0.49,-0.443 1.153,-0.664 1.986,-0.664 0.54,0 1.166,0.14 1.877,0.418 0.711,0.278 1.508,0.687 2.391,1.226 z m 0,4.071 v 1.816 c 0,1.078 -0.09,1.822 -0.27,2.231 -0.18,0.408 -0.507,0.748 -0.981,1.019 -0.474,0.268 -1.063,0.404 -1.766,0.404 -0.539,0 -1.03,-0.091 -1.471,-0.27 C -4.93,9.091 -5.282,8.861 -5.543,8.584 -5.805,8.306 -6.107,7.767 -6.45,6.965 -6.892,5.951 -7.419,5.224 -8.032,4.782 -8.645,4.341 -9.369,4.121 -10.203,4.121 c -1.047,0 -1.904,0.326 -2.575,0.981 -0.67,0.653 -1.006,1.462 -1.006,2.427 0,1.096 0.344,2.069 1.031,2.919 0.915,1.128 2.28,2.051 4.095,2.772 1.815,0.718 3.859,1.079 6.132,1.079 2.273,0 4.206,-0.368 5.8,-1.105 C 4.868,12.459 5.98,11.58 6.61,10.559 7.239,9.537 7.554,7.979 7.554,5.887 v -8.782 c 0,-1.078 0.057,-1.769 0.172,-2.072 0.114,-0.303 0.359,-0.568 0.735,-0.797 0.376,-0.229 0.793,-0.342 1.251,-0.342 0.458,0 1.071,0.13 1.84,0.391 v -4.782 c -1.39,-0.441 -2.722,-0.662 -3.998,-0.662 -1.505,0 -2.788,0.245 -3.85,0.736 -1.063,0.489 -1.954,1.226 -2.674,2.207 -1.635,-1.063 -3.119,-1.819 -4.451,-2.268 -1.333,-0.45 -2.621,-0.675 -3.863,-0.675 -2.339,0 -4.227,0.658 -5.666,1.973 -1.439,1.318 -2.158,2.94 -2.158,4.87 0,1.094 0.249,2.1 0.748,3.016 0.499,0.916 1.242,1.717 2.232,2.404 0.989,0.686 2.518,1.295 4.586,1.827 2.069,0.531 4.583,0.912 7.542,1.14" /></g><g
           transform="translate(319.7794,258.2226)"
           id="g64"><path
             id="path66"
             style="fill:#231f20;fill-opacity:1;fill-rule:nonzero;stroke:none"
             d="m 0,0 v -28.695 c 0,-0.965 0.041,-1.537 0.123,-1.717 0.114,-0.327 0.367,-0.564 0.76,-0.712 0.245,-0.098 0.907,-0.146 1.987,-0.146 h 0.858 v -4.734 h -15.182 v 4.734 h 0.933 c 0.98,0 1.609,0.061 1.888,0.183 0.278,0.122 0.482,0.319 0.613,0.589 0.131,0.27 0.196,0.87 0.196,1.803 v 21.877 h -3.63 v 4.734 c 2.927,0.198 5.952,0.893 9.075,2.084 z" /></g><g
           transform="translate(363.0919,240.4658)"
           id="g68"><path
             id="path70"
             style="fill:#231f20;fill-opacity:1;fill-rule:nonzero;stroke:none"
             d="m 0,0 h 16.703 v -4.783 h -1.251 c -0.818,0 -1.378,-0.072 -1.681,-0.221 C 13.469,-5.15 13.244,-5.383 13.097,-5.702 12.95,-6.021 12.876,-6.631 12.876,-7.529 V -18.247 H 7.853 l -1.3,2.452 c -1.536,-1.014 -3.129,-1.774 -4.779,-2.28 -1.65,-0.507 -3.366,-0.761 -5.147,-0.761 -3.121,0 -5.963,0.761 -8.528,2.281 -2.566,1.521 -4.596,3.646 -6.09,6.377 -1.495,2.731 -2.242,5.787 -2.242,9.172 0,3.353 0.738,6.353 2.217,9.002 1.478,2.649 3.546,4.737 6.201,6.266 2.654,1.529 5.534,2.293 8.639,2.293 1.503,0 3.001,-0.192 4.497,-0.576 1.495,-0.385 2.773,-0.895 3.835,-1.533 l 0.907,1.52 H 9.494 L 12.582,4.636 8.069,3.164 C 6.532,5.648 5.318,7.341 4.427,8.24 3.536,9.14 2.514,9.843 1.361,10.35 c -1.152,0.506 -2.277,0.76 -3.372,0.76 -1.553,0 -3.004,-0.45 -4.353,-1.349 C -7.713,8.862 -8.78,7.55 -9.565,5.824 -10.35,4.1 -10.742,2.011 -10.742,-0.441 c 0,-2.699 0.429,-5.037 1.287,-7.014 0.859,-1.98 1.983,-3.447 3.373,-4.403 1.39,-0.956 2.918,-1.435 4.586,-1.435 1.177,0 2.293,0.237 3.348,0.711 1.054,0.474 1.778,1.006 2.17,1.595 0.393,0.589 0.589,1.381 0.589,2.379 v 1.251 c 0,0.866 -0.057,1.414 -0.172,1.642 -0.18,0.327 -0.42,0.565 -0.723,0.711 -0.303,0.149 -0.895,0.221 -1.778,0.221 l -1.938,0 z" /></g><g
           transform="translate(395.8341,241.9121)"
           id="g72"><path
             id="path74"
             style="fill:#231f20;fill-opacity:1;fill-rule:nonzero;stroke:none"
             d="m 0,0 c -0.932,0 -1.807,-0.277 -2.625,-0.833 -0.817,-0.557 -1.45,-1.373 -1.9,-2.453 -0.45,-1.079 -0.674,-2.452 -0.674,-4.12 0,-1.717 0.22,-3.14 0.662,-4.267 0.441,-1.129 1.05,-1.963 1.827,-2.503 0.776,-0.539 1.631,-0.808 2.563,-0.808 1.439,0 2.673,0.609 3.703,1.827 1.03,1.218 1.545,3.11 1.545,5.678 0,2.485 -0.478,4.353 -1.434,5.604 C 2.71,-0.625 1.488,0 0,0 m -0.098,5.372 c 2.796,0 5.232,-0.548 7.308,-1.643 2.077,-1.095 3.675,-2.587 4.795,-4.477 1.12,-1.888 1.681,-4.1 1.681,-6.634 0,-3.825 -1.243,-6.932 -3.728,-9.319 -2.486,-2.388 -5.805,-3.581 -9.958,-3.581 -4.235,0 -7.603,1.201 -10.104,3.605 -2.42,2.289 -3.63,5.387 -3.63,9.295 0,2.568 0.551,4.775 1.655,6.622 1.103,1.848 2.702,3.332 4.795,4.451 2.093,1.121 4.488,1.681 7.186,1.681" /></g><g
           transform="translate(424.235,258.2226)"
           id="g76"><path
             id="path78"
             style="fill:#231f20;fill-opacity:1;fill-rule:nonzero;stroke:none"
             d="m 0,0 v -28.695 c 0,-0.965 0.041,-1.537 0.123,-1.717 0.114,-0.327 0.367,-0.564 0.76,-0.712 0.245,-0.098 0.907,-0.146 1.986,-0.146 h 0.859 v -4.734 h -15.182 v 4.734 h 0.933 c 0.98,0 1.61,0.061 1.888,0.183 0.278,0.122 0.482,0.319 0.613,0.589 0.131,0.27 0.196,0.87 0.196,1.803 v 21.877 h -3.63 v 4.734 c 2.927,0.198 5.952,0.893 9.075,2.084 z" /></g><g
           transform="translate(447.9151,229.2324)"
           id="g80"><path
             id="path82"
             style="fill:#231f20;fill-opacity:1;fill-rule:nonzero;stroke:none"
             d="m 0,0 v 8.218 c 0,1.029 -0.074,1.756 -0.222,2.181 -0.196,0.605 -0.642,1.136 -1.339,1.594 -0.695,0.458 -1.468,0.687 -2.32,0.687 -0.885,0 -1.703,-0.266 -2.456,-0.797 -0.754,-0.531 -1.351,-1.345 -1.794,-2.441 -0.441,-1.094 -0.662,-2.461 -0.662,-4.095 0,-2.273 0.499,-4.096 1.498,-5.469 0.77,-1.079 1.793,-1.619 3.07,-1.619 0.556,0 1.089,0.095 1.596,0.282 C -2.121,-1.271 -1.245,-0.784 0,0 M 7.836,28.99 V 0.467 c 0,-1.128 0.049,-1.812 0.146,-2.048 0.098,-0.237 0.266,-0.413 0.503,-0.527 0.237,-0.115 0.863,-0.172 1.876,-0.172 h 1.154 V -7.014 L 0.87,-7.382 v 2.527 c -1.537,-1.031 -2.886,-1.746 -4.047,-2.146 -1.161,-0.401 -2.322,-0.602 -3.482,-0.602 -1.88,0 -3.61,0.511 -5.188,1.533 -1.578,1.022 -2.869,2.539 -3.875,4.55 -1.005,2.011 -1.508,4.243 -1.508,6.695 0,2.485 0.511,4.737 1.535,6.757 1.023,2.019 2.358,3.545 4.003,4.575 1.645,1.029 3.484,1.545 5.514,1.545 1.048,0 2.051,-0.127 3.009,-0.38 0.958,-0.254 2.018,-0.699 3.181,-1.337 v 5.837 h -3.581 v 4.734 c 2.023,0.196 3.667,0.445 4.931,0.747 1.265,0.302 2.63,0.748 4.1,1.337 z" /></g><g
           transform="translate(479.3683,256.4316)"
           id="g84"><path
             id="path86"
             style="fill:#231f20;fill-opacity:1;fill-rule:nonzero;stroke:none"
             d="m 0,0 h 16.702 v -4.732 h -1.52 c -0.883,0 -1.468,-0.079 -1.754,-0.234 -0.286,-0.156 -0.498,-0.4 -0.638,-0.736 -0.139,-0.335 -0.208,-0.978 -0.208,-1.925 v -18.935 c 0,-1.029 0.058,-1.692 0.172,-1.986 0.114,-0.294 0.31,-0.507 0.589,-0.637 0.343,-0.197 0.858,-0.294 1.545,-0.294 h 1.814 v -4.734 H 0 v 4.734 h 1.357 c 0.97,0 1.604,0.069 1.9,0.208 0.296,0.139 0.514,0.36 0.654,0.663 0.14,0.301 0.21,0.902 0.21,1.801 v 19.008 c 0,1.063 -0.07,1.762 -0.21,2.097 -0.14,0.336 -0.374,0.593 -0.703,0.772 -0.231,0.132 -0.79,0.198 -1.678,0.198 l -1.53,0 z" /></g><g
           transform="translate(510.5167,247.2841)"
           id="g88"><path
             id="path90"
             style="fill:#231f20;fill-opacity:1;fill-rule:nonzero;stroke:none"
             d="m 0,0 v -3.262 c 1.848,1.259 3.43,2.117 4.746,2.575 C 6.062,-0.229 7.407,0 8.78,0 c 1.585,0 2.988,-0.336 4.206,-1.006 1.218,-0.671 2.105,-1.508 2.661,-2.514 0.556,-1.004 0.833,-2.432 0.833,-4.28 v -10.203 c 0,-0.866 0.062,-1.422 0.185,-1.667 0.123,-0.245 0.315,-0.425 0.576,-0.539 0.197,-0.083 0.785,-0.123 1.766,-0.123 h 1.202 v -4.733 H 5.813 v 4.733 c 1.094,0.016 1.709,0.04 1.838,0.073 0.409,0.114 0.679,0.302 0.81,0.564 0.131,0.26 0.196,0.824 0.196,1.689 v 8.985 c 0,1.16 -0.122,1.911 -0.368,2.253 C 7.897,-6.196 7.275,-5.91 6.426,-5.91 5.723,-5.91 4.97,-6.066 4.169,-6.376 3.368,-6.687 2.288,-7.322 0.932,-8.285 v -9.721 c 0,-1.061 0.116,-1.715 0.346,-1.959 0.231,-0.245 0.784,-0.367 1.659,-0.367 h 0.791 v -4.733 h -14.249 v 4.733 h 0.71 c 1.129,0 1.828,0.049 2.097,0.146 0.27,0.099 0.475,0.27 0.613,0.515 0.139,0.244 0.209,0.726 0.209,1.444 v 11.409 h -3.629 v 4.733 c 2.935,0.364 5.683,1.059 8.245,2.085 z" /></g><g
           transform="translate(550.4454,246.6953)"
           id="g92"><path
             id="path94"
             style="fill:#231f20;fill-opacity:1;fill-rule:nonzero;stroke:none"
             d="M 0,0 H 3.212 L 5.198,-6.817 0.563,-8.682 c -0.882,1.422 -1.991,2.538 -3.323,3.348 -1.333,0.81 -2.653,1.214 -3.961,1.214 -0.867,0 -1.512,-0.148 -1.937,-0.442 -0.426,-0.293 -0.638,-0.646 -0.638,-1.054 0,-0.343 0.15,-0.662 0.453,-0.957 0.303,-0.294 0.929,-0.605 1.876,-0.932 l 6.745,-2.403 c 1.194,-0.425 2.338,-0.956 3.434,-1.594 1.096,-0.638 1.917,-1.419 2.465,-2.343 0.548,-0.924 0.822,-2.008 0.822,-3.25 0,-2.223 -0.851,-4.047 -2.552,-5.468 -1.994,-1.668 -4.479,-2.502 -7.456,-2.502 -2.55,0 -4.774,0.645 -6.67,1.937 l -0.687,-1.349 h -3.261 l -3.018,8.044 4.636,1.962 c 1.16,-1.814 2.592,-3.241 4.292,-4.279 1.7,-1.038 3.262,-1.558 4.685,-1.558 0.883,0 1.627,0.204 2.231,0.614 0.457,0.327 0.687,0.712 0.687,1.153 0,0.375 -0.18,0.735 -0.539,1.078 -0.361,0.344 -1.153,0.729 -2.379,1.153 l -5.298,1.839 c -2.927,1.031 -4.918,2.13 -5.973,3.299 -1.053,1.169 -1.581,2.555 -1.581,4.157 0,2.061 0.825,3.793 2.477,5.201 1.88,1.601 4.202,2.403 6.966,2.403 2.452,0 4.552,-0.556 6.302,-1.668 z" /></g><g
           transform="translate(570.9484,255.1074)"
           id="g96"><path
             id="path98"
             style="fill:#231f20;fill-opacity:1;fill-rule:nonzero;stroke:none"
             d="m 0,0 v -8.412 h 7.897 v -5.224 H 0 v -8.535 c 0,-1.93 0.102,-3.168 0.307,-3.716 0.204,-0.548 0.585,-0.985 1.14,-1.312 0.736,-0.441 1.578,-0.661 2.526,-0.661 1.684,0 3.36,0.547 5.028,1.642 v -5.249 c -1.422,-0.67 -2.71,-1.139 -3.862,-1.409 -1.154,-0.27 -2.401,-0.405 -3.741,-0.405 -1.521,0 -2.866,0.192 -4.035,0.577 -1.169,0.383 -2.167,0.931 -2.991,1.642 -0.826,0.711 -1.398,1.468 -1.718,2.269 -0.318,0.801 -0.477,1.962 -0.477,3.482 v 11.675 h -3.68 v 4.708 c 1.309,0.426 2.428,1.034 3.36,1.828 0.932,0.793 1.68,1.745 2.245,2.857 0.564,1.112 0.952,2.526 1.165,4.243 z" /></g><g
           transform="translate(590.5695,258.2226)"
           id="g100"><path
             id="path102"
             style="fill:#231f20;fill-opacity:1;fill-rule:nonzero;stroke:none"
             d="m 0,0 c 1.242,0 2.302,-0.437 3.177,-1.312 0.874,-0.876 1.311,-1.934 1.311,-3.176 0,-1.26 -0.437,-2.326 -1.311,-3.2 C 2.302,-8.563 1.242,-9.001 0,-9.001 c -1.243,0 -2.302,0.438 -3.176,1.313 -0.875,0.874 -1.312,1.932 -1.312,3.175 0,1.226 0.45,2.284 1.348,3.176 C -2.24,-0.446 -1.194,0 0,0 m 3.974,-10.938 v -18.125 c 0,-0.867 0.048,-1.398 0.146,-1.594 0.099,-0.197 0.274,-0.348 0.527,-0.454 0.254,-0.107 0.823,-0.159 1.706,-0.159 h 1.324 v -4.734 H -7.48 v 4.734 h 1.299 c 0.85,0 1.395,0.044 1.631,0.134 0.238,0.09 0.413,0.241 0.528,0.454 0.114,0.212 0.171,0.637 0.171,1.275 v 11.699 H -7.48 v 4.611 c 1.291,0.065 2.53,0.204 3.715,0.416 1.185,0.213 2.244,0.467 3.176,0.761 0.605,0.196 1.349,0.524 2.232,0.982 z" /></g><g
           transform="translate(612.1271,255.1074)"
           id="g104"><path
             id="path106"
             style="fill:#231f20;fill-opacity:1;fill-rule:nonzero;stroke:none"
             d="m 0,0 v -8.412 h 7.897 v -5.224 H 0 v -8.535 c 0,-1.93 0.102,-3.168 0.307,-3.716 0.204,-0.548 0.584,-0.985 1.14,-1.312 0.736,-0.441 1.577,-0.661 2.526,-0.661 1.684,0 3.36,0.547 5.028,1.642 v -5.249 c -1.423,-0.67 -2.71,-1.139 -3.862,-1.409 -1.154,-0.27 -2.401,-0.405 -3.741,-0.405 -1.521,0 -2.866,0.192 -4.035,0.577 -1.169,0.383 -2.167,0.931 -2.992,1.642 -0.825,0.711 -1.397,1.468 -1.717,2.269 -0.318,0.801 -0.477,1.962 -0.477,3.482 v 11.675 h -3.68 v 4.708 c 1.309,0.426 2.428,1.034 3.36,1.828 0.932,0.793 1.68,1.745 2.245,2.857 0.563,1.112 0.952,2.526 1.165,4.243 z" /></g><g
           transform="translate(623.6056,246.6953)"
           id="g108"><path
             id="path110"
             style="fill:#231f20;fill-opacity:1;fill-rule:nonzero;stroke:none"
             d="m 0,0 11.453,0.221 v -15.917 c 0,-1.129 0.069,-1.881 0.209,-2.256 0.139,-0.377 0.393,-0.684 0.76,-0.92 0.368,-0.237 0.83,-0.356 1.386,-0.356 0.817,0 1.683,0.196 2.599,0.588 0.36,0.163 1.317,0.744 2.87,1.742 v 9.565 c 0,0.834 -0.065,1.405 -0.198,1.717 -0.131,0.309 -0.321,0.535 -0.567,0.674 -0.247,0.139 -0.725,0.209 -1.433,0.209 H 15.647 V 0 L 27.15,0.221 V -17.34 c 0,-0.916 0.053,-1.492 0.16,-1.728 0.105,-0.239 0.277,-0.41 0.514,-0.516 0.237,-0.106 0.805,-0.159 1.705,-0.159 h 1.3 v -4.734 l -10.767,-0.294 v 2.894 c -1.437,-1.063 -2.881,-1.86 -4.334,-2.392 -1.455,-0.531 -2.915,-0.796 -4.384,-0.796 -1.176,0 -2.257,0.192 -3.245,0.576 -0.988,0.384 -1.817,0.899 -2.486,1.545 -0.669,0.646 -1.167,1.402 -1.493,2.269 -0.327,0.866 -0.49,1.979 -0.49,3.335 v 10.105 c 0,0.932 -0.054,1.52 -0.161,1.765 -0.108,0.246 -0.284,0.43 -0.531,0.553 -0.247,0.122 -0.774,0.184 -1.58,0.184 l -1.358,0 z" /></g><g
           transform="translate(668.3898,255.1074)"
           id="g112"><path
             id="path114"
             style="fill:#231f20;fill-opacity:1;fill-rule:nonzero;stroke:none"
             d="m 0,0 v -8.412 h 7.897 v -5.224 H 0 v -8.535 c 0,-1.93 0.102,-3.168 0.307,-3.716 0.204,-0.548 0.585,-0.985 1.14,-1.312 0.736,-0.441 1.578,-0.661 2.526,-0.661 1.684,0 3.36,0.547 5.028,1.642 v -5.249 c -1.422,-0.67 -2.71,-1.139 -3.862,-1.409 -1.154,-0.27 -2.4,-0.405 -3.741,-0.405 -1.521,0 -2.866,0.192 -4.035,0.577 -1.169,0.383 -2.166,0.931 -2.991,1.642 -0.826,0.711 -1.398,1.468 -1.718,2.269 -0.318,0.801 -0.477,1.962 -0.477,3.482 v 11.675 h -3.679 v 4.708 c 1.308,0.426 2.428,1.034 3.359,1.828 0.932,0.793 1.68,1.745 2.245,2.857 0.564,1.112 0.952,2.526 1.165,4.243 z" /></g><g
           transform="translate(697.7472,238.3808)"
           id="g116"><path
             id="path118"
             style="fill:#231f20;fill-opacity:1;fill-rule:nonzero;stroke:none"
             d="M 0,0 C -0.115,0.981 -0.349,1.754 -0.701,2.317 -1.054,2.882 -1.529,3.332 -2.128,3.667 -2.727,4.002 -3.354,4.169 -4.01,4.169 -4.699,4.169 -5.363,3.998 -6.002,3.654 -6.643,3.312 -7.154,2.845 -7.54,2.256 -7.926,1.668 -8.176,0.916 -8.29,0 Z m 4.905,-7.088 3.36,-3.385 c -1.93,-2.207 -3.896,-3.805 -5.899,-4.795 -2.003,-0.989 -4.166,-1.483 -6.486,-1.483 -3.729,0 -6.867,1.263 -9.418,3.789 -2.552,2.526 -3.827,5.58 -3.827,9.16 0,2.356 0.572,4.509 1.718,6.463 1.144,1.954 2.729,3.483 4.757,4.587 2.028,1.104 4.325,1.655 6.892,1.655 1.635,0 3.122,-0.237 4.464,-0.712 C 1.807,7.718 2.979,7.039 3.985,6.156 4.991,5.273 5.801,4.207 6.413,2.955 7.026,1.705 7.447,0.409 7.677,-0.932 7.774,-1.603 7.823,-2.665 7.823,-4.12 H -8.683 c 0.033,-2.077 0.642,-3.757 1.828,-5.04 1.185,-1.283 2.636,-1.925 4.353,-1.925 1.096,0 2.289,0.331 3.581,0.993 1.291,0.662 2.567,1.663 3.826,3.004" /></g></g></g></g></svg>