<?xml version="1.0" encoding="UTF-8" standalone="no"?>
<svg
   xmlns:dc="http://purl.org/dc/elements/1.1/"
   xmlns:cc="http://creativecommons.org/ns#"
   xmlns:rdf="http://www.w3.org/1999/02/22-rdf-syntax-ns#"
   xmlns:svg="http://www.w3.org/2000/svg"
   xmlns="http://www.w3.org/2000/svg"
   viewBox="0 0 1931.1866 1133.8586"
   height="1133.8586"
   width="1931.1866"
   xml:space="preserve"
   id="svg2"
   version="1.1"><metadata
     id="metadata8"><rdf:RDF><cc:Work
         rdf:about=""><dc:format>image/svg+xml</dc:format><dc:type
           rdf:resource="http://purl.org/dc/dcmitype/StillImage" /></cc:Work></rdf:RDF></metadata><defs
     id="defs6"><clipPath
       id="clipPath18"
       clipPathUnits="userSpaceOnUse"><path
         id="path16"
         d="M 0,850.394 H 1448.394 V 0 H 0 Z" /></clipPath><clipPath
       id="clipPath120"
       clipPathUnits="userSpaceOnUse"><path
         id="path118"
         d="M 0,850.394 H 1448.394 V 0 H 0 Z" /></clipPath></defs><g
     transform="matrix(1.3333333,0,0,-1.3333333,0,1133.8587)"
     id="g10"><g
       id="g12"><g
         clip-path="url(#clipPath18)"
         id="g14"><g
           transform="translate(335.2071,373.3642)"
           id="g20"><path
             id="path22"
             style="fill:#231f20;fill-opacity:1;fill-rule:nonzero;stroke:none"
             d="m 0,0 v 74.994 c 0,9.397 -0.688,16.035 -2.058,19.918 -1.83,5.52 -5.983,10.371 -12.462,14.551 -6.478,4.175 -13.678,6.267 -21.605,6.267 -8.234,0 -15.855,-2.427 -22.865,-7.274 -7.014,-4.852 -12.576,-12.278 -16.694,-22.274 -4.117,-10.001 -6.171,-22.461 -6.171,-37.382 0,-20.747 4.649,-37.384 13.946,-49.918 7.164,-9.849 16.693,-14.774 28.583,-14.774 5.181,0 10.136,0.857 14.86,2.574 C -19.742,-11.605 -11.587,-7.164 0,0 M 72.953,264.592 V 4.255 c 0,-10.297 0.455,-16.53 1.369,-18.692 0.913,-2.165 2.472,-3.772 4.68,-4.812 2.206,-1.047 8.027,-1.57 17.469,-1.57 h 10.73 V -64.021 L 8.107,-67.379 v 23.056 c -14.311,-9.401 -26.869,-15.933 -37.674,-19.586 -10.811,-3.656 -21.617,-5.486 -32.424,-5.486 -17.506,0 -33.603,4.666 -48.291,13.993 -14.692,9.325 -26.714,23.167 -36.077,41.522 -9.361,18.356 -14.041,38.727 -14.041,61.111 0,22.684 4.763,43.239 14.287,61.671 9.527,18.431 21.953,32.348 37.272,41.749 15.319,9.402 32.434,14.102 51.335,14.102 9.754,0 19.091,-1.157 28.01,-3.469 8.918,-2.315 18.787,-6.379 29.612,-12.199 v 53.277 h -33.337 v 43.203 c 18.833,1.791 34.135,4.065 45.908,6.828 11.774,2.759 24.493,6.828 38.163,12.199 z" /></g><g
           transform="translate(571.4484,498.6186)"
           id="g24"><path
             id="path26"
             style="fill:#231f20;fill-opacity:1;fill-rule:nonzero;stroke:none"
             d="m 0,0 c -9.55,0 -17.424,-3.507 -23.616,-10.52 -6.193,-7.017 -9.288,-16.493 -9.288,-28.431 0,-11.045 2.983,-19.849 8.955,-26.413 5.965,-6.569 13.655,-9.85 23.055,-9.85 9.251,0 16.976,3.393 23.168,10.185 6.192,6.788 9.291,15.558 9.291,26.303 0,11.937 -2.95,21.378 -8.842,28.318 C 16.826,-3.47 9.254,0 0,0 m -32.456,-200.206 c -7.911,-6.106 -12.948,-10.762 -15.113,-13.967 -2.164,-3.202 -3.245,-6.74 -3.245,-10.614 0,-7.296 5.967,-12.996 17.91,-17.094 11.939,-4.096 27.232,-6.145 45.89,-6.145 13.577,0 25.591,1.193 36.037,3.575 10.448,2.386 17.384,5.288 20.82,8.714 2.24,2.237 3.358,5.288 3.358,9.162 0,4.324 -2.24,7.936 -6.716,10.838 -4.475,2.906 -15.299,5.401 -32.459,7.487 z M 63.576,24.529 c 7.908,11.228 15.817,19.2 23.729,23.913 7.908,4.716 16.265,7.075 25.071,7.075 8.802,0 15.741,-2.575 20.819,-7.724 5.071,-5.148 7.61,-11.752 7.61,-19.812 0,-7.313 -2.427,-13.395 -7.277,-18.243 -4.849,-4.851 -10.855,-7.276 -18.019,-7.276 l -7.388,0.225 -7.609,0.224 c -4.032,0 -8.059,-1.497 -12.089,-4.492 8.207,-13.606 12.312,-26.61 12.312,-39.02 0,-13.159 -4.067,-25.939 -12.2,-38.349 -8.136,-12.409 -19.402,-22.052 -33.802,-28.929 -14.403,-6.877 -31.673,-10.315 -51.82,-10.315 -5.822,0 -11.681,0.337 -17.574,1.006 -5.897,0.673 -11.83,1.681 -17.795,3.023 -4.03,-2.541 -7.093,-4.998 -9.179,-7.381 -2.091,-2.386 -3.134,-4.616 -3.134,-6.703 0,-4.618 4.776,-7.598 14.326,-8.937 l 92.676,-13.184 c 27.607,-3.878 47.529,-11.255 59.767,-22.134 12.235,-11.032 18.355,-24.15 18.355,-39.351 0,-13.414 -4.625,-25.826 -13.876,-37.228 -9.257,-11.402 -24.367,-20.754 -45.333,-28.058 -20.964,-7.304 -47.418,-10.953 -79.355,-10.953 -28.058,0 -51.263,2.719 -69.618,8.159 -18.356,5.445 -31.377,12.3 -39.063,20.571 -7.687,8.28 -11.528,16.144 -11.528,23.597 0,8.499 2.872,16.14 8.619,22.919 5.743,6.787 17.571,14.576 35.481,23.368 -11.046,4.031 -19.329,8.959 -24.849,14.784 -7.463,7.759 -11.193,15.749 -11.193,23.963 0,8.955 3.47,17.764 10.41,26.424 6.939,8.657 17.349,17.242 31.227,25.752 -7.76,4.776 -13.844,9.965 -18.243,15.563 -4.405,5.598 -7.985,12.429 -10.747,20.49 -2.763,8.063 -4.141,16.349 -4.141,24.862 0,22.392 9.141,41.43 27.423,57.107 18.279,15.677 42.346,23.514 72.195,23.514 13.281,0 25.407,-1.538 36.375,-4.613 10.969,-3.074 20.781,-7.688 29.437,-13.837" /></g><g
           transform="translate(836.3331,538.1176)"
           id="g28"><path
             id="path30"
             style="fill:#231f20;fill-opacity:1;fill-rule:nonzero;stroke:none"
             d="m 0,0 v -165.422 c 0,-7.912 0.444,-12.762 1.342,-14.553 0.893,-1.791 2.498,-3.171 4.812,-4.14 2.311,-0.975 7.501,-1.458 15.559,-1.458 h 12.088 v -43.202 h -138.34 v 43.202 h 11.864 c 7.756,0 12.721,0.411 14.886,1.234 2.161,0.819 3.766,2.199 4.812,4.139 1.043,1.938 1.567,5.822 1.567,11.64 v 106.777 h -33.129 v 42.085 c 11.786,0.595 23.09,1.865 33.91,3.805 10.821,1.937 20.483,4.253 28.99,6.94 5.519,1.791 12.313,4.775 20.37,8.953 z" /></g><path
           id="path32"
           style="fill:#231f20;fill-opacity:1;fill-rule:nonzero;stroke:none"
           d="M 1299.638,221.816 H 175.766 v 27.405 h 1123.872 z" /><g
           transform="translate(934.4708,529.2978)"
           id="g34"><path
             id="path36"
             style="fill:#231f20;fill-opacity:1;fill-rule:nonzero;stroke:none"
             d="m 0,0 v -36.324 c 0,-1.23 0.069,-1.984 0.209,-2.262 0.223,-0.42 0.55,-0.707 0.982,-0.86 0.432,-0.154 1.47,-0.23 3.115,-0.23 4.571,0 8.145,0.705 10.724,2.116 2.577,1.41 4.661,3.672 6.25,6.787 1.589,3.114 2.383,6.822 2.383,11.124 0,4.245 -0.746,7.939 -2.236,11.081 -1.491,3.142 -3.338,5.356 -5.54,6.641 C 13.685,-0.643 10.535,0 6.438,0 Z M -21.364,9.323 H 9.219 c 6.944,0 12.467,-1.101 16.567,-3.302 4.1,-2.203 7.37,-5.464 9.811,-9.784 2.441,-4.32 3.661,-9.505 3.661,-15.552 0,-4.209 -0.62,-7.972 -1.862,-11.289 -1.241,-3.317 -3.089,-6.306 -5.543,-8.968 -2.456,-2.662 -5.09,-4.661 -7.908,-5.999 -2.12,-1.004 -5.125,-1.826 -9.015,-2.467 C 11.038,-48.679 7.921,-49 5.579,-49 h -26.943 v 8.069 h 2.018 c 1.71,0 2.832,0.139 3.366,0.419 0.532,0.278 0.966,0.752 1.303,1.421 0.224,0.529 0.336,1.686 0.336,3.47 v 31.858 c 0,1.784 -0.119,2.933 -0.357,3.45 -0.239,0.515 -0.631,0.905 -1.178,1.17 -0.547,0.265 -1.703,0.397 -3.47,0.397 h -2.018 z" /></g><g
           transform="translate(992.7941,541.6733)"
           id="g38"><path
             id="path40"
             style="fill:#231f20;fill-opacity:1;fill-rule:nonzero;stroke:none"
             d="m 0,0 c 2.117,0 3.923,-0.746 5.414,-2.237 1.49,-1.491 2.236,-3.296 2.236,-5.414 0,-2.147 -0.746,-3.965 -2.236,-5.456 -1.491,-1.492 -3.297,-2.237 -5.414,-2.237 -2.119,0 -3.924,0.745 -5.414,2.237 -1.492,1.491 -2.237,3.295 -2.237,5.414 0,2.09 0.766,3.895 2.299,5.414 C -3.819,-0.76 -2.035,0 0,0 m 6.772,-18.646 v -30.897 c 0,-1.478 0.084,-2.383 0.251,-2.718 0.167,-0.334 0.467,-0.592 0.9,-0.773 0.431,-0.182 1.4,-0.272 2.905,-0.272 h 2.258 v -8.069 h -25.838 v 8.069 h 2.216 c 1.449,0 2.376,0.077 2.78,0.23 0.404,0.153 0.704,0.411 0.9,0.773 0.194,0.363 0.292,1.088 0.292,2.175 v 19.942 h -6.188 v 7.86 c 2.201,0.111 4.313,0.348 6.334,0.711 2.021,0.362 3.825,0.794 5.414,1.296 1.031,0.335 2.3,0.892 3.805,1.673 z" /></g><g
           transform="translate(1031.09,514.9995)"
           id="g42"><path
             id="path44"
             style="fill:#231f20;fill-opacity:1;fill-rule:nonzero;stroke:none"
             d="m 0,0 c -1.784,0 -3.255,-0.655 -4.411,-1.965 -1.156,-1.31 -1.735,-3.08 -1.735,-5.31 0,-2.063 0.557,-3.707 1.672,-4.933 1.115,-1.227 2.551,-1.84 4.307,-1.84 1.728,0 3.17,0.634 4.327,1.902 1.156,1.269 1.736,2.906 1.736,4.913 0,2.23 -0.551,3.993 -1.652,5.289 C 3.143,-0.648 1.728,0 0,0 m -6.062,-37.393 c -1.478,-1.14 -2.418,-2.01 -2.822,-2.608 -0.404,-0.599 -0.606,-1.259 -0.606,-1.983 0,-1.362 1.114,-2.427 3.344,-3.192 2.23,-0.765 5.086,-1.148 8.571,-1.148 2.536,0 4.78,0.223 6.731,0.668 1.95,0.445 3.247,0.988 3.888,1.628 0.419,0.417 0.628,0.987 0.628,1.711 0,0.807 -0.418,1.482 -1.255,2.024 -0.836,0.543 -2.857,1.008 -6.062,1.398 z M 11.874,4.581 c 1.477,2.097 2.954,3.586 4.432,4.466 1.476,0.881 3.037,1.322 4.682,1.322 1.644,0 2.941,-0.481 3.888,-1.443 0.947,-0.962 1.422,-2.195 1.422,-3.7 0,-1.366 -0.453,-2.502 -1.36,-3.408 C 24.033,0.913 22.911,0.46 21.573,0.46 l -1.38,0.041 -1.421,0.042 c -0.752,0 -1.505,-0.279 -2.257,-0.838 1.532,-2.541 2.299,-4.97 2.299,-7.288 0,-2.458 -0.759,-4.845 -2.279,-7.163 -1.519,-2.317 -3.623,-4.118 -6.312,-5.402 -2.691,-1.285 -5.916,-1.927 -9.679,-1.927 -1.087,0 -2.182,0.063 -3.282,0.188 -1.102,0.126 -2.209,0.314 -3.324,0.565 -0.752,-0.475 -1.325,-0.934 -1.714,-1.38 -0.391,-0.445 -0.585,-0.862 -0.585,-1.251 0,-0.863 0.891,-1.42 2.675,-1.67 l 17.309,-2.462 c 5.156,-0.724 8.877,-2.102 11.163,-4.134 2.285,-2.06 3.428,-4.51 3.428,-7.349 0,-2.506 -0.864,-4.824 -2.592,-6.953 -1.728,-2.13 -4.551,-3.876 -8.467,-5.241 -3.916,-1.363 -8.856,-2.046 -14.82,-2.046 -5.241,0 -9.574,0.509 -13.003,1.524 -3.428,1.017 -5.86,2.298 -7.296,3.843 -1.435,1.546 -2.152,3.015 -2.152,4.407 0,1.587 0.536,3.014 1.609,4.281 1.072,1.267 3.282,2.722 6.627,4.364 -2.063,0.752 -3.61,1.673 -4.641,2.761 -1.394,1.449 -2.09,2.941 -2.09,4.475 0,1.673 0.647,3.318 1.944,4.935 1.296,1.618 3.24,3.221 5.832,4.81 -1.45,0.893 -2.586,1.862 -3.407,2.908 -0.823,1.044 -1.491,2.32 -2.007,3.826 -0.517,1.506 -0.773,3.053 -0.773,4.644 0,4.182 1.707,7.738 5.121,10.665 3.414,2.928 7.908,4.392 13.483,4.392 2.481,0 4.745,-0.287 6.794,-0.861 2.049,-0.575 3.881,-1.437 5.498,-2.585" /></g><g
           transform="translate(1073.2755,541.6733)"
           id="g46"><path
             id="path48"
             style="fill:#231f20;fill-opacity:1;fill-rule:nonzero;stroke:none"
             d="m 0,0 c 2.117,0 3.923,-0.746 5.414,-2.237 1.49,-1.491 2.236,-3.296 2.236,-5.414 0,-2.147 -0.746,-3.965 -2.236,-5.456 -1.491,-1.492 -3.297,-2.237 -5.414,-2.237 -2.119,0 -3.924,0.745 -5.414,2.237 -1.492,1.491 -2.237,3.295 -2.237,5.414 0,2.09 0.766,3.895 2.299,5.414 C -3.819,-0.76 -2.035,0 0,0 m 6.772,-18.646 v -30.897 c 0,-1.478 0.084,-2.383 0.251,-2.718 0.167,-0.334 0.467,-0.592 0.9,-0.773 0.431,-0.182 1.4,-0.272 2.905,-0.272 h 2.258 v -8.069 h -25.838 v 8.069 h 2.216 c 1.449,0 2.376,0.077 2.78,0.23 0.404,0.153 0.704,0.411 0.9,0.773 0.194,0.363 0.292,1.088 0.292,2.175 v 19.942 h -6.188 v 7.86 c 2.201,0.111 4.313,0.348 6.334,0.711 2.021,0.362 3.825,0.794 5.414,1.296 1.031,0.335 2.3,0.892 3.805,1.673 z" /></g><g
           transform="translate(1110.0245,536.3637)"
           id="g50"><path
             id="path52"
             style="fill:#231f20;fill-opacity:1;fill-rule:nonzero;stroke:none"
             d="m 0,0 v -14.34 h 13.463 v -8.906 H 0 v -14.549 c 0,-3.289 0.174,-5.401 0.522,-6.334 0.349,-0.934 0.997,-1.68 1.945,-2.237 1.254,-0.752 2.689,-1.129 4.306,-1.129 2.871,0 5.728,0.934 8.571,2.802 v -8.948 c -2.425,-1.143 -4.62,-1.943 -6.585,-2.403 -1.965,-0.46 -4.091,-0.69 -6.376,-0.69 -2.592,0 -4.885,0.328 -6.877,0.982 -1.993,0.655 -3.694,1.589 -5.101,2.801 -1.408,1.213 -2.384,2.502 -2.926,3.868 -0.544,1.365 -0.816,3.344 -0.816,5.937 v 19.9 h -6.271 v 8.028 c 2.229,0.724 4.139,1.762 5.728,3.114 1.588,1.352 2.863,2.975 3.825,4.871 0.961,1.895 1.623,4.306 1.986,7.233 z" /></g><g
           transform="translate(1155.8888,498.6523)"
           id="g54"><path
             id="path56"
             style="fill:#231f20;fill-opacity:1;fill-rule:nonzero;stroke:none"
             d="m 0,0 c -3.651,-0.53 -6.229,-1.066 -7.734,-1.61 -1.506,-0.543 -2.579,-1.226 -3.22,-2.048 -0.642,-0.823 -0.961,-1.666 -0.961,-2.529 0,-1.116 0.418,-2.049 1.254,-2.802 0.836,-0.752 1.965,-1.129 3.387,-1.129 0.92,0 1.985,0.237 3.198,0.711 1.212,0.473 2.571,1.171 4.076,2.091 z m 0,6.94 v 3.094 c 0,1.84 -0.153,3.108 -0.46,3.804 -0.307,0.697 -0.864,1.276 -1.672,1.736 -0.809,0.46 -1.812,0.69 -3.011,0.69 -0.919,0 -1.755,-0.154 -2.508,-0.46 -0.752,-0.307 -1.352,-0.698 -1.798,-1.171 -0.446,-0.474 -0.961,-1.394 -1.547,-2.759 -0.752,-1.729 -1.651,-2.969 -2.696,-3.721 -1.045,-0.753 -2.279,-1.129 -3.701,-1.129 -1.784,0 -3.247,0.557 -4.389,1.672 -1.144,1.115 -1.714,2.494 -1.714,4.139 0,1.867 0.585,3.526 1.756,4.976 1.56,1.922 3.887,3.497 6.981,4.724 3.094,1.226 6.578,1.84 10.452,1.84 3.874,0 7.171,-0.628 9.888,-1.882 2.718,-1.254 4.613,-2.753 5.687,-4.494 1.072,-1.743 1.609,-4.397 1.609,-7.965 V -4.934 c 0,-1.839 0.098,-3.017 0.293,-3.532 0.194,-0.516 0.612,-0.969 1.254,-1.359 0.64,-0.391 1.351,-0.585 2.132,-0.585 0.78,0 1.825,0.222 3.135,0.669 v -8.153 c -2.369,-0.752 -4.64,-1.129 -6.814,-1.129 -2.564,0 -4.753,0.418 -6.564,1.254 -1.812,0.836 -3.331,2.091 -4.557,3.763 -2.787,-1.812 -5.317,-3.101 -7.588,-3.867 -2.272,-0.767 -4.468,-1.15 -6.585,-1.15 -3.986,0 -7.206,1.122 -9.658,3.366 -2.453,2.243 -3.679,5.01 -3.679,8.299 0,1.867 0.425,3.581 1.275,5.142 0.85,1.561 2.118,2.926 3.804,4.097 1.687,1.171 4.292,2.209 7.819,3.115 C -9.33,5.901 -5.045,6.549 0,6.94" /></g><g
           transform="translate(1198.9933,541.6733)"
           id="g58"><path
             id="path60"
             style="fill:#231f20;fill-opacity:1;fill-rule:nonzero;stroke:none"
             d="m 0,0 v -48.916 c 0,-1.645 0.069,-2.62 0.21,-2.927 0.194,-0.557 0.627,-0.961 1.296,-1.212 0.418,-0.167 1.547,-0.251 3.386,-0.251 h 1.463 v -8.069 h -25.879 v 8.069 h 1.588 c 1.673,0 2.746,0.104 3.22,0.314 0.474,0.209 0.821,0.543 1.045,1.003 0.223,0.46 0.334,1.484 0.334,3.073 v 37.293 h -6.187 v 8.069 c 4.989,0.339 10.145,1.523 15.469,3.554 z" /></g><g
           transform="translate(947.5148,425.7797)"
           id="g62"><path
             id="path64"
             style="fill:#231f20;fill-opacity:1;fill-rule:nonzero;stroke:none"
             d="M 0,0 H 28.472 V -8.153 H 26.34 c -1.395,0 -2.349,-0.126 -2.864,-0.377 -0.516,-0.25 -0.899,-0.647 -1.15,-1.191 -0.251,-0.543 -0.377,-1.582 -0.377,-3.114 v -18.271 h -8.563 l -2.215,4.181 c -2.618,-1.729 -5.334,-3.025 -8.147,-3.888 -2.813,-0.864 -5.738,-1.296 -8.773,-1.296 -5.32,0 -10.166,1.296 -14.539,3.888 -4.373,2.592 -7.833,6.215 -10.382,10.87 -2.548,4.654 -3.822,9.867 -3.822,15.637 0,5.714 1.261,10.828 3.78,15.344 2.521,4.515 6.044,8.075 10.57,10.682 4.526,2.605 9.435,3.909 14.727,3.909 2.562,0 5.117,-0.328 7.666,-0.983 2.549,-0.655 4.728,-1.526 6.538,-2.613 l 1.546,2.592 h 5.849 L 21.448,7.902 13.755,5.394 c -2.62,4.236 -4.69,7.121 -6.208,8.654 -1.52,1.532 -3.262,2.731 -5.227,3.595 -1.965,0.864 -3.882,1.296 -5.748,1.296 -2.648,0 -5.122,-0.767 -7.422,-2.299 -2.298,-1.534 -4.118,-3.77 -5.456,-6.71 -1.338,-2.941 -2.006,-6.502 -2.006,-10.682 0,-4.6 0.732,-8.586 2.195,-11.958 1.464,-3.373 3.38,-5.874 5.749,-7.504 2.368,-1.631 4.974,-2.447 7.818,-2.447 2.007,0 3.909,0.404 5.706,1.213 1.798,0.808 3.031,1.714 3.7,2.717 0.669,1.004 1.004,2.356 1.004,4.056 v 2.133 c 0,1.476 -0.098,2.41 -0.293,2.8 C 7.261,-9.184 6.85,-8.78 6.334,-8.53 5.818,-8.279 4.809,-8.153 3.303,-8.153 H 0 Z" /></g><g
           transform="translate(1003.3292,428.2465)"
           id="g66"><path
             id="path68"
             style="fill:#231f20;fill-opacity:1;fill-rule:nonzero;stroke:none"
             d="m 0,0 c -1.588,0 -3.08,-0.474 -4.473,-1.421 -1.394,-0.948 -2.474,-2.342 -3.24,-4.182 -0.767,-1.84 -1.15,-4.181 -1.15,-7.023 0,-2.927 0.377,-5.352 1.129,-7.275 0.753,-1.924 1.791,-3.345 3.115,-4.265 1.323,-0.919 2.78,-1.379 4.369,-1.379 2.452,0 4.557,1.038 6.312,3.114 1.756,2.076 2.634,5.303 2.634,9.679 0,4.236 -0.815,7.421 -2.445,9.554 C 4.62,-1.066 2.536,0 0,0 m -0.167,9.156 c 4.767,0 8.919,-0.934 12.459,-2.801 3.539,-1.868 6.265,-4.411 8.174,-7.63 1.908,-3.22 2.863,-6.99 2.863,-11.309 0,-6.523 -2.118,-11.819 -6.354,-15.888 -4.238,-4.07 -9.895,-6.104 -16.975,-6.104 -7.219,0 -12.96,2.048 -17.225,6.146 -4.125,3.901 -6.187,9.183 -6.187,15.846 0,4.375 0.94,8.137 2.822,11.288 1.881,3.15 4.606,5.679 8.173,7.588 3.567,1.909 7.651,2.864 12.25,2.864" /></g><g
           transform="translate(1051.7433,456.0493)"
           id="g70"><path
             id="path72"
             style="fill:#231f20;fill-opacity:1;fill-rule:nonzero;stroke:none"
             d="m 0,0 v -48.917 c 0,-1.644 0.069,-2.62 0.21,-2.926 0.194,-0.558 0.627,-0.962 1.296,-1.212 0.418,-0.168 1.547,-0.251 3.386,-0.251 h 1.463 v -8.069 h -25.879 v 8.069 h 1.588 c 1.673,0 2.746,0.104 3.22,0.313 0.474,0.209 0.821,0.543 1.045,1.003 0.223,0.46 0.334,1.485 0.334,3.073 v 37.294 h -6.187 v 8.069 c 4.989,0.339 10.145,1.523 15.469,3.554 z" /></g><g
           transform="translate(1092.1095,406.6308)"
           id="g74"><path
             id="path76"
             style="fill:#231f20;fill-opacity:1;fill-rule:nonzero;stroke:none"
             d="m 0,0 v 14.007 c 0,1.755 -0.126,2.995 -0.377,3.721 -0.335,1.03 -1.096,1.937 -2.281,2.717 -1.187,0.78 -2.505,1.171 -3.956,1.171 -1.508,0 -2.904,-0.453 -4.188,-1.359 -1.284,-0.906 -2.302,-2.293 -3.056,-4.16 -0.753,-1.868 -1.13,-4.196 -1.13,-6.983 0,-3.874 0.851,-6.981 2.553,-9.323 1.312,-1.84 3.057,-2.759 5.235,-2.759 0.948,0 1.855,0.159 2.721,0.481 C -3.615,-2.167 -2.121,-1.338 0,0 M 13.358,49.418 V 0.795 c 0,-1.924 0.083,-3.088 0.251,-3.491 0.167,-0.405 0.453,-0.704 0.857,-0.9 0.404,-0.195 1.47,-0.292 3.198,-0.292 h 1.965 v -8.069 L 1.484,-12.584 v 4.306 c -2.62,-1.756 -4.92,-2.976 -6.898,-3.659 -1.98,-0.682 -3.958,-1.023 -5.937,-1.023 -3.206,0 -6.153,0.871 -8.842,2.612 -2.691,1.743 -4.892,4.327 -6.606,7.756 -1.714,3.428 -2.571,7.233 -2.571,11.414 0,4.237 0.872,8.075 2.616,11.518 1.744,3.443 4.02,6.042 6.824,7.798 2.806,1.756 5.94,2.634 9.401,2.634 1.786,0 3.495,-0.216 5.129,-0.648 1.632,-0.433 3.439,-1.192 5.421,-2.279 v 9.95 h -6.104 v 8.07 c 3.448,0.334 6.251,0.759 8.406,1.275 2.156,0.515 4.485,1.275 6.989,2.278 z" /></g><g
           transform="translate(912.8556,367.373)"
           id="g78"><path
             id="path80"
             style="fill:#231f20;fill-opacity:1;fill-rule:nonzero;stroke:none"
             d="M 0,0 H 28.472 V -8.069 H 25.88 c -1.506,0 -2.502,-0.133 -2.989,-0.398 -0.489,-0.264 -0.851,-0.682 -1.088,-1.254 -0.237,-0.571 -0.355,-1.666 -0.355,-3.282 v -32.276 c 0,-1.756 0.097,-2.885 0.292,-3.386 0.196,-0.502 0.53,-0.864 1.004,-1.088 0.585,-0.334 1.463,-0.501 2.634,-0.501 h 3.094 v -8.069 H 0 v 8.069 h 2.313 c 1.654,0 2.734,0.118 3.239,0.356 0.504,0.236 0.876,0.612 1.114,1.128 0.238,0.515 0.357,1.54 0.357,3.073 v 32.401 c 0,1.812 -0.119,3.004 -0.357,3.575 -0.238,0.572 -0.638,1.01 -1.198,1.317 -0.394,0.223 -1.347,0.335 -2.861,0.335 l -2.607,0 z" /></g><g
           transform="translate(965.9523,351.7783)"
           id="g82"><path
             id="path84"
             style="fill:#231f20;fill-opacity:1;fill-rule:nonzero;stroke:none"
             d="m 0,0 v -5.561 c 3.149,2.146 5.847,3.61 8.09,4.39 2.243,0.78 4.536,1.171 6.878,1.171 2.703,0 5.094,-0.572 7.17,-1.714 2.076,-1.143 3.589,-2.571 4.536,-4.286 0.947,-1.714 1.422,-4.146 1.422,-7.295 v -17.392 c 0,-1.478 0.104,-2.425 0.313,-2.843 0.209,-0.418 0.536,-0.726 0.983,-0.92 0.335,-0.14 1.337,-0.209 3.009,-0.209 h 2.049 v -8.07 H 9.909 v 8.07 c 1.866,0.027 2.912,0.069 3.136,0.125 0.696,0.194 1.156,0.514 1.379,0.96 0.222,0.444 0.335,1.405 0.335,2.88 v 15.317 c 0,1.976 -0.209,3.256 -0.627,3.84 -0.669,0.974 -1.729,1.461 -3.178,1.461 -1.199,0 -2.481,-0.265 -3.847,-0.793 -1.366,-0.529 -3.205,-1.614 -5.518,-3.255 v -16.57 c 0,-1.809 0.196,-2.922 0.591,-3.339 0.392,-0.418 1.335,-0.626 2.826,-0.626 h 1.349 v -8.07 h -24.291 v 8.07 h 1.212 c 1.924,0 3.116,0.083 3.576,0.25 0.46,0.167 0.807,0.459 1.044,0.877 0.237,0.416 0.356,1.237 0.356,2.462 v 19.447 h -6.188 v 8.069 c 5.005,0.62 9.691,1.805 14.057,3.554 z" /></g><g
           transform="translate(1034.0167,350.7744)"
           id="g86"><path
             id="path88"
             style="fill:#231f20;fill-opacity:1;fill-rule:nonzero;stroke:none"
             d="M 0,0 H 5.477 L 8.863,-11.622 0.962,-14.8 c -1.506,2.425 -3.394,4.327 -5.665,5.707 -2.273,1.38 -4.523,2.07 -6.752,2.07 -1.479,0 -2.579,-0.251 -3.304,-0.753 -0.724,-0.501 -1.087,-1.102 -1.087,-1.798 0,-0.585 0.258,-1.129 0.774,-1.63 0.515,-0.502 1.582,-1.032 3.198,-1.589 l 11.498,-4.098 c 2.034,-0.724 3.985,-1.63 5.853,-2.716 1.867,-1.088 3.267,-2.419 4.202,-3.994 0.933,-1.575 1.4,-3.421 1.4,-5.54 0,-3.79 -1.449,-6.898 -4.348,-9.323 -3.401,-2.843 -7.637,-4.264 -12.71,-4.264 -4.348,0 -8.138,1.101 -11.372,3.303 l -1.17,-2.3 h -5.561 l -5.143,13.713 7.903,3.345 c 1.978,-3.094 4.417,-5.525 7.316,-7.295 2.899,-1.77 5.561,-2.655 7.985,-2.655 1.505,0 2.774,0.348 3.805,1.045 0.78,0.557 1.171,1.213 1.171,1.965 0,0.641 -0.308,1.254 -0.92,1.839 -0.613,0.586 -1.965,1.241 -4.056,1.965 l -9.03,3.136 c -4.99,1.756 -8.383,3.631 -10.18,5.623 -1.798,1.993 -2.697,4.356 -2.697,7.087 0,3.512 1.407,6.466 4.223,8.863 3.204,2.732 7.163,4.098 11.873,4.098 4.181,0 7.763,-0.948 10.745,-2.843 z" /></g><g
           transform="translate(1068.9689,365.1152)"
           id="g90"><path
             id="path92"
             style="fill:#231f20;fill-opacity:1;fill-rule:nonzero;stroke:none"
             d="m 0,0 v -14.341 h 13.463 v -8.905 H 0 v -14.549 c 0,-3.289 0.174,-5.4 0.522,-6.334 0.349,-0.934 0.997,-1.68 1.945,-2.237 1.254,-0.752 2.689,-1.129 4.306,-1.129 2.871,0 5.728,0.933 8.571,2.802 v -8.948 c -2.425,-1.143 -4.62,-1.944 -6.585,-2.404 -1.965,-0.46 -4.091,-0.689 -6.376,-0.689 -2.592,0 -4.885,0.328 -6.877,0.982 -1.993,0.654 -3.694,1.589 -5.101,2.801 -1.408,1.213 -2.384,2.502 -2.926,3.868 -0.544,1.365 -0.816,3.345 -0.816,5.937 v 19.9 h -6.271 v 8.027 c 2.229,0.725 4.139,1.763 5.728,3.115 1.588,1.352 2.863,2.975 3.825,4.871 0.961,1.895 1.623,4.306 1.986,7.233 z" /></g><g
           transform="translate(1102.4161,370.4247)"
           id="g94"><path
             id="path96"
             style="fill:#231f20;fill-opacity:1;fill-rule:nonzero;stroke:none"
             d="m 0,0 c 2.117,0 3.923,-0.746 5.414,-2.236 1.49,-1.493 2.236,-3.297 2.236,-5.415 0,-2.147 -0.746,-3.965 -2.236,-5.456 -1.491,-1.492 -3.297,-2.237 -5.414,-2.237 -2.119,0 -3.924,0.745 -5.414,2.237 -1.492,1.491 -2.237,3.295 -2.237,5.415 0,2.089 0.766,3.894 2.299,5.414 C -3.819,-0.76 -2.035,0 0,0 m 6.772,-18.646 v -30.897 c 0,-1.478 0.084,-2.383 0.251,-2.718 0.167,-0.334 0.467,-0.593 0.9,-0.773 0.431,-0.182 1.4,-0.272 2.905,-0.272 h 2.258 v -8.069 h -25.838 v 8.069 h 2.216 c 1.449,0 2.376,0.077 2.78,0.23 0.404,0.153 0.704,0.411 0.9,0.773 0.194,0.363 0.292,1.087 0.292,2.174 v 19.943 h -6.188 v 7.86 c 2.201,0.111 4.313,0.348 6.334,0.711 2.021,0.362 3.825,0.795 5.414,1.296 1.031,0.335 2.3,0.891 3.805,1.673 z" /></g><g
           transform="translate(1139.1652,365.1152)"
           id="g98"><path
             id="path100"
             style="fill:#231f20;fill-opacity:1;fill-rule:nonzero;stroke:none"
             d="m 0,0 v -14.341 h 13.463 v -8.905 H 0 v -14.549 c 0,-3.289 0.174,-5.4 0.522,-6.334 0.349,-0.934 0.997,-1.68 1.945,-2.237 1.254,-0.752 2.689,-1.129 4.306,-1.129 2.871,0 5.728,0.933 8.571,2.802 v -8.948 c -2.425,-1.143 -4.62,-1.944 -6.585,-2.404 -1.965,-0.46 -4.091,-0.689 -6.376,-0.689 -2.592,0 -4.885,0.328 -6.877,0.982 -1.993,0.654 -3.694,1.589 -5.101,2.801 -1.408,1.213 -2.384,2.502 -2.926,3.868 -0.544,1.365 -0.816,3.345 -0.816,5.937 v 19.9 h -6.271 v 8.027 c 2.229,0.725 4.139,1.763 5.728,3.115 1.588,1.352 2.863,2.975 3.825,4.871 0.961,1.895 1.623,4.306 1.986,7.233 z" /></g><g
           transform="translate(1158.7316,350.7744)"
           id="g102"><path
             id="path104"
             style="fill:#231f20;fill-opacity:1;fill-rule:nonzero;stroke:none"
             d="m 0,0 19.524,0.377 v -27.134 c 0,-1.924 0.119,-3.206 0.356,-3.847 0.236,-0.641 0.669,-1.164 1.296,-1.567 0.628,-0.405 1.415,-0.606 2.362,-0.606 1.394,0 2.871,0.334 4.432,1.003 0.613,0.278 2.244,1.268 4.891,2.968 V -12.5 c 0,1.421 -0.112,2.396 -0.337,2.926 -0.224,0.529 -0.546,0.913 -0.967,1.15 -0.421,0.236 -1.235,0.356 -2.442,0.356 H 26.674 V 0 l 19.608,0.377 v -29.936 c 0,-1.56 0.09,-2.544 0.272,-2.947 0.181,-0.404 0.473,-0.697 0.878,-0.878 0.404,-0.181 1.373,-0.271 2.906,-0.271 h 2.216 v -8.07 l -18.355,-0.502 v 4.934 c -2.449,-1.812 -4.912,-3.171 -7.389,-4.076 -2.477,-0.905 -4.967,-1.359 -7.472,-1.359 -2.004,0 -3.848,0.328 -5.531,0.983 -1.685,0.654 -3.097,1.532 -4.238,2.634 -1.141,1.1 -1.99,2.389 -2.547,3.867 -0.556,1.476 -0.835,3.372 -0.835,5.685 v 17.226 c 0,1.589 -0.09,2.592 -0.273,3.01 -0.183,0.418 -0.484,0.731 -0.905,0.941 -0.421,0.209 -1.32,0.314 -2.694,0.314 l -2.315,0 z" /></g><g
           transform="translate(1235.0743,365.1152)"
           id="g106"><path
             id="path108"
             style="fill:#231f20;fill-opacity:1;fill-rule:nonzero;stroke:none"
             d="m 0,0 v -14.341 h 13.463 v -8.905 H 0 v -14.549 c 0,-3.289 0.174,-5.4 0.522,-6.334 0.349,-0.934 0.997,-1.68 1.945,-2.237 1.254,-0.752 2.689,-1.129 4.306,-1.129 2.871,0 5.728,0.933 8.571,2.802 v -8.948 c -2.425,-1.143 -4.62,-1.944 -6.585,-2.404 -1.965,-0.46 -4.091,-0.689 -6.376,-0.689 -2.592,0 -4.885,0.328 -6.877,0.982 -1.993,0.654 -3.694,1.589 -5.101,2.801 -1.408,1.213 -2.384,2.502 -2.926,3.868 -0.544,1.365 -0.816,3.345 -0.816,5.937 v 19.9 h -6.271 v 8.027 c 2.229,0.725 4.139,1.763 5.728,3.115 1.588,1.352 2.863,2.975 3.825,4.871 0.961,1.895 1.623,4.306 1.986,7.233 z" /></g><g
           transform="translate(1285.1193,336.6015)"
           id="g110"><path
             id="path112"
             style="fill:#231f20;fill-opacity:1;fill-rule:nonzero;stroke:none"
             d="m 0,0 c -0.196,1.673 -0.594,2.989 -1.194,3.951 -0.602,0.961 -1.412,1.728 -2.433,2.299 -1.02,0.571 -2.09,0.857 -3.208,0.857 -1.175,0 -2.307,-0.293 -3.396,-0.878 C -11.322,5.645 -12.195,4.85 -12.853,3.847 -13.51,2.843 -13.936,1.561 -14.131,0 Z m 8.362,-12.083 5.728,-5.77 c -3.289,-3.762 -6.642,-6.487 -10.056,-8.172 -3.414,-1.687 -7.1,-2.53 -11.057,-2.53 -6.356,0 -11.707,2.153 -16.055,6.459 -4.349,4.307 -6.523,9.512 -6.523,15.616 0,4.013 0.976,7.685 2.927,11.016 1.951,3.33 4.654,5.937 8.112,7.818 3.455,1.882 7.372,2.823 11.748,2.823 2.786,0 5.323,-0.405 7.609,-1.213 2.284,-0.809 4.285,-1.965 5.999,-3.47 1.714,-1.505 3.094,-3.324 4.139,-5.456 1.046,-2.132 1.762,-4.342 2.153,-6.627 0.168,-1.142 0.251,-2.954 0.251,-5.434 H -14.8 c 0.056,-3.54 1.094,-6.405 3.114,-8.592 2.021,-2.189 4.495,-3.282 7.421,-3.282 1.868,0 3.903,0.564 6.105,1.693 2.201,1.129 4.375,2.836 6.522,5.121" /></g></g></g><g
       id="g114"><g
         clip-path="url(#clipPath120)"
         id="g116"><g
           transform="translate(800.0675,637.956)"
           id="g122"><path
             id="path124"
             style="fill:#d01e25;fill-opacity:1;fill-rule:nonzero;stroke:none"
             d="m 0,0 c 11.341,0 21.002,-3.993 28.989,-11.976 7.983,-7.985 11.976,-17.649 11.976,-28.988 0,-11.494 -3.993,-21.232 -11.976,-29.214 C 21.002,-78.163 11.341,-82.154 0,-82.154 c -11.342,0 -21.007,3.991 -28.99,11.976 -7.983,7.982 -11.976,17.647 -11.976,28.99 0,11.193 4.106,20.853 12.313,28.989 C -20.446,-4.068 -10.896,0 0,0" /></g></g></g></g></svg>