<?xml version="1.0" encoding="UTF-8" standalone="no"?>
<!-- Created with Inkscape (http://www.inkscape.org/) -->

<svg
   xmlns:dc="http://purl.org/dc/elements/1.1/"
   xmlns:cc="http://creativecommons.org/ns#"
   xmlns:rdf="http://www.w3.org/1999/02/22-rdf-syntax-ns#"
   xmlns:svg="http://www.w3.org/2000/svg"
   xmlns="http://www.w3.org/2000/svg"
   xmlns:sodipodi="http://sodipodi.sourceforge.net/DTD/sodipodi-0.dtd"
   xmlns:inkscape="http://www.inkscape.org/namespaces/inkscape"
   width="62.162415mm"
   height="48.748104mm"
   viewBox="0 0 220.26052 172.7295"
   id="svg4942"
   version="1.1"
   inkscape:version="0.92.3 (2405546, 2018-03-11)"
   sodipodi:docname="dgi simple.mod.svg">
  <defs
     id="defs4944" />
  <sodipodi:namedview
     id="base"
     pagecolor="#ffffff"
     bordercolor="#666666"
     borderopacity="1.0"
     inkscape:pageopacity="0.0"
     inkscape:pageshadow="2"
     inkscape:zoom="1.4"
     inkscape:cx="-78.268448"
     inkscape:cy="-50.756728"
     inkscape:document-units="px"
     inkscape:current-layer="g4164"
     showgrid="false"
     inkscape:window-width="1769"
     inkscape:window-height="1057"
     inkscape:window-x="-8"
     inkscape:window-y="1072"
     inkscape:window-maximized="1"
     fit-margin-top="5"
     fit-margin-left="5"
     fit-margin-right="5"
     fit-margin-bottom="5" />
  <metadata
     id="metadata4947">
    <rdf:RDF>
      <cc:Work
         rdf:about="">
        <dc:format>image/svg+xml</dc:format>
        <dc:type
           rdf:resource="http://purl.org/dc/dcmitype/StillImage" />
        <dc:title></dc:title>
      </cc:Work>
    </rdf:RDF>
  </metadata>
  <g
     inkscape:label="Layer 1"
     inkscape:groupmode="layer"
     id="layer1"
     transform="translate(-261.91697,-439.81634)">
    <g
       id="g4164">
      <path
         inkscape:connector-curvature="0"
         id="path8232"
         d="m 280.53241,554.17437 h 69.28571"
         style="fill:#000000;fill-rule:evenodd;stroke:#000000;stroke-width:6;stroke-linecap:butt;stroke-linejoin:miter;stroke-miterlimit:4;stroke-dasharray:none;stroke-opacity:1" />
      <path
         inkscape:connector-curvature="0"
         id="path8232-6"
         d="m 423.32827,554.17437 h 41.1327"
         style="fill:#000000;fill-rule:evenodd;stroke:#000000;stroke-width:6;stroke-linecap:butt;stroke-linejoin:miter;stroke-miterlimit:4;stroke-dasharray:none;stroke-opacity:1" />
      <g
         transform="translate(148.03241,324.56216)"
         id="g8804">
        <g
           style="font-style:normal;font-variant:normal;font-weight:600;font-stretch:normal;font-size:120px;line-height:125%;font-family:'Bookman Old Style';-inkscape-font-specification:'Bookman Old Style, Semi-Bold';text-align:start;letter-spacing:0px;word-spacing:0px;writing-mode:lr-tb;text-anchor:start;fill:#000000;fill-opacity:1;stroke:none;stroke-width:1px;stroke-linecap:butt;stroke-linejoin:miter;stroke-opacity:1"
           id="text8226">
          <path
             d="m 191.48392,132.97072 v 68.14453 q 0,4.04297 0.35156,4.92187 0.35156,0.82032 1.17187,1.23047 0.87891,0.41016 4.51172,0.41016 h 2.75391 v 11.30859 l -25.42969,0.87891 v -6.03516 q -5.50781,3.69141 -9.66797,5.15625 -4.16015,1.40625 -8.32031,1.40625 -6.73828,0 -12.42187,-3.63281 -5.625,-3.69141 -9.25782,-10.89844 -3.57422,-7.20703 -3.57422,-15.99609 0,-8.90625 3.63282,-16.11328 3.6914,-7.26563 9.55078,-10.95703 5.91797,-3.69141 13.18359,-3.69141 3.75,0 7.14844,0.9375 3.45703,0.87891 7.61719,3.16406 v -13.88672 h -8.55469 v -11.36718 q 7.26562,-0.70313 11.77734,-1.75782 4.57032,-1.11328 9.84375,-3.22265 z m -18.75,69.25781 v -19.62891 q 0,-3.6914 -0.52735,-5.21484 -0.70312,-2.16797 -3.22265,-3.80859 -2.46094,-1.64063 -5.50782,-1.64063 -3.16406,0 -5.85937,1.9336 -2.69531,1.875 -4.27734,5.80078 -1.58204,3.92578 -1.58204,9.78515 0,8.14453 3.57422,13.06641 2.75391,3.86719 7.32422,3.86719 1.99219,0 3.8086,-0.64453 1.8164,-0.70313 6.26953,-3.51563 z"
             id="path8794"
             inkscape:connector-curvature="0" />
          <path
             d="m 252.77298,163.90822 q 3.10547,-4.39453 6.21094,-6.21094 3.10547,-1.875 6.5625,-1.875 3.45703,0 5.44922,2.05078 1.99218,1.99219 1.99218,5.15625 0,2.8711 -1.93359,4.80469 -1.875,1.875 -4.6875,1.875 l -1.93359,-0.0586 -1.99219,-0.0586 q -1.58203,0 -3.16406,1.17188 3.22265,5.33203 3.22265,10.19531 0,5.15625 -3.22265,10.01953 -3.16407,4.86328 -8.84766,7.55859 -5.625,2.69532 -13.53516,2.69532 -2.28515,0 -4.6289,-0.23438 -2.28516,-0.29297 -4.62891,-0.82031 -1.58203,0.99609 -2.40234,1.93359 -0.82032,0.9375 -0.82032,1.75782 0,1.8164 3.75,2.34375 l 24.25782,3.45703 q 10.83984,1.52343 15.64453,5.80078 4.80469,4.33594 4.80469,10.3125 0,5.27344 -3.63282,9.72656 -3.63281,4.51172 -11.89453,7.38281 -8.20312,2.8711 -20.74219,2.8711 -11.01562,0 -18.22265,-2.16797 -7.20703,-2.10938 -10.25391,-5.39063 -2.98828,-3.22265 -2.98828,-6.15234 0,-3.33984 2.22656,-6.03516 2.28516,-2.63672 9.31641,-6.09375 -4.33594,-1.58203 -6.50391,-3.86718 -2.92968,-3.04688 -2.92968,-6.26954 0,-3.51562 2.69531,-6.91406 2.7539,-3.39844 8.20312,-6.73828 -3.04687,-1.875 -4.80468,-4.04297 -1.69922,-2.22656 -2.8125,-5.39062 -1.05469,-3.16407 -1.05469,-6.50391 0,-8.78906 7.14844,-14.94141 7.20703,-6.15234 18.92578,-6.15234 5.21484,0 9.49218,1.23047 4.33594,1.17187 7.73438,3.57422 z m -16.64063,6.38672 q -3.75,0 -6.21093,2.7539 -2.40235,2.75391 -2.40235,7.44141 0,4.33594 2.34375,6.91406 2.34375,2.57813 6.03516,2.57813 3.63281,0 6.03516,-2.63672 2.46093,-2.69531 2.46093,-6.91406 0,-4.6875 -2.34375,-7.38282 -2.28515,-2.7539 -5.91797,-2.7539 z m -8.49609,52.4414 q -3.10547,2.40235 -3.98437,3.63282 -0.82032,1.28906 -0.82032,2.8125 0,2.87109 4.6875,4.45312 4.6875,1.64063 12.01172,1.64063 5.33203,0 9.4336,-0.9375 4.10156,-0.9375 5.44921,-2.28516 0.87891,-0.87891 0.87891,-2.40234 0,-1.69922 -1.75781,-2.8711 -1.75781,-1.11328 -8.4961,-1.93359 z"
             id="path8796"
             inkscape:connector-curvature="0" />
          <path
             style="fill:#ff0000"
             d="m 295.25345,132.97072 q 4.45312,0 7.55859,3.16406 3.16406,3.10547 3.16406,7.55859 0,4.51172 -3.16406,7.67579 -3.10547,3.10546 -7.55859,3.10546 -4.45313,0 -7.61719,-3.10546 -3.10547,-3.16407 -3.10547,-7.61719 0,-4.39453 3.22266,-7.5586 3.22265,-3.22265 7.5,-3.22265 z"
             id="path8802"
             inkscape:connector-curvature="0" />
          <path
             d="m 304.74564,159.10353 v 43.30078 q 0,3.10547 0.35156,3.8086 0.35156,0.70312 1.23047,1.11328 0.9375,0.35156 4.10156,0.35156 h 3.16406 v 11.30859 h -36.21094 v -11.30859 h 3.10547 q 3.04688,0 3.86719,-0.29297 0.87891,-0.35156 1.28906,-1.11328 0.41016,-0.76172 0.41016,-3.04688 v -27.94921 h -8.67188 v -11.01563 q 4.62891,-0.23437 8.84766,-0.99609 4.27734,-0.76172 7.61719,-1.81641 2.16797,-0.70312 5.33203,-2.34375 z"
             id="path8798"
             inkscape:connector-curvature="0" />
        </g>
      </g>
      <g
         aria-label="Digital Gold Institute"
         transform="scale(0.95559473,1.0464687)"
         style="font-style:normal;font-variant:normal;font-weight:600;font-stretch:normal;line-height:0%;font-family:'Bookman Old Style';-inkscape-font-specification:'Bookman Old Style, Semi-Bold';text-align:start;letter-spacing:0px;word-spacing:0px;writing-mode:lr-tb;text-anchor:start;fill:#000000;fill-opacity:1;stroke:none;stroke-width:1px;stroke-linecap:butt;stroke-linejoin:miter;stroke-opacity:1"
         id="text4158">
        <path
           d="m 293.5684,552.78671 h 6.16892 q 2.10132,0 3.34185,0.66668 1.24054,0.66669 1.97473,1.97474 0.74264,1.30804 0.74264,3.13931 0,1.27429 -0.37976,2.27853 -0.37132,1.00425 -1.11395,1.81439 -0.74263,0.80171 -1.59498,1.20678 -0.64136,0.30381 -1.82282,0.49791 -1.17303,0.19409 -1.8819,0.19409 h -5.43473 v -1.62873 h 0.40507 q 0.51478,0 0.67512,-0.0844 0.16034,-0.0844 0.26161,-0.28692 0.0675,-0.16035 0.0675,-0.70044 v -6.43053 q 0,-0.5401 -0.0759,-0.692 -0.0675,-0.16035 -0.23629,-0.2363 -0.16034,-0.0844 -0.692,-0.0844 h -0.40507 z m 4.3039,1.89034 v 7.31663 q 0,0.37132 0.0422,0.45571 0.0675,0.12658 0.1941,0.17722 0.13502,0.0422 0.63293,0.0422 1.384,0 2.16038,-0.42195 0.78483,-0.43039 1.26586,-1.36712 0.48102,-0.94517 0.48102,-2.24478 0,-1.28273 -0.45571,-2.2279 -0.44726,-0.95361 -1.11395,-1.3418 -0.66668,-0.3882 -1.90721,-0.3882 z"
           style=""
           id="path824" />
        <path
           d="m 309.63629,552.17066 q 0.64136,0 1.08863,0.45571 0.45571,0.44727 0.45571,1.08863 0,0.64981 -0.45571,1.10552 -0.44727,0.44726 -1.08863,0.44726 -0.64137,0 -1.09707,-0.44726 -0.44727,-0.45571 -0.44727,-1.09708 0,-0.63292 0.46414,-1.08863 0.46415,-0.46415 1.0802,-0.46415 z m 1.36712,3.76381 v 6.23643 q 0,0.44727 0.0506,0.54854 0.0506,0.10127 0.17722,0.16034 0.13503,0.0506 0.59074,0.0506 h 0.4557 v 1.62873 h -5.21531 v -1.62873 h 0.44727 q 0.43883,0 0.55697,-0.0422 0.12659,-0.0506 0.18566,-0.16034 0.0591,-0.10971 0.0591,-0.43883 v -4.02541 h -1.24897 v -1.58654 q 0.66668,-0.0338 1.27429,-0.14346 0.61605,-0.10971 1.09707,-0.26161 0.31225,-0.10127 0.76795,-0.33756 z"
           style=""
           id="path826" />
        <path
           d="m 319.75467,556.62647 q 0.44727,-0.63293 0.89454,-0.89454 0.44727,-0.27005 0.94517,-0.27005 0.4979,0 0.78483,0.29537 0.28692,0.28692 0.28692,0.74263 0,0.41351 -0.27848,0.692 -0.27005,0.27005 -0.67513,0.27005 l -0.27848,-0.008 -0.28693,-0.008 q -0.22785,0 -0.45571,0.16878 0.46415,0.76795 0.46415,1.46839 0,0.74263 -0.46415,1.44307 -0.4557,0.70044 -1.27429,1.08864 -0.81014,0.38819 -1.94941,0.38819 -0.32912,0 -0.66668,-0.0338 -0.32913,-0.0422 -0.66669,-0.11814 -0.22785,0.14346 -0.346,0.27849 -0.11814,0.13502 -0.11814,0.25317 0,0.26161 0.54009,0.33756 l 3.49376,0.4979 q 1.56122,0.21941 2.25322,0.83546 0.69199,0.62449 0.69199,1.48527 0,0.75951 -0.52321,1.40088 -0.52322,0.6498 -1.71313,1.06331 -1.18146,0.41351 -2.98741,0.41351 -1.58653,0 -2.62453,-0.31224 -1.038,-0.3038 -1.47683,-0.77639 -0.43039,-0.46414 -0.43039,-0.8861 0,-0.48102 0.32068,-0.86921 0.32912,-0.37976 1.34181,-0.87766 -0.62449,-0.22786 -0.93673,-0.55698 -0.42196,-0.43883 -0.42196,-0.90297 0,-0.50634 0.3882,-0.99581 0.39663,-0.48946 1.18146,-0.97048 -0.43883,-0.27005 -0.692,-0.5823 -0.24473,-0.32068 -0.40507,-0.77639 -0.1519,-0.4557 -0.1519,-0.93673 0,-1.26585 1.02956,-2.15195 1.038,-0.88609 2.7258,-0.88609 0.75107,0 1.36712,0.17722 0.62449,0.16878 1.11395,0.51478 z m -2.39668,0.91985 q -0.5401,0 -0.89454,0.39663 -0.346,0.39664 -0.346,1.07176 0,0.62449 0.33757,0.9958 0.33756,0.37132 0.86921,0.37132 0.52322,0 0.86922,-0.37976 0.35444,-0.38819 0.35444,-0.9958 0,-0.67512 -0.33756,-1.06332 -0.32912,-0.39663 -0.85234,-0.39663 z m -1.22366,7.55292 q -0.44727,0.346 -0.57385,0.52322 -0.11815,0.18566 -0.11815,0.40507 0,0.41351 0.67512,0.64137 0.67513,0.23629 1.73,0.23629 0.76795,0 1.35869,-0.13502 0.59073,-0.13503 0.78482,-0.32913 0.12659,-0.12658 0.12659,-0.346 0,-0.24473 -0.25317,-0.41351 -0.25317,-0.16034 -1.22366,-0.27849 z"
           style=""
           id="path828" />
        <path
           d="m 325.87296,552.17066 q 0.64137,0 1.08863,0.45571 0.45571,0.44727 0.45571,1.08863 0,0.64981 -0.45571,1.10552 -0.44726,0.44726 -1.08863,0.44726 -0.64136,0 -1.09707,-0.44726 -0.44727,-0.45571 -0.44727,-1.09708 0,-0.63292 0.46415,-1.08863 0.46414,-0.46415 1.08019,-0.46415 z m 1.36712,3.76381 v 6.23643 q 0,0.44727 0.0506,0.54854 0.0506,0.10127 0.17722,0.16034 0.13502,0.0506 0.59073,0.0506 h 0.4557 v 1.62873 h -5.21531 v -1.62873 h 0.44727 q 0.43883,0 0.55697,-0.0422 0.12659,-0.0506 0.18566,-0.16034 0.0591,-0.10971 0.0591,-0.43883 v -4.02541 h -1.24897 v -1.58654 q 0.66668,-0.0338 1.27429,-0.14346 0.61605,-0.10971 1.09707,-0.26161 0.31225,-0.10127 0.76795,-0.33756 z"
           style=""
           id="path830" />
        <path
           d="m 333.28242,553.24242 v 2.89458 h 2.71736 v 1.79751 h -2.71736 v 2.93678 q 0,0.99581 0.10127,1.28273 0.1097,0.27849 0.39663,0.44727 0.37976,0.22785 0.86922,0.22785 0.86922,0 1.73,-0.56541 v 1.80595 q -0.7342,0.346 -1.33337,0.48946 -0.59073,0.13503 -1.28273,0.13503 -0.78483,0 -1.39244,-0.1941 -0.59917,-0.20254 -1.02956,-0.56541 -0.42195,-0.37132 -0.59073,-0.78483 -0.16034,-0.41351 -0.16034,-1.19834 v -4.01698 h -1.26585 v -1.62029 q 0.67512,-0.21941 1.15614,-0.62449 0.48103,-0.41351 0.76795,-0.98736 0.29537,-0.57385 0.40508,-1.45995 z"
           style=""
           id="path832" />
        <path
           d="m 342.5569,559.45354 v -0.62449 q 0,-0.55698 -0.0928,-0.76795 -0.0928,-0.21098 -0.33756,-0.346 -0.24473,-0.14346 -0.60761,-0.14346 -0.27849,0 -0.50634,0.0928 -0.22785,0.0928 -0.36288,0.23629 -0.13502,0.14346 -0.31224,0.55697 -0.22785,0.52322 -0.54854,0.75108 -0.31224,0.22785 -0.74263,0.22785 -0.5401,0 -0.8861,-0.33756 -0.346,-0.33756 -0.346,-0.83546 0,-0.56542 0.35444,-1.00425 0.47259,-0.58229 1.40932,-0.95361 0.93673,-0.37131 2.10975,-0.37131 1.17303,0 1.99161,0.37975 0.82702,0.37976 1.14771,0.91142 0.32912,0.52322 0.32912,1.60341 v 3.02117 q 0,0.55697 0.0591,0.71731 0.0591,0.15191 0.25317,0.27005 0.1941,0.11815 0.43039,0.11815 0.23629,0 0.63293,-0.13502 v 1.6456 q -0.71732,0.22786 -1.37556,0.22786 -0.77639,0 -1.32493,-0.25317 -0.54853,-0.25317 -0.91985,-0.75951 -0.8439,0.54853 -1.5359,0.78482 -0.68356,0.22786 -1.32493,0.22786 -1.20678,0 -1.94941,-0.67512 -0.74263,-0.68356 -0.74263,-1.67937 0,-0.56541 0.25317,-1.038 0.26161,-0.47258 0.76795,-0.82702 0.51478,-0.35444 1.57809,-0.62449 1.07176,-0.27849 2.59922,-0.39663 z m 0,1.40087 q -1.10551,0.16035 -1.56122,0.32913 -0.4557,0.16034 -0.6498,0.41351 -0.1941,0.24473 -0.1941,0.50634 0,0.33756 0.25317,0.56541 0.25317,0.22786 0.68356,0.22786 0.27849,0 0.64137,-0.14347 0.37131,-0.14346 0.82702,-0.42195 z"
           style=""
           id="path834" />
        <path
           d="m 351.25753,552.17066 v 9.87366 q 0,0.4979 0.0422,0.59073 0.0591,0.16878 0.26161,0.24473 0.12659,0.0506 0.68356,0.0506 h 0.29537 v 1.62873 h -5.22375 v -1.62873 h 0.32068 q 0.50634,0 0.6498,-0.0591 0.14347,-0.0675 0.21098,-0.20254 0.0675,-0.14346 0.0675,-0.62448 v -7.52761 h -1.24897 v -1.63717 q 1.51058,-0.10127 3.12243,-0.70888 z"
           style=""
           id="path836" />
        <path
           d="m 366.16927,558.28051 h 5.74697 v 1.64561 h -0.43039 q -0.42195,0 -0.58229,0.076 -0.1519,0.076 -0.22785,0.24473 -0.0759,0.16035 -0.0759,0.62449 v 3.68785 h -1.73 l -0.44727,-0.8439 q -0.79327,0.52322 -1.64561,0.78483 -0.85234,0.26161 -1.77219,0.26161 -1.61185,0 -2.93678,-0.78483 -1.32493,-0.78483 -2.10132,-2.19414 -0.76795,-1.40932 -0.76795,-3.1562 0,-1.73 0.75952,-3.09712 0.76795,-1.36712 2.13507,-2.15195 1.37556,-0.79326 2.97897,-0.79326 0.77639,0 1.54434,0.20253 0.77639,0.1941 1.32493,0.52322 l 0.31224,-0.52322 h 1.18146 l 1.06332,3.89883 -1.55278,0.50634 q -0.79327,-1.28273 -1.25741,-1.74688 -0.45571,-0.46414 -1.05488,-0.72575 -0.59073,-0.26161 -1.15615,-0.26161 -0.8017,0 -1.50214,0.46414 -0.692,0.46415 -1.09707,1.35869 -0.40508,0.88609 -0.40508,2.15195 0,1.39243 0.43883,2.41355 0.44727,1.02113 1.16459,1.51903 0.71731,0.48946 1.57809,0.48946 0.60761,0 1.14771,-0.24473 0.54854,-0.24473 0.75107,-0.54854 0.20254,-0.3038 0.20254,-0.81858 v -0.43039 q 0,-0.44727 -0.0591,-0.56542 -0.0928,-0.16878 -0.25317,-0.24473 -0.15191,-0.076 -0.60761,-0.076 h -0.66669 z"
           style=""
           id="path838" />
        <path
           d="m 377.38473,555.93447 q 1.44307,0 2.51483,0.56541 1.07175,0.56541 1.64561,1.54434 0.58229,0.97049 0.58229,2.27854 0,1.97473 -1.28273,3.20682 -1.28273,1.2321 -3.42624,1.2321 -2.18571,0 -3.47688,-1.24054 -1.24898,-1.18146 -1.24898,-3.19838 0,-1.32493 0.56542,-2.27854 0.57385,-0.95361 1.65405,-1.52746 1.08019,-0.58229 2.47263,-0.58229 z m 0.0338,1.84814 q -0.48103,0 -0.90298,0.28693 -0.42195,0.28692 -0.65824,0.8439 -0.22786,0.55697 -0.22786,1.41775 0,0.8861 0.22786,1.46839 0.22785,0.5823 0.62448,0.86078 0.40508,0.27849 0.8861,0.27849 0.74263,0 1.27429,-0.62449 0.53166,-0.63292 0.53166,-1.95785 0,-1.28273 -0.4979,-1.92409 -0.48946,-0.64981 -1.25741,-0.64981 z"
           style=""
           id="path840" />
        <path
           d="m 387.20774,552.17066 v 9.87366 q 0,0.4979 0.0422,0.59073 0.0591,0.16878 0.26161,0.24473 0.12658,0.0506 0.68356,0.0506 h 0.29536 v 1.62873 h -5.22375 v -1.62873 h 0.32068 q 0.50635,0 0.64981,-0.0591 0.14346,-0.0675 0.21097,-0.20254 0.0675,-0.14346 0.0675,-0.62448 v -7.52761 h -1.24898 v -1.63717 q 1.51059,-0.10127 3.12244,-0.70888 z"
           style=""
           id="path842" />
        <path
           d="m 398.05188,552.17066 v 9.81458 q 0,0.58229 0.0506,0.70888 0.0506,0.11815 0.16878,0.17722 0.12658,0.0591 0.6498,0.0591 h 0.39664 v 1.62873 l -3.66254,0.12659 v -0.86922 q -0.79327,0.53166 -1.39244,0.74263 -0.59917,0.20254 -1.19834,0.20254 -0.97048,0 -1.78907,-0.52322 -0.81014,-0.53166 -1.33336,-1.56966 -0.51478,-1.038 -0.51478,-2.30385 0,-1.28273 0.52322,-2.32073 0.53165,-1.04644 1.37556,-1.5781 0.85234,-0.53165 1.89877,-0.53165 0.5401,0 1.02957,0.13502 0.4979,0.12659 1.09707,0.45571 v -2.00005 h -1.2321 v -1.63717 q 1.04644,-0.10127 1.69624,-0.25317 0.65825,-0.16034 1.41776,-0.46415 z m -2.70048,9.97492 v -2.82707 q 0,-0.53166 -0.076,-0.75107 -0.10127,-0.31224 -0.46415,-0.54854 -0.35444,-0.23629 -0.79327,-0.23629 -0.4557,0 -0.8439,0.27849 -0.38819,0.27005 -0.61605,0.83546 -0.22785,0.56542 -0.22785,1.40932 0,1.17302 0.51478,1.8819 0.39663,0.55697 1.05488,0.55697 0.28692,0 0.54853,-0.0928 0.26161,-0.10126 0.90298,-0.50634 z"
           style=""
           id="path844" />
        <path
           d="m 406.19554,552.78671 h 5.73853 v 1.62873 h -0.52322 q -0.45571,0 -0.60761,0.0844 -0.14346,0.076 -0.21941,0.25317 -0.0675,0.16878 -0.0675,0.65825 v 6.51492 q 0,0.53166 0.0591,0.68356 0.0591,0.1519 0.20253,0.21941 0.17722,0.10127 0.53166,0.10127 h 0.62449 v 1.62873 h -5.73853 v -1.62873 h 0.46414 q 0.4979,0 0.64981,-0.0675 0.1519,-0.0759 0.21941,-0.22785 0.0759,-0.16034 0.0759,-0.62449 v -6.54024 q 0,-0.54854 -0.0759,-0.71732 -0.0675,-0.17722 -0.23629,-0.27004 -0.11815,-0.0675 -0.57385,-0.0675 h -0.52322 z"
           style=""
           id="path846" />
        <path
           d="m 416.92153,555.93447 v 1.12239 q 0.95361,-0.64981 1.62873,-0.8861 0.68356,-0.23629 1.39244,-0.23629 0.81859,0 1.44307,0.346 0.63293,0.346 0.91986,0.86921 0.28692,0.51479 0.28692,1.46839 v 3.51064 q 0,0.44726 0.0591,0.57385 0.0675,0.12658 0.20253,0.18566 0.10127,0.0422 0.60761,0.0422 h 0.41351 v 1.62873 h -4.9537 v -1.62873 q 0.56541,-0.008 0.63293,-0.0253 0.21097,-0.0591 0.27848,-0.1941 0.0675,-0.13503 0.0675,-0.58229 v -3.09712 q 0,-0.59917 -0.12659,-0.77639 -0.20254,-0.29537 -0.64137,-0.29537 -0.36287,0 -0.77639,0.16034 -0.41351,0.16034 -1.11395,0.65825 v 3.35029 q 0,0.54853 0.11815,0.67512 0.11815,0.12658 0.56541,0.12658 h 0.27005 v 1.62873 h -4.90307 v -1.62873 h 0.24474 q 0.58229,0 0.71731,-0.0506 0.14347,-0.0506 0.21098,-0.17722 0.0759,-0.12659 0.0759,-0.4979 v -3.93259 h -1.24898 v -1.62873 q 1.51903,-0.18565 2.84395,-0.70887 z"
           style=""
           id="path848" />
        <path
           d="m 430.64337,556.137 h 1.10551 l 0.68356,2.34605 -1.59497,0.64137 q -0.45571,-0.7342 -1.14771,-1.14771 -0.68356,-0.42195 -1.35868,-0.42195 -0.44727,0 -0.66668,0.1519 -0.21942,0.1519 -0.21942,0.36288 0,0.17722 0.1519,0.32912 0.16035,0.1519 0.64981,0.32068 l 2.32073,0.82703 q 0.61605,0.21941 1.18146,0.54853 0.56542,0.32912 0.8439,0.81015 0.28693,0.47258 0.28693,1.11395 0,1.14771 -0.87766,1.8819 -1.02956,0.86078 -2.56546,0.86078 -1.31649,0 -2.29541,-0.66668 l -0.23629,0.46414 h -1.12239 l -1.038,-2.76799 1.59497,-0.67513 q 0.59917,0.93673 1.47683,1.47683 0.87766,0.53166 1.61185,0.53166 0.45571,0 0.76795,-0.21098 0.2363,-0.16878 0.2363,-0.39663 0,-0.1941 -0.18566,-0.37132 -0.18566,-0.17722 -0.81859,-0.39663 l -1.82283,-0.63293 q -1.51058,-0.53165 -2.05912,-1.13082 -0.54009,-0.60761 -0.54009,-1.43464 0,-1.06331 0.85234,-1.78907 0.97048,-0.82702 2.39668,-0.82702 1.26585,0 2.16883,0.57385 z"
           style=""
           id="path850" />
        <path
           d="m 437.68996,553.24242 v 2.89458 h 2.71737 v 1.79751 h -2.71737 v 2.93678 q 0,0.99581 0.10127,1.28273 0.10971,0.27849 0.39663,0.44727 0.37976,0.22785 0.86922,0.22785 0.86922,0 1.73,-0.56541 v 1.80595 q -0.73419,0.346 -1.33336,0.48946 -0.59074,0.13503 -1.28273,0.13503 -0.78483,0 -1.39244,-0.1941 -0.59917,-0.20254 -1.02956,-0.56541 -0.42195,-0.37132 -0.59073,-0.78483 -0.16035,-0.41351 -0.16035,-1.19834 v -4.01698 h -1.26585 v -1.62029 q 0.67512,-0.21941 1.15615,-0.62449 0.48102,-0.41351 0.76795,-0.98736 0.29536,-0.57385 0.40507,-1.45995 z"
           style=""
           id="path852" />
        <path
           d="m 444.45805,552.17066 q 0.64137,0 1.08863,0.45571 0.45571,0.44727 0.45571,1.08863 0,0.64981 -0.45571,1.10552 -0.44726,0.44726 -1.08863,0.44726 -0.64136,0 -1.09707,-0.44726 -0.44727,-0.45571 -0.44727,-1.09708 0,-0.63292 0.46415,-1.08863 0.46414,-0.46415 1.08019,-0.46415 z m 1.36712,3.76381 v 6.23643 q 0,0.44727 0.0506,0.54854 0.0506,0.10127 0.17722,0.16034 0.13502,0.0506 0.59073,0.0506 h 0.4557 v 1.62873 h -5.21531 v -1.62873 h 0.44727 q 0.43883,0 0.55697,-0.0422 0.12659,-0.0506 0.18566,-0.16034 0.0591,-0.10971 0.0591,-0.43883 v -4.02541 h -1.24898 v -1.58654 q 0.66668,-0.0338 1.27429,-0.14346 0.61605,-0.10971 1.09707,-0.26161 0.31225,-0.10127 0.76796,-0.33756 z"
           style=""
           id="path854" />
        <path
           d="m 451.86751,553.24242 v 2.89458 h 2.71737 v 1.79751 h -2.71737 v 2.93678 q 0,0.99581 0.10127,1.28273 0.10971,0.27849 0.39663,0.44727 0.37976,0.22785 0.86922,0.22785 0.86922,0 1.73,-0.56541 v 1.80595 q -0.73419,0.346 -1.33336,0.48946 -0.59073,0.13503 -1.28273,0.13503 -0.78483,0 -1.39244,-0.1941 -0.59917,-0.20254 -1.02956,-0.56541 -0.42195,-0.37132 -0.59073,-0.78483 -0.16034,-0.41351 -0.16034,-1.19834 v -4.01698 h -1.26586 v -1.62029 q 0.67512,-0.21941 1.15615,-0.62449 0.48102,-0.41351 0.76795,-0.98736 0.29536,-0.57385 0.40507,-1.45995 z"
           style=""
           id="path856" />
        <path
           d="m 455.84229,556.137 3.94102,-0.0759 v 5.47692 q 0,0.5823 0.0675,0.77639 0.0759,0.1941 0.26161,0.32069 0.1941,0.11814 0.48102,0.11814 0.42196,0 0.89454,-0.20253 0.18566,-0.0844 0.98737,-0.59917 v -3.29122 q 0,-0.43039 -0.0675,-0.59073 -0.0675,-0.16034 -0.19409,-0.22786 -0.12659,-0.076 -0.48947,-0.076 h -0.48946 V 556.137 l 3.94946,-0.0759 v 6.04234 q 0,0.47258 0.0506,0.59917 0.0591,0.11815 0.17722,0.17722 0.12659,0.0506 0.59074,0.0506 h 0.44726 v 1.62873 l -3.70473,0.10127 v -0.9958 q -0.74263,0.54853 -1.4937,0.82702 -0.75107,0.27005 -1.51059,0.27005 -0.60761,0 -1.12239,-0.20254 -0.50634,-0.19409 -0.85234,-0.52322 -0.346,-0.33756 -0.51478,-0.78482 -0.16878,-0.44727 -0.16878,-1.14771 v -3.47688 q 0,-0.48102 -0.0591,-0.60761 -0.0506,-0.12658 -0.17722,-0.18565 -0.12658,-0.0675 -0.5401,-0.0675 h -0.46414 z"
           style=""
           id="path858" />
        <path
           d="m 471.24349,553.24242 v 2.89458 h 2.71736 v 1.79751 h -2.71736 v 2.93678 q 0,0.99581 0.10127,1.28273 0.1097,0.27849 0.39663,0.44727 0.37976,0.22785 0.86922,0.22785 0.86922,0 1.73,-0.56541 v 1.80595 q -0.7342,0.346 -1.33337,0.48946 -0.59073,0.13503 -1.28273,0.13503 -0.78483,0 -1.39243,-0.1941 -0.59918,-0.20254 -1.02957,-0.56541 -0.42195,-0.37132 -0.59073,-0.78483 -0.16034,-0.41351 -0.16034,-1.19834 v -4.01698 h -1.26585 v -1.62029 q 0.67512,-0.21941 1.15614,-0.62449 0.48103,-0.41351 0.76796,-0.98736 0.29536,-0.57385 0.40507,-1.45995 z"
           style=""
           id="path860" />
        <path
           d="m 483.04967,561.43671 1.15615,1.16458 q -0.99581,1.13927 -2.0338,1.65405 -1.02957,0.50634 -2.22791,0.50634 -1.92409,0 -3.24058,-1.29961 -1.31649,-1.30805 -1.31649,-3.15619 0,-1.21522 0.59074,-2.21946 0.59073,-1.01269 1.63717,-1.5781 1.04643,-0.57385 2.37136,-0.57385 0.8439,0 1.5359,0.24473 0.692,0.24473 1.20678,0.70044 0.52322,0.4557 0.83546,1.10551 0.32069,0.64136 0.43883,1.33336 0.0506,0.346 0.0506,1.09708 h -5.67946 q 0.0169,1.07175 0.62448,1.73843 0.61605,0.65825 1.50215,0.65825 0.56541,0 1.2321,-0.33756 0.66668,-0.346 1.31648,-1.038 z m -1.6878,-2.43888 q -0.0591,-0.50634 -0.24473,-0.79327 -0.17722,-0.29536 -0.48947,-0.46414 -0.3038,-0.17722 -0.64136,-0.17722 -0.35444,0 -0.68356,0.17722 -0.32912,0.17722 -0.53166,0.48102 -0.1941,0.3038 -0.25317,0.77639 z"
           style=""
           id="path862" />
      </g>
    </g>
  </g>
</svg>
