<?xml version="1.0" encoding="UTF-8" standalone="no"?>
<!-- Created with Inkscape (http://www.inkscape.org/) -->

<svg
   xmlns:dc="http://purl.org/dc/elements/1.1/"
   xmlns:cc="http://creativecommons.org/ns#"
   xmlns:rdf="http://www.w3.org/1999/02/22-rdf-syntax-ns#"
   xmlns:svg="http://www.w3.org/2000/svg"
   xmlns="http://www.w3.org/2000/svg"
   xmlns:sodipodi="http://sodipodi.sourceforge.net/DTD/sodipodi-0.dtd"
   xmlns:inkscape="http://www.inkscape.org/namespaces/inkscape"
   width="99.724113mm"
   height="48.100002mm"
   viewBox="0 0 353.35316 170.43308"
   id="svg9168"
   version="1.1"
   inkscape:version="0.92.3 (2405546, 2018-03-11)"
   sodipodi:docname="dgi hor square.mod.svg">
  <defs
     id="defs9170" />
  <sodipodi:namedview
     id="base"
     pagecolor="#ffffff"
     bordercolor="#666666"
     borderopacity="1.0"
     inkscape:pageopacity="0.0"
     inkscape:pageshadow="2"
     inkscape:zoom="2.8"
     inkscape:cx="192.33269"
     inkscape:cy="93.175656"
     inkscape:document-units="px"
     inkscape:current-layer="g4194"
     showgrid="false"
     inkscape:window-width="1769"
     inkscape:window-height="1057"
     inkscape:window-x="-8"
     inkscape:window-y="1072"
     inkscape:window-maximized="1"
     fit-margin-top="5"
     fit-margin-left="5"
     fit-margin-right="5"
     fit-margin-bottom="5" />
  <metadata
     id="metadata9173">
    <rdf:RDF>
      <cc:Work
         rdf:about="">
        <dc:format>image/svg+xml</dc:format>
        <dc:type
           rdf:resource="http://purl.org/dc/dcmitype/StillImage" />
        <dc:title></dc:title>
      </cc:Work>
    </rdf:RDF>
  </metadata>
  <g
     inkscape:label="Layer 1"
     inkscape:groupmode="layer"
     id="layer1"
     transform="translate(-195.37067,-440.96457)">
    <g
       id="g4194">
      <g
         id="g8804-0-8"
         transform="translate(94.5545,342.43512)">
        <g
           style="font-style:normal;font-variant:normal;font-weight:600;font-stretch:normal;font-size:120px;line-height:125%;font-family:'Bookman Old Style';-inkscape-font-specification:'Bookman Old Style, Semi-Bold';text-align:start;letter-spacing:0px;word-spacing:0px;writing-mode:lr-tb;text-anchor:start;fill:#000000;fill-opacity:1;stroke:none;stroke-width:1px;stroke-linecap:butt;stroke-linejoin:miter;stroke-opacity:1"
           id="text8226-5-4">
          <path
             d="m 191.48392,132.97072 v 68.14453 q 0,4.04297 0.35156,4.92187 0.35156,0.82032 1.17187,1.23047 0.87891,0.41016 4.51172,0.41016 h 2.75391 v 11.30859 l -25.42969,0.87891 v -6.03516 q -5.50781,3.69141 -9.66797,5.15625 -4.16015,1.40625 -8.32031,1.40625 -6.73828,0 -12.42187,-3.63281 -5.625,-3.69141 -9.25782,-10.89844 -3.57422,-7.20703 -3.57422,-15.99609 0,-8.90625 3.63282,-16.11328 3.6914,-7.26563 9.55078,-10.95703 5.91797,-3.69141 13.18359,-3.69141 3.75,0 7.14844,0.9375 3.45703,0.87891 7.61719,3.16406 v -13.88672 h -8.55469 v -11.36718 q 7.26562,-0.70313 11.77734,-1.75782 4.57032,-1.11328 9.84375,-3.22265 z m -18.75,69.25781 v -19.62891 q 0,-3.6914 -0.52735,-5.21484 -0.70312,-2.16797 -3.22265,-3.80859 -2.46094,-1.64063 -5.50782,-1.64063 -3.16406,0 -5.85937,1.9336 -2.69531,1.875 -4.27734,5.80078 -1.58204,3.92578 -1.58204,9.78515 0,8.14453 3.57422,13.06641 2.75391,3.86719 7.32422,3.86719 1.99219,0 3.8086,-0.64453 1.8164,-0.70313 6.26953,-3.51563 z"
             id="path8794-73-6"
             inkscape:connector-curvature="0" />
          <path
             d="m 252.77298,163.90822 q 3.10547,-4.39453 6.21094,-6.21094 3.10547,-1.875 6.5625,-1.875 3.45703,0 5.44922,2.05078 1.99218,1.99219 1.99218,5.15625 0,2.8711 -1.93359,4.80469 -1.875,1.875 -4.6875,1.875 l -1.93359,-0.0586 -1.99219,-0.0586 q -1.58203,0 -3.16406,1.17188 3.22265,5.33203 3.22265,10.19531 0,5.15625 -3.22265,10.01953 -3.16407,4.86328 -8.84766,7.55859 -5.625,2.69532 -13.53516,2.69532 -2.28515,0 -4.6289,-0.23438 -2.28516,-0.29297 -4.62891,-0.82031 -1.58203,0.99609 -2.40234,1.93359 -0.82032,0.9375 -0.82032,1.75782 0,1.8164 3.75,2.34375 l 24.25782,3.45703 q 10.83984,1.52343 15.64453,5.80078 4.80469,4.33594 4.80469,10.3125 0,5.27344 -3.63282,9.72656 -3.63281,4.51172 -11.89453,7.38281 -8.20312,2.8711 -20.74219,2.8711 -11.01562,0 -18.22265,-2.16797 -7.20703,-2.10938 -10.25391,-5.39063 -2.98828,-3.22265 -2.98828,-6.15234 0,-3.33984 2.22656,-6.03516 2.28516,-2.63672 9.31641,-6.09375 -4.33594,-1.58203 -6.50391,-3.86718 -2.92968,-3.04688 -2.92968,-6.26954 0,-3.51562 2.69531,-6.91406 2.7539,-3.39844 8.20312,-6.73828 -3.04687,-1.875 -4.80468,-4.04297 -1.69922,-2.22656 -2.8125,-5.39062 -1.05469,-3.16407 -1.05469,-6.50391 0,-8.78906 7.14844,-14.94141 7.20703,-6.15234 18.92578,-6.15234 5.21484,0 9.49218,1.23047 4.33594,1.17187 7.73438,3.57422 z m -16.64063,6.38672 q -3.75,0 -6.21093,2.7539 -2.40235,2.75391 -2.40235,7.44141 0,4.33594 2.34375,6.91406 2.34375,2.57813 6.03516,2.57813 3.63281,0 6.03516,-2.63672 2.46093,-2.69531 2.46093,-6.91406 0,-4.6875 -2.34375,-7.38282 -2.28515,-2.7539 -5.91797,-2.7539 z m -8.49609,52.4414 q -3.10547,2.40235 -3.98437,3.63282 -0.82032,1.28906 -0.82032,2.8125 0,2.87109 4.6875,4.45312 4.6875,1.64063 12.01172,1.64063 5.33203,0 9.4336,-0.9375 4.10156,-0.9375 5.44921,-2.28516 0.87891,-0.87891 0.87891,-2.40234 0,-1.69922 -1.75781,-2.8711 -1.75781,-1.11328 -8.4961,-1.93359 z"
             id="path8796-1-5"
             inkscape:connector-curvature="0" />
          <path
             style="fill:#ff0000"
             d="m 295.25345,132.97072 q 4.45312,0 7.55859,3.16406 3.16406,3.10547 3.16406,7.55859 0,4.51172 -3.16406,7.67579 -3.10547,3.10546 -7.55859,3.10546 -4.45313,0 -7.61719,-3.10546 -3.10547,-3.16407 -3.10547,-7.61719 0,-4.39453 3.22266,-7.5586 3.22265,-3.22265 7.5,-3.22265 z"
             id="path8802-2-4"
             inkscape:connector-curvature="0" />
          <path
             d="m 304.74564,159.10353 v 43.30078 q 0,3.10547 0.35156,3.8086 0.35156,0.70312 1.23047,1.11328 0.9375,0.35156 4.10156,0.35156 h 3.16406 v 11.30859 h -36.21094 v -11.30859 h 3.10547 q 3.04688,0 3.86719,-0.29297 0.87891,-0.35156 1.28906,-1.11328 0.41016,-0.76172 0.41016,-3.04688 v -27.94921 h -8.67188 v -11.01563 q 4.62891,-0.23437 8.84766,-0.99609 4.27734,-0.76172 7.61719,-1.81641 2.16797,-0.70312 5.33203,-2.34375 z"
             id="path8798-5-6"
             inkscape:connector-curvature="0" />
        </g>
      </g>
      <path
         inkscape:connector-curvature="0"
         id="path8232-63-9"
         d="m 227.0545,572.04733 h 69.28571"
         style="fill:#000000;fill-rule:evenodd;stroke:#000000;stroke-width:6;stroke-linecap:butt;stroke-linejoin:miter;stroke-miterlimit:4;stroke-dasharray:none;stroke-opacity:1" />
      <path
         inkscape:connector-curvature="0"
         id="path8232-6-8-6"
         d="M 369.85036,572.04733 H 516.07865"
         style="fill:#000000;fill-rule:evenodd;stroke:#000000;stroke-width:6;stroke-linecap:butt;stroke-linejoin:miter;stroke-miterlimit:4;stroke-dasharray:none;stroke-opacity:1" />
      <g
         aria-label="Digital"
         transform="scale(1.022918,0.97759549)"
         style="font-style:normal;font-variant:normal;font-weight:600;font-stretch:normal;line-height:0%;font-family:'Bookman Old Style';-inkscape-font-specification:'Bookman Old Style, Semi-Bold';text-align:start;letter-spacing:0px;word-spacing:0px;writing-mode:lr-tb;text-anchor:start;fill:#000000;fill-opacity:1;stroke:none;stroke-width:1px;stroke-linecap:butt;stroke-linejoin:miter;stroke-opacity:1"
         id="text4188">
        <path
           d="m 408.4024,513.44342 h 8.03101 q 2.7356,0 4.35059,0.86792 1.61499,0.86792 2.5708,2.5708 0.96679,1.70288 0.96679,4.08692 0,1.65893 -0.49438,2.9663 -0.4834,1.30738 -1.4502,2.36206 -0.96679,1.04371 -2.07641,1.57105 -0.83496,0.39551 -2.37305,0.64819 -1.5271,0.25269 -2.44995,0.25269 h -7.0752 v -2.12036 h 0.52735 q 0.67016,0 0.8789,-0.10987 0.20875,-0.10986 0.34058,-0.37353 0.0879,-0.20874 0.0879,-0.91187 v -8.37158 q 0,-0.70312 -0.0989,-0.90088 -0.0879,-0.20874 -0.30761,-0.30761 -0.20874,-0.10987 -0.90088,-0.10987 h -0.52735 z m 5.60303,2.46094 v 9.52514 q 0,0.4834 0.0549,0.59327 0.0879,0.16479 0.25269,0.23071 0.17578,0.0549 0.82397,0.0549 1.80176,0 2.8125,-0.54932 1.02173,-0.5603 1.64795,-1.77978 0.62622,-1.23047 0.62622,-2.92236 0,-1.66993 -0.59326,-2.90039 -0.58227,-1.24146 -1.45019,-1.74683 -0.86792,-0.50537 -2.48291,-0.50537 z"
           style=""
           id="path862" />
        <path
           d="m 429.32037,512.64142 q 0.83496,0 1.41724,0.59326 0.59326,0.58228 0.59326,1.41724 0,0.84594 -0.59326,1.43921 -0.58228,0.58227 -1.41724,0.58227 -0.83496,0 -1.42822,-0.58227 -0.58227,-0.59327 -0.58227,-1.42823 0,-0.82397 0.60424,-1.41723 0.60425,-0.60425 1.40625,-0.60425 z m 1.77979,4.8999 v 8.1189 q 0,0.58227 0.0659,0.71411 0.0659,0.13183 0.23071,0.20874 0.17578,0.0659 0.76904,0.0659 h 0.59326 v 2.12036 h -6.78955 v -2.12036 h 0.58228 q 0.57129,0 0.7251,-0.0549 0.16479,-0.0659 0.2417,-0.20875 0.0769,-0.14282 0.0769,-0.57128 v -5.24048 h -1.62598 v -2.06543 q 0.86792,-0.0439 1.65894,-0.18677 0.802,-0.14282 1.42822,-0.34058 0.4065,-0.13183 0.99976,-0.43945 z"
           style=""
           id="path864" />
        <path
           d="m 442.49298,518.4422 q 0.58228,-0.82397 1.16455,-1.16455 0.58228,-0.35156 1.23047,-0.35156 0.64819,0 1.02173,0.38452 0.37353,0.37353 0.37353,0.96679 0,0.53833 -0.36254,0.90088 -0.35157,0.35157 -0.87891,0.35157 l -0.36255,-0.011 -0.37353,-0.011 q -0.29664,0 -0.59327,0.21973 0.60425,0.99976 0.60425,1.91162 0,0.9668 -0.60425,1.87866 -0.59326,0.91187 -1.65893,1.41724 -1.05469,0.50537 -2.53784,0.50537 -0.42847,0 -0.86792,-0.0439 -0.42847,-0.0549 -0.86792,-0.15381 -0.29663,0.18676 -0.45044,0.36255 -0.15381,0.17578 -0.15381,0.32959 0,0.34057 0.70312,0.43945 l 4.54834,0.64819 q 2.03247,0.28565 2.93335,1.08765 0.90088,0.81299 0.90088,1.93359 0,0.98877 -0.68115,1.82373 -0.68115,0.84595 -2.23023,1.38428 -1.53808,0.53833 -3.88916,0.53833 -2.06543,0 -3.41674,-0.40649 -1.35132,-0.39551 -1.92261,-1.01075 -0.5603,-0.60424 -0.5603,-1.15356 0,-0.62622 0.41748,-1.13159 0.42846,-0.49439 1.74682,-1.14258 -0.81299,-0.29663 -1.21948,-0.7251 -0.54932,-0.57129 -0.54932,-1.17554 0,-0.65918 0.50538,-1.29638 0.51635,-0.63721 1.53808,-1.26343 -0.57129,-0.35156 -0.90088,-0.75806 -0.3186,-0.41748 -0.52734,-1.01074 -0.19776,-0.59326 -0.19776,-1.21948 0,-1.64795 1.34034,-2.80151 1.35131,-1.15357 3.54858,-1.15357 0.97778,0 1.77979,0.23071 0.81298,0.21973 1.45019,0.67017 z m -3.12012,1.19751 q -0.70312,0 -1.16455,0.51636 -0.45044,0.51635 -0.45044,1.39526 0,0.81299 0.43946,1.29639 0.43945,0.4834 1.13159,0.4834 0.68115,0 1.13159,-0.49439 0.46143,-0.50537 0.46143,-1.29639 0,-0.8789 -0.43946,-1.38427 -0.42846,-0.51636 -1.10962,-0.51636 z m -1.59301,9.83276 q -0.58228,0.45044 -0.74707,0.68116 -0.15381,0.24169 -0.15381,0.52734 0,0.53833 0.8789,0.83496 0.87891,0.30762 2.2522,0.30762 0.99976,0 1.7688,-0.17578 0.76904,-0.17579 1.02173,-0.42847 0.16479,-0.1648 0.16479,-0.45044 0,-0.3186 -0.32959,-0.53833 -0.32959,-0.20874 -1.59301,-0.36255 z"
           style=""
           id="path866" />
        <path
           d="m 450.45807,512.64142 q 0.83496,0 1.41724,0.59326 0.59326,0.58228 0.59326,1.41724 0,0.84594 -0.59326,1.43921 -0.58228,0.58227 -1.41724,0.58227 -0.83496,0 -1.42822,-0.58227 -0.58228,-0.59327 -0.58228,-1.42823 0,-0.82397 0.60425,-1.41723 0.60425,-0.60425 1.40625,-0.60425 z m 1.77978,4.8999 v 8.1189 q 0,0.58227 0.0659,0.71411 0.0659,0.13183 0.23071,0.20874 0.17579,0.0659 0.76905,0.0659 h 0.59326 v 2.12036 h -6.78955 v -2.12036 h 0.58227 q 0.57129,0 0.7251,-0.0549 0.1648,-0.0659 0.2417,-0.20875 0.0769,-0.14282 0.0769,-0.57128 v -5.24048 h -1.62598 v -2.06543 q 0.86792,-0.0439 1.65893,-0.18677 0.80201,-0.14282 1.42823,-0.34058 0.40649,-0.13183 0.99975,-0.43945 z"
           style=""
           id="path868" />
        <path
           d="m 460.10406,514.03668 v 3.76831 h 3.5376 v 2.34009 h -3.5376 v 3.82324 q 0,1.29639 0.13184,1.66992 0.14282,0.36255 0.51636,0.58228 0.49438,0.29663 1.13159,0.29663 1.13159,0 2.2522,-0.73608 v 2.35107 q -0.95581,0.45044 -1.73584,0.63721 -0.76905,0.17578 -1.66992,0.17578 -1.02173,0 -1.81275,-0.25269 -0.78003,-0.26367 -1.34033,-0.73608 -0.54932,-0.4834 -0.76904,-1.02173 -0.20874,-0.53833 -0.20874,-1.56006 v -5.22949 h -1.64795 v -2.10937 q 0.8789,-0.28565 1.50512,-0.81299 0.62622,-0.53833 0.99976,-1.2854 0.38452,-0.74707 0.52734,-1.90064 z"
           style=""
           id="path870" />
        <path
           d="m 472.17804,522.12262 v -0.81299 q 0,-0.7251 -0.12085,-0.99975 -0.12085,-0.27466 -0.43945,-0.45044 -0.31861,-0.18677 -0.79102,-0.18677 -0.36255,0 -0.65918,0.12085 -0.29663,0.12085 -0.47241,0.30762 -0.17578,0.18676 -0.40649,0.72509 -0.29664,0.68116 -0.71412,0.97779 -0.40649,0.29663 -0.96679,0.29663 -0.70313,0 -1.15357,-0.43946 -0.45044,-0.43945 -0.45044,-1.08764 0,-0.73609 0.46143,-1.30738 0.61523,-0.75805 1.83472,-1.24145 1.21948,-0.4834 2.74658,-0.4834 1.5271,0 2.59277,0.49439 1.07666,0.49438 1.49414,1.18652 0.42847,0.68115 0.42847,2.0874 v 3.93311 q 0,0.72509 0.0769,0.93383 0.0769,0.19776 0.32959,0.35157 0.25269,0.15381 0.56031,0.15381 0.30761,0 0.82397,-0.17579 v 2.14234 q -0.93384,0.29663 -1.79077,0.29663 -1.01074,0 -1.72485,-0.32959 -0.71412,-0.32959 -1.19751,-0.98877 -1.09864,0.71411 -1.99952,1.02173 -0.88989,0.29663 -1.72485,0.29663 -1.57104,0 -2.53784,-0.87891 -0.9668,-0.88989 -0.9668,-2.18628 0,-0.73608 0.32959,-1.35131 0.34058,-0.61524 0.99976,-1.07666 0.67016,-0.46143 2.05444,-0.81299 1.39526,-0.36255 3.38379,-0.51636 z m 0,1.82373 q -1.43921,0.20874 -2.03247,0.42847 -0.59326,0.20874 -0.84595,0.53833 -0.25268,0.3186 -0.25268,0.65918 0,0.43945 0.32959,0.73608 0.32959,0.29663 0.88989,0.29663 0.36255,0 0.83496,-0.18677 0.4834,-0.18676 1.07666,-0.54931 z"
           style=""
           id="path872" />
        <path
           d="m 483.50494,512.64142 v 12.854 q 0,0.6482 0.0549,0.76905 0.0769,0.21972 0.34057,0.3186 0.1648,0.0659 0.88989,0.0659 h 0.38453 v 2.12036 h -6.80054 v -2.12036 h 0.41748 q 0.65918,0 0.84595,-0.0769 0.18676,-0.0879 0.27465,-0.26367 0.0879,-0.18677 0.0879,-0.81299 v -9.7998 h -1.62598 v -2.13135 q 1.96655,-0.13184 4.06494,-0.92285 z"
           style=""
           id="path874" />
      </g>
      <g
         aria-label="Gold"
         transform="scale(0.95977576,1.04191)"
         style="font-style:normal;font-variant:normal;font-weight:600;font-stretch:normal;line-height:0%;font-family:'Bookman Old Style';-inkscape-font-specification:'Bookman Old Style, Semi-Bold';text-align:start;letter-spacing:0px;word-spacing:0px;writing-mode:lr-tb;text-anchor:start;fill:#000000;fill-opacity:1;stroke:none;stroke-width:1px;stroke-linecap:butt;stroke-linejoin:miter;stroke-opacity:1"
         id="text4182">
        <path
           d="m 444.34531,510.71381 h 7.48169 v 2.14233 h -0.56031 q -0.54931,0 -0.75805,0.0989 -0.19776,0.0989 -0.29663,0.3186 -0.0989,0.20874 -0.0989,0.81299 v 4.80102 h -2.2522 l -0.58227,-1.09863 q -1.03272,0.68115 -2.14234,1.02173 -1.10962,0.34058 -2.30713,0.34058 -2.09839,0 -3.82324,-1.02173 -1.72485,-1.02173 -2.73559,-2.85645 -0.99976,-1.83471 -0.99976,-4.10888 0,-2.2522 0.98877,-4.03199 0.99975,-1.77978 2.77954,-2.80151 1.79077,-1.03272 3.87817,-1.03272 1.01075,0 2.0105,0.26368 1.01074,0.25268 1.72486,0.68115 l 0.40649,-0.68115 h 1.53809 l 1.38427,5.07568 -2.02148,0.65918 q -1.03272,-1.66992 -1.63696,-2.27417 -0.59327,-0.60425 -1.3733,-0.94482 -0.76904,-0.34058 -1.50512,-0.34058 -1.0437,0 -1.95557,0.60425 -0.90088,0.60425 -1.42822,1.7688 -0.52735,1.15356 -0.52735,2.80151 0,1.81274 0.57129,3.14209 0.58228,1.32935 1.51612,1.97754 0.93383,0.63721 2.05444,0.63721 0.79102,0 1.49414,-0.31861 0.71411,-0.3186 0.97778,-0.71411 0.26368,-0.39551 0.26368,-1.06567 v -0.56031 q 0,-0.58227 -0.0769,-0.73608 -0.12085,-0.21973 -0.32959,-0.3186 -0.19775,-0.0989 -0.79101,-0.0989 h -0.86792 z"
           style=""
           id="path853" />
        <path
           d="m 458.94614,507.65961 q 1.87866,0 3.27392,0.73608 1.39527,0.73608 2.14234,2.0105 0.75805,1.26343 0.75805,2.96631 0,2.5708 -1.66992,4.1748 -1.66992,1.60401 -4.46045,1.60401 -2.84546,0 -4.52637,-1.61499 -1.62597,-1.53809 -1.62597,-4.16382 0,-1.72486 0.73608,-2.96631 0.74707,-1.24146 2.15332,-1.98853 1.40625,-0.75805 3.219,-0.75805 z m 0.0439,2.406 q -0.62622,0 -1.17554,0.37354 -0.54931,0.37353 -0.85693,1.09863 -0.29663,0.7251 -0.29663,1.8457 0,1.15357 0.29663,1.91162 0.29663,0.75806 0.81299,1.12061 0.52734,0.36255 1.15356,0.36255 0.9668,0 1.65894,-0.81299 0.69214,-0.82397 0.69214,-2.54883 0,-1.66992 -0.6482,-2.50488 -0.6372,-0.84595 -1.63696,-0.84595 z"
           style=""
           id="path855" />
        <path
           d="m 471.73422,502.7597 v 12.85401 q 0,0.64819 0.0549,0.76904 0.0769,0.21973 0.34058,0.3186 0.1648,0.0659 0.88989,0.0659 h 0.38452 v 2.12036 h -6.80053 v -2.12036 h 0.41748 q 0.65918,0 0.84594,-0.0769 0.18677,-0.0879 0.27466,-0.26367 0.0879,-0.18677 0.0879,-0.81299 v -9.79981 h -1.62597 v -2.13134 q 1.96655,-0.13184 4.06494,-0.92286 z"
           style=""
           id="path857" />
        <path
           d="m 485.85165,502.7597 v 12.7771 q 0,0.75806 0.0659,0.92286 0.0659,0.1538 0.21973,0.23071 0.16479,0.0769 0.84595,0.0769 h 0.51635 v 2.12036 l -4.76806,0.1648 v -1.13159 q -1.03272,0.69214 -1.81275,0.96679 -0.78003,0.26368 -1.56006,0.26368 -1.26342,0 -2.3291,-0.68116 -1.05468,-0.69213 -1.73584,-2.04345 -0.67016,-1.35132 -0.67016,-2.99927 0,-1.66992 0.68115,-3.02124 0.69214,-1.36231 1.79077,-2.05444 1.10962,-0.69214 2.47192,-0.69214 0.70313,0 1.34034,0.17578 0.64819,0.16479 1.42822,0.59326 v -2.60376 h -1.604 v -2.13135 q 1.3623,-0.13183 2.20825,-0.32959 0.85693,-0.20874 1.8457,-0.60425 z m -3.51562,12.98584 v -3.68042 q 0,-0.69213 -0.0989,-0.97778 -0.13183,-0.40649 -0.60425,-0.71411 -0.46142,-0.30762 -1.03271,-0.30762 -0.59326,0 -1.09863,0.36255 -0.50537,0.35156 -0.80201,1.08765 -0.29663,0.73608 -0.29663,1.83471 0,1.5271 0.67017,2.44996 0.51636,0.72509 1.37329,0.72509 0.37354,0 0.71411,-0.12085 0.34058,-0.13183 1.17554,-0.65918 z"
           style=""
           id="path859" />
      </g>
      <g
         aria-label="Institute"
         transform="scale(0.95977576,1.04191)"
         style="font-style:normal;font-variant:normal;font-weight:600;font-stretch:normal;line-height:0%;font-family:'Bookman Old Style';-inkscape-font-specification:'Bookman Old Style, Semi-Bold';text-align:start;letter-spacing:0px;word-spacing:0px;writing-mode:lr-tb;text-anchor:start;fill:#000000;fill-opacity:1;stroke:none;stroke-width:1px;stroke-linecap:butt;stroke-linejoin:miter;stroke-opacity:1"
         id="text4176">
        <path
           d="m 435.27057,523.59827 h 7.4707 v 2.12036 h -0.68115 q -0.59326,0 -0.79102,0.10986 -0.18676,0.0989 -0.28564,0.32959 -0.0879,0.21973 -0.0879,0.85693 v 8.48145 q 0,0.69214 0.0769,0.88989 0.0769,0.19776 0.26368,0.28565 0.23071,0.13183 0.69213,0.13183 h 0.81299 v 2.12036 h -7.4707 v -2.12036 h 0.60425 q 0.64819,0 0.84594,-0.0879 0.19776,-0.0989 0.28565,-0.29663 0.0989,-0.20874 0.0989,-0.81299 v -8.5144 q 0,-0.71411 -0.0989,-0.93384 -0.0879,-0.23071 -0.30762,-0.35156 -0.15381,-0.0879 -0.74707,-0.0879 h -0.68115 z"
           style=""
           id="path834" />
        <path
           d="m 449.23419,527.69617 v 1.46118 q 1.24146,-0.84595 2.12036,-1.15357 0.8899,-0.30761 1.81275,-0.30761 1.06567,0 1.87866,0.45044 0.82397,0.45044 1.19751,1.13159 0.37353,0.67016 0.37353,1.91162 v 4.57031 q 0,0.58228 0.0769,0.74707 0.0879,0.1648 0.26367,0.2417 0.13184,0.0549 0.79102,0.0549 h 0.53833 v 2.12036 h -6.44898 v -2.12036 q 0.73609,-0.011 0.82398,-0.033 0.27465,-0.0769 0.36255,-0.25268 0.0879,-0.17578 0.0879,-0.75806 v -4.03198 q 0,-0.78003 -0.1648,-1.01074 -0.26367,-0.38452 -0.83496,-0.38452 -0.47241,0 -1.01074,0.20874 -0.53833,0.20874 -1.4502,0.85693 v 4.36157 q 0,0.71411 0.15381,0.87891 0.15381,0.16479 0.73608,0.16479 h 0.35157 v 2.12036 h -6.38306 v -2.12036 h 0.3186 q 0.75806,0 0.93384,-0.0659 0.18677,-0.0659 0.27466,-0.23072 0.0989,-0.16479 0.0989,-0.64819 v -5.11963 h -1.62598 v -2.12036 q 1.97754,-0.2417 3.70239,-0.92285 z"
           style=""
           id="path836" />
        <path
           d="m 467.09796,527.95984 h 1.43921 l 0.88989,3.0542 -2.07641,0.83496 q -0.59326,-0.95581 -1.49414,-1.49414 -0.8899,-0.54932 -1.7688,-0.54932 -0.58228,0 -0.86792,0.19776 -0.28565,0.19775 -0.28565,0.47241 0,0.23071 0.19776,0.42846 0.20874,0.19776 0.84594,0.41749 l 3.02124,1.07666 q 0.80201,0.28564 1.53809,0.71411 0.73608,0.42846 1.09863,1.05468 0.37354,0.61524 0.37354,1.4502 0,1.49414 -1.14258,2.44995 -1.34033,1.12061 -3.33984,1.12061 -1.71387,0 -2.98828,-0.86792 l -0.30762,0.60424 h -1.46118 l -1.35132,-3.60351 2.07641,-0.87891 q 0.78003,1.21948 1.92261,1.92261 1.14258,0.69214 2.09839,0.69214 0.59326,0 0.99976,-0.27466 0.30761,-0.21973 0.30761,-0.51636 0,-0.25268 -0.2417,-0.4834 -0.2417,-0.23071 -1.06567,-0.51635 l -2.37305,-0.82398 q -1.96655,-0.69214 -2.68066,-1.47217 -0.70313,-0.79101 -0.70313,-1.86767 0,-1.38428 1.10962,-2.3291 1.26343,-1.07666 3.12012,-1.07666 1.64795,0 2.82349,0.74707 z"
           style=""
           id="path838" />
        <path
           d="m 476.27155,524.19153 v 3.76831 h 3.53759 v 2.34009 h -3.53759 v 3.82324 q 0,1.29639 0.13183,1.66992 0.14282,0.36255 0.51636,0.58228 0.49438,0.29663 1.13159,0.29663 1.13159,0 2.2522,-0.73609 v 2.35108 q -0.95581,0.45044 -1.73584,0.6372 -0.76904,0.17579 -1.66992,0.17579 -1.02173,0 -1.81275,-0.25269 -0.78003,-0.26367 -1.34033,-0.73608 -0.54932,-0.4834 -0.76904,-1.02173 -0.20874,-0.53833 -0.20874,-1.56006 v -5.22949 h -1.64795 v -2.10938 q 0.8789,-0.28564 1.50512,-0.81299 0.62623,-0.53833 0.99976,-1.2854 0.38452,-0.74707 0.52734,-1.90063 z"
           style=""
           id="path840" />
        <path
           d="m 485.08258,522.79626 q 0.83496,0 1.41724,0.59327 0.59326,0.58227 0.59326,1.41723 0,0.84595 -0.59326,1.43921 -0.58228,0.58228 -1.41724,0.58228 -0.83496,0 -1.42822,-0.58228 -0.58228,-0.59326 -0.58228,-1.42822 0,-0.82398 0.60425,-1.41724 0.60425,-0.60425 1.40625,-0.60425 z m 1.77979,4.89991 v 8.11889 q 0,0.58228 0.0659,0.71411 0.0659,0.13184 0.23072,0.20875 0.17578,0.0659 0.76904,0.0659 h 0.59326 v 2.12036 h -6.78955 v -2.12036 h 0.58228 q 0.57128,0 0.72509,-0.0549 0.1648,-0.0659 0.2417,-0.20874 0.0769,-0.14282 0.0769,-0.57129 v -5.24048 h -1.62598 v -2.06543 q 0.86792,-0.0439 1.65894,-0.18676 0.802,-0.14283 1.42822,-0.34058 0.40649,-0.13184 0.99975,-0.43945 z"
           style=""
           id="path842" />
        <path
           d="m 494.72858,524.19153 v 3.76831 h 3.53759 v 2.34009 h -3.53759 v 3.82324 q 0,1.29639 0.13183,1.66992 0.14282,0.36255 0.51636,0.58228 0.49438,0.29663 1.13159,0.29663 1.13159,0 2.2522,-0.73609 v 2.35108 q -0.95581,0.45044 -1.73584,0.6372 -0.76904,0.17579 -1.66992,0.17579 -1.02173,0 -1.81275,-0.25269 -0.78003,-0.26367 -1.34033,-0.73608 -0.54932,-0.4834 -0.76904,-1.02173 -0.20874,-0.53833 -0.20874,-1.56006 v -5.22949 h -1.64795 v -2.10938 q 0.87891,-0.28564 1.50513,-0.81299 0.62622,-0.53833 0.99975,-1.2854 0.38452,-0.74707 0.52735,-1.90063 z"
           style=""
           id="path844" />
        <path
           d="m 499.90314,527.95984 5.13061,-0.0989 v 7.13013 q 0,0.75806 0.0879,1.01074 0.0989,0.25269 0.34058,0.41748 0.25268,0.15381 0.62622,0.15381 0.54932,0 1.16455,-0.26367 0.2417,-0.10987 1.2854,-0.78003 v -4.28467 q 0,-0.5603 -0.0879,-0.76904 -0.0879,-0.20874 -0.25269,-0.29663 -0.16479,-0.0989 -0.6372,-0.0989 h -0.63721 v -2.12036 l 5.1416,-0.0989 v 7.86621 q 0,0.61524 0.0659,0.78003 0.0769,0.15381 0.23071,0.23072 0.1648,0.0659 0.76905,0.0659 h 0.58227 v 2.12036 l -4.823,0.13184 v -1.29639 q -0.96679,0.71411 -1.94458,1.07666 -0.97778,0.35157 -1.96655,0.35157 -0.79101,0 -1.46118,-0.26368 -0.65918,-0.25268 -1.10962,-0.68115 -0.45044,-0.43945 -0.67017,-1.02173 -0.21972,-0.58227 -0.21972,-1.49414 v -4.52636 q 0,-0.62623 -0.0769,-0.79102 -0.0659,-0.16479 -0.23071,-0.2417 -0.16479,-0.0879 -0.70312,-0.0879 h -0.60425 z"
           style=""
           id="path846" />
        <path
           d="m 519.95319,524.19153 v 3.76831 h 3.53759 v 2.34009 h -3.53759 v 3.82324 q 0,1.29639 0.13183,1.66992 0.14282,0.36255 0.51636,0.58228 0.49438,0.29663 1.13159,0.29663 1.13159,0 2.2522,-0.73609 v 2.35108 q -0.95581,0.45044 -1.73584,0.6372 -0.76904,0.17579 -1.66992,0.17579 -1.02173,0 -1.81275,-0.25269 -0.78003,-0.26367 -1.34033,-0.73608 -0.54932,-0.4834 -0.76904,-1.02173 -0.20874,-0.53833 -0.20874,-1.56006 v -5.22949 h -1.64795 v -2.10938 q 0.8789,-0.28564 1.50513,-0.81299 0.62622,-0.53833 0.99975,-1.2854 0.38452,-0.74707 0.52734,-1.90063 z"
           style=""
           id="path848" />
        <path
           d="m 535.32306,534.85925 1.50513,1.51612 q -1.29639,1.48315 -2.64771,2.15332 -1.34033,0.65918 -2.90039,0.65918 -2.50488,0 -4.21875,-1.6919 -1.71387,-1.70288 -1.71387,-4.10889 0,-1.58203 0.76905,-2.8894 0.76904,-1.31836 2.13134,-2.05444 1.36231,-0.74707 3.08716,-0.74707 1.09863,0 1.99951,0.3186 0.90088,0.3186 1.57105,0.91187 0.68115,0.59326 1.08765,1.4392 0.41748,0.83497 0.57128,1.73584 0.0659,0.45044 0.0659,1.42823 h -7.3938 q 0.022,1.39526 0.81299,2.26318 0.802,0.85693 1.95557,0.85693 0.73608,0 1.604,-0.43945 0.86792,-0.45044 1.71387,-1.35132 z m -2.19727,-3.17505 q -0.0769,-0.65918 -0.3186,-1.03271 -0.23071,-0.38452 -0.63721,-0.60425 -0.3955,-0.23071 -0.83496,-0.23071 -0.46142,0 -0.88989,0.23071 -0.42847,0.23071 -0.69214,0.62622 -0.25268,0.39551 -0.32959,1.01074 z"
           style=""
           id="path850" />
      </g>
      <rect
         y="459.81046"
         x="214.21655"
         height="132.7413"
         width="315.66138"
         id="rect4550"
         style="fill:none;stroke:#000000;stroke-width:2.25870419;stroke-miterlimit:4;stroke-dasharray:none;stroke-opacity:1" />
    </g>
  </g>
</svg>
