<?xml version="1.0" encoding="utf-8"?>
<!-- Generator: Adobe Illustrator 17.0.0, SVG Export Plug-In . SVG Version: 6.00 Build 0)  -->
<!DOCTYPE svg PUBLIC "-//W3C//DTD SVG 1.1//EN" "http://www.w3.org/Graphics/SVG/1.1/DTD/svg11.dtd">
<svg version="1.1" id="Livello_1" xmlns="http://www.w3.org/2000/svg" xmlns:xlink="http://www.w3.org/1999/xlink" x="0px" y="0px"
	 width="250px" height="80px" viewBox="0 0 250 80" enable-background="new 0 0 250 80" xml:space="preserve">
<g>
	<path d="M88.231,24.716c-0.781,0.85-1.174,1.978-1.174,3.384v0.934h3.521c0.484,0,0.873,0.137,1.174,0.415
		c0.301,0.274,0.45,0.644,0.45,1.105c0,0.415-0.149,0.758-0.45,1.037c-0.301,0.274-0.69,0.415-1.174,0.415h-3.521v13.468
		c0,0.53-0.16,0.957-0.484,1.277c-0.32,0.324-0.77,0.484-1.345,0.484c-0.461,0-0.857-0.16-1.193-0.484
		c-0.332-0.32-0.499-0.747-0.499-1.277V32.006h-1.486c-0.484,0-0.873-0.137-1.174-0.415c-0.301-0.278-0.45-0.621-0.45-1.037
		c0-0.461,0.149-0.827,0.45-1.105c0.301-0.278,0.69-0.415,1.174-0.415h1.486v-0.587c0-1.635,0.328-3.068,0.983-4.299
		c0.655-1.231,1.578-2.184,2.763-2.866c1.185-0.678,2.538-1.017,4.055-1.017c0.507,0,0.926,0.149,1.261,0.45
		c0.332,0.301,0.499,0.678,0.499,1.139c0,0.461-0.168,0.838-0.499,1.139c-0.335,0.297-0.755,0.45-1.261,0.45
		C90.048,23.435,89.016,23.862,88.231,24.716"/>
	<path d="M107.178,43.412c0.934-0.564,1.662-1.334,2.191-2.313c0.53-0.979,0.793-2.077,0.793-3.296s-0.267-2.325-0.793-3.315
		c-0.53-0.991-1.261-1.764-2.191-2.332c-0.934-0.564-1.974-0.846-3.125-0.846s-2.191,0.286-3.125,0.846
		c-0.934,0.564-1.669,1.341-2.21,2.332c-0.541,0.991-0.812,2.096-0.812,3.315s0.271,2.321,0.812,3.296
		c0.541,0.979,1.277,1.749,2.21,2.313c0.934,0.564,1.974,0.846,3.125,0.846S106.249,43.976,107.178,43.412 M108.87,29.461
		c1.441,0.842,2.576,1.993,3.418,3.453c0.838,1.463,1.261,3.091,1.261,4.886v7.702c0,0.507-0.168,0.926-0.499,1.261
		c-0.335,0.332-0.755,0.499-1.258,0.499c-0.507,0-0.93-0.168-1.261-0.499c-0.335-0.335-0.499-0.755-0.499-1.261v-1.277
		c-0.808,0.991-1.784,1.761-2.934,2.313c-1.151,0.553-2.393,0.827-3.727,0.827c-1.658,0-3.159-0.415-4.508-1.242
		c-1.345-0.831-2.405-1.974-3.178-3.437c-0.77-1.463-1.159-3.091-1.159-4.886s0.415-3.426,1.242-4.886
		c0.827-1.46,1.974-2.61,3.437-3.453c1.463-0.838,3.079-1.261,4.851-1.261C105.829,28.199,107.434,28.622,108.87,29.461"/>
	<path d="M128.184,44.258c1.151,0,2.195-0.282,3.125-0.846c0.934-0.564,1.669-1.341,2.21-2.332c0.541-0.991,0.812-2.092,0.812-3.315
		c0-1.219-0.271-2.321-0.812-3.296c-0.541-0.979-1.277-1.749-2.21-2.313c-0.93-0.564-1.974-0.846-3.125-0.846
		c-1.151,0-2.191,0.282-3.125,0.846c-0.934,0.564-1.662,1.334-2.191,2.313c-0.53,0.979-0.793,2.077-0.793,3.296
		c0,1.219,0.267,2.325,0.793,3.315c0.53,0.991,1.261,1.768,2.191,2.332C125.993,43.976,127.033,44.258,128.184,44.258
		 M120.452,20.261c0.507,0,0.926,0.16,1.261,0.484c0.335,0.32,0.503,0.747,0.503,1.277v9.321c0.804-0.987,1.783-1.761,2.934-2.313
		c1.151-0.553,2.393-0.827,3.731-0.827c1.658,0,3.159,0.415,4.508,1.242c1.345,0.827,2.405,1.974,3.174,3.434
		c0.774,1.463,1.159,3.091,1.159,4.886s-0.415,3.426-1.242,4.886c-0.827,1.463-1.974,2.61-3.437,3.453
		c-1.46,0.838-3.079,1.261-4.851,1.261c-1.772,0-3.38-0.419-4.817-1.261c-1.441-0.842-2.58-1.989-3.418-3.453
		c-0.838-1.463-1.261-3.091-1.261-4.886V22.018c0-0.53,0.16-0.957,0.484-1.277C119.495,20.421,119.922,20.261,120.452,20.261"/>
	<path d="M147.086,32.551c-1.048,0.922-1.711,2.153-1.985,3.693h11.497c-0.206-1.543-0.781-2.774-1.726-3.693
		c-0.945-0.918-2.176-1.38-3.693-1.38C149.495,31.172,148.134,31.633,147.086,32.551 M159.327,38.576
		c-0.301,0.29-0.678,0.431-1.139,0.431h-13.121c0.255,1.612,0.983,2.912,2.191,3.902s2.687,1.482,4.44,1.482
		c0.69,0,1.41-0.126,2.157-0.381c0.747-0.252,1.364-0.564,1.848-0.934c0.324-0.252,0.701-0.381,1.139-0.381s0.781,0.114,1.037,0.347
		c0.415,0.347,0.621,0.736,0.621,1.174c0,0.415-0.187,0.758-0.553,1.037c-0.781,0.621-1.753,1.128-2.919,1.517
		c-1.162,0.393-2.275,0.587-3.331,0.587c-1.89,0-3.582-0.408-5.076-1.227c-1.498-0.816-2.664-1.951-3.506-3.399
		c-0.838-1.452-1.261-3.094-1.261-4.939c0-1.841,0.396-3.495,1.193-4.958c0.793-1.46,1.898-2.599,3.315-3.418
		c1.414-0.816,3.022-1.223,4.817-1.223c1.772,0,3.304,0.393,4.592,1.174c1.288,0.785,2.279,1.879,2.969,3.281
		c0.694,1.406,1.037,3.014,1.037,4.836C159.776,37.928,159.624,38.29,159.327,38.576"/>
	<path d="M176.643,28.687c0.69,0.37,1.037,0.827,1.037,1.38c0,0.16-0.011,0.278-0.034,0.347c-0.21,0.735-0.671,1.105-1.383,1.105
		c-0.114,0-0.29-0.023-0.518-0.069c-0.918-0.16-1.669-0.24-2.245-0.24c-1.658,0-2.992,0.381-4.005,1.139
		c-1.014,0.758-1.517,1.783-1.517,3.072v10.084c0,0.553-0.145,0.979-0.431,1.277c-0.29,0.301-0.72,0.45-1.296,0.45
		c-0.553,0-0.979-0.145-1.277-0.431c-0.301-0.286-0.45-0.716-0.45-1.296V30.07c0-0.553,0.149-0.979,0.45-1.277
		c0.297-0.297,0.724-0.45,1.277-0.45c1.151,0,1.726,0.575,1.726,1.726v0.655c0.69-0.808,1.543-1.441,2.553-1.902
		c1.014-0.461,2.096-0.69,3.247-0.69C174.997,28.134,175.954,28.317,176.643,28.687"/>
	<path fill="#FF9350" d="M190.987,44.258c1.151,0,2.195-0.282,3.125-0.846c0.934-0.564,1.669-1.341,2.21-2.332
		s0.812-2.092,0.812-3.315c0-1.219-0.271-2.321-0.812-3.296c-0.541-0.979-1.277-1.749-2.21-2.313
		c-0.93-0.564-1.974-0.846-3.125-0.846s-2.191,0.282-3.125,0.846c-0.934,0.564-1.662,1.334-2.191,2.313
		c-0.53,0.979-0.793,2.077-0.793,3.296c0,1.219,0.267,2.325,0.793,3.315c0.53,0.991,1.261,1.768,2.191,2.332
		C188.796,43.976,189.837,44.258,190.987,44.258 M183.255,20.261c0.507,0,0.926,0.16,1.261,0.484
		c0.335,0.32,0.503,0.747,0.503,1.277v9.321c0.804-0.987,1.783-1.761,2.934-2.313s2.393-0.827,3.731-0.827
		c1.658,0,3.159,0.415,4.504,1.242c1.349,0.827,2.405,1.974,3.174,3.434c0.774,1.463,1.158,3.091,1.158,4.886
		s-0.415,3.426-1.242,4.886c-0.827,1.463-1.974,2.61-3.437,3.453c-1.463,0.838-3.079,1.261-4.851,1.261
		c-1.772,0-3.38-0.419-4.817-1.261c-1.441-0.842-2.58-1.989-3.418-3.453c-0.838-1.463-1.261-3.091-1.261-4.886V22.018
		c0-0.53,0.16-0.957,0.484-1.277C182.299,20.421,182.725,20.261,183.255,20.261"/>
	<path fill="#FF9350" d="M209.889,32.551c-1.048,0.922-1.711,2.153-1.985,3.693h11.497c-0.206-1.543-0.781-2.774-1.726-3.693
		c-0.945-0.918-2.176-1.38-3.693-1.38C212.298,31.172,210.937,31.633,209.889,32.551 M222.13,38.576
		c-0.301,0.29-0.678,0.431-1.139,0.431H207.87c0.255,1.612,0.983,2.912,2.191,3.902c1.208,0.991,2.687,1.482,4.44,1.482
		c0.69,0,1.41-0.126,2.157-0.381c0.747-0.252,1.364-0.564,1.848-0.934c0.324-0.252,0.701-0.381,1.139-0.381
		c0.438,0,0.781,0.114,1.037,0.347c0.412,0.347,0.621,0.736,0.621,1.174c0,0.415-0.187,0.758-0.553,1.037
		c-0.781,0.621-1.753,1.128-2.919,1.517c-1.162,0.393-2.275,0.587-3.331,0.587c-1.89,0-3.582-0.408-5.076-1.227
		c-1.494-0.816-2.664-1.951-3.506-3.399c-0.838-1.452-1.261-3.094-1.261-4.939c0-1.841,0.396-3.495,1.193-4.958
		c0.793-1.46,1.898-2.599,3.315-3.418c1.414-0.816,3.022-1.223,4.817-1.223c1.772,0,3.304,0.393,4.592,1.174
		c1.288,0.785,2.279,1.879,2.969,3.281c0.694,1.406,1.037,3.014,1.037,4.836C222.58,37.928,222.427,38.29,222.13,38.576"/>
	<path fill="#FF9350" d="M231.554,32.551c-1.048,0.922-1.711,2.153-1.985,3.693h11.497c-0.206-1.543-0.781-2.774-1.726-3.693
		c-0.945-0.918-2.176-1.38-3.693-1.38C233.967,31.172,232.602,31.633,231.554,32.551 M243.795,38.576
		c-0.301,0.29-0.678,0.431-1.139,0.431h-13.121c0.255,1.612,0.983,2.912,2.191,3.902c1.208,0.991,2.687,1.482,4.44,1.482
		c0.69,0,1.41-0.126,2.157-0.381c0.747-0.252,1.364-0.564,1.848-0.934c0.324-0.252,0.701-0.381,1.139-0.381
		c0.438,0,0.781,0.114,1.037,0.347c0.415,0.347,0.621,0.736,0.621,1.174c0,0.415-0.187,0.758-0.553,1.037
		c-0.781,0.621-1.753,1.128-2.919,1.517c-1.162,0.393-2.275,0.587-3.331,0.587c-1.89,0-3.582-0.408-5.076-1.227
		c-1.494-0.816-2.664-1.951-3.506-3.399c-0.838-1.452-1.261-3.094-1.261-4.939c0-1.841,0.396-3.495,1.193-4.958
		c0.793-1.46,1.902-2.599,3.315-3.418c1.414-0.816,3.022-1.223,4.817-1.223c1.772,0,3.304,0.393,4.592,1.174
		c1.288,0.785,2.279,1.879,2.969,3.281c0.694,1.406,1.037,3.014,1.037,4.836C244.245,37.928,244.092,38.29,243.795,38.576"/>
	<path fill="#6E618A" d="M56.25,14.087H17.992c-3.735,0-6.787,3.056-6.787,6.787v38.258c0,3.735,3.053,6.787,6.787,6.787H56.25
		c3.735,0,6.787-3.056,6.787-6.787V20.875C63.037,17.144,59.984,14.087,56.25,14.087"/>
	<path fill="#FF7546" d="M7.897,45.177l-0.004-0.004c-2.851-2.851-2.851-7.469,0-10.316l0.019-0.019
		c2.851-2.851,7.469-2.851,10.316,0l0.004,0.004c2.851,2.851,2.851,7.469,0,10.316l-0.019,0.019
		C15.366,48.023,10.748,48.023,7.897,45.177"/>
	<path fill="#FF7546" d="M44.459,15.901c0,1.867-0.713,3.731-2.138,5.156l-0.011,0.023c-0.987,0.987-2.187,1.639-3.46,1.936h-0.034
		c-0.309,0.034-0.617,0.084-0.926,0.168c-0.011-0.011-0.023,0-0.034,0c-1.273,0.297-2.473,0.949-3.456,1.936l-0.023,0.023
		c-1.178,1.178-1.867,2.649-2.069,4.184h-0.011c-0.263,1.38-0.926,2.698-1.997,3.769l-0.023,0.023
		c-2.851,2.839-7.462,2.839-10.316,0l-0.011-0.011c-2.839-2.851-2.839-7.466,0-10.316l0.023-0.023
		c1.071-1.071,2.389-1.734,3.769-1.997V20.76c1.532-0.191,3.018-0.892,4.196-2.069l0.011-0.023c0.987-0.987,1.639-2.187,1.936-3.456
		V15.2c0.084-0.309,0.13-0.629,0.168-0.949v-0.034c0.297-1.273,0.949-2.473,1.936-3.456l0.023-0.011
		c2.851-2.851,7.466-2.851,10.316,0C43.746,12.171,44.459,14.038,44.459,15.901"/>
	<path fill="#FFAC49" d="M31.963,69.254l-0.004-0.004c-2.851-2.851-2.851-7.469,0-10.316l0.004-0.004
		c2.851-2.851,7.469-2.851,10.316,0l0.004,0.004c2.851,2.851,2.851,7.469,0,10.316l-0.004,0.004
		C39.432,72.101,34.813,72.101,31.963,69.254"/>
	<path fill="#FBE0B6" d="M66.528,45.291h-0.011c-1.071,1.071-2.389,1.734-3.769,2.008c-0.145,0.011-0.286,0.034-0.427,0.057
		c-1.38,0.274-2.698,0.937-3.769,2.008v0.011c-1.189,1.178-1.879,2.66-2.069,4.207h-0.011c-0.274,1.38-0.937,2.698-2.008,3.769
		h-0.011c-2.839,2.851-7.466,2.851-10.316,0c-2.851-2.851-2.851-7.477,0-10.316v-0.011c1.071-1.071,2.389-1.734,3.769-2.008v-0.023
		c1.532-0.191,3.018-0.892,4.196-2.069h0.011c1.071-1.071,1.734-2.389,1.997-3.769h0.023c0.202-1.532,0.892-3.007,2.069-4.184V34.96
		c2.851-2.839,7.466-2.839,10.316,0l0.011,0.011C69.371,37.829,69.371,42.44,66.528,45.291"/>
	<path fill="#FBE0B6" d="M44.005,33.138l-0.004-0.004c-2.851-2.851-2.851-7.469,0-10.316s7.469-2.851,10.316,0l0.004,0.004
		c2.851,2.851,2.851,7.469,0,10.316C51.475,35.989,46.856,35.989,44.005,33.138"/>
	<path fill="#FF9350" d="M44.459,39.967c0,1.879-0.713,3.731-2.138,5.156l-0.023,0.023c-0.998,0.998-2.21,1.654-3.495,1.947
		c-0.095,0.023-0.202,0.046-0.32,0.072c-0.202,0.046-0.404,0.072-0.606,0.095c-0.011-0.011-0.023,0-0.034,0
		c-1.273,0.297-2.473,0.949-3.46,1.936L34.36,49.22c-1.178,1.178-1.867,2.649-2.069,4.184v0.011h-0.023
		c-0.274,1.38-0.937,2.698-2.008,3.769l-0.011,0.011c-2.851,2.851-7.477,2.851-10.316,0H19.92c-2.839-2.854-2.839-7.466,0-10.316
		l0.023-0.023c1.071-1.071,2.389-1.734,3.78-1.997c1.532-0.191,3.018-0.915,4.196-2.092l0.011-0.023
		c0.987-0.987,1.642-2.187,1.936-3.456v-0.011c0.023-0.225,0.061-0.453,0.107-0.678c0.023-0.095,0.034-0.179,0.057-0.271
		c0.297-1.284,0.953-2.508,1.951-3.506l0.011-0.011c2.851-2.851,7.477-2.851,10.328,0C43.746,36.236,44.459,38.104,44.459,39.967"/>
	<path d="M86.451,60.946c0.29-0.168,0.511-0.396,0.675-0.694c0.16-0.297,0.244-0.633,0.244-1.006c0-0.373-0.084-0.709-0.244-1.006
		s-0.385-0.53-0.675-0.697c-0.286-0.168-0.61-0.255-0.972-0.255c-0.37,0-0.697,0.084-0.983,0.255
		c-0.286,0.168-0.511,0.4-0.675,0.697c-0.16,0.297-0.244,0.633-0.244,1.006c0,0.373,0.084,0.713,0.244,1.006
		c0.16,0.297,0.389,0.526,0.675,0.694c0.286,0.164,0.614,0.248,0.983,0.248C85.841,61.194,86.165,61.11,86.451,60.946
		 M86.817,56.968c0.393,0.221,0.705,0.53,0.926,0.926c0.225,0.396,0.335,0.846,0.335,1.353v1.909c0,0.499-0.111,0.953-0.332,1.357
		s-0.53,0.724-0.922,0.96c-0.393,0.232-0.838,0.351-1.33,0.351c-0.48,0-0.907-0.091-1.28-0.271c-0.377-0.179-0.69-0.434-0.945-0.758
		c-0.053-0.061-0.084-0.133-0.084-0.217c0-0.095,0.046-0.175,0.13-0.244c0.065-0.042,0.13-0.065,0.206-0.065
		c0.057,0,0.111,0.015,0.168,0.042c0.057,0.027,0.099,0.065,0.13,0.107c0.187,0.236,0.423,0.423,0.713,0.553
		c0.29,0.13,0.614,0.198,0.976,0.198c0.351,0,0.667-0.084,0.949-0.259c0.286-0.171,0.507-0.412,0.671-0.72s0.244-0.663,0.244-1.063
		v-0.419c-0.187,0.354-0.453,0.636-0.796,0.838c-0.343,0.206-0.732,0.305-1.17,0.305c-0.484,0-0.922-0.111-1.307-0.332
		c-0.385-0.221-0.682-0.53-0.899-0.926c-0.213-0.396-0.32-0.842-0.32-1.341c0-0.507,0.114-0.957,0.339-1.353
		c0.225-0.396,0.534-0.705,0.93-0.926c0.396-0.221,0.838-0.332,1.334-0.332C85.975,56.632,86.424,56.743,86.817,56.968"/>
	<path d="M92.827,56.727c0.152,0.069,0.229,0.168,0.229,0.29c0,0.038-0.004,0.065-0.008,0.084c-0.027,0.088-0.065,0.145-0.118,0.179
		c-0.053,0.03-0.126,0.046-0.221,0.046c-0.057,0-0.152-0.008-0.29-0.019c-0.05-0.004-0.126-0.008-0.225-0.008
		c-0.469,0-0.85,0.126-1.147,0.373c-0.297,0.248-0.442,0.572-0.442,0.972v2.801c0,0.114-0.03,0.198-0.095,0.263
		c-0.061,0.061-0.149,0.091-0.263,0.091c-0.111,0-0.198-0.03-0.263-0.091c-0.061-0.065-0.095-0.149-0.095-0.263v-4.409
		c0-0.114,0.03-0.198,0.095-0.263c0.065-0.061,0.149-0.095,0.263-0.095s0.202,0.03,0.263,0.095c0.065,0.061,0.095,0.149,0.095,0.263
		v0.412c0.179-0.263,0.412-0.465,0.69-0.61c0.282-0.145,0.583-0.213,0.907-0.213C92.465,56.625,92.67,56.659,92.827,56.727"/>
	<path d="M95.601,57.543c-0.29,0.168-0.518,0.4-0.682,0.697c-0.168,0.297-0.248,0.633-0.248,1.006c0,0.37,0.084,0.701,0.248,0.998
		c0.168,0.297,0.393,0.53,0.682,0.697c0.29,0.168,0.614,0.252,0.968,0.252c0.362,0,0.686-0.084,0.972-0.252
		c0.286-0.168,0.511-0.4,0.675-0.697c0.164-0.297,0.244-0.629,0.244-0.998c0-0.373-0.08-0.709-0.244-1.006
		c-0.16-0.297-0.385-0.53-0.675-0.697c-0.29-0.168-0.614-0.255-0.972-0.255C96.214,57.288,95.891,57.371,95.601,57.543
		 M97.899,56.971c0.393,0.225,0.705,0.537,0.934,0.937c0.229,0.4,0.339,0.846,0.339,1.338c0,0.492-0.111,0.937-0.335,1.334
		c-0.225,0.396-0.537,0.705-0.934,0.934c-0.396,0.225-0.838,0.335-1.334,0.335c-0.495,0-0.937-0.114-1.334-0.335
		c-0.396-0.225-0.705-0.537-0.93-0.934c-0.225-0.396-0.339-0.842-0.339-1.334s0.114-0.937,0.339-1.338
		c0.225-0.4,0.534-0.713,0.93-0.937c0.396-0.225,0.842-0.339,1.334-0.339C97.064,56.632,97.506,56.746,97.899,56.971"/>
	<path d="M105.433,56.781c0.069,0.065,0.103,0.152,0.103,0.259v4.402c0,0.107-0.034,0.194-0.103,0.263
		c-0.069,0.069-0.156,0.103-0.263,0.103s-0.194-0.034-0.259-0.103c-0.065-0.069-0.099-0.156-0.099-0.263v-0.32
		c-0.206,0.229-0.453,0.412-0.747,0.545c-0.293,0.13-0.61,0.198-0.957,0.198c-0.442,0-0.838-0.095-1.193-0.282
		s-0.629-0.461-0.827-0.819c-0.202-0.358-0.301-0.789-0.301-1.288V57.04c0-0.099,0.034-0.187,0.103-0.255
		c0.069-0.069,0.152-0.103,0.252-0.103c0.107,0,0.194,0.034,0.263,0.103c0.069,0.069,0.103,0.152,0.103,0.255v2.435
		c0,0.556,0.152,0.979,0.461,1.269c0.309,0.29,0.713,0.434,1.212,0.434c0.305,0,0.583-0.057,0.827-0.179
		c0.248-0.118,0.442-0.282,0.583-0.492c0.145-0.21,0.217-0.442,0.217-0.697V57.04c0-0.107,0.034-0.194,0.099-0.259
		c0.065-0.065,0.149-0.099,0.259-0.099C105.277,56.682,105.361,56.712,105.433,56.781"/>
	<path d="M111.153,56.907c0.351,0.187,0.629,0.461,0.827,0.819c0.198,0.358,0.301,0.789,0.301,1.288v2.435
		c0,0.099-0.034,0.183-0.103,0.252c-0.069,0.069-0.152,0.103-0.255,0.103c-0.107,0-0.194-0.034-0.263-0.103
		c-0.069-0.069-0.103-0.152-0.103-0.252v-2.435c0-0.556-0.156-0.979-0.465-1.269c-0.309-0.29-0.713-0.434-1.212-0.434
		c-0.305,0-0.583,0.061-0.827,0.179s-0.442,0.282-0.583,0.492c-0.145,0.21-0.217,0.442-0.217,0.697v2.771
		c0,0.107-0.034,0.191-0.099,0.255c-0.065,0.065-0.152,0.099-0.259,0.099s-0.194-0.034-0.263-0.099
		c-0.069-0.065-0.103-0.152-0.103-0.255v-4.402c0-0.107,0.034-0.194,0.103-0.263c0.069-0.069,0.156-0.103,0.263-0.103
		s0.191,0.034,0.259,0.103c0.065,0.069,0.099,0.156,0.099,0.263v0.32c0.206-0.232,0.453-0.412,0.747-0.541
		c0.293-0.13,0.614-0.198,0.957-0.198C110.402,56.625,110.799,56.72,111.153,56.907"/>
	<path d="M117.483,60.935c0.286-0.171,0.514-0.404,0.678-0.701c0.168-0.297,0.248-0.629,0.248-0.998
		c0-0.107-0.004-0.183-0.008-0.232c-0.004-0.011-0.008-0.027-0.008-0.046c-0.065-0.488-0.267-0.888-0.614-1.2
		c-0.347-0.312-0.766-0.469-1.261-0.469c-0.354,0-0.678,0.084-0.968,0.255c-0.29,0.168-0.518,0.4-0.682,0.697
		c-0.168,0.297-0.248,0.629-0.248,0.995c0,0.37,0.084,0.701,0.248,0.998c0.164,0.297,0.393,0.53,0.682,0.701
		c0.29,0.171,0.614,0.259,0.968,0.259C116.873,61.194,117.193,61.106,117.483,60.935 M119.122,57.036v2.199
		c0,0.488-0.114,0.93-0.339,1.33c-0.229,0.4-0.541,0.713-0.937,0.941c-0.396,0.229-0.838,0.343-1.322,0.343
		c-0.488,0-0.93-0.114-1.326-0.343c-0.396-0.229-0.709-0.541-0.937-0.941c-0.229-0.4-0.343-0.842-0.343-1.33
		c0-0.484,0.111-0.926,0.332-1.322c0.221-0.396,0.526-0.709,0.907-0.937c0.381-0.229,0.812-0.343,1.288-0.343
		c0.408,0,0.777,0.084,1.117,0.259c0.335,0.171,0.614,0.408,0.835,0.705v-2.744c0-0.107,0.034-0.194,0.103-0.263
		c0.069-0.069,0.156-0.103,0.263-0.103s0.191,0.034,0.259,0.103c0.065,0.069,0.099,0.156,0.099,0.263v2.096
		C119.118,56.971,119.122,56.998,119.122,57.036"/>
	<path d="M121.241,56.785c0.069-0.069,0.156-0.103,0.263-0.103s0.194,0.034,0.259,0.103c0.065,0.069,0.099,0.156,0.099,0.263v4.39
		c0,0.107-0.03,0.194-0.099,0.263c-0.065,0.069-0.149,0.103-0.259,0.103c-0.107,0-0.194-0.034-0.263-0.103
		c-0.069-0.069-0.103-0.156-0.103-0.263v-4.39C121.138,56.941,121.172,56.853,121.241,56.785 M121.858,54.826
		c0.099,0.095,0.149,0.217,0.149,0.366c0,0.145-0.053,0.267-0.149,0.366c-0.099,0.099-0.221,0.149-0.366,0.149
		s-0.263-0.05-0.358-0.149c-0.099-0.099-0.145-0.221-0.145-0.366c0-0.149,0.05-0.271,0.149-0.366
		c0.099-0.095,0.221-0.141,0.366-0.141C121.641,54.689,121.759,54.734,121.858,54.826"/>
	<path d="M127.559,56.907c0.351,0.187,0.629,0.461,0.827,0.819c0.198,0.358,0.301,0.789,0.301,1.288v2.435
		c0,0.099-0.034,0.183-0.103,0.252s-0.152,0.103-0.252,0.103c-0.107,0-0.194-0.034-0.263-0.103
		c-0.069-0.069-0.103-0.152-0.103-0.252v-2.435c0-0.556-0.156-0.979-0.465-1.269c-0.309-0.29-0.713-0.434-1.212-0.434
		c-0.305,0-0.583,0.061-0.827,0.179c-0.244,0.118-0.442,0.282-0.583,0.492c-0.145,0.21-0.217,0.442-0.217,0.697v2.771
		c0,0.107-0.034,0.191-0.099,0.255c-0.065,0.065-0.152,0.099-0.259,0.099s-0.194-0.034-0.263-0.099
		c-0.069-0.065-0.103-0.152-0.103-0.255v-4.402c0-0.107,0.034-0.194,0.103-0.263c0.069-0.069,0.156-0.103,0.263-0.103
		s0.191,0.034,0.259,0.103c0.065,0.069,0.099,0.156,0.099,0.263v0.32c0.206-0.232,0.453-0.412,0.747-0.541
		c0.293-0.13,0.614-0.198,0.957-0.198C126.808,56.625,127.208,56.72,127.559,56.907"/>
	<path d="M133.893,60.946c0.29-0.168,0.511-0.396,0.675-0.694c0.16-0.297,0.244-0.633,0.244-1.006c0-0.373-0.084-0.709-0.244-1.006
		s-0.385-0.53-0.675-0.697c-0.286-0.168-0.61-0.255-0.972-0.255c-0.37,0-0.697,0.084-0.983,0.255
		c-0.286,0.168-0.511,0.4-0.675,0.697c-0.16,0.297-0.244,0.633-0.244,1.006c0,0.373,0.084,0.713,0.244,1.006
		c0.164,0.297,0.389,0.526,0.675,0.694c0.286,0.164,0.614,0.248,0.983,0.248C133.283,61.194,133.607,61.11,133.893,60.946
		 M134.259,56.968c0.393,0.221,0.705,0.53,0.926,0.926c0.225,0.396,0.335,0.846,0.335,1.353v1.909c0,0.499-0.111,0.953-0.332,1.357
		s-0.53,0.724-0.922,0.96c-0.393,0.232-0.838,0.351-1.33,0.351c-0.48,0-0.907-0.091-1.28-0.271c-0.373-0.179-0.69-0.434-0.945-0.758
		c-0.057-0.061-0.084-0.133-0.084-0.217c0-0.095,0.046-0.175,0.13-0.244c0.065-0.042,0.13-0.065,0.206-0.065
		c0.057,0,0.111,0.015,0.168,0.042c0.057,0.027,0.099,0.065,0.13,0.107c0.187,0.236,0.423,0.423,0.713,0.553
		c0.29,0.13,0.614,0.198,0.976,0.198c0.351,0,0.667-0.084,0.949-0.259c0.286-0.171,0.507-0.412,0.671-0.72
		c0.164-0.309,0.244-0.663,0.244-1.063v-0.419c-0.187,0.354-0.453,0.636-0.796,0.838c-0.343,0.206-0.732,0.305-1.17,0.305
		c-0.484,0-0.922-0.111-1.307-0.332s-0.682-0.53-0.899-0.926c-0.213-0.396-0.32-0.842-0.32-1.341c0-0.507,0.114-0.957,0.339-1.353
		c0.225-0.396,0.534-0.705,0.93-0.926c0.396-0.221,0.838-0.332,1.334-0.332C133.42,56.632,133.866,56.743,134.259,56.968"/>
	<path d="M142.273,61.194c0.354,0,0.678-0.084,0.968-0.255c0.29-0.171,0.518-0.408,0.686-0.701c0.164-0.297,0.248-0.629,0.248-0.998
		c0-0.37-0.084-0.701-0.248-0.998c-0.168-0.297-0.393-0.53-0.686-0.697c-0.29-0.168-0.614-0.255-0.968-0.255
		c-0.492,0-0.915,0.156-1.258,0.469c-0.347,0.312-0.553,0.713-0.614,1.197c0,0.019-0.004,0.034-0.008,0.046
		c-0.008,0.05-0.008,0.126-0.008,0.232c0,0.37,0.08,0.701,0.248,0.998c0.168,0.297,0.393,0.53,0.682,0.701
		C141.595,61.106,141.918,61.194,142.273,61.194 M139.681,56.952v-2.096c0-0.107,0.03-0.194,0.099-0.263
		c0.065-0.069,0.149-0.103,0.259-0.103c0.107,0,0.194,0.034,0.263,0.103c0.069,0.069,0.103,0.156,0.103,0.263V57.6
		c0.217-0.301,0.495-0.534,0.835-0.705s0.709-0.259,1.117-0.259c0.473,0,0.903,0.114,1.288,0.343
		c0.385,0.229,0.686,0.541,0.907,0.937c0.221,0.396,0.332,0.838,0.332,1.322s-0.114,0.93-0.343,1.33s-0.541,0.713-0.937,0.941
		c-0.396,0.229-0.838,0.343-1.326,0.343c-0.484,0-0.926-0.114-1.322-0.343c-0.396-0.229-0.709-0.541-0.937-0.941
		c-0.229-0.4-0.343-0.842-0.343-1.33V57.04C139.67,56.998,139.674,56.971,139.681,56.952"/>
	<path d="M146.575,54.59c0.069-0.065,0.152-0.099,0.255-0.099c0.107,0,0.194,0.034,0.259,0.099c0.065,0.065,0.099,0.152,0.099,0.259
		v5.339c0,0.267,0.057,0.484,0.164,0.655c0.111,0.168,0.248,0.252,0.419,0.252h0.232c0.095,0,0.168,0.034,0.225,0.099
		s0.084,0.152,0.084,0.259c0,0.107-0.038,0.191-0.118,0.259c-0.076,0.065-0.179,0.099-0.305,0.099h-0.118
		c-0.381,0-0.694-0.152-0.934-0.453c-0.24-0.301-0.358-0.69-0.358-1.166v-5.339C146.472,54.738,146.507,54.654,146.575,54.59"/>
	<path d="M150.832,57.543c-0.29,0.168-0.518,0.4-0.686,0.697c-0.164,0.297-0.248,0.633-0.248,1.006c0,0.37,0.084,0.701,0.248,0.998
		c0.168,0.297,0.393,0.53,0.686,0.697c0.29,0.168,0.614,0.252,0.968,0.252c0.362,0,0.686-0.084,0.972-0.252
		c0.29-0.168,0.511-0.4,0.675-0.697c0.164-0.297,0.244-0.629,0.244-0.998c0-0.373-0.08-0.709-0.244-1.006
		c-0.16-0.297-0.385-0.53-0.675-0.697c-0.29-0.168-0.614-0.255-0.972-0.255C151.446,57.288,151.122,57.371,150.832,57.543
		 M153.13,56.971c0.393,0.225,0.705,0.537,0.934,0.937c0.229,0.4,0.339,0.846,0.339,1.338c0,0.492-0.111,0.937-0.335,1.334
		s-0.537,0.705-0.934,0.934c-0.396,0.225-0.842,0.335-1.334,0.335c-0.495,0-0.937-0.114-1.334-0.335
		c-0.396-0.225-0.705-0.537-0.93-0.934c-0.225-0.396-0.339-0.842-0.339-1.334s0.114-0.937,0.339-1.338
		c0.225-0.4,0.534-0.713,0.93-0.937c0.396-0.225,0.842-0.339,1.334-0.339C152.296,56.632,152.738,56.746,153.13,56.971"/>
	<path d="M160.207,57.532c0.05,0.057,0.076,0.122,0.076,0.198c0,0.099-0.053,0.187-0.16,0.263c-0.057,0.038-0.118,0.057-0.179,0.057
		c-0.095,0-0.183-0.046-0.271-0.141c-0.187-0.206-0.393-0.358-0.617-0.465c-0.225-0.103-0.476-0.152-0.747-0.152
		c-0.343,0-0.652,0.084-0.918,0.248c-0.267,0.164-0.473,0.396-0.621,0.697c-0.145,0.301-0.221,0.636-0.221,1.01
		c0,0.37,0.076,0.701,0.236,0.998c0.156,0.297,0.373,0.53,0.655,0.697c0.278,0.168,0.602,0.252,0.964,0.252
		c0.499,0,0.903-0.133,1.208-0.404c0.08-0.069,0.164-0.103,0.255-0.103c0.076,0,0.145,0.027,0.206,0.076
		c0.088,0.076,0.13,0.16,0.13,0.255c0,0.08-0.03,0.149-0.091,0.206c-0.45,0.419-1.018,0.629-1.703,0.629
		c-0.484,0-0.926-0.114-1.311-0.343c-0.389-0.229-0.69-0.541-0.915-0.937c-0.221-0.396-0.332-0.838-0.332-1.322
		c0-0.499,0.107-0.949,0.316-1.345c0.213-0.396,0.507-0.705,0.88-0.934c0.373-0.225,0.796-0.335,1.265-0.335
		C159.083,56.636,159.719,56.933,160.207,57.532"/>
	<path d="M165.897,61.502c0,0.095-0.046,0.179-0.13,0.255c-0.076,0.057-0.149,0.084-0.225,0.084c-0.099,0-0.187-0.046-0.255-0.13
		l-1.928-2.367l-0.701,0.636v1.471c0,0.107-0.034,0.191-0.099,0.255c-0.065,0.065-0.152,0.099-0.259,0.099
		c-0.107,0-0.191-0.034-0.255-0.099c-0.065-0.065-0.099-0.149-0.099-0.255v-6.6c0-0.107,0.034-0.194,0.099-0.259
		s0.149-0.099,0.255-0.099c0.107,0,0.194,0.034,0.259,0.099c0.065,0.065,0.099,0.152,0.099,0.259v4.261l2.641-2.386
		c0.069-0.061,0.145-0.095,0.225-0.095c0.095,0,0.171,0.038,0.236,0.114c0.069,0.08,0.103,0.156,0.103,0.225
		c0,0.088-0.038,0.168-0.122,0.236l-1.871,1.696l1.947,2.397C165.87,61.35,165.897,61.422,165.897,61.502"/>
	<path d="M171.438,57.532c0.05,0.057,0.076,0.122,0.076,0.198c0,0.099-0.053,0.187-0.16,0.263c-0.057,0.038-0.118,0.057-0.179,0.057
		c-0.095,0-0.183-0.046-0.271-0.141c-0.187-0.206-0.393-0.358-0.617-0.465c-0.225-0.103-0.476-0.152-0.747-0.152
		c-0.343,0-0.652,0.084-0.918,0.248c-0.267,0.164-0.473,0.396-0.621,0.697c-0.145,0.301-0.221,0.636-0.221,1.01
		c0,0.37,0.08,0.701,0.236,0.998c0.156,0.297,0.373,0.53,0.655,0.697c0.278,0.168,0.602,0.252,0.964,0.252
		c0.499,0,0.899-0.133,1.208-0.404c0.08-0.069,0.164-0.103,0.255-0.103c0.076,0,0.145,0.027,0.206,0.076
		c0.088,0.076,0.13,0.16,0.13,0.255c0,0.08-0.03,0.149-0.091,0.206c-0.45,0.419-1.018,0.629-1.703,0.629
		c-0.484,0-0.926-0.114-1.311-0.343c-0.389-0.229-0.69-0.541-0.915-0.937c-0.221-0.396-0.332-0.838-0.332-1.322
		c0-0.499,0.107-0.949,0.316-1.345c0.213-0.396,0.507-0.705,0.88-0.934c0.373-0.225,0.796-0.335,1.265-0.335
		C170.317,56.636,170.95,56.933,171.438,57.532"/>
	<path d="M176.796,56.907c0.351,0.187,0.629,0.461,0.827,0.819c0.198,0.358,0.301,0.789,0.301,1.288v2.435
		c0,0.099-0.034,0.183-0.103,0.252c-0.069,0.069-0.152,0.103-0.251,0.103c-0.107,0-0.194-0.034-0.263-0.103
		c-0.069-0.069-0.103-0.152-0.103-0.252v-2.435c0-0.556-0.156-0.979-0.465-1.269s-0.713-0.434-1.212-0.434
		c-0.305,0-0.583,0.061-0.827,0.179s-0.442,0.282-0.583,0.492c-0.145,0.21-0.217,0.442-0.217,0.697v2.771
		c0,0.107-0.034,0.191-0.099,0.255c-0.065,0.065-0.152,0.099-0.259,0.099c-0.107,0-0.194-0.034-0.263-0.099
		c-0.069-0.065-0.103-0.152-0.103-0.255v-6.593c0-0.107,0.034-0.194,0.103-0.263c0.069-0.069,0.156-0.103,0.263-0.103
		s0.191,0.034,0.259,0.103c0.065,0.069,0.099,0.156,0.099,0.263v2.508c0.206-0.232,0.453-0.412,0.747-0.541
		c0.293-0.13,0.614-0.198,0.957-0.198C176.045,56.625,176.445,56.72,176.796,56.907"/>
	<path d="M183.126,60.942c0.286-0.168,0.514-0.4,0.678-0.697c0.168-0.297,0.248-0.629,0.248-0.998c0-0.37-0.084-0.701-0.248-0.998
		c-0.164-0.297-0.393-0.53-0.678-0.701c-0.29-0.171-0.61-0.259-0.964-0.259c-0.354,0-0.678,0.088-0.968,0.259
		c-0.29,0.171-0.518,0.408-0.686,0.701c-0.164,0.297-0.248,0.629-0.248,0.998c0,0.37,0.084,0.701,0.248,0.998
		c0.168,0.297,0.393,0.53,0.686,0.697c0.29,0.168,0.614,0.252,0.968,0.252C182.516,61.194,182.836,61.11,183.126,60.942
		 M183.484,56.975c0.396,0.229,0.709,0.541,0.937,0.941c0.229,0.4,0.339,0.842,0.339,1.33v2.199c0,0.099-0.034,0.183-0.103,0.252
		c-0.069,0.069-0.156,0.103-0.263,0.103c-0.107,0-0.194-0.034-0.263-0.099c-0.069-0.065-0.103-0.149-0.103-0.255v-0.56
		c-0.217,0.301-0.495,0.534-0.835,0.705c-0.339,0.171-0.709,0.259-1.117,0.259c-0.473,0-0.903-0.114-1.288-0.343
		c-0.385-0.229-0.686-0.541-0.907-0.934c-0.221-0.396-0.332-0.838-0.332-1.326c0-0.488,0.114-0.93,0.343-1.33
		c0.229-0.4,0.541-0.713,0.934-0.941c0.396-0.229,0.838-0.343,1.326-0.343S183.087,56.746,183.484,56.975"/>
	<path d="M186.731,56.785c0.069-0.069,0.156-0.103,0.263-0.103c0.107,0,0.194,0.034,0.259,0.103
		c0.065,0.069,0.099,0.156,0.099,0.263v4.39c0,0.107-0.03,0.194-0.099,0.263c-0.065,0.069-0.149,0.103-0.259,0.103
		c-0.107,0-0.194-0.034-0.263-0.103c-0.069-0.069-0.103-0.156-0.103-0.263v-4.39C186.628,56.941,186.658,56.853,186.731,56.785
		 M187.348,54.826c0.099,0.095,0.149,0.217,0.149,0.366c0,0.145-0.05,0.267-0.149,0.366s-0.221,0.149-0.366,0.149
		c-0.145,0-0.263-0.05-0.358-0.149c-0.099-0.099-0.145-0.221-0.145-0.366c0-0.149,0.05-0.271,0.149-0.366
		c0.099-0.095,0.221-0.141,0.366-0.141C187.127,54.689,187.249,54.734,187.348,54.826"/>
	<path d="M193.045,56.907c0.351,0.187,0.629,0.461,0.827,0.819c0.198,0.358,0.301,0.789,0.301,1.288v2.435
		c0,0.099-0.034,0.183-0.103,0.252c-0.069,0.069-0.156,0.103-0.255,0.103c-0.107,0-0.194-0.034-0.263-0.103
		s-0.103-0.152-0.103-0.252v-2.435c0-0.556-0.156-0.979-0.465-1.269c-0.309-0.29-0.713-0.434-1.212-0.434
		c-0.305,0-0.583,0.061-0.827,0.179c-0.244,0.118-0.442,0.282-0.583,0.492c-0.145,0.21-0.217,0.442-0.217,0.697v2.771
		c0,0.107-0.034,0.191-0.099,0.255c-0.065,0.065-0.152,0.099-0.259,0.099s-0.194-0.034-0.263-0.099
		c-0.069-0.065-0.103-0.152-0.103-0.255v-4.402c0-0.107,0.034-0.194,0.103-0.263c0.069-0.069,0.156-0.103,0.263-0.103
		c0.107,0,0.191,0.034,0.259,0.103c0.065,0.069,0.099,0.156,0.099,0.263v0.32c0.206-0.232,0.453-0.412,0.747-0.541
		c0.293-0.13,0.614-0.198,0.957-0.198C192.298,56.625,192.695,56.72,193.045,56.907"/>
	<path d="M201.357,56.846c0.305,0.141,0.553,0.335,0.739,0.587c0.053,0.08,0.076,0.152,0.076,0.213c0,0.107-0.05,0.191-0.149,0.252
		c-0.046,0.03-0.103,0.046-0.179,0.046c-0.13,0-0.24-0.046-0.328-0.141c-0.305-0.351-0.724-0.522-1.254-0.522
		c-0.343,0-0.617,0.069-0.823,0.21c-0.206,0.141-0.309,0.316-0.309,0.53c0,0.225,0.099,0.404,0.29,0.537
		c0.194,0.133,0.537,0.24,1.029,0.324c0.667,0.114,1.147,0.297,1.433,0.549c0.286,0.252,0.431,0.564,0.431,0.941
		c0,0.29-0.088,0.545-0.255,0.77c-0.172,0.225-0.412,0.4-0.716,0.522c-0.305,0.126-0.652,0.187-1.04,0.187
		c-0.389,0-0.758-0.065-1.113-0.198c-0.354-0.133-0.644-0.316-0.861-0.553c-0.061-0.076-0.095-0.149-0.095-0.217
		c0-0.107,0.05-0.198,0.149-0.282c0.076-0.057,0.152-0.084,0.236-0.084c0.107,0,0.198,0.042,0.271,0.13
		c0.149,0.175,0.347,0.309,0.594,0.404c0.248,0.091,0.518,0.141,0.819,0.141c0.438,0,0.766-0.076,0.983-0.225
		c0.217-0.149,0.332-0.347,0.339-0.591c0-0.225-0.111-0.412-0.328-0.564c-0.217-0.149-0.564-0.263-1.04-0.335
		c-0.614-0.099-1.067-0.274-1.372-0.518c-0.301-0.248-0.454-0.545-0.454-0.896c0-0.457,0.175-0.808,0.53-1.059
		c0.351-0.248,0.793-0.373,1.322-0.373C200.69,56.632,201.048,56.705,201.357,56.846"/>
	<path d="M205.229,57.543c-0.29,0.168-0.518,0.4-0.682,0.697c-0.168,0.297-0.248,0.633-0.248,1.006c0,0.37,0.084,0.701,0.248,0.998
		c0.168,0.297,0.393,0.53,0.682,0.697c0.29,0.168,0.614,0.252,0.968,0.252c0.362,0,0.686-0.084,0.972-0.252
		c0.286-0.168,0.511-0.4,0.675-0.697c0.164-0.297,0.244-0.629,0.244-0.998c0-0.373-0.08-0.709-0.244-1.006
		c-0.16-0.297-0.385-0.53-0.675-0.697c-0.29-0.168-0.614-0.255-0.972-0.255C205.842,57.288,205.518,57.371,205.229,57.543
		 M207.527,56.971c0.393,0.225,0.705,0.537,0.934,0.937c0.229,0.4,0.339,0.846,0.339,1.338c0,0.492-0.111,0.937-0.335,1.334
		s-0.537,0.705-0.934,0.934c-0.396,0.225-0.838,0.335-1.334,0.335s-0.937-0.114-1.334-0.335c-0.396-0.225-0.705-0.537-0.93-0.934
		c-0.225-0.396-0.339-0.842-0.339-1.334s0.114-0.937,0.339-1.338s0.534-0.713,0.93-0.937c0.396-0.225,0.842-0.339,1.334-0.339
		C206.688,56.632,207.134,56.746,207.527,56.971"/>
	<path d="M210.495,54.59c0.069-0.065,0.152-0.099,0.255-0.099c0.107,0,0.194,0.034,0.259,0.099c0.065,0.065,0.099,0.152,0.099,0.259
		v5.339c0,0.267,0.057,0.484,0.164,0.655c0.111,0.168,0.248,0.252,0.419,0.252h0.232c0.095,0,0.168,0.034,0.225,0.099
		c0.057,0.065,0.084,0.152,0.084,0.259c0,0.107-0.038,0.191-0.118,0.259c-0.076,0.065-0.179,0.099-0.305,0.099h-0.118
		c-0.381,0-0.694-0.152-0.934-0.453s-0.358-0.69-0.358-1.166v-5.339C210.396,54.738,210.431,54.654,210.495,54.59"/>
	<path d="M217.953,56.781c0.069,0.065,0.103,0.152,0.103,0.259v4.402c0,0.107-0.034,0.194-0.103,0.263
		c-0.069,0.069-0.156,0.103-0.263,0.103c-0.107,0-0.194-0.034-0.259-0.103c-0.065-0.069-0.099-0.156-0.099-0.263v-0.32
		c-0.206,0.229-0.453,0.412-0.747,0.545c-0.293,0.13-0.61,0.198-0.957,0.198c-0.442,0-0.838-0.095-1.193-0.282
		c-0.354-0.187-0.629-0.461-0.827-0.819c-0.202-0.358-0.301-0.789-0.301-1.288V57.04c0-0.099,0.034-0.187,0.103-0.255
		c0.069-0.069,0.152-0.103,0.252-0.103c0.107,0,0.194,0.034,0.263,0.103s0.103,0.152,0.103,0.255v2.435
		c0,0.556,0.152,0.979,0.461,1.269c0.309,0.29,0.713,0.434,1.212,0.434c0.305,0,0.583-0.057,0.827-0.179
		c0.248-0.118,0.442-0.282,0.583-0.492c0.145-0.21,0.217-0.442,0.217-0.697V57.04c0-0.107,0.034-0.194,0.099-0.259
		c0.065-0.065,0.149-0.099,0.259-0.099C217.797,56.682,217.885,56.712,217.953,56.781"/>
	<path d="M222.564,61.182c0.061,0.069,0.095,0.156,0.095,0.263c0,0.099-0.038,0.183-0.114,0.252
		c-0.076,0.069-0.168,0.103-0.278,0.103h-0.198c-0.328,0-0.625-0.08-0.888-0.24c-0.263-0.16-0.469-0.373-0.614-0.644
		c-0.149-0.271-0.221-0.579-0.221-0.922v-2.5h-0.61c-0.099,0-0.179-0.03-0.24-0.088c-0.057-0.061-0.088-0.133-0.088-0.221
		c0-0.095,0.031-0.168,0.088-0.229c0.061-0.057,0.137-0.088,0.24-0.088h0.61v-1.452c0-0.107,0.03-0.194,0.099-0.263
		c0.065-0.069,0.149-0.103,0.259-0.103c0.107,0,0.194,0.034,0.263,0.103c0.069,0.069,0.103,0.156,0.103,0.263v1.452h1.059
		c0.099,0,0.179,0.03,0.236,0.088c0.057,0.061,0.088,0.137,0.088,0.229c0,0.088-0.031,0.16-0.088,0.221
		c-0.057,0.057-0.137,0.088-0.236,0.088h-1.059v2.5c0,0.32,0.095,0.579,0.282,0.781c0.187,0.202,0.427,0.305,0.72,0.305h0.255
		C222.423,61.079,222.504,61.118,222.564,61.182"/>
	<path d="M224.276,56.785c0.069-0.069,0.156-0.103,0.263-0.103c0.107,0,0.194,0.034,0.259,0.103
		c0.065,0.069,0.099,0.156,0.099,0.263v4.39c0,0.107-0.03,0.194-0.099,0.263c-0.065,0.069-0.149,0.103-0.259,0.103
		c-0.107,0-0.194-0.034-0.263-0.103c-0.069-0.069-0.103-0.156-0.103-0.263v-4.39C224.173,56.941,224.207,56.853,224.276,56.785
		 M224.893,54.826c0.099,0.095,0.149,0.217,0.149,0.366c0,0.145-0.053,0.267-0.149,0.366c-0.099,0.099-0.221,0.149-0.366,0.149
		c-0.145,0-0.263-0.05-0.358-0.149c-0.099-0.099-0.145-0.221-0.145-0.366c0-0.149,0.05-0.271,0.149-0.366s0.221-0.141,0.366-0.141
		C224.676,54.689,224.794,54.734,224.893,54.826"/>
	<path d="M228.311,57.543c-0.29,0.168-0.518,0.4-0.682,0.697s-0.248,0.633-0.248,1.006c0,0.37,0.084,0.701,0.248,0.998
		c0.168,0.297,0.393,0.53,0.682,0.697c0.29,0.168,0.614,0.252,0.968,0.252c0.362,0,0.686-0.084,0.972-0.252
		c0.29-0.168,0.511-0.4,0.675-0.697c0.164-0.297,0.244-0.629,0.244-0.998c0-0.373-0.08-0.709-0.244-1.006
		c-0.16-0.297-0.385-0.53-0.675-0.697c-0.29-0.168-0.614-0.255-0.972-0.255S228.597,57.371,228.311,57.543 M230.609,56.971
		c0.393,0.225,0.705,0.537,0.934,0.937c0.229,0.4,0.339,0.846,0.339,1.338c0,0.492-0.111,0.937-0.335,1.334
		s-0.537,0.705-0.934,0.934c-0.396,0.225-0.842,0.335-1.334,0.335c-0.495,0-0.937-0.114-1.334-0.335
		c-0.396-0.225-0.705-0.537-0.93-0.934c-0.225-0.396-0.339-0.842-0.339-1.334s0.114-0.937,0.339-1.338s0.534-0.713,0.93-0.937
		c0.396-0.225,0.842-0.339,1.334-0.339C229.771,56.632,230.213,56.746,230.609,56.971"/>
	<path d="M237.214,56.907c0.351,0.187,0.629,0.461,0.827,0.819c0.198,0.358,0.301,0.789,0.301,1.288v2.435
		c0,0.099-0.034,0.183-0.103,0.252s-0.152,0.103-0.255,0.103c-0.107,0-0.194-0.034-0.263-0.103
		c-0.069-0.069-0.103-0.152-0.103-0.252v-2.435c0-0.556-0.156-0.979-0.465-1.269c-0.309-0.29-0.713-0.434-1.212-0.434
		c-0.305,0-0.583,0.061-0.827,0.179s-0.442,0.282-0.583,0.492c-0.145,0.21-0.217,0.442-0.217,0.697v2.771
		c0,0.107-0.034,0.191-0.099,0.255c-0.065,0.065-0.152,0.099-0.259,0.099c-0.107,0-0.194-0.034-0.263-0.099
		c-0.069-0.065-0.103-0.152-0.103-0.255v-4.402c0-0.107,0.034-0.194,0.103-0.263c0.069-0.069,0.156-0.103,0.263-0.103
		s0.191,0.034,0.259,0.103c0.065,0.069,0.099,0.156,0.099,0.263v0.32c0.206-0.232,0.454-0.412,0.747-0.541
		c0.293-0.13,0.614-0.198,0.957-0.198C236.463,56.625,236.859,56.72,237.214,56.907"/>
	<path d="M243.04,56.846c0.305,0.141,0.553,0.335,0.739,0.587c0.053,0.08,0.076,0.152,0.076,0.213c0,0.107-0.05,0.191-0.149,0.252
		c-0.046,0.03-0.103,0.046-0.179,0.046c-0.13,0-0.24-0.046-0.328-0.141c-0.305-0.351-0.724-0.522-1.254-0.522
		c-0.343,0-0.617,0.069-0.823,0.21c-0.206,0.141-0.309,0.316-0.309,0.53c0,0.225,0.099,0.404,0.29,0.537
		c0.194,0.133,0.537,0.24,1.029,0.324c0.667,0.114,1.147,0.297,1.433,0.549c0.286,0.252,0.431,0.564,0.431,0.941
		c0,0.29-0.088,0.545-0.255,0.77c-0.171,0.225-0.412,0.4-0.716,0.522c-0.305,0.126-0.652,0.187-1.04,0.187
		c-0.389,0-0.758-0.065-1.113-0.198c-0.354-0.133-0.644-0.316-0.861-0.553c-0.061-0.076-0.095-0.149-0.095-0.217
		c0-0.107,0.05-0.198,0.149-0.282c0.076-0.057,0.152-0.084,0.236-0.084c0.107,0,0.198,0.042,0.271,0.13
		c0.149,0.175,0.347,0.309,0.594,0.404c0.248,0.091,0.518,0.141,0.819,0.141c0.438,0,0.766-0.076,0.983-0.225
		c0.217-0.149,0.332-0.347,0.339-0.591c0-0.225-0.111-0.412-0.328-0.564c-0.217-0.149-0.564-0.263-1.04-0.335
		c-0.614-0.099-1.067-0.274-1.372-0.518c-0.305-0.244-0.454-0.545-0.454-0.896c0-0.457,0.175-0.808,0.53-1.059
		c0.351-0.248,0.793-0.373,1.322-0.373C242.374,56.632,242.732,56.705,243.04,56.846"/>
</g>
</svg>
